<!-- Generator: Adobe Illustrator 25.0.0, SVG Export Plug-In  -->
<svg version="1.1" xmlns="http://www.w3.org/2000/svg" xmlns:xlink="http://www.w3.org/1999/xlink" x="0px" y="0px" width="639.3px"
	 height="53.2px" viewBox="0 0 639.3 53.2" style="overflow:visible;enable-background:new 0 0 639.3 53.2;" xml:space="preserve">
<style type="text/css">
	.st0{fill:#FFBC0D;}
</style>
<defs>
</defs>
<g>
	<g>
		<g>
			<path class="st0" d="M312,10.6c-1.1,3-2.9,6.1-5.5,9.3s-5,5.6-7.3,7.2c-0.4-0.6-0.9-1.2-1.7-2c-0.7-0.8-1.4-1.4-1.9-2
				c2.2-1.3,4.6-3.3,6.9-6.1c2.4-2.7,4-5.4,4.8-7.9l4.9,1.1L312,10.6z M335,22.2c-1.1,1.6-1.9,3.1-2.7,4.5c-1.8-1.1-3.5-2.4-5-3.8
				l-0.1,1.3c0,2.7,0,5.1-0.1,7.2c-0.1,2.1-0.2,3.9-0.4,5.5c-0.2,1.6-0.5,2.9-1,4c-0.6,1.4-1.8,2.4-3.5,3.1c-1.7,0.7-4,1-6.9,1
				c-0.1-0.5-0.4-1.3-0.7-2.5c-0.4-1.2-0.7-2.1-1-3c1.3,0.3,2.5,0.5,3.6,0.5c1.2,0,2.1-0.2,2.7-0.5c0.6-0.3,1.1-0.8,1.5-1.5
				c0.1-0.1,0.1-0.4,0.3-0.7s0.2-1.2,0.4-2.4s0.2-3.7,0.3-7.6h-7c-0.2,2.1-0.6,4-1.3,5.8c-0.7,1.8-1.7,3.5-3,5.1s-2.8,2.9-4.5,4.1
				c-1.8,1.2-3.8,2.2-6,3c-0.4-0.5-1-1.2-1.8-2.1c-0.8-0.9-1.4-1.6-1.9-2.1c4-1,7.2-2.7,9.6-5.1c2.4-2.4,3.7-5.3,4.1-8.7h-3.7
				c-1.2,0-2.1,0-2.6,0v-4.6c0.5,0,1.4,0,2.6,0h20.3c-1.6-1.5-3.1-3.2-4.5-5.2c-1.4-1.9-2.5-3.9-3.5-5.9h-4.3l-1.9,0v-4l1.9,0h7.9
				c0.8,2.5,2.4,5.2,4.7,7.9C329.8,18.5,332.3,20.7,335,22.2z"/>
			<path class="st0" d="M373,33.5c1.9,0,3.2,0,3.9-0.1v4.1c-0.7-0.1-2-0.1-3.9-0.1h-11.3c0.1,0.8,0.2,1.5,0.2,2.2
				c0,1-0.1,1.8-0.4,2.5c-0.2,0.7-0.6,1.3-1.2,1.8s-1.3,0.8-2.2,1.1c-0.9,0.2-2.1,0.4-3.4,0.4c-1.4,0-2.6-0.1-3.7-0.2
				c-0.3-0.9-0.8-2.4-1.5-4.4c1.3,0.2,2.6,0.2,3.9,0.2c0.7,0,1.4,0,2.1-0.1c0.6-0.1,1.1-0.3,1.4-0.5s0.4-0.6,0.4-1.1
				c0-0.7,0-1.3-0.1-1.8h-14c-1.9,0-3.2,0-3.9,0.1v-4.1c0.7,0.1,2,0.1,3.9,0.1h12.1c-0.2-0.2-0.5-0.5-0.9-1l3.3-0.4
				c2.1-0.6,4.1-1.3,6.3-2.1h-18c-1.4,0-2.4,0-3,0.1v-3.7c0.6,0.1,1.6,0.1,3,0.1h23.8l0.3-0.2c1.4,0.9,2.6,1.7,3.7,2.5
				c-0.1,0-0.1,0.1-0.2,0.1c-0.1,0-0.4,0.2-1,0.4c-1.2,0.7-2.7,1.4-4.4,2.2c-1.7,0.8-3.4,1.5-5,2.1H373z M372.8,14.4h-29.6
				c-1.9,0-3.2,0-3.9,0.1v-4.2c0.7,0.1,2,0.1,3.9,0.1h12.4c-0.4-0.9-0.8-1.7-1.2-2.4l4.6-1c0.6,1,1.1,2.1,1.7,3.4h12.1
				c1.9,0,3.1,0,3.8-0.1v4.2C376,14.4,374.7,14.4,372.8,14.4z M370.5,16.2l0,1.1v6.2l0,1.1h-24.6c0.1-0.4,0.1-0.8,0.1-1.1v-6.2
				c0-0.3,0-0.7-0.1-1.1H370.5z M350.6,21.4h15.2v-2h-15.2V21.4z"/>
			<path class="st0" d="M411.6,31.4c0,0.9-0.1,1.9-0.4,3c-0.3,1.1-0.8,2.2-1.6,3.2s-1.7,2-2.9,2.8c-1.2,0.8-2.5,1.5-4,2
				s-3,0.9-4.5,1.1c-1.5,0.2-2.8,0.3-4,0.3c-1.9,0-3.8-0.1-5.7-0.4c-1.9-0.3-3.7-0.7-5.4-1.2l0.4-7.1c1.8,0.7,3.5,1.2,5.3,1.6
				c1.8,0.4,3.4,0.6,4.9,0.6c1,0,2-0.1,3.1-0.3s2.1-0.5,3.1-1s1.7-1.2,2.3-2c0.6-0.9,0.9-1.9,0.9-3.2c0-4.3-3.8-6.4-11.4-6.4
				l-2.1,0.1v-6.3l2,0.1c7.5,0,11.2-2,11.2-6.1c0-1.4-0.4-2.6-1.3-3.5c-0.9-0.9-1.9-1.5-3.2-1.8c-1.3-0.3-2.4-0.5-3.6-0.5
				c-1.7,0-3.4,0.2-5,0.5c-1.7,0.4-3.2,0.9-4.7,1.5l-0.6-6.6c1.6-0.6,3.5-1.1,5.5-1.4c2-0.3,4-0.4,6-0.4c2.3,0,4.4,0.3,6.3,0.8
				c1.9,0.5,3.5,1.2,4.8,2.2c1.3,1,2.3,2.1,3,3.5c0.7,1.4,1,2.9,1,4.6c0,1.3-0.2,2.6-0.7,3.7c-0.5,1.1-1.1,2.1-2,3
				c-0.9,0.8-2,1.5-3.2,2c-1.2,0.5-2.6,0.9-4.1,1.1V21c0.7,0.1,1.6,0.2,2.5,0.5c0.9,0.2,1.8,0.6,2.8,1.1c0.9,0.5,1.8,1.1,2.6,1.9
				c0.8,0.8,1.5,1.8,2,3C411.3,28.6,411.6,30,411.6,31.4z"/>
			<path class="st0" d="M432.9,28.2c-1.2,2-2.7,3.8-4.4,5.3c-1.8,1.5-3.6,2.8-5.6,3.7c-0.2-0.3-0.7-0.8-1.2-1.5
				c-0.6-0.7-1.3-1.5-2.2-2.5c1.4-0.5,2.7-1.2,3.9-2c1.2-0.8,2.3-1.8,3.3-2.8c0.9-1,1.7-2,2.3-3.1l4.4,2.4L432.9,28.2z M452.8,19.6
				c1.9,0,3.2,0,3.9,0V24c-0.7-0.1-2-0.1-3.9-0.1h-29.3c-1.9,0-3.2,0-3.9,0.1v-4.4c0.7,0,2,0,3.9,0h2.7v-8.8c0-0.4,0-0.8-0.1-1.3
				c0.6,0,1.4,0,2.5,0.1c1.1,0,1.9,0.1,2.3,0.1l-0.1,1.1v8.8h5.2V8.4L436,7c3,0.1,4.7,0.2,5,0.2c-0.1,0.4-0.1,0.8-0.1,1.2v3.1h9.8
				l2,0v4.2l-2,0h-9.8v4H452.8z M440.9,35.6c1.9-1.2,3.4-2.6,4.7-4.2c1.3-1.6,2.2-3.5,2.9-5.6l4.7,2l-0.2,0.3
				c-1.1,2.7-2.5,5-4.2,7.1c-1.7,2-3.8,3.7-6.3,5.1c-2.5,1.4-5.4,2.5-8.8,3.3c-3.4,0.8-7.3,1.4-11.7,1.6c-0.1-0.4-0.3-1-0.7-1.9
				s-0.8-1.8-1.2-2.8c4.3-0.2,8.1-0.7,11.4-1.4c3.3-0.7,6.1-1.7,8.5-3H436c0.1-0.4,0.1-1,0.1-1.8v-8.6c0-0.4,0-0.8-0.1-1.2
				c0.6,0,1.4,0,2.5,0.1c1.1,0,1.9,0.1,2.4,0.1l-0.1,1.1v8.5C440.8,35,440.9,35.4,440.9,35.6z"/>
			<path class="st0" d="M462.4,32.1l2.4,0.6c0.1,1.3,0.1,2.8,0,4.4c0,1.6-0.1,3.1-0.3,4.6c-0.2,1.4-0.3,2.6-0.5,3.6l-2.5-1.4
				c0.4-1.5,0.7-3.4,0.8-5.6S462.5,34,462.4,32.1z M485.6,40l-2.5,2.9c-0.5-1.1-1.2-2.3-2.2-3.7c-0.5,0.9-1,1.8-1.7,2.6
				s-1.3,1.5-2,2.1c-0.2-0.3-0.6-0.7-1-1.2c-0.4-0.5-0.9-0.9-1.3-1.4l-0.1,0.4c-0.3,1.1-0.9,1.9-1.7,2.4c-0.9,0.6-2,0.9-3.5,0.9
				c-0.1-0.3-0.3-1-0.6-2.2c-0.4-1.2-0.6-1.9-0.6-2c0.6,0.3,1.1,0.4,1.5,0.4c0.5,0,0.8-0.1,1.1-0.4c0.3-0.3,0.5-0.7,0.6-1.2
				c0.1-0.6,0.2-1.4,0.3-2.6l-0.9,0.2c0-0.4-0.1-1-0.2-1.7c-0.1-0.7-0.2-1.4-0.4-2.1c-0.1-0.6-0.2-1.1-0.3-1.4l1.2-0.2
				c0.3,1.1,0.5,2.2,0.7,3.2c0-0.8,0-2.3,0-4.5h-9.2c0.1-0.7,0.1-1.3,0.1-1.8V10.4c0-0.5,0-1.1-0.1-1.8H473l1.7,0v3.6l-1.7,0h-1.2
				v2.8h0.5l1.6,0v3.3l-1.6,0h-0.5v2.6h0.5l1.6,0v3.3l-1.6,0h-0.5v3h3.6l-0.1,1.1c0,3.4,0,6-0.1,8.1s-0.2,3.6-0.3,4.6
				c0.7-0.5,1.3-1.1,1.9-1.8c0.6-0.7,1.1-1.4,1.5-2.2c0.4-0.8,0.7-1.6,1-2.4c0.2-0.8,0.3-1.7,0.3-2.5v-0.9l3.4,0.3l-0.2,0.6
				c0,1.1-0.2,2.4-0.5,3.7c0.5,0.6,1.1,1.3,1.7,2.1C484.6,38.4,485.2,39.2,485.6,40z M465.1,32.7l1.8-0.3c0.2,1.1,0.3,2.3,0.4,3.8
				c0.1,1.5,0.2,2.8,0.2,3.8c0,1,0,1.7,0,2.1l-2.1,0.3c0.1-0.7,0.1-1.8,0.1-3.2c0-1.4-0.1-2.6-0.2-3.8
				C465.3,34.2,465.2,33.3,465.1,32.7z M468.8,12.1h-2.5v2.8h2.5V12.1z M468.8,20.7v-2.6h-2.5v2.6H468.8z M466.4,26.9h2.5v-3h-2.5
				V26.9z M470.3,39l-1.9,0.4c0-1-0.1-2.1-0.3-3.5c-0.2-1.4-0.4-2.5-0.6-3.5l1.7-0.4c0.2,0.7,0.4,1.7,0.7,3.1S470.2,37.7,470.3,39z
				 M476.6,21.5V12l-1,0V8.7l1.8,0h9l1.7,0V12l-1.2,0v12.1c0,0.7,0,1.3,0.1,1.6h-3.5c0.1-0.3,0.1-0.8,0.1-1.5l-6.7,0.8l-1.6,0.2
				l-0.7-3.7H476.6L476.6,21.5z M495.8,35.7c0.6,0.9,1.3,1.7,2.1,2.5c0.8,0.7,1.6,1.4,2.4,1.9l-2.1,3.6c-1.3-1.1-2.5-2.5-3.7-4.2
				c-0.4,0.7-0.8,1.4-1.3,2s-1,1.2-1.5,1.7c-0.2-0.2-0.8-0.9-1.9-2.2v2.5c0,0.7,0,1.3,0.1,1.6h-4.3c0.1-0.3,0.1-0.8,0.1-1.6V29.5
				c-3.1,0.4-5.6,0.7-7.6,0.8c-0.3-1.2-0.7-2.3-1.1-3.4c1.5-0.1,3.4-0.2,5.6-0.4c2.2-0.2,4.4-0.5,6.4-0.8c2.1-0.3,3.8-0.7,5.1-1.1
				l2.8,3.2l-0.7,0.1c-1.5,0.3-3.6,0.6-6.4,1v10.5c0.7-0.7,1.2-1.5,1.7-2.5c0.5-1,0.8-2,1-3.1c0.2-1.1,0.2-2,0.2-2.9v-0.9l3.6,0.3
				c-0.1,0.2-0.1,0.4-0.1,0.6c0,0.8,0,1.6-0.1,2.4C496.1,34.2,495.9,35,495.8,35.7z M483.6,13.5V12h-3.6v1.5H483.6z M479.9,15.9v1.4
				h3.6v-1.4H479.9z M479.9,19.7v1.6c1.2,0,2.4-0.1,3.6-0.2v-1.4H479.9z M490.8,13.2c0.8,0.6,2,1.6,3.6,3c0.8-1.1,1.3-2.4,1.6-3.7
				h-5.7l-1.5,0V8.8l1.5,0h6.3l0.3-0.3c1.2,1,2.2,1.9,3.1,2.8l-0.5,0.2c-0.1,1-0.3,2-0.6,3c-0.3,1-0.6,1.8-1,2.6
				c-0.4,0.7-0.7,1.3-0.9,1.6c1.2,1.3,2.2,2.4,2.8,3.2l-2.1,3.6c-0.4-0.6-0.9-1.3-1.5-2.1c-0.6-0.8-1.2-1.5-1.5-1.9
				c-0.7,0.7-1.6,1.4-2.6,2s-2,1.2-2.9,1.6c-0.2-0.4-0.4-1.1-0.8-1.9c-0.4-0.8-0.7-1.5-1-2.1c0.7-0.3,1.6-0.6,2.4-1.1
				c0.9-0.5,1.6-1,2.3-1.5c-1.2-1.2-2.4-2.3-3.3-3.1L490.8,13.2z"/>
		</g>
		<g>
			<g>
				<path class="st0" d="M71.8,41.7V7.2H81v34.6H71.8z"/>
				<path class="st0" d="M87.9,24.4c0-3.5,0.7-6.7,2-9.4c1.3-2.7,3.3-4.8,5.9-6.4c2.6-1.5,5.7-2.3,9.5-2.3c4.1,0,7.5,1.1,10.1,3.2
					c2.6,2.1,4.4,5.1,5.3,9H111c-0.9-3.8-2.9-5.7-5.9-5.7c-2.6,0-4.5,1-5.8,3.1c-1.3,2.1-2,4.9-2,8.5c0,3.6,0.7,6.4,2,8.5
					c1.3,2.1,3.2,3.1,5.8,3.1c1.8,0,3.3-0.5,4.6-1.5c1.2-1,2-2.5,2.5-4.6h-6.3v-6.4h15.4v2.2c0,2.2-0.3,4.4-1,6.4s-1.6,3.8-3,5.4
					c-1.3,1.6-3,2.8-5.1,3.7c-2,0.9-4.4,1.4-7.2,1.4c-3.6,0-6.7-0.8-9.2-2.3c-2.5-1.5-4.5-3.7-5.8-6.4C88.6,31.2,87.9,28,87.9,24.4z
					"/>
				<path class="st0" d="M152.4,42.5c-4.4,0-7.8-1-10.3-2.9c-2.5-1.9-4-4.7-4.4-8.4h9c0.3,2,1,3.4,2.1,4.2c1.1,0.8,2.4,1.2,3.8,1.2
					c1.6,0,2.8-0.4,3.6-1.2c0.8-0.8,1.1-1.6,1.1-2.5c0-1.1-0.3-2-0.9-2.7c-0.6-0.8-1.6-1.3-3-1.7l-5.7-1.5c-3-0.8-5.2-1.9-6.7-3.5
					c-1.5-1.6-2.2-3.9-2.2-6.8c0-2.2,0.6-4.1,1.8-5.6s2.8-2.7,4.8-3.5c2-0.8,4.2-1.2,6.7-1.2c4.1,0,7.3,1,9.6,2.9
					c2.3,1.9,3.7,4.7,4.2,8.2h-8.9c-0.2-1.6-0.7-2.8-1.6-3.7c-0.9-0.9-2-1.4-3.5-1.4c-1.3,0-2.3,0.3-3,1c-0.7,0.7-1.1,1.6-1.1,2.6
					c0,2,1.2,3.3,3.5,3.9l5.4,1.4c2.6,0.7,4.6,1.5,6,2.6c1.4,1,2.4,2.2,2.9,3.6c0.5,1.3,0.8,2.8,0.8,4.4c0,3.3-1.2,6-3.6,7.8
					C160.2,41.6,156.8,42.5,152.4,42.5z"/>
				<path class="st0" d="M182.7,42.4c-3.2,0-5.5-0.9-7-2.7c-1.5-1.8-2.3-4-2.3-6.7V21.4H170v-5.7h3.4V8.4h8.8v7.3h6.1v5.7h-6.1v11.5
					c0,1.1,0.3,2,0.8,2.5c0.5,0.6,1.2,0.8,2.1,0.8c0.5,0,1-0.1,1.5-0.2c0.5-0.1,1-0.3,1.5-0.5l1.3,5.4c-0.8,0.4-1.8,0.8-3,1
					C185.1,42.3,183.9,42.4,182.7,42.4z"/>
				<path class="st0" d="M206.1,42.4c-2.8,0-5.2-0.6-7.2-1.8s-3.6-2.8-4.6-4.9c-1.1-2-1.6-4.4-1.6-7c0-2.6,0.5-4.9,1.6-7
					c1.1-2,2.6-3.7,4.6-4.9s4.4-1.8,7.2-1.8s5.2,0.6,7.2,1.8s3.6,2.8,4.6,4.9c1.1,2,1.6,4.4,1.6,7c0,2.6-0.5,4.9-1.6,7
					c-1.1,2-2.6,3.7-4.6,4.9S208.9,42.4,206.1,42.4z M206.1,36.7c1.4,0,2.5-0.7,3.2-2.1c0.8-1.4,1.2-3.4,1.2-5.9
					c0-2.5-0.4-4.4-1.2-5.9c-0.8-1.4-1.8-2.1-3.2-2.1c-1.4,0-2.5,0.7-3.2,2.1c-0.8,1.4-1.2,3.4-1.2,5.9c0,2.5,0.4,4.4,1.2,5.9
					C203.7,36,204.7,36.7,206.1,36.7z"/>
				<path class="st0" d="M225.4,41.7v-26h7.7l0.4,4.5c0.4-1.2,1.2-2.4,2.3-3.4c1.1-1,2.6-1.5,4.4-1.5c0.3,0,0.6,0,0.9,0.1
					c0.2,0,0.5,0.1,0.7,0.1v8.1c-0.2-0.1-0.5-0.1-0.9-0.2c-0.4-0.1-0.8-0.1-1.2-0.1c-1.6,0-2.9,0.5-3.9,1.5c-1,1-1.5,2.5-1.5,4.5
					v12.4H225.4z"/>
				<path class="st0" d="M243.9,51.9l1.8-5.4c1.1,0.4,2.1,0.7,3.1,0.7c0.8,0,1.5-0.2,2.1-0.7c0.6-0.5,1.3-1.5,1.9-2.9l1-2.3
					l-10.1-25.6h9.1l5,16.4l4.8-16.4h8.5l-11,28.2c-1.2,3.2-2.7,5.5-4.3,7c-1.7,1.5-3.6,2.3-6,2.3c-1.2,0-2.3-0.1-3.3-0.3
					C245.5,52.7,244.7,52.3,243.9,51.9z"/>
			</g>
			<g id="XMLID_1_">
				<path id="XMLID_6_" class="st0" d="M34.6,50.7H15.3C6.8,50.7,0,43.9,0,35.5V16.1C0,7.7,6.8,0.9,15.3,0.9h19.3
					c8.4,0,15.3,6.8,15.3,15.3v19.3C49.8,43.9,43,50.7,34.6,50.7z M15.3,4.6C8.9,4.6,3.7,9.8,3.7,16.1v19.3C3.7,41.8,8.9,47,15.3,47
					h19.3c6.4,0,11.5-5.2,11.5-11.5V16.1c0-6.4-5.2-11.5-11.5-11.5H15.3z"/>
				<path id="XMLID_3_" class="st0" d="M24.9,38.4c-6.9,0-12.6-5.7-12.6-12.6c0-6.9,5.7-12.6,12.6-12.6c6.9,0,12.6,5.7,12.6,12.6
					C37.5,32.8,31.9,38.4,24.9,38.4z M24.9,17c-4.8,0-8.8,3.9-8.8,8.8c0,4.8,3.9,8.8,8.8,8.8c4.8,0,8.8-3.9,8.8-8.8
					C33.7,21,29.8,17,24.9,17z"/>
				<path id="XMLID_2_" class="st0" d="M42.2,11.8c0,1.8-1.5,3.3-3.3,3.3c-1.8,0-3.3-1.5-3.3-3.3c0-1.8,1.5-3.3,3.3-3.3
					C40.7,8.5,42.2,10,42.2,11.8z"/>
			</g>
		</g>
	</g>
	<path class="st0" d="M634.2,28.4c-0.6-0.2-1.3-0.4-1.9-0.5c-2.8-0.8-5.6-1.5-8.3-2.3c-0.9-0.3-1.8-0.6-2-2c1.4,0.2,2.6,0.4,3.9,0.7
		c3.6,0.6,7.3,1.2,10.9,1.9c1.1,0.2,2.1,0.7,2.4,1.9c0.4,1.3-0.3,2-1.3,2.6c-4.2,2.4-8.4,4.7-12.7,7c-1.9,1-3.8,2.1-5.7,3
		c-1,0.5-2,0.8-3,1.2c-1.1-1-0.4-1.5,0.3-1.9c2.1-1.3,4.2-2.5,6.2-3.8c1.5-0.9,2.9-1.9,4.4-2.9c0-0.1-0.1-0.2-0.1-0.3
		c-0.8-0.1-1.7-0.1-2.5-0.2c-7.6-0.5-14.5-3.1-21.3-6.2c-6.4-2.9-12.6-6-19-8.8c-5-2.1-10.4-3.3-15.9-2.8c-0.7,0.1-1.5,0.1-2.2,0.3
		c-0.3,0.1-0.7,0.2-1.2,0.4c0.9,0.8,1.7,1.5,2.5,2.3c2.9,2.8,4.8,6.1,5,10.1c0.4,6.1-3.1,10.6-9.2,11.9c-7.3,1.6-14-2.5-15.6-9.8
		c-0.9-4.1,0.4-7.8,3.2-10.8c1.6-1.7,3.5-3,5.4-4.6c-2.4-0.3-4.8-0.7-7.3-0.8c-8.1-0.3-15.9,1.3-23.4,4.5c-4.1,1.7-7.9,3.8-11.4,6.5
		c-0.4,0.3-0.8,0.7-1.4,0.2c-0.5-0.6-0.2-1.1,0.3-1.4c2.1-1.7,4.2-3.5,6.4-5c6.1-4,12.8-6.2,20-7.4c4.6-0.8,9.2-0.8,13.7-0.2
		c2.1,0.3,4.1,1.2,6.1,1.6c1,0.2,2.1,0.4,3.1,0.1c5.7-1.2,11.4-1,17,0.6c6.8,2,13.1,5.3,19.4,8.5c7.5,3.7,15.1,6.6,23.5,7.4
		c3.5,0.3,7.1,0,10.6,0c0.3,0,0.6-0.2,1-0.3C634.2,28.7,634.2,28.6,634.2,28.4z M569.8,27c0-2.3-0.7-4.7-2.4-6.3
		c-1.5-1.4-3.2-2.5-4.9-3.6c-0.5-0.3-1.5-0.3-2,0c-1.5,0.7-3,1.5-4.3,2.5c-2.8,2.2-4.8,4.9-5.5,8.5c-0.9,4.8,0.8,7.6,5.5,8.6
		c1.4,0.3,2.9,0.3,4.3,0.1C565.3,36.2,569.7,31.5,569.8,27z"/>
</g>
</svg>
