<svg xmlns="http://www.w3.org/2000/svg" width="254.4" height="102.5" style="overflow:visible;enable-background:new 0 0 254.4 102.5" xml:space="preserve"><path d="M243.9 101.9H10.5C5 101.9.6 97.5.6 92V48.3c0-5.5 4.4-9.9 9.9-9.9h233.3c5.5 0 9.9 4.4 9.9 9.9v43.6c.1 5.5-4.4 10-9.8 10z" style="fill:none;stroke:#ffbc0d;stroke-width:1.2014;stroke-miterlimit:10"/><path d="M108.9 20.1c0 .3-.1.6-.1.8 0 1.4-.1 2.4-.2 3-.1.6-.3 1.2-.5 1.6-.2.3-.4.6-.8.8-.3.3-.8.5-1.2.6-.5.2-1.1.3-1.7.4-.7.1-1.4.1-2.3.1 0-.1-.1-.2-.1-.3s-.3-1-.9-2.6c.6.2 1.2.2 2 .2.7 0 1.3-.1 1.8-.2.4-.1.7-.3.9-.6.2-.4.4-.9.4-1.7h-7V28c0 .4 0 .8.1.9h-2.8c0-.2.1-.5.1-.9 0-1.1 0-2.6.1-4.4-1.2 1.1-2.6 2-4.3 2.9S89 28 87.1 28.4c-.1-.2-.2-.5-.5-1s-.6-.8-1-1.4c.6-.1 1.3-.3 2.1-.5s1.5-.5 2.4-.8c.8-.3 1.7-.7 2.5-1.1.8-.4 1.6-.9 2.3-1.5h-7.2c.1-.5.3-1.2.5-2.1.2-1 .4-1.8.5-2.5s.2-1.2.3-1.5v-.3c.8 0 1.7 0 2.8.1h4.7v-2h-6.1c-.9 0-1.5 0-1.9.1v-2.3c.4 0 1 .1 1.9.1h17.2v6.5h-8.4v2h9.7zM90.5 8.8c-.4.5-.9 1-1.3 1.5s-.9.9-1.4 1.2c-.1-.1-.4-.4-.8-.6-.4-.3-.8-.6-1.3-.9.8-.5 1.7-1.2 2.6-2.2.9-1 1.5-2 1.9-3l2.5.4-.2.3-.3.6c-.1.3-.2.5-.3.6H98v2.1h-3.7c.5.7 1 1.4 1.3 2l-2.5.7c-.2-.4-.4-.8-.7-1.3s-.6-1-.8-1.4h-1.1zm.8 9.3-.4 2h5.5v-2h-5.1zm17.4-11.4h1.3v2.1h-4.4c.6.8 1.1 1.4 1.5 2l-2.5.7c-.2-.4-.4-.8-.8-1.3-.3-.5-.6-1-.9-1.4h-1.8c-.7 1-1.3 1.8-2 2.4-.3-.2-1-.7-2.1-1.3.7-.5 1.3-1.3 2-2.2.7-1 1.1-1.9 1.4-2.9l2.5.4-.2.3c-.2.5-.3 1-.5 1.3h6.5zm-9.5 7.2v2h5.7v-2h-5.7zm17.1 13.7v-4.2c3.5-2.9 6.1-5.2 7.7-7 1.7-1.7 2.9-3.2 3.6-4.5.7-1.3 1.1-2.6 1.1-3.8 0-.7-.1-1.4-.4-2-.3-.6-.6-1-1.1-1.4-.5-.4-1-.6-1.7-.8-.6-.2-1.3-.3-2-.3-2 0-4 .6-6.2 1.9l-.5-4c1.1-.5 2.3-.9 3.6-1.2 1.3-.3 2.7-.4 4.1-.4 1.2 0 2.4.2 3.5.5s2.1.8 2.9 1.5 1.5 1.5 1.9 2.4c.5 1 .7 2.1.7 3.3 0 .9-.1 1.7-.4 2.6-.2.8-.6 1.7-1.2 2.6-.5.9-1.3 1.9-2.1 2.9-.9 1-2 2.2-3.2 3.4-1.7 1.7-3.6 3.2-5.7 4.7v.2c3.3-.1 6-.1 8.1-.1h5.1v3.7h-17.8zm46.9-14.8c1.2 0 2 0 2.4-.1v2.6c-.4 0-1.2-.1-2.4-.1h-18.9c-1.2 0-2 0-2.4.1v-2.6c.4 0 1.3.1 2.4.1h2V7l-.1-.8h1.4c.6 0 1.1 0 1.3.1l.1.7v5.8h3.6V5.4c0-.2 0-.5-.1-.9h1.5c.7 0 1.1 0 1.4.1 0 .3-.1.5-.1.7v2.1h7.7V10h-7.7v2.8h7.9zm-12.8 5.3c-.4.6-.8 1.3-1.4 2-.5.7-1.2 1.3-2.1 2s-1.8 1.3-2.9 1.8c-.3-.4-1-1.2-2-2.3.9-.3 1.7-.8 2.5-1.3s1.5-1.2 2.1-1.8c.6-.7 1.1-1.3 1.4-2l2.5 1.4-.1.2zm5 5c1.3-.8 2.3-1.7 3.2-2.8s1.5-2.3 1.9-3.7l2.7 1.2-.2.2c-.3.9-.7 1.7-1.2 2.4-.4.8-.9 1.4-1.4 2s-1 1.1-1.5 1.6c-.6.5-1.3 1-2.1 1.5s-1.8 1-3 1.4c-1.2.4-2.6.8-4.2 1.2-1.7.3-3.8.6-6.2.8-.2-.6-.6-1.5-1.1-2.7 2.8-.1 5.3-.5 7.5-.9 2.1-.5 4-1.2 5.5-2h-2.6c0-.3.1-.6.1-1.1v-5.6c0-.2 0-.5-.1-.8h1.5c.7 0 1.1 0 1.4.1 0 .2-.1.5-.1.7v5.6l-.1.9z" style="fill:#fff"/><path d="M30.6 71.8c.1 3.9.1 7.6.1 11 0 .7 0 1.2.1 1.4h-3.3c0-.3.1-.7.1-1.4 0-3.1 0-6.6.1-10.6-.8.8-1.7 1.6-2.9 2.5-.4-1.1-.9-2-1.3-2.8 1.1-.7 2.1-1.6 2.9-2.5.9-1 1.6-1.9 2.1-2.7s1-1.7 1.3-2.5h-5.6v-3.1h7l.3-.4c1 .9 1.6 1.4 1.8 1.5l.5.5-.5.2c-.8 2.1-1.7 3.8-2.6 5.3l.5.4c.6-.8 1.1-1.6 1.5-2.6l2.2 1.5-.3.5c-.2.3-.4.6-.7 1.1-.3.4-.6.9-1 1.3.9.8 1.6 1.5 2 2l-1.8 2.9c-.8-1.3-1.7-2.5-2.5-3.5zm.7-12.3-2.9 1.4c-.2-.7-.5-1.5-.9-2.4-.4-.9-.8-1.7-1.2-2.4l2.8-1.2c.3.6.7 1.3 1.1 2.2.5.8.8 1.6 1.1 2.4zm22.6 21.9-1.1 2.9c-3.4-.6-6.4-1.6-8.9-3.1-1.4.7-3 1.4-4.8 1.9s-3.6.9-5.6 1.2c-.3-.6-.7-1.5-1.4-2.7 1.5-.1 3-.4 4.6-.7 1.6-.4 3-.9 4.4-1.4-.2-.2-.5-.4-1-.9-.5-.4-1-1-1.5-1.6-1.5 1.1-3.1 2-4.7 2.7-.1-.2-.3-.5-.6-.9s-.7-.9-1.1-1.4c.7-.3 1.6-.7 2.6-1.2 1-.6 2.1-1.3 3.1-2.1s1.9-1.7 2.6-2.6h-4.1c0-.3.1-.7.1-1v-7.8l-1.3 1.2c-.4-.7-.9-1.7-1.5-2.8.8-.6 1.6-1.3 2.4-2.2s1.4-1.7 1.8-2.5.7-1.4.8-1.9l2.9.9-.2.4c-.2.6-.4 1.1-.7 1.6h12.2v2.8H39c-.2.3-.5.6-.9 1.1-.4.4-.7.8-1 1h13.7v9.3h-6.9c-.3.5-.6 1.1-1.1 1.6H49l.3-.3c.9.5 1.8 1.2 2.6 1.9l-.5.2c-.6.9-1.3 1.7-2 2.4s-1.3 1.3-1.8 1.6c-.5.4-.8.7-1 .8.6.3 1.2.5 2 .7.7.2 1.5.4 2.4.6s1.9.1 2.9.3zm-6.1-17.1h-8.1v1.5h8.1v-1.5zm-8.2 3.5v1.5h8.1v-1.5h-8.1zm1.4 7.7c.7.9 1.7 1.7 3 2.6.3-.2.7-.4 1.2-.7.5-.3 1-.7 1.4-1 .4-.3.7-.6.9-.8H41zM82.1 79c.9.5 2 1 3.1 1.3 1.2.4 2.3.7 3.6.9-.3.4-.6 1-.9 1.6-.3.6-.6 1.1-.7 1.3-6.5-1.5-11-4.8-13.6-9.9h-1.7c-1 .9-2.2 1.8-3.6 2.6v3.4c2.1-.4 4.6-.8 7.6-1.4v3c-2.5.5-5.4 1.1-8.8 1.8-.6.1-1.2.3-1.9.5l-1.1-3c.3-.1.5-.2.7-.5.2-.2.2-.5.3-.8l.1-1.4c-1.7.7-3.4 1.4-5.2 2-.2-.5-.7-1.4-1.7-2.9 1.7-.3 3.5-.8 5.2-1.3 1.8-.6 3.3-1.3 4.6-2H62c-1.4 0-2.4 0-3 .1v-2.9c.5 0 1.5.1 3 .1h10.7c-.2-.3-.4-.7-.8-1.2l3.2-.8c.1.1.2.3.4.7.2.3.4.8.7 1.3h9c1.3 0 2.2 0 2.8-.1v2.9c-.5 0-1.4-.1-2.8-.1H77c.7 1.2 1.6 2.2 2.6 3 .8-.4 1.7-.8 2.6-1.4 1-.6 1.6-1.1 2-1.5l2.6 2.1-.5.2c-.5.4-1.2.8-2 1.3-.8.4-1.5.8-2.2 1.1zM59.2 60.1h1.2l-1.3-1.3c.6-.5 1.2-1.2 1.8-2s1-1.6 1.1-2.3l2.5.9-.2.3-.3.9h2.8v-1l-.1-.9h1.5c.7 0 1.1.1 1.4.1 0 .3-.1.5-.1.8v1h6.1v2.3h-6.1v1.2h7.1v2.5h-7.1v1.2H76V65l.1 2.1c0 .7-.4 1.3-1.3 1.7s-2 .6-3.5.6c-.2-.6-.5-1.4-1-2.4.3 0 .6.1 1 .1h.9c.3 0 .6-.1.8-.2s.3-.3.3-.6v-.4h-3.7v3.5c0 .5 0 .8.1 1h-2.9c0-.2.1-.5.1-1v-3.5h-3.5v2.9c0 .4 0 .7.1.9h-2.9c0-.2.1-.4.1-.9v-4.2c0-.2 0-.5-.1-.9h6.3v-1.2h-7.7v-2.4zm7.6-1.2h-4.3c-.1.2-.5.6-1 1.2h5.2v-1.2zm11.4 6.2v-9h1.6c.7 0 1.2.1 1.5.1V65h-3.1zm2.3 4.8c-.2-.4-.7-1.5-1.5-3.2 1.1.2 2 .2 2.6.2.7 0 1.2-.1 1.5-.2.3-.2.4-.4.4-.8v-9.8c0-.3 0-.6-.1-.9h1.7c.7 0 1.3.1 1.6.1 0 .3-.1.6-.1.8v8.3l.1 2.4c0 .8-.2 1.4-.7 1.8-.5.4-1.2.8-2.1 1-.8.2-2 .3-3.4.3zm17.8 1.3 2.4 2.7c-.4 1.1-.9 2.5-1.7 4.4-.8 1.8-1.4 3.3-1.9 4.4l-.3.6c-.1.4-.3.7-.3 1l-2.9-2.5c.3-.4.5-.7.6-.8.3-.7.7-1.4 1.1-2.3.4-.9.8-1.8 1.1-2.6.3-.8.6-1.5.8-2.1.2-.5.4-1.1.6-1.6.3-.7.5-1 .5-1.2zm2-5.1-1.8 2.7c-.7-.6-1.4-1.2-2.3-1.9-.9-.7-1.7-1.2-2.4-1.6l1.7-2.6c.6.4 1.4.9 2.4 1.6 1 .7 1.8 1.3 2.4 1.8zm1.1-7.3-1.9 2.7c-.5-.5-1.2-1.1-2.1-1.7-.8-.7-1.8-1.3-2.7-2l1.9-2.6c1.2.7 2.8 1.9 4.8 3.6zm-1.5 23.5c1.7-1.8 2.9-3.6 3.6-5.5l2.6 1.4c-.2.5-.4 1.1-.8 1.8-.3.7-.8 1.5-1.4 2.3-.6.8-1.1 1.6-1.7 2.3-.5-.6-1.2-1.3-2.3-2.3zm2-6.3c0-.6.1-1.1.1-1.5V58.1c0-.4 0-.9-.1-1.5h10l-.1 1.5v16.4l.1 1.5h-10zm7-16.6h-4v2.8h4v-2.8zm-4 8.1h4v-2.6h-4v2.6zm0 5.7h4v-3h-4v3zm2.9 5 2.5-1.5c.6.7 1.2 1.6 1.9 2.6s1.2 1.9 1.6 2.8l-2.6 1.8c-.2-.4-.4-.9-.7-1.6-.3-.7-.7-1.4-1.2-2.2-.7-.8-1.1-1.4-1.5-1.9zm6.1-2c0-.6.1-1.1.1-1.5V57.2h1.5c.7 0 1.2.1 1.5.1v18.8h-3.1zm8.1-19.6v21.8l.1 2.6c0 .4-.1.7-.2 1s-.3.6-.6.9-.6.5-1 .7-.9.4-1.6.5c-.7.1-1.5.2-2.5.2-.1-.2-.2-.4-.3-.8-.2-.3-.4-.8-.7-1.5-.3-.7-.5-1.1-.6-1.3.9.1 1.7.2 2.4.2.5 0 1-.1 1.3-.2s.5-.4.5-.8V56.6c0-.5 0-.9-.1-1.3h1.6c.7 0 1.2.1 1.5.1.2.4.2.8.2 1.2zm7.2 17.5 2 .5c0 1.3 0 2.9-.2 4.7-.2 1.8-.4 3.4-.8 4.9l-2.1-1.3c.3-1.1.6-2.5.8-4.2s.3-3.2.3-4.6zm18.7 7.3c-.7-.8-1.4-1.4-2-1.9-.6 1-1.2 1.9-1.9 2.7-.7.8-1.3 1.5-2 2-.2-.3-.4-.7-.8-1.1-.4-.4-.7-.8-1-1.1-.7 1.4-2.2 2.2-4.6 2.2-.1-.5-.4-1.5-1-3.2.5.2 1 .3 1.4.3.5 0 .9-.1 1.1-.3.3-.2.5-.5.7-1 0-.1.1-.3.1-.5s.1-.8.1-1.6c.1-.8.1-2.5.1-5.2h-8.9c0-.5.1-1 .1-1.3V57.6c0-.4 0-.8-.1-1.3h12.4v2.5h-4.3V61h2.5v2.3h-2.5v2.2h2.6v2.3h-2.6v2.4h3.7l-.1.9v5c0 1.2-.1 2.2-.2 3.1-.1.9-.2 1.6-.4 2.2l-.1.4c1.2-.7 2.2-1.8 3-3.1s1.4-2.8 1.7-4.4l2.7.8-.2.4c0 .1-.1.4-.2.7s-.3.8-.5 1.3c.9.6 1.8 1.2 2.6 1.9l-1.4 2zm-16.3-6.8 1.5-.3c.2.8.3 1.9.4 3.2.1 1.3.2 2.7.3 4.1l-1.8.3c0-1 0-2.2-.1-3.6 0-1.4-.2-2.6-.3-3.7zm3.3-16h-2.5V61h2.5v-2.4zm0 6.9v-2.2h-2.5v2.2h2.5zm-2.6 4.7h2.5v-2.4h-2.5v2.4zm2.8 3.9c.1.4.3 1 .4 1.7s.3 1.4.4 2.1.2 1.3.2 1.6l-1.6.3c0-.6-.1-1.4-.2-2.4s-.3-2-.6-3.1l1.4-.2zm3 3.9-1.4.3c-.1-1-.4-2.4-.8-4.2l1.2-.2c.4 1.2.7 2.5 1 4.1zm4.4-12.3c-.1-.3-.4-.8-.7-1.4-.4-.6-.7-1.1-1-1.5 1-.6 2.1-1.4 3.3-2.3 1.2-1 2.1-2 2.8-2.9.7-1 1.2-1.8 1.5-2.6l3.1.5-.2.3c.7 1.2 1.7 2.5 3.1 3.8s2.7 2.3 4 3c-.2.5-.5 1-.8 1.6-.3.6-.5 1.1-.6 1.4-1-.6-2.1-1.4-3.2-2.4v1.3h-8.3v-1.2c-.9 1-2 1.8-3 2.4zm6.8.7v7.8h-7.1c0-.3.1-.7.1-.9v-6c0-.2 0-.5-.1-.9h7.1zm-4.5 5.3h1.9v-2.9h-1.9v2.9zm7.9-9.7c-1-1.1-2-2.3-2.9-3.7-.8 1.3-1.8 2.5-2.9 3.7h5.8zm1.2 15.8c.3.2.9.6 1.6 1.1.7.5 1.4 1 1.9 1.5s.9.8 1.2 1l-1.4 2.5c-1.2-1.4-2.7-2.8-4.3-4-.2.3-.5.8-1.1 1.5-.5.7-1 1.3-1.5 1.8s-.9.8-1.2 1c-.2-.3-.4-.6-.8-1.1s-.7-.8-1-1.1c.7-.4 1.4-1 2.1-1.8s1.3-1.7 1.8-2.7c.5-1 .8-1.9.9-2.8l2.7.7-.2.4c0 .1-.1.3-.2.6-.1.4-.2.8-.5 1.4zm3.5-11.4v7.8h-7.2c0-.3.1-.7.1-.9v-6c0-.2 0-.5-.1-.9h7.2zm-4.6 5.3h2v-2.9h-2v2.9zm28.3 9.4c1.3 0 3.1-.1 5.3-.3s4.5-.4 6.9-.8c-.3.9-.6 2.1-.9 3.4-1.2.2-3 .3-5.4.4-2.3.1-4.4.2-6 .2-.5 0-1.4 0-2.6-.1-1.2-.1-2.5-.2-3.6-.5-1.2-.3-2.3-.7-3.3-1.2s-1.8-1.2-2.4-2c-1 1.7-2.1 3-3.4 4-.2-.4-.5-.8-1-1.4-.4-.5-.8-1-1.2-1.3 2.6-1.9 4.3-4.7 4.9-8.4h-2.1c-.5 0-1 0-1.2.1l-.6-2.5c.1 0 .2-.1.5-.3.2-.2.5-.4.7-.7l.2-.2c.1-.1.3-.3.5-.7.2-.4.5-.9.8-1.4l.7-1.4h-4.2v-2.9h5.8l.2-.2c1 .8 1.8 1.5 2.4 2l-.5.2c-1.1 2.1-2.2 3.9-3.1 5.3h1.2l.2-.3c.6.4 1.3 1 2.2 1.8l-.5.2c-.3 1.9-.8 3.6-1.3 5.1.4 1.2 1.6 2.1 3.5 2.7 2 .9 4.4 1.2 7.3 1.2zm-10-20.6-2.4 2c0-.1-.1-.2-.3-.4-.2-.2-.5-.7-.9-1.3-.4-.6-.9-1.2-1.5-1.9-.5-.6-.9-1.1-1.2-1.4l2.3-1.8c.5.5 1.2 1.2 2.1 2.2.7 1.1 1.4 1.9 1.9 2.6zm9.9 16.2h-6.4c-1.1 0-1.8 0-2.3.1v-2.9c.4 0 1.2.1 2.3.1h6.4v-1.8h-6.9c0-.4.1-.7.1-1.1v-8.5c0-.3 0-.6-.1-1.1h6.9v-1.6h-6.1c-1 0-1.8 0-2.2.1v-2.8c.4 0 1.2.1 2.2.1h6.1v-1.4l-.1-.9h1.6c.7 0 1.2.1 1.5.1 0 .3-.1.6-.1.8v1.4h6.4c1 0 1.7 0 2.2-.1V60c-.4 0-1.2-.1-2.2-.1H184v1.6h6.9v10.6H184v1.8h6.7c1.1 0 1.8 0 2.3-.1v2.9c-.4 0-1.2-.1-2.3-.1H184v2.2c0 .5 0 .9.1 1.1h-3.2c0-.2.1-.6.1-1.1v-2.1zm.1-12.8h-4v1.8h4v-1.8zm-4 4v1.8h4v-1.8h-4zm10.8-2.3v-1.8h-4v1.8h4zm-4 4.1h4v-1.8h-4v1.8zm14.6 13.1c.5-1 .8-2.2 1.1-3.5.3-1.3.4-2.4.5-3.5l2.6.4c-.1 1.3-.2 2.6-.5 4.1-.3 1.4-.6 2.7-1 3.9-1-.6-1.9-1.1-2.7-1.4zm8-14.4 2.5-.9c.3.6.7 1.4 1.2 2.6.5 1.2.9 2.4 1.3 3.6-.9.3-1.8.7-2.8 1 0-.3-.2-.8-.4-1.6-2.3.5-4.8.9-7.4 1.3l-1.4.3-.8-2.8c.3-.1.6-.3.8-.6 1.3-1.5 2.8-3.3 4.4-5.5l-3.5.5-1.1.2-.7-2.6c.2-.1.5-.3.7-.5 1-1.3 1.9-2.7 2.9-4.4 1-1.6 1.7-3 2.1-4.1l3.2 1.2c-.2.3-.4.5-.5.7-.6 1-1.3 2.2-2.2 3.5s-1.7 2.3-2.3 3.1l3.4-.5c1.1-1.7 1.8-2.9 2.2-3.7l3.1 1.3c-.2.2-.4.5-.7.8-1.1 1.7-2.4 3.4-3.8 5.2-1.4 1.8-2.7 3.3-3.8 4.6 1.3-.2 2.9-.5 4.6-.8-.5-.7-.8-1.5-1-1.9zm-3.1 7.8 2.6-.4c.2.9.4 2 .6 3.1.2 1.2.4 2.2.5 3.2l-2.9.5c0-.7-.1-1.5-.2-2.3-.1-.8-.2-1.6-.3-2.3-.1-.7-.2-1.3-.3-1.8zm3.3-.4 2.5-.8c.4.7.8 1.6 1.2 2.6.4 1 .8 2 1.1 3l-2.8 1.1c-.5-2.4-1.2-4.4-2-5.9zm19.8-13.5h-4.8v4.1h5.8v3.1h-14.4v-3.1h5.3v-4.1H212v-3.1h6.4v-3.3c0-.3 0-.7-.1-1.1h1.8c.8 0 1.4.1 1.7.1 0 .4-.1.7-.1 1v3.3h6.8v3.1h-2zm.3 9.9v12.3h-3.2V83h-6.7v1.5h-3.3c0-.4.1-.8.1-1.2v-9.9c0-.3 0-.7-.1-1.2h13.2zm-9.9 7.8h6.7v-4.8h-6.7V80z" style="fill:#ffbc0d"/></svg>