<!-- Generator: Adobe Illustrator 25.0.0, SVG Export Plug-In  -->
<svg version="1.1" xmlns="http://www.w3.org/2000/svg" xmlns:xlink="http://www.w3.org/1999/xlink" x="0px" y="0px" width="254.4px"
	 height="102.5px" viewBox="0 0 254.4 102.5" style="overflow:visible;enable-background:new 0 0 254.4 102.5;"
	 xml:space="preserve">
<style type="text/css">
	.st0{fill:none;stroke:#FFBC0D;stroke-width:1.2014;stroke-miterlimit:10;}
	.st1{fill:#FFFFFF;}
	.st2{fill:#FFBC0D;}
</style>
<defs>
</defs>
<path class="st0" d="M243.9,101.9H10.5c-5.5,0-9.9-4.4-9.9-9.9V48.3c0-5.5,4.4-9.9,9.9-9.9h233.3c5.5,0,9.9,4.4,9.9,9.9v43.6
	C253.8,97.4,249.3,101.9,243.9,101.9z"/>
<g>
	<g>
		<path class="st1" d="M108.9,20.1c0,0.3-0.1,0.6-0.1,0.8c0,1.4-0.1,2.4-0.2,3c-0.1,0.6-0.3,1.2-0.5,1.6c-0.2,0.3-0.4,0.6-0.8,0.8
			c-0.3,0.3-0.8,0.5-1.2,0.6c-0.5,0.2-1.1,0.3-1.7,0.4c-0.7,0.1-1.4,0.1-2.3,0.1c0-0.1-0.1-0.2-0.1-0.3s-0.3-1-0.9-2.6
			c0.6,0.2,1.2,0.2,2,0.2c0.7,0,1.3-0.1,1.8-0.2c0.4-0.1,0.7-0.3,0.9-0.6c0.2-0.4,0.4-0.9,0.4-1.7h-7v5.8c0,0.4,0,0.8,0.1,0.9h-2.8
			c0-0.2,0.1-0.5,0.1-0.9c0-1.1,0-2.6,0.1-4.4c-1.2,1.1-2.6,2-4.3,2.9s-3.4,1.5-5.3,1.9c-0.1-0.2-0.2-0.5-0.5-1S86,26.6,85.6,26
			c0.6-0.1,1.3-0.3,2.1-0.5s1.5-0.5,2.4-0.8c0.8-0.3,1.7-0.7,2.5-1.1c0.8-0.4,1.6-0.9,2.3-1.5h-4.4h-0.4h-2.4
			c0.1-0.5,0.3-1.2,0.5-2.1c0.2-1,0.4-1.8,0.5-2.5s0.2-1.2,0.3-1.5l0-0.3c0.8,0,1.7,0,2.8,0.1h4.7v-2h-6.1c-0.9,0-1.5,0-1.9,0.1
			v-2.3c0.4,0,1,0.1,1.9,0.1h17.2c0,0.2,0,0.4,0,0.8v4.9l0,0.8h-8.4v2H108.9z M90.5,8.8c-0.4,0.5-0.9,1-1.3,1.5s-0.9,0.9-1.4,1.2
			c-0.1-0.1-0.4-0.4-0.8-0.6c-0.4-0.3-0.8-0.6-1.3-0.9c0.8-0.5,1.7-1.2,2.6-2.2c0.9-1,1.5-2,1.9-3l2.5,0.4l-0.2,0.3
			c-0.1,0.2-0.2,0.4-0.3,0.6c-0.1,0.3-0.2,0.5-0.3,0.6h4.9l1.2,0v2.1l-1.2,0h-2.5c0.5,0.7,1,1.4,1.3,2l-2.5,0.7
			c-0.2-0.4-0.4-0.8-0.7-1.3s-0.6-1-0.8-1.4H90.5z M91.3,18.1l-0.4,2h5.5v-2H91.3z M108.7,6.7l1.3,0v2.1l-1.3,0h-3.1
			c0.6,0.8,1.1,1.4,1.5,2l-2.5,0.7c-0.2-0.4-0.4-0.8-0.8-1.3c-0.3-0.5-0.6-1-0.9-1.4h-1.8c-0.7,1-1.3,1.8-2,2.4
			c-0.3-0.2-1-0.7-2.1-1.3c0.7-0.5,1.3-1.3,2-2.2c0.7-1,1.1-1.9,1.4-2.9l2.5,0.4l-0.2,0.3c-0.2,0.5-0.3,1-0.5,1.3H108.7z M99.2,13.9
			v2h5.7v-2H99.2z"/>
		<path class="st1" d="M116.3,27.6v-4.2c3.5-2.9,6.1-5.2,7.7-7c1.7-1.7,2.9-3.2,3.6-4.5c0.7-1.3,1.1-2.6,1.1-3.8
			c0-0.7-0.1-1.4-0.4-2c-0.3-0.6-0.6-1-1.1-1.4c-0.5-0.4-1-0.6-1.7-0.8c-0.6-0.2-1.3-0.3-2-0.3c-2,0-4,0.6-6.2,1.9l-0.5-4
			c1.1-0.5,2.3-0.9,3.6-1.2c1.3-0.3,2.7-0.4,4.1-0.4c1.2,0,2.4,0.2,3.5,0.5c1.1,0.3,2.1,0.8,2.9,1.5s1.5,1.5,1.9,2.4
			c0.5,1,0.7,2.1,0.7,3.3c0,0.9-0.1,1.7-0.4,2.6c-0.2,0.8-0.6,1.7-1.2,2.6c-0.5,0.9-1.3,1.9-2.1,2.9c-0.9,1-2,2.2-3.2,3.4
			c-1.7,1.7-3.6,3.2-5.7,4.7V24c3.3-0.1,6-0.1,8.1-0.1h5.1v3.7H116.3z"/>
		<path class="st1" d="M163.2,12.8c1.2,0,2,0,2.4-0.1v2.6c-0.4,0-1.2-0.1-2.4-0.1h-18.9c-1.2,0-2,0-2.4,0.1v-2.6
			c0.4,0,1.3,0.1,2.4,0.1h2V7l-0.1-0.8c0.3,0,0.8,0,1.4,0c0.6,0,1.1,0,1.3,0.1L149,7v5.8h3.6V5.4c0-0.2,0-0.5-0.1-0.9
			c0.3,0,0.8,0,1.5,0c0.7,0,1.1,0,1.4,0.1c0,0.3-0.1,0.5-0.1,0.7v2.1h6.4c0.6,0,1,0,1.3,0V10c-0.3,0-0.7,0-1.3,0h-6.4v2.8H163.2z
			 M150.4,18.1c-0.4,0.6-0.8,1.3-1.4,2c-0.5,0.7-1.2,1.3-2.1,2s-1.8,1.3-2.9,1.8c-0.3-0.4-1-1.2-2-2.3c0.9-0.3,1.7-0.8,2.5-1.3
			s1.5-1.2,2.1-1.8c0.6-0.7,1.1-1.3,1.4-2l2.5,1.4L150.4,18.1z M155.4,23.1c1.3-0.8,2.3-1.7,3.2-2.8s1.5-2.3,1.9-3.7l2.7,1.2
			l-0.2,0.2c-0.3,0.9-0.7,1.7-1.2,2.4c-0.4,0.8-0.9,1.4-1.4,2s-1,1.1-1.5,1.6c-0.6,0.5-1.3,1-2.1,1.5c-0.8,0.5-1.8,1-3,1.4
			c-1.2,0.4-2.6,0.8-4.2,1.2c-1.7,0.3-3.8,0.6-6.2,0.8c-0.2-0.6-0.6-1.5-1.1-2.7c2.8-0.1,5.3-0.5,7.5-0.9c2.1-0.5,4-1.2,5.5-2h-2.6
			c0-0.3,0.1-0.6,0.1-1.1v-5.6c0-0.2,0-0.5-0.1-0.8c0.3,0,0.8,0,1.5,0s1.1,0,1.4,0.1c0,0.2-0.1,0.5-0.1,0.7v5.6L155.4,23.1z"/>
	</g>
</g>
<g>
	<path class="st2" d="M30.6,71.8c0.1,3.9,0.1,7.6,0.1,11c0,0.7,0,1.2,0.1,1.4h-3.3c0-0.3,0.1-0.7,0.1-1.4c0-3.1,0-6.6,0.1-10.6
		c-0.8,0.8-1.7,1.6-2.9,2.5c-0.4-1.1-0.9-2-1.3-2.8c1.1-0.7,2.1-1.6,2.9-2.5c0.9-1,1.6-1.9,2.1-2.7s1-1.7,1.3-2.5h-4.3l-1.3,0v-3.1
		l1.3,0h5.7l0.3-0.4c1,0.9,1.6,1.4,1.8,1.5c0.1,0.1,0.3,0.3,0.5,0.5l-0.5,0.2c-0.8,2.1-1.7,3.8-2.6,5.3l0.5,0.4
		c0.6-0.8,1.1-1.6,1.5-2.6l2.2,1.5L34.6,68c-0.2,0.3-0.4,0.6-0.7,1.1c-0.3,0.4-0.6,0.9-1,1.3c0.9,0.8,1.6,1.5,2,2l-1.8,2.9
		C32.3,74,31.4,72.8,30.6,71.8z M31.3,59.5l-2.9,1.4c-0.2-0.7-0.5-1.5-0.9-2.4c-0.4-0.9-0.8-1.7-1.2-2.4l2.8-1.2
		c0.3,0.6,0.7,1.3,1.1,2.2C30.7,57.9,31,58.7,31.3,59.5z M53.9,81.4l-1.1,2.9c-3.4-0.6-6.4-1.6-8.9-3.1c-1.4,0.7-3,1.4-4.8,1.9
		s-3.6,0.9-5.6,1.2c-0.3-0.6-0.7-1.5-1.4-2.7c1.5-0.1,3-0.4,4.6-0.7c1.6-0.4,3-0.9,4.4-1.4c-0.2-0.2-0.5-0.4-1-0.9
		c-0.5-0.4-1-1-1.5-1.6c-1.5,1.1-3.1,2-4.7,2.7c-0.1-0.2-0.3-0.5-0.6-0.9c-0.3-0.4-0.7-0.9-1.1-1.4c0.7-0.3,1.6-0.7,2.6-1.2
		c1-0.6,2.1-1.3,3.1-2.1s1.9-1.7,2.6-2.6h-4.1c0-0.3,0.1-0.7,0.1-1v-7.3l0-0.5l-1.3,1.2c-0.4-0.7-0.9-1.7-1.5-2.8
		c0.8-0.6,1.6-1.3,2.4-2.2s1.4-1.7,1.8-2.5s0.7-1.4,0.8-1.9l2.9,0.9l-0.2,0.4c-0.2,0.6-0.4,1.1-0.7,1.6h10.4c0.8,0,1.4,0,1.8,0v2.8
		c-0.4,0-1,0-1.8,0H39c-0.2,0.3-0.5,0.6-0.9,1.1c-0.4,0.4-0.7,0.8-1,1h13.7l0,1v7.3l0,1h-6.9c-0.3,0.5-0.6,1.1-1.1,1.6H49l0.3-0.3
		c0.9,0.5,1.8,1.2,2.6,1.9l-0.5,0.2c-0.6,0.9-1.3,1.7-2,2.4s-1.3,1.3-1.8,1.6c-0.5,0.4-0.8,0.7-1,0.8c0.6,0.3,1.2,0.5,2,0.7
		c0.7,0.2,1.5,0.4,2.4,0.6S52.9,81.2,53.9,81.4z M47.8,64.3h-8.1v1.5h8.1V64.3z M39.6,67.8v1.5h8.1v-1.5H39.6z M41,75.5
		c0.7,0.9,1.7,1.7,3,2.6c0.3-0.2,0.7-0.4,1.2-0.7c0.5-0.3,1-0.7,1.4-1c0.4-0.3,0.7-0.6,0.9-0.8H41z"/>
	<path class="st2" d="M82.1,79c0.9,0.5,2,1,3.1,1.3c1.2,0.4,2.3,0.7,3.6,0.9c-0.3,0.4-0.6,1-0.9,1.6c-0.3,0.6-0.6,1.1-0.7,1.3
		c-6.5-1.5-11-4.8-13.6-9.9h-1.7c-1,0.9-2.2,1.8-3.6,2.6v3.4c2.1-0.4,4.6-0.8,7.6-1.4v3c-2.5,0.5-5.4,1.1-8.8,1.8
		c-0.6,0.1-1.2,0.3-1.9,0.5l-1.1-3c0.3-0.1,0.5-0.2,0.7-0.5c0.2-0.2,0.2-0.5,0.3-0.8l0.1-1.4c-1.7,0.7-3.4,1.4-5.2,2
		c-0.2-0.5-0.7-1.4-1.7-2.9c1.7-0.3,3.5-0.8,5.2-1.3c1.8-0.6,3.3-1.3,4.6-2h-6.1c-1.4,0-2.4,0-3,0.1v-2.9c0.5,0,1.5,0.1,3,0.1h10.7
		c-0.2-0.3-0.4-0.7-0.8-1.2l3.2-0.8c0.1,0.1,0.2,0.3,0.4,0.7c0.2,0.3,0.4,0.8,0.7,1.3h9c1.3,0,2.2,0,2.8-0.1v2.9
		c-0.5,0-1.4-0.1-2.8-0.1h-8.2c0.7,1.2,1.6,2.2,2.6,3c0.8-0.4,1.7-0.8,2.6-1.4c1-0.6,1.6-1.1,2-1.5l2.6,2.1l-0.5,0.2
		c-0.5,0.4-1.2,0.8-2,1.3C83.5,78.3,82.8,78.7,82.1,79z M59.2,60.1l1.2,0l-1.3-1.3c0.6-0.5,1.2-1.2,1.8-2s1-1.6,1.1-2.3l2.5,0.9
		l-0.2,0.3L64,56.6h2.8v-1l-0.1-0.9c0.3,0,0.9,0,1.5,0c0.7,0,1.1,0.1,1.4,0.1c0,0.3-0.1,0.5-0.1,0.8v1h4.5l1.6,0v2.3l-1.6,0h-4.5
		v1.2h5.2c0.9,0,1.5,0,1.9,0v2.5c-0.4,0-1,0-1.9,0h-5.2v1.2H76c0,0.1,0,0.3,0,0.6v0.6l0.1,2.1c0,0.7-0.4,1.3-1.3,1.7s-2,0.6-3.5,0.6
		c-0.2-0.6-0.5-1.4-1-2.4c0.3,0,0.6,0.1,1,0.1c0.4,0,0.7,0,0.9,0c0.3,0,0.6-0.1,0.8-0.2s0.3-0.3,0.3-0.6v-0.4h-3.7v3.5
		c0,0.5,0,0.8,0.1,1h-2.9c0-0.2,0.1-0.5,0.1-1v-3.5h-3.5v2.9c0,0.4,0,0.7,0.1,0.9h-2.9c0-0.2,0.1-0.4,0.1-0.9v-4.2
		c0-0.2,0-0.5-0.1-0.9h6.3v-1.2h-5.8c-0.9,0-1.5,0-1.9,0V60.1z M66.8,58.9h-4.3c-0.1,0.2-0.5,0.6-1,1.2h5.2V58.9z M78.2,65.1l0-1
		v-7.1l0-0.9c0.3,0,0.9,0,1.6,0c0.7,0,1.2,0.1,1.5,0.1l0,0.8V64l0,1H78.2z M80.5,69.9c-0.2-0.4-0.7-1.5-1.5-3.2
		c1.1,0.2,2,0.2,2.6,0.2c0.7,0,1.2-0.1,1.5-0.2c0.3-0.2,0.4-0.4,0.4-0.8v-1.5v-8.3c0-0.3,0-0.6-0.1-0.9c0.4,0,1,0,1.7,0
		c0.7,0,1.3,0.1,1.6,0.1c0,0.3-0.1,0.6-0.1,0.8v8.3l0.1,2.4c0,0.8-0.2,1.4-0.7,1.8c-0.5,0.4-1.2,0.8-2.1,1
		C83.1,69.8,81.9,69.9,80.5,69.9z"/>
	<path class="st2" d="M98.3,71.2l2.4,2.7c-0.4,1.1-0.9,2.5-1.7,4.4c-0.8,1.8-1.4,3.3-1.9,4.4c0,0-0.1,0.2-0.3,0.6
		c-0.1,0.4-0.3,0.7-0.3,1l-2.9-2.5c0.3-0.4,0.5-0.7,0.6-0.8c0.3-0.7,0.7-1.4,1.1-2.3c0.4-0.9,0.8-1.8,1.1-2.6
		c0.3-0.8,0.6-1.5,0.8-2.1c0.2-0.5,0.4-1.1,0.6-1.6C98.1,71.7,98.3,71.4,98.3,71.2z M100.3,66.1l-1.8,2.7c-0.7-0.6-1.4-1.2-2.3-1.9
		c-0.9-0.7-1.7-1.2-2.4-1.6l1.7-2.6c0.6,0.4,1.4,0.9,2.4,1.6C98.9,65,99.7,65.6,100.3,66.1z M101.4,58.8l-1.9,2.7
		c-0.5-0.5-1.2-1.1-2.1-1.7c-0.8-0.7-1.8-1.3-2.7-2l1.9-2.6C97.8,55.9,99.4,57.1,101.4,58.8z M99.9,82.3c1.7-1.8,2.9-3.6,3.6-5.5
		l2.6,1.4c-0.2,0.5-0.4,1.1-0.8,1.8c-0.3,0.7-0.8,1.5-1.4,2.3c-0.6,0.8-1.1,1.6-1.7,2.3C101.7,84,101,83.3,99.9,82.3z M101.9,76
		c0-0.6,0.1-1.1,0.1-1.5V58.1c0-0.4,0-0.9-0.1-1.5h10l-0.1,1.5v16.4l0.1,1.5H101.9z M108.9,59.4h-4v2.8h4V59.4z M104.9,67.5h4v-2.6
		h-4V67.5z M104.9,73.2h4v-3h-4V73.2z M107.8,78.2l2.5-1.5c0.6,0.7,1.2,1.6,1.9,2.6c0.7,1,1.2,1.9,1.6,2.8l-2.6,1.8
		c-0.2-0.4-0.4-0.9-0.7-1.6c-0.3-0.7-0.7-1.4-1.2-2.2C108.6,79.3,108.2,78.7,107.8,78.2z M113.9,76.2c0-0.6,0.1-1.1,0.1-1.5V58.4
		c0-0.5,0-0.9,0-1.2c0.3,0,0.8,0,1.5,0c0.7,0,1.2,0.1,1.5,0.1c0,0.2,0,0.6,0,1v16.3l0,1.5H113.9z M122,56.6v21.8l0.1,2.6
		c0,0.4-0.1,0.7-0.2,1s-0.3,0.6-0.6,0.9s-0.6,0.5-1,0.7s-0.9,0.4-1.6,0.5c-0.7,0.1-1.5,0.2-2.5,0.2c-0.1-0.2-0.2-0.4-0.3-0.8
		c-0.2-0.3-0.4-0.8-0.7-1.5c-0.3-0.7-0.5-1.1-0.6-1.3c0.9,0.1,1.7,0.2,2.4,0.2c0.5,0,1-0.1,1.3-0.2s0.5-0.4,0.5-0.8v-1.6V56.6
		c0-0.5,0-0.9-0.1-1.3c0.4,0,0.9,0,1.6,0c0.7,0,1.2,0.1,1.5,0.1C122,55.8,122,56.2,122,56.6z"/>
	<path class="st2" d="M129.2,74.1l2,0.5c0,1.3,0,2.9-0.2,4.7c-0.2,1.8-0.4,3.4-0.8,4.9l-2.1-1.3c0.3-1.1,0.6-2.5,0.8-4.2
		S129.2,75.5,129.2,74.1z M147.9,81.4c-0.7-0.8-1.4-1.4-2-1.9c-0.6,1-1.2,1.9-1.9,2.7c-0.7,0.8-1.3,1.5-2,2
		c-0.2-0.3-0.4-0.7-0.8-1.1c-0.4-0.4-0.7-0.8-1-1.1c-0.7,1.4-2.2,2.2-4.6,2.2c-0.1-0.5-0.4-1.5-1-3.2c0.5,0.2,1,0.3,1.4,0.3
		c0.5,0,0.9-0.1,1.1-0.3c0.3-0.2,0.5-0.5,0.7-1c0-0.1,0.1-0.3,0.1-0.5s0.1-0.8,0.1-1.6c0.1-0.8,0.1-2.5,0.1-5.2h-8.9
		c0-0.5,0.1-1,0.1-1.3V57.6c0-0.4,0-0.8-0.1-1.3h10.9c0.7,0,1.2,0,1.5,0v2.5l-1.5,0h-2.8V61h1.2l1.3,0v2.3l-1.3,0h-1.2v2.2h1.2
		l1.4,0v2.3l-1.4,0h-1.2v2.4h3.7l-0.1,0.9c0,2.1,0,3.8,0,5c0,1.2-0.1,2.2-0.2,3.1c-0.1,0.9-0.2,1.6-0.4,2.2l-0.1,0.4
		c1.2-0.7,2.2-1.8,3-3.1s1.4-2.8,1.7-4.4l2.7,0.8l-0.2,0.4c0,0.1-0.1,0.4-0.2,0.7s-0.3,0.8-0.5,1.3c0.9,0.6,1.8,1.2,2.6,1.9
		L147.9,81.4z M131.6,74.6l1.5-0.3c0.2,0.8,0.3,1.9,0.4,3.2c0.1,1.3,0.2,2.7,0.3,4.1l-1.8,0.3c0-1,0-2.2-0.1-3.6
		C131.9,76.9,131.7,75.7,131.6,74.6z M134.9,58.6h-2.5V61h2.5V58.6z M134.9,65.5v-2.2h-2.5v2.2H134.9z M132.3,70.2h2.5v-2.4h-2.5
		V70.2z M135.1,74.1c0.1,0.4,0.3,1,0.4,1.7s0.3,1.4,0.4,2.1s0.2,1.3,0.2,1.6l-1.6,0.3c0-0.6-0.1-1.4-0.2-2.4c-0.1-1-0.3-2-0.6-3.1
		L135.1,74.1z M138.1,78l-1.4,0.3c-0.1-1-0.4-2.4-0.8-4.2l1.2-0.2C137.5,75.1,137.8,76.4,138.1,78z M142.5,65.7
		c-0.1-0.3-0.4-0.8-0.7-1.4c-0.4-0.6-0.7-1.1-1-1.5c1-0.6,2.1-1.4,3.3-2.3c1.2-1,2.1-2,2.8-2.9c0.7-1,1.2-1.8,1.5-2.6l3.1,0.5
		l-0.2,0.3c0.7,1.2,1.7,2.5,3.1,3.8s2.7,2.3,4,3c-0.2,0.5-0.5,1-0.8,1.6c-0.3,0.6-0.5,1.1-0.6,1.4c-1-0.6-2.1-1.4-3.2-2.4v1.3
		l-1.3,0h-5.7l-1.3,0v-1.2C144.6,64.3,143.5,65.1,142.5,65.7z M149.3,66.4l0,0.9v6c0,0.4,0,0.7,0,0.9h-7.1c0-0.3,0.1-0.7,0.1-0.9v-6
		c0-0.2,0-0.5-0.1-0.9H149.3z M144.8,71.7h1.9v-2.9h-1.9V71.7z M152.7,62c-1-1.1-2-2.3-2.9-3.7c-0.8,1.3-1.8,2.5-2.9,3.7H152.7
		L152.7,62z M153.9,77.8c0.3,0.2,0.9,0.6,1.6,1.1c0.7,0.5,1.4,1,1.9,1.5s0.9,0.8,1.2,1l-1.4,2.5c-1.2-1.4-2.7-2.8-4.3-4
		c-0.2,0.3-0.5,0.8-1.1,1.5c-0.5,0.7-1,1.3-1.5,1.8c-0.5,0.5-0.9,0.8-1.2,1c-0.2-0.3-0.4-0.6-0.8-1.1s-0.7-0.8-1-1.1
		c0.7-0.4,1.4-1,2.1-1.8s1.3-1.7,1.8-2.7c0.5-1,0.8-1.9,0.9-2.8l2.7,0.7l-0.2,0.4c0,0.1-0.1,0.3-0.2,0.6
		C154.3,76.8,154.2,77.2,153.9,77.8z M157.4,66.4l0,0.9v6c0,0.4,0,0.7,0,0.9h-7.2c0-0.3,0.1-0.7,0.1-0.9v-6c0-0.2,0-0.5-0.1-0.9
		H157.4z M152.8,71.7h2v-2.9h-2V71.7z"/>
	<path class="st2" d="M181.1,81.1c1.3,0,3.1-0.1,5.3-0.3s4.5-0.4,6.9-0.8c-0.3,0.9-0.6,2.1-0.9,3.4c-1.2,0.2-3,0.3-5.4,0.4
		c-2.3,0.1-4.4,0.2-6,0.2c-0.5,0-1.4,0-2.6-0.1c-1.2-0.1-2.5-0.2-3.6-0.5c-1.2-0.3-2.3-0.7-3.3-1.2c-1-0.5-1.8-1.2-2.4-2
		c-1,1.7-2.1,3-3.4,4c-0.2-0.4-0.5-0.8-1-1.4c-0.4-0.5-0.8-1-1.2-1.3c2.6-1.9,4.3-4.7,4.9-8.4h-2.1c-0.5,0-1,0-1.2,0.1l-0.6-2.5
		c0.1,0,0.2-0.1,0.5-0.3c0.2-0.2,0.5-0.4,0.7-0.7c0,0,0.1-0.1,0.2-0.2s0.3-0.3,0.5-0.7c0.2-0.4,0.5-0.9,0.8-1.4
		c0.3-0.6,0.5-1,0.7-1.4h-2.9l-1.3,0v-2.9l1.3,0h4.5l0.2-0.2c1,0.8,1.8,1.5,2.4,2l-0.5,0.2c-1.1,2.1-2.2,3.9-3.1,5.3h1.2l0.2-0.3
		c0.6,0.4,1.3,1,2.2,1.8l-0.5,0.2c-0.3,1.9-0.8,3.6-1.3,5.1c0.4,1.2,1.6,2.1,3.5,2.7C175.8,80.8,178.2,81.1,181.1,81.1z M171.1,60.5
		l-2.4,2c0-0.1-0.1-0.2-0.3-0.4c-0.2-0.2-0.5-0.7-0.9-1.3c-0.4-0.6-0.9-1.2-1.5-1.9c-0.5-0.6-0.9-1.1-1.2-1.4l2.3-1.8
		c0.5,0.5,1.2,1.2,2.1,2.2C169.9,59,170.6,59.8,171.1,60.5z M181,76.7h-6.4c-1.1,0-1.8,0-2.3,0.1v-2.9c0.4,0,1.2,0.1,2.3,0.1h6.4
		v-1.8h-6.9c0-0.4,0.1-0.7,0.1-1.1v-8.5c0-0.3,0-0.6-0.1-1.1h6.9v-1.6h-6.1c-1,0-1.8,0-2.2,0.1v-2.8c0.4,0,1.2,0.1,2.2,0.1h6.1v-1.4
		l-0.1-0.9c0.4,0,0.9,0,1.6,0c0.7,0,1.2,0.1,1.5,0.1c0,0.3-0.1,0.6-0.1,0.8v1.4h6.4c1,0,1.7,0,2.2-0.1v2.8c-0.4,0-1.2-0.1-2.2-0.1
		H184v1.6h6.9l0,1.1V71l0,1.1H184v1.8h6.7c1.1,0,1.8,0,2.3-0.1v2.9c-0.4,0-1.2-0.1-2.3-0.1H184v2.2c0,0.5,0,0.9,0.1,1.1h-3.2
		c0-0.2,0.1-0.6,0.1-1.1V76.7z M181.1,63.9h-4v1.8h4V63.9z M177.1,67.9v1.8h4v-1.8H177.1z M187.9,65.6v-1.8h-4v1.8H187.9z
		 M183.9,69.7h4v-1.8h-4V69.7z"/>
	<path class="st2" d="M198.5,82.8c0.5-1,0.8-2.2,1.1-3.5c0.3-1.3,0.4-2.4,0.5-3.5l2.6,0.4c-0.1,1.3-0.2,2.6-0.5,4.1
		c-0.3,1.4-0.6,2.7-1,3.9C200.2,83.6,199.3,83.1,198.5,82.8z M206.5,68.4l2.5-0.9c0.3,0.6,0.7,1.4,1.2,2.6c0.5,1.2,0.9,2.4,1.3,3.6
		c-0.9,0.3-1.8,0.7-2.8,1c0-0.3-0.2-0.8-0.4-1.6c-2.3,0.5-4.8,0.9-7.4,1.3l-1.4,0.3l-0.8-2.8c0.3-0.1,0.6-0.3,0.8-0.6
		c1.3-1.5,2.8-3.3,4.4-5.5l-3.5,0.5l-1.1,0.2l-0.7-2.6c0.2-0.1,0.5-0.3,0.7-0.5c1-1.3,1.9-2.7,2.9-4.4c1-1.6,1.7-3,2.1-4.1l3.2,1.2
		c-0.2,0.3-0.4,0.5-0.5,0.7c-0.6,1-1.3,2.2-2.2,3.5s-1.7,2.3-2.3,3.1l3.4-0.5c1.1-1.7,1.8-2.9,2.2-3.7l3.1,1.3
		c-0.2,0.2-0.4,0.5-0.7,0.8c-1.1,1.7-2.4,3.4-3.8,5.2c-1.4,1.8-2.7,3.3-3.8,4.6c1.3-0.2,2.9-0.5,4.6-0.8
		C207,69.6,206.7,68.8,206.5,68.4z M203.4,76.2l2.6-0.4c0.2,0.9,0.4,2,0.6,3.1c0.2,1.2,0.4,2.2,0.5,3.2l-2.9,0.5
		c0-0.7-0.1-1.5-0.2-2.3c-0.1-0.8-0.2-1.6-0.3-2.3C203.6,77.3,203.5,76.7,203.4,76.2z M206.7,75.8l2.5-0.8c0.4,0.7,0.8,1.6,1.2,2.6
		c0.4,1,0.8,2,1.1,3l-2.8,1.1C208.2,79.3,207.5,77.3,206.7,75.8z M226.5,62.3h-4.8v4.1h4c0.8,0,1.5,0,1.8,0v3.1c-0.4,0-1,0-1.8,0
		h-10.8c-0.8,0-1.5,0-1.8,0v-3.1c0.4,0,1,0,1.8,0h3.5v-4.1H214c-0.9,0-1.6,0-2,0v-3.1c0.4,0,1.1,0,2,0h4.4v-3.3c0-0.3,0-0.7-0.1-1.1
		c0.4,0,1,0,1.8,0c0.8,0,1.4,0.1,1.7,0.1c0,0.4-0.1,0.7-0.1,1v3.3h4.8c0.9,0,1.6,0,2,0v3.1C228.1,62.3,227.4,62.3,226.5,62.3z
		 M226.8,72.2l0,1.2v9.9l0,1.2h-3.2V83h-6.7v1.5h-3.3c0-0.4,0.1-0.8,0.1-1.2v-9.9c0-0.3,0-0.7-0.1-1.2H226.8z M216.9,80h6.7v-4.8
		h-6.7V80z"/>
</g>
</svg>
