<!-- Generator: Adobe Illustrator 25.0.0, SVG Export Plug-In  -->
<svg version="1.1" xmlns="http://www.w3.org/2000/svg" xmlns:xlink="http://www.w3.org/1999/xlink" x="0px" y="0px" width="254.4px"
	 height="102px" viewBox="0 0 254.4 102" style="overflow:visible;enable-background:new 0 0 254.4 102;" xml:space="preserve">
<style type="text/css">
	.st0{fill:none;stroke:#FFBC0D;stroke-width:1.2014;stroke-miterlimit:10;}
	.st1{fill:#FFFFFF;}
	.st2{fill:#FFBC0D;}
</style>
<defs>
</defs>
<path class="st0" d="M243.9,101.4H10.5c-5.5,0-9.9-4.4-9.9-9.9V47.8c0-5.5,4.4-9.9,9.9-9.9h233.3c5.5,0,9.9,4.4,9.9,9.9v43.6
	C253.8,96.9,249.3,101.4,243.9,101.4z"/>
<g>
	<g>
		<path class="st1" d="M108.9,19.6c0,0.3-0.1,0.6-0.1,0.8c0,1.4-0.1,2.4-0.2,3c-0.1,0.6-0.3,1.2-0.5,1.6c-0.2,0.3-0.4,0.6-0.8,0.8
			c-0.3,0.3-0.8,0.5-1.2,0.6c-0.5,0.2-1.1,0.3-1.7,0.4c-0.7,0.1-1.4,0.1-2.3,0.1c0-0.1-0.1-0.2-0.1-0.3s-0.3-1-0.9-2.6
			c0.6,0.2,1.2,0.2,2,0.2c0.7,0,1.3-0.1,1.8-0.2c0.4-0.1,0.7-0.3,0.9-0.6c0.2-0.4,0.4-0.9,0.4-1.7h-7v5.8c0,0.4,0,0.8,0.1,0.9h-2.8
			c0-0.2,0.1-0.5,0.1-0.9c0-1.1,0-2.6,0.1-4.4c-1.2,1.1-2.6,2-4.3,2.9s-3.4,1.5-5.3,1.9c-0.1-0.2-0.2-0.5-0.5-1s-0.5-0.9-0.9-1.4
			c0.6-0.1,1.3-0.3,2.1-0.5s1.5-0.5,2.4-0.8c0.8-0.3,1.7-0.7,2.5-1.1c0.8-0.4,1.6-0.9,2.3-1.5h-4.4h-0.4h-2.4
			c0.1-0.5,0.3-1.2,0.5-2.1c0.2-1,0.4-1.8,0.5-2.5s0.2-1.2,0.3-1.5l0-0.3c0.8,0,1.7,0,2.8,0.1h4.7v-2h-6.1c-0.9,0-1.5,0-1.9,0.1
			v-2.3c0.4,0,1,0.1,1.9,0.1h17.2c0,0.2,0,0.4,0,0.8v4.9l0,0.8h-8.4v2H108.9z M90.5,8.3c-0.4,0.5-0.9,1-1.3,1.5s-0.9,0.9-1.4,1.2
			c-0.1-0.1-0.4-0.4-0.8-0.6c-0.4-0.3-0.8-0.6-1.3-0.9c0.8-0.5,1.7-1.2,2.6-2.2c0.9-1,1.5-2,1.9-3l2.5,0.4L92.5,5
			c-0.1,0.2-0.2,0.4-0.3,0.6c-0.1,0.3-0.2,0.5-0.3,0.6h4.9l1.2,0v2.1l-1.2,0h-2.5c0.5,0.7,1,1.4,1.3,2L93.2,11
			c-0.2-0.4-0.4-0.8-0.7-1.3s-0.6-1-0.8-1.4H90.5z M91.3,17.6l-0.4,2h5.5v-2H91.3z M108.7,6.2l1.3,0v2.1l-1.3,0h-3.1
			c0.6,0.8,1.1,1.4,1.5,2l-2.5,0.7c-0.2-0.4-0.4-0.8-0.8-1.3c-0.3-0.5-0.6-1-0.9-1.4h-1.8c-0.7,1-1.3,1.8-2,2.4
			c-0.3-0.2-1-0.7-2.1-1.3c0.7-0.5,1.3-1.3,2-2.2c0.7-1,1.1-1.9,1.4-2.9l2.5,0.4l-0.2,0.3c-0.2,0.5-0.3,1-0.5,1.3H108.7z M99.2,13.4
			v2h5.7v-2H99.2z"/>
		<path class="st1" d="M124.7,27.1V12.3c0-1,0-2.2,0.1-3.8s0.1-2.8,0.1-3.6h-0.1c-0.7,0.7-1.7,1.6-3.1,2.7l-1.4,1.2l-2.4-3.1
			l7.3-5.7h4.2v27.1H124.7z"/>
		<path class="st1" d="M163.2,12.3c1.2,0,2,0,2.4-0.1v2.6c-0.4,0-1.2-0.1-2.4-0.1h-18.9c-1.2,0-2,0-2.4,0.1v-2.6
			c0.4,0,1.3,0.1,2.4,0.1h2V6.5l-0.1-0.8c0.3,0,0.8,0,1.4,0c0.6,0,1.1,0,1.3,0.1L149,6.5v5.8h3.6V5c0-0.2,0-0.5-0.1-0.9
			c0.3,0,0.8,0,1.5,0c0.7,0,1.1,0,1.4,0.1c0,0.3-0.1,0.5-0.1,0.7v2.1h6.4c0.6,0,1,0,1.3,0v2.5c-0.3,0-0.7,0-1.3,0h-6.4v2.8H163.2z
			 M150.4,17.7c-0.4,0.6-0.8,1.3-1.4,2c-0.5,0.7-1.2,1.3-2.1,2s-1.8,1.3-2.9,1.8c-0.3-0.4-1-1.2-2-2.3c0.9-0.3,1.7-0.8,2.5-1.3
			s1.5-1.2,2.1-1.8c0.6-0.7,1.1-1.3,1.4-2l2.5,1.4L150.4,17.7z M155.4,22.7c1.3-0.8,2.3-1.7,3.2-2.8s1.5-2.3,1.9-3.7l2.7,1.2
			l-0.2,0.2c-0.3,0.9-0.7,1.7-1.2,2.4c-0.4,0.8-0.9,1.4-1.4,2s-1,1.1-1.5,1.6c-0.6,0.5-1.3,1-2.1,1.5c-0.8,0.5-1.8,1-3,1.4
			c-1.2,0.4-2.6,0.8-4.2,1.2c-1.7,0.3-3.8,0.6-6.2,0.8c-0.2-0.6-0.6-1.5-1.1-2.7c2.8-0.1,5.3-0.5,7.5-0.9c2.1-0.5,4-1.2,5.5-2h-2.6
			c0-0.3,0.1-0.6,0.1-1.1v-5.6c0-0.2,0-0.5-0.1-0.8c0.3,0,0.8,0,1.5,0s1.1,0,1.4,0.1c0,0.2-0.1,0.5-0.1,0.7v5.6L155.4,22.7z"/>
	</g>
</g>
<g>
	<path class="st2" d="M35.2,71.8h-3.8v8.1c0.5-0.1,1.6-0.4,3.2-0.8c1.6-0.4,3.2-0.8,4.6-1.3l0,3.1c-2.9,0.8-5.8,1.5-8.5,2.2
		c-0.1,0-0.4,0.1-0.8,0.3c-0.4,0.1-1,0.3-1.6,0.5l-1.1-3.1c0.2-0.1,0.4-0.3,0.6-0.6c0.2-0.3,0.2-0.7,0.2-1.2v-7.2h-1.3
		c-1.4,0-2.4,0-2.9,0.1v-2.9c0.5,0,1.5,0.1,2.9,0.1h2.2V57c0-0.4,0-0.8-0.1-1.4h18.4c1,0,1.7,0,2.1-0.1v2.9c-0.4,0-1.1-0.1-2.1-0.1
		h-15v1.9h13.9c0.9,0,1.6,0,2-0.1v2.7c-0.4,0-1-0.1-2-0.1H32.2v1.7h13.9c0.9,0,1.6,0,2-0.1v2.7c-0.4,0-1-0.1-2-0.1H32.2V69h18
		c1.4,0,2.4,0,2.9-0.1v2.9c-0.5,0-1.5-0.1-2.9-0.1H38.7c0.5,0.8,1.1,1.5,1.8,2.3s1.5,1.5,2.4,2.1c1.1-0.6,2.1-1.3,3.2-2.1
		s1.8-1.5,2.2-2l2.5,2.3l-0.5,0.3c-1.3,1-2.9,2.1-4.8,3.3c2.5,1.4,5.2,2.4,8,3c-0.3,0.5-0.6,1-1,1.5c-0.3,0.6-0.6,1-0.7,1.3
		c-3.8-0.9-7.1-2.4-9.9-4.5C39.2,77.3,37,74.8,35.2,71.8z"/>
	<path class="st2" d="M86.2,69.6h-1.8c-0.5,2.8-1.4,5.2-2.8,7.2c2.4,1.5,4.6,3,6.7,4.5c-0.8,1.2-1.4,2.1-1.8,2.7
		c-1.9-1.5-4.2-3.1-6.9-4.9c-0.9,0.8-1.9,1.6-3.1,2.3c-1.2,0.7-2.5,1.2-3.7,1.7c-1.3,0.4-2.5,0.7-3.6,1c-0.1-0.2-0.2-0.6-0.4-1.2
		c-0.2-0.6-0.5-1.2-0.9-2c4-0.6,7-1.8,9-3.5c-1-0.6-2-1.2-3-1.7c-1-0.6-1.9-1-2.6-1.3c0.7-1,1.5-2.6,2.4-4.7h-3c-0.9,0-1.5,0-1.9,0
		V71l-2.9,0.9v6l0.1,2.8c0,0.3-0.1,0.7-0.2,1.1c-0.1,0.4-0.4,0.7-0.8,1c-0.4,0.3-0.9,0.6-1.6,0.8c-0.7,0.2-1.6,0.3-2.7,0.3
		c-0.3-0.8-0.8-2.1-1.5-3.7c0.4,0.1,1.1,0.2,2,0.2c0.4,0,0.7,0,1-0.1s0.4-0.3,0.4-0.7V78v-5c-1,0.3-1.7,0.5-2.1,0.6L59,74.1
		l-0.6-3.4l1.7-0.4l2.4-0.7v-6.2h-2.5l-1.5,0v-3l1.5,0h2.5v-4.7c0-0.5,0-0.9-0.1-1.4c0.4,0,1,0,1.7,0c0.8,0,1.3,0.1,1.6,0.1
		c0,0.5-0.1,0.9-0.1,1.3v4.7h1.4l1.5,0v3l-1.5,0h-1.4v5.2c1-0.3,1.8-0.6,2.6-0.8v-1.2c0.4,0,1.2,0.1,2.2,0.1h4.1
		c0.3-0.8,0.6-1.7,0.8-2.6c0.2-0.9,0.4-1.7,0.5-2.3l3.4,0.6L79.2,63c-0.3,1.2-0.7,2.5-1.2,3.8h8.2c1,0,1.8,0,2.2-0.1v3
		C88,69.6,87.2,69.6,86.2,69.6z M69.4,64.8c0-0.3,0.1-0.7,0.1-0.9v-5.2c0-0.3,0-0.6-0.1-0.9h7.9c-0.3-0.8-0.8-1.7-1.3-2.6l3.1-0.6
		c0.6,1,1.1,2.1,1.6,3.2h7.1c0,0.2,0,0.5,0,0.9v5.2l0,0.9h-3.2v-4.1H72.6v4.1H69.4z M78.9,75.2c0.2-0.3,0.5-0.8,0.9-1.5
		c0.4-0.7,0.7-1.4,0.9-2.2c0.2-0.8,0.4-1.4,0.5-1.9h-4.3c-0.7,1.6-1.3,2.8-1.7,3.6C76.6,73.9,77.8,74.5,78.9,75.2z"/>
	<path class="st2" d="M99.6,61.1v20.9c0,0.5,0,1.1,0.1,1.9h-3.4c0-0.7,0.1-1.4,0.1-1.9c0-2,0-4.4,0.1-7.3c0.1-2.9,0.2-5.5,0.3-8
		c-0.4,0.8-0.8,1.6-1.2,2.3c-0.4,0.7-0.8,1.3-1.2,1.8c-0.3-0.8-0.8-2-1.5-3.6c0.6-0.7,1.2-1.7,1.9-3.1c0.7-1.4,1.5-3.1,2.2-5
		c0.7-2,1.2-3.6,1.5-5l3.1,1.1l-0.2,0.3c-0.2,0.7-0.4,1.5-0.8,2.6S99.9,60.2,99.6,61.1z M109.2,63H102l-1.4,0v-2.8l1.4,0h7.2l1.4,0
		V63L109.2,63z M110,73.7l0,1v8.1l0,1h-2.8v-1.4h-3.1v1.4h-2.8c0-0.4,0.1-0.7,0.1-1v-8.1l-0.1-1H110z M123.6,56.6l-0.1,0.2
		c-0.4,1.2-0.9,2.5-1.5,3.8c-0.6,1.3-1.2,2.4-1.8,3.3h1.5c0.7,0,1.3,0,1.6,0v2.7c-0.3,0-0.9,0-1.6,0h-3.6c-0.6,0.7-1.3,1.4-2.3,2.3
		h5.7l0,1.2v12.4l0,1.2h-2.8v-1.7h-3.9v1.7h-2.9c0-0.5,0.1-0.9,0.1-1.2V71.8l-1.4,0.8c-0.1-0.2-0.3-0.5-0.5-0.9
		c-0.2-0.4-0.4-0.7-0.6-1v1.2l-1.2,0h-5.2l-1.2,0v-2.7l1.2,0h5.2l1.2,0v0.6c0.3-0.2,0.9-0.5,1.9-1.1c0.9-0.6,1.9-1.3,2.9-2.1h-2
		l-1.6,0v-2.7l1.6,0h1.8v-3.4h-1.4l-1.2,0v-2.7l1.2,0h1.4v-2.4c0-0.3,0-0.6-0.1-1c0.3,0,0.9,0,1.6,0c0.7,0,1.2,0.1,1.5,0.1
		c0,0.3-0.1,0.6-0.1,0.9v2.4h1.1l1.2,0v2.4c0.7-1.5,1.3-3.1,1.8-4.8L123.6,56.6z M103.1,64.9h5.2l1.2,0v2.7l-1.2,0h-5.2l-1.2,0v-2.7
		L103.1,64.9z M107.6,58.4l-2.6,1.1c-0.2-0.5-0.5-1.2-0.9-2c-0.4-0.8-0.7-1.5-1.1-2.1l2.5-1.1c0.4,0.7,0.8,1.4,1.2,2.1
		C107.1,57.2,107.4,57.9,107.6,58.4z M104.1,79.9h3.1v-3.8h-3.1V79.9z M118.7,74.2v-2.6h-3.9v2.6H118.7z M114.8,79.5h3.9v-2.7h-3.9
		V79.5z M118.1,60.5H117v3.3c0.8-1.1,1.5-2.2,2.2-3.3L118.1,60.5z"/>
	<path class="st2" d="M137,68.1v14.4c0,0.7,0,1.2,0.1,1.4h-3.5c0-0.3,0.1-0.7,0.1-1.4c0-0.1,0-0.2,0-0.4c0-0.2,0-1.3,0-3.3
		c0-1.9,0.1-4.3,0.2-7.1c-1.2,1.2-2.3,2.2-3.6,3.1c-0.5-0.9-1-1.8-1.7-2.8c1.5-1,3.1-2.4,4.7-4.2c1.6-1.9,2.9-3.9,4.1-6.2h-5.1
		c-1.5,0-2.4,0-3,0.1v-3.3c0.5,0,1.5,0.1,3,0.1h6.6c0.5-1.3,1-2.7,1.3-4.2l3.2,0.8l-0.2,0.3c-0.3,1.2-0.7,2.2-1,3.1h12.5
		c1.5,0,2.4,0,3-0.1v3.3c-0.5,0-1.5-0.1-3-0.1h-13.9C139.8,63.8,138.5,66,137,68.1z M155.6,72.2c1,0,1.7,0,2.1-0.1v3.1
		c-0.4,0-1.1-0.1-2.1-0.1h-4.9c0.2,1,0.4,2.1,0.4,3.2c0,0.7,0,1.3-0.1,1.9c-0.1,0.6-0.2,1.1-0.4,1.5c-0.2,0.4-0.5,0.8-0.8,1.1
		c-0.3,0.3-0.8,0.6-1.3,0.8s-1.3,0.3-2.1,0.3c-0.8,0-1.5,0-2.2-0.1c-0.1-0.4-0.3-0.9-0.5-1.5c-0.2-0.7-0.5-1.2-0.7-1.7
		c0.3,0.1,0.7,0.1,1.2,0.2c0.5,0.1,1,0.1,1.4,0.1c0.5,0,1-0.1,1.3-0.2c0.3-0.1,0.6-0.4,0.7-0.8c0.2-0.4,0.3-1,0.3-2
		c0-1-0.1-1.9-0.3-2.8h-6.3c-1,0-1.7,0-2.1,0.1v-3.1c0.4,0,1.1,0.1,2.1,0.1h4.9c-0.4-0.5-0.8-1-1.2-1.5l2.6-0.6
		c1.3-0.9,2.4-1.7,3.3-2.5h-8.4c-0.8,0-1.4,0-1.7,0v-3.1c0.3,0,0.9,0,1.7,0h11l0.3-0.3c0.4,0.3,0.8,0.6,1.3,1s0.9,0.7,1.3,1.1
		l-0.6,0.3c-0.8,0.8-1.8,1.8-3,2.8c-1.2,1-2.3,1.9-3.2,2.6l0.1,0.1H155.6z"/>
	<path class="st2" d="M191.7,57.7V82l0.1,2.1h-3.5v-1.7h-19.7V84h-3.4c0-0.8,0.1-1.5,0.1-2.1V57.7c0-0.6,0-1.3-0.1-2.1h26.5
		L191.7,57.7z M168.7,79.8h19.7V58.1h-19.7V79.8z M185,65.3c0.8,0,1.5,0,1.8,0v2.2c-0.4,0-1,0-1.8,0h-13.2c-0.8,0-1.5,0-1.9,0v-2.2
		c0.4,0,1,0,1.9,0h5.2v-1.2H172c0-0.3,0.1-0.6,0.1-0.8v-3c0-0.2,0-0.4-0.1-0.7h13.1c0,0.2,0,0.4,0,0.7v3l0,0.8h-5.2v1.2H185z
		 M185.8,68.5l0,1v7.9l0,1h-14.5c0-0.3,0.1-0.7,0.1-1v-7.9c0-0.3,0-0.6-0.1-1H185.8z M173.8,76.6h9.4v-6.3h-9.4V76.6z M174.8,61.2
		v1.3h7.6v-1.3H174.8z M181.9,72v2.7l0,0.8H175c0-0.2,0-0.4,0-0.8V72c0-0.3,0-0.6,0-0.8h6.9C181.9,71.4,181.9,71.7,181.9,72z
		 M177.1,74h2.8v-1.2h-2.8V74z"/>
	<path class="st2" d="M225.5,61.8c1.3,0,2.1,0,2.6-0.1v3.5c-0.5,0-1.3-0.1-2.6-0.1h-18.6v1.6c0,1,0,2-0.1,3H220l-0.1,1.1v12
		c0,0.7,0,1.1,0.1,1.4h-3.7c0-0.3,0.1-0.7,0.1-1.4v-9.8h-10c-0.4,2.5-1,4.7-1.9,6.6c-0.9,1.9-1.9,3.4-3,4.5
		c-0.3-0.4-0.8-0.8-1.4-1.3s-1.1-1-1.6-1.3c0.9-0.8,1.8-1.9,2.5-3.2s1.3-2.7,1.7-4.3c0.4-1.6,0.6-3,0.7-4.2s0.1-2.3,0.1-3.1V55.9
		c0-0.3,0-0.6-0.1-0.9c0.4,0,1,0,1.8,0c0.8,0,1.4,0.1,1.7,0.1c0,0.3-0.1,0.6-0.1,0.8v5.9h7.8v-6.3c0-0.3,0-0.6-0.1-0.9
		c0.4,0,1,0,1.8,0s1.4,0.1,1.7,0.1c0,0.3-0.1,0.6-0.1,0.8v6.3H225.5z"/>
</g>
</svg>
