<!-- Generator: Adobe Illustrator 25.0.0, SVG Export Plug-In  -->
<svg version="1.1" xmlns="http://www.w3.org/2000/svg" xmlns:xlink="http://www.w3.org/1999/xlink" x="0px" y="0px" width="389.8px"
	 height="91.5px" viewBox="0 0 389.8 91.5" style="overflow:visible;enable-background:new 0 0 389.8 91.5;" xml:space="preserve">
<style type="text/css">
	.st0{fill:#E7412F;}
</style>
<defs>
</defs>
<g>
	<g>
		<g>
			<path class="st0" d="M26,15.6V70c0,2.1,0,3.6,0.2,4.5h-7.3c0.1-1.7,0.2-3.2,0.2-4.5v-7.6L7.8,64.8l-3.4,0.9l-1-8.2l2.8-0.2V15.6
				l-2.8,0.1V7.9L7,8h17.8l3.6-0.1v7.7L26,15.6z M19.1,23.6v-8h-6v8H19.1z M13.1,30.9v7.6h6v-7.6H13.1z M13.1,56.1l6-1.1v-9.1h-6
				V56.1z M68.5,52.5c1,0.9,2.1,1.9,3.3,3c1.2,1.1,2.2,1.9,3,2.5c-0.2,4.3-0.6,7.6-1.2,9.9c-0.6,2.3-1.5,4-2.5,4.9
				c-1.1,1-2.6,1.4-4.5,1.4c-1.1,0-2.1-0.3-3.1-0.8s-1.9-1.5-2.7-2.9c-0.8-1.4-1.5-3.1-2.2-5.1c-3.9,4.1-8.3,7.2-13.2,9.3
				c-0.5-1.1-2-3.2-4.6-6.3c0.8-0.3,1.7-0.7,3-1.2c1.2-0.6,2.2-1,2.9-1.4h-9.4v3.2h-6.7c0-0.5,0.1-1.4,0.1-2.7V42l-0.1-2.7h20
				l-0.1,2.6v21.5v0.1c2.4-1.9,4.5-4,6.4-6.3c-0.8-4.7-1.5-11.8-2-21.2H32.9c-2.5,0-4.2,0.1-5.2,0.2v-7.3c1,0.1,2.7,0.2,5.2,0.2h0.3
				c-0.4-1.9-1.1-4.7-2.2-8.3l5.9-1.3c0.9,3.4,1.5,6.4,1.8,8.9l-3,0.7h7c0.4-1.4,0.8-3,1.1-4.9c0.3-1.9,0.5-3.5,0.6-4.8l6.4,1.8
				l-0.5,0.9c-0.4,1.9-1,4.3-1.8,7h6c-0.3-6-0.4-12.7-0.5-20.2C54,7.6,54,6.7,54,6c2.8,0.2,5.2,0.3,7.3,0.5
				c-0.1,0.6-0.1,1.3-0.1,2.3l0.1,4.8l5.3-2.7c1.1,1.4,2.3,3.1,3.6,5.2s2.4,4,3.4,6l-6.2,3.8c-0.6-1.7-1.5-3.7-2.7-5.9
				c-1.2-2.2-2.3-4.2-3.4-5.9c0.1,6.7,0.2,11.7,0.3,14.9h6.6c2.5,0,4.2,0,5.2-0.2v7.3c-1-0.1-2.7-0.2-5.2-0.2h-6.3
				c0.2,3.9,0.5,7.9,0.8,11.9c1.5-3.1,2.6-6.3,3.6-9.7l5.7,4.1c-0.3,0.3-0.5,0.5-0.6,0.8c-2,5.9-4.4,11.1-7.3,15.5
				c0.5,2.5,0.9,4.3,1.4,5.5c0.5,1.2,1,1.8,1.4,1.8c0.1,0,0.3-0.1,0.5-0.3c0.2-0.2,0.5-0.9,0.7-2.3C68.3,62,68.4,58.4,68.5,52.5z
				 M49.1,18.5H31.9l-3.5,0.1v-7l3.5,0.1h5.4c-0.7-1.5-1.4-2.7-2.1-3.8l7.1-2c0.6,0.9,1.1,1.9,1.6,3c0.5,1.1,0.9,2.1,1.2,2.8h3.9
				l3.5-0.1v7L49.1,18.5z M43.8,45.3h-6.6v4.3h6.6V45.3z M37.2,59.8h6.6v-4.5h-6.6V59.8z"/>
			<path class="st0" d="M147.1,41.9h-23.6c-0.5,0.8-1.2,2-2.2,3.5h29.2c-0.1,1-0.2,1.8-0.2,2.4c0,5.7-0.1,10.1-0.3,13.4
				c-0.2,3.2-0.7,5.8-1.4,7.6c-0.9,2-2.4,3.6-4.8,4.6c-2.3,1.1-5.5,1.6-9.5,1.6c-0.1-0.4-0.3-0.9-0.5-1.6c-0.2-0.7-1-3.1-2.3-7.1
				c1.3,0.5,2.8,0.7,4.4,0.7c2.8,0,4.6-0.9,5.4-2.8c0.4-0.9,0.6-2.3,0.8-4c0.2-1.8,0.3-4.7,0.3-8.8H140c-1.3,3.2-2.9,6.3-4.8,9.3
				c-1.9,3-4.2,5.8-6.8,8.5c-2.6,2.7-5.4,4.9-8.4,6.6c-0.4-0.6-1.2-1.3-2.4-2.4c-1.2-1-2.4-1.9-3.5-2.7c3.6-1.8,7.1-4.4,10.5-7.9
				c3.4-3.5,6.1-7.3,8.1-11.4h-3.8c-1.1,1.9-2.5,3.9-4.2,6c-1.7,2.1-3.9,4.4-6.6,6.8c-2.7,2.4-5.7,4.4-9,6c-0.5-0.9-2.2-2.7-5.1-5.5
				c1.5-0.6,3.1-1.5,5.1-2.7c1.9-1.2,3.9-2.8,6.1-4.6c2.1-1.9,4-3.9,5.6-5.9h-4.4c-1.3,1.4-2.7,2.7-4.2,4c-1.5,1.3-2.8,2.3-4.1,3.1
				s-2.4,1.5-3.3,2c-0.7-1.2-2.4-3.1-5.2-5.8c1.8-0.8,3.7-2,5.8-3.5c-1.4,0.7-3.3,1.5-5.8,2.5c-2.5,1-4.8,1.9-7,2.7
				c-2.1,0.8-3.8,1.4-4.9,1.8c-0.7,0.3-1.9,0.8-3.6,1.5l-2-8.6l4.1-1.1c1.5-0.5,3-1,4.6-1.6V29.9h-3.7L83.9,30v-7.9l3.3,0.1h3.7V9
				c0-1-0.1-2.1-0.2-3.2C96.1,6,99,6.1,99.4,6.2c-0.1,1-0.2,1.9-0.2,2.8v13.1h2.9l3.3-0.1V30l-3.3-0.1h-2.9v15.4
				c3-1.2,5-2.1,6.1-2.7l0.5,8.5c1.7-1.3,3.4-2.8,4.9-4.3s2.9-3.2,4-4.8h-3.6c-2.4,0-4.2,0.1-5.2,0.2V35c1,0.1,2.7,0.2,5.2,0.2h35.9
				c2.5,0,4.3,0,5.3-0.2v7.1C151.4,42,149.6,41.9,147.1,41.9z M111.3,31.9c0.1-0.9,0.2-1.7,0.2-2.5V10.5c0-0.7-0.1-1.6-0.2-2.6h35.4
				c-0.1,0.6-0.1,1.5-0.1,2.6v18.9l0.1,2.5H111.3z M138.6,13.5h-19.2v3.8h19.2V13.5z M119.5,26.4h19.2v-3.9h-19.2V26.4z"/>
			<path class="st0" d="M283.4,40.6c1.3,3.1,2.9,6,4.9,8.8c2,2.8,4.3,5.3,6.8,7.6c2.5,2.2,5.2,4.2,8.2,5.9c2.9,1.7,5.9,3,9,3.9
				c-0.9,1.2-2,2.6-3.1,4.2c-1.2,1.7-2,3-2.5,4c-6.4-2.4-12.2-6-17.1-10.7c-5-4.7-9-10.3-12.1-16.8c-2.7,6-6.5,11.4-11.6,16.2
				c-5.1,4.7-10.9,8.3-17.6,10.8c-0.7-1-1.6-2.3-2.9-4c-1.3-1.7-2.5-3-3.5-4.2c7.4-2.4,13.6-5.7,18.5-10c4.9-4.3,8.4-9.5,10.3-15.6
				H250c-3.1,0-5.3,0.1-6.4,0.2v-9.1c1.2,0.1,3.3,0.2,6.4,0.2h22.2l0.1-2.8v-9.7H256c-3.5,0-5.8,0.1-7.1,0.2v-9
				c1.3,0.1,3.6,0.2,7.1,0.2h41.6c3.5,0,5.8,0,7-0.2v9c-1.2-0.1-3.6-0.2-7-0.2h-16.4v10.1l-0.1,2.3h22.3c3.2,0,5.3,0,6.5-0.2v9.1
				c-1.2-0.1-3.3-0.2-6.5-0.2H283.4z"/>
			<path class="st0" d="M382.4,61.9c3.6,0,6.1,0,7.4-0.2v8.9c-1.3-0.1-3.8-0.2-7.4-0.2h-52.1c-3.6,0-6.1,0-7.4,0.2v-8.9
				c1.3,0.1,3.8,0.2,7.4,0.2h20.8V43.7h-14.4c-2.9,0-4.8,0.1-5.9,0.2v-8.8c1.1,0.1,3,0.2,5.9,0.2h14.4V19.6h-18.3
				c-3.3,0-5.6,0.1-6.8,0.2V11c1.2,0.1,3.5,0.2,6.8,0.2h47.1c3.3,0,5.5,0,6.7-0.2v8.8c-1.2-0.1-3.5-0.2-6.7-0.2h-19.3v15.6h15.2
				c2.9,0,4.8,0,5.9-0.2v8.8c-1.1-0.1-3-0.2-5.9-0.2h-15.2v18.2H382.4z"/>
		</g>
		<g>
			<g>
				
					<rect x="161.5" y="50.7" transform="matrix(0.6352 -0.7723 0.7723 0.6352 21.1048 146.8181)" class="st0" width="9" height="0.7"/>
			</g>
			<g>
				<g>
					<path class="st0" d="M200.6,64.9v-5.2l21.4,0.1v-7L200.6,53v-4.7l24.6,0.1v-7.2c-1,0.1-24.6,0.1-24.6,0.1v-2.6H192v2.6h-7.3
						l-1.6,2l-4,4.9h13V53l-16.8-0.1l-5.7,6.9l22.4-0.1v5.2l-29.2-0.1v7.8h66.3v-7.8L200.6,64.9L200.6,64.9z"/>
				</g>
				<g>
					<path class="st0" d="M205.7,14.8h7.7v13.6h-18l-5.3,6.4h10.3h17.2h4.1V8.3h-7.2l-8.7,6.3C205.8,14.7,205.7,14.7,205.7,14.8z"/>
				</g>
				<g>
					<path class="st0" d="M168.6,43.2l5.1,4.2l-5.5,6.7l0.5,0.4l16.6-20.2l8.8-10.7l0,0l1.1-1.3l-11.7,8.5c-0.8,0.5-1.8-0.2-1.5-1.1
						l2.2-6.6l-4.3,5.2h-1.2V14.8h7.7c0-0.1-0.1-0.1-0.2-0.1l-8.7-6.3h-7.2v26.5h4.3l-5.1,6.2l0,0l-4.7,5.8l0.5,0.4L168.6,43.2z"/>
				</g>
				<g>
					<polygon class="st0" points="189,21.8 196.1,16.6 198.5,18.4 203.1,21.8 201,15.3 200.4,13.5 207.5,8.3 198.7,8.3 198.7,8.3 
						196.1,0 193.4,8.3 193.4,8.3 184.6,8.3 191.7,13.5 					"/>
				</g>
			</g>
		</g>
	</g>
	<g>
		<g>
			<path class="st0" d="M0.4,85.4c1.9,0,3.7,0,5.6,0.1c13.4,0.1,26.8,0.4,40.3,0.3c16.5-0.1,32.9-0.8,49.4-0.7
				c44.3,0.3,88.6,1,132.9,1.5c3,0,6.1-0.1,9.1,0.1c1.4,0.1,2.7,0.9,4.1,1.4c-0.1,0.4-0.1,0.7-0.2,1.1c-2.2,0.4-4.4,1-6.7,1
				c-22.1,0.5-44.3,1.2-66.4,1.2c-36.2-0.1-72.4-0.7-108.7-1.1c-15.1-0.2-30.3-0.2-45.4-0.6c-4-0.1-8-1.1-11.9-1.8
				C1.6,87.8,0.8,87,0,86.6C0.1,86.2,0.3,85.8,0.4,85.4z"/>
			<path class="st0" d="M328,88.8c-4.1,0.3-7.5,0.7-11,0.8c-15.2,0.1-30.4,0.1-45.6,0c-3.6,0-7.2-0.6-10.8-1.1
				c-1.5-0.2-3.2-0.5-3.4-3.2c2-0.2,4-0.5,6-0.4c19.3,0.3,38.6,0.6,58,1C323.5,85.9,326,85.9,328,88.8z"/>
			<path class="st0" d="M361,87.9c-1.9,0.4-3.2,0.8-4.4,0.8c-4.8,0.1-9.5,0.2-14.3,0c-1,0-2-1.1-3-1.7c1-0.6,2-1.7,2.9-1.7
				c5.6,0.2,11.3,0.7,16.9,1.2C359.6,86.5,359.9,87.1,361,87.9z"/>
			<path class="st0" d="M387.7,88.5c-5.3-0.1-10.6-0.1-15.9-0.2c-0.6,0-1.2-0.1-1.7-0.4c-0.8-0.5-1.4-1.2-2.1-1.7
				c0.8-0.5,1.5-1.2,2.3-1.3c1.4-0.2,2.9-0.1,4.4,0c3.2,0.3,6.5,0.8,9.7,1.3c1.1,0.2,2.2,0.8,3.3,1.2
				C387.8,87.8,387.7,88.2,387.7,88.5z"/>
		</g>
	</g>
</g>
</svg>
