<svg xmlns="http://www.w3.org/2000/svg" width="389.8" height="91.5" style="overflow:visible;enable-background:new 0 0 389.8 91.5" xml:space="preserve"><style>.st0{fill:#e7412f}</style><path class="st0" d="M26 15.6V70c0 2.1 0 3.6.2 4.5h-7.3c.1-1.7.2-3.2.2-4.5v-7.6L7.8 64.8l-3.4.9-1-8.2 2.8-.2V15.6l-2.8.1V7.9L7 8h17.8l3.6-.1v7.7H26zm-6.9 8v-8h-6v8h6zm-6 7.3v7.6h6v-7.6h-6zm0 25.2 6-1.1v-9.1h-6v10.2zm55.4-3.6c1 .9 2.1 1.9 3.3 3 1.2 1.1 2.2 1.9 3 2.5-.2 4.3-.6 7.6-1.2 9.9-.6 2.3-1.5 4-2.5 4.9-1.1 1-2.6 1.4-4.5 1.4-1.1 0-2.1-.3-3.1-.8s-1.9-1.5-2.7-2.9c-.8-1.4-1.5-3.1-2.2-5.1-3.9 4.1-8.3 7.2-13.2 9.3-.5-1.1-2-3.2-4.6-6.3.8-.3 1.7-.7 3-1.2 1.2-.6 2.2-1 2.9-1.4h-9.4V69h-6.7c0-.5.1-1.4.1-2.7V42l-.1-2.7h20l-.1 2.6v21.6c2.4-1.9 4.5-4 6.4-6.3-.8-4.7-1.5-11.8-2-21.2h-22c-2.5 0-4.2.1-5.2.2v-7.3c1 .1 2.7.2 5.2.2h.3c-.4-1.9-1.1-4.7-2.2-8.3l5.9-1.3c.9 3.4 1.5 6.4 1.8 8.9l-3 .7h7c.4-1.4.8-3 1.1-4.9.3-1.9.5-3.5.6-4.8l6.4 1.8-.5.9c-.4 1.9-1 4.3-1.8 7h6c-.3-6-.4-12.7-.5-20.2V6c2.8.2 5.2.3 7.3.5-.1.6-.1 1.3-.1 2.3l.1 4.8 5.3-2.7c1.1 1.4 2.3 3.1 3.6 5.2s2.4 4 3.4 6l-6.2 3.8c-.6-1.7-1.5-3.7-2.7-5.9-1.2-2.2-2.3-4.2-3.4-5.9.1 6.7.2 11.7.3 14.9h6.6c2.5 0 4.2 0 5.2-.2v7.3c-1-.1-2.7-.2-5.2-.2h-6.3c.2 3.9.5 7.9.8 11.9 1.5-3.1 2.6-6.3 3.6-9.7l5.7 4.1c-.3.3-.5.5-.6.8-2 5.9-4.4 11.1-7.3 15.5.5 2.5.9 4.3 1.4 5.5.5 1.2 1 1.8 1.4 1.8.1 0 .3-.1.5-.3.2-.2.5-.9.7-2.3.2-1.2.3-4.8.4-10.7zm-19.4-34H31.9l-3.5.1v-7l3.5.1h5.4c-.7-1.5-1.4-2.7-2.1-3.8l7.1-2c.6.9 1.1 1.9 1.6 3s.9 2.1 1.2 2.8H49l3.5-.1v7l-3.4-.1zm-5.3 26.8h-6.6v4.3h6.6v-4.3zm-6.6 14.5h6.6v-4.5h-6.6v4.5zm109.9-17.9h-23.6c-.5.8-1.2 2-2.2 3.5h29.2c-.1 1-.2 1.8-.2 2.4 0 5.7-.1 10.1-.3 13.4-.2 3.2-.7 5.8-1.4 7.6-.9 2-2.4 3.6-4.8 4.6-2.3 1.1-5.5 1.6-9.5 1.6-.1-.4-.3-.9-.5-1.6-.2-.7-1-3.1-2.3-7.1 1.3.5 2.8.7 4.4.7 2.8 0 4.6-.9 5.4-2.8.4-.9.6-2.3.8-4 .2-1.8.3-4.7.3-8.8H140c-1.3 3.2-2.9 6.3-4.8 9.3-1.9 3-4.2 5.8-6.8 8.5-2.6 2.7-5.4 4.9-8.4 6.6-.4-.6-1.2-1.3-2.4-2.4-1.2-1-2.4-1.9-3.5-2.7 3.6-1.8 7.1-4.4 10.5-7.9 3.4-3.5 6.1-7.3 8.1-11.4h-3.8c-1.1 1.9-2.5 3.9-4.2 6-1.7 2.1-3.9 4.4-6.6 6.8-2.7 2.4-5.7 4.4-9 6-.5-.9-2.2-2.7-5.1-5.5 1.5-.6 3.1-1.5 5.1-2.7 1.9-1.2 3.9-2.8 6.1-4.6 2.1-1.9 4-3.9 5.6-5.9h-4.4c-1.3 1.4-2.7 2.7-4.2 4-1.5 1.3-2.8 2.3-4.1 3.1s-2.4 1.5-3.3 2c-.7-1.2-2.4-3.1-5.2-5.8 1.8-.8 3.7-2 5.8-3.5-1.4.7-3.3 1.5-5.8 2.5s-4.8 1.9-7 2.7c-2.1.8-3.8 1.4-4.9 1.8-.7.3-1.9.8-3.6 1.5l-2-8.6 4.1-1.1c1.5-.5 3-1 4.6-1.6V29.9h-3.7l-3.2.1v-7.9l3.3.1h3.7V9c0-1-.1-2.1-.2-3.2 5.4.2 8.3.3 8.7.4-.1 1-.2 1.9-.2 2.8v13.1h2.9l3.3-.1v8l-3.3-.1h-2.9v15.4c3-1.2 5-2.1 6.1-2.7l.5 8.5c1.7-1.3 3.4-2.8 4.9-4.3s2.9-3.2 4-4.8h-3.6c-2.4 0-4.2.1-5.2.2V35c1 .1 2.7.2 5.2.2H147c2.5 0 4.3 0 5.3-.2v7.1c-.9-.1-2.7-.2-5.2-.2zm-35.8-10c.1-.9.2-1.7.2-2.5V10.5c0-.7-.1-1.6-.2-2.6h35.4c-.1.6-.1 1.5-.1 2.6v18.9l.1 2.5h-35.4zm27.3-18.4h-19.2v3.8h19.2v-3.8zm-19.1 12.9h19.2v-3.9h-19.2v3.9zm163.9 14.2c1.3 3.1 2.9 6 4.9 8.8 2 2.8 4.3 5.3 6.8 7.6 2.5 2.2 5.2 4.2 8.2 5.9 2.9 1.7 5.9 3 9 3.9-.9 1.2-2 2.6-3.1 4.2-1.2 1.7-2 3-2.5 4-6.4-2.4-12.2-6-17.1-10.7-5-4.7-9-10.3-12.1-16.8-2.7 6-6.5 11.4-11.6 16.2-5.1 4.7-10.9 8.3-17.6 10.8-.7-1-1.6-2.3-2.9-4-1.3-1.7-2.5-3-3.5-4.2 7.4-2.4 13.6-5.7 18.5-10s8.4-9.5 10.3-15.6H250c-3.1 0-5.3.1-6.4.2v-9.1c1.2.1 3.3.2 6.4.2h22.2l.1-2.8v-9.7H256c-3.5 0-5.8.1-7.1.2v-9c1.3.1 3.6.2 7.1.2h41.6c3.5 0 5.8 0 7-.2v9c-1.2-.1-3.6-.2-7-.2h-16.4v10.1l-.1 2.3h22.3c3.2 0 5.3 0 6.5-.2v9.1c-1.2-.1-3.3-.2-6.5-.2h-20zm99 21.3c3.6 0 6.1 0 7.4-.2v8.9c-1.3-.1-3.8-.2-7.4-.2h-52.1c-3.6 0-6.1 0-7.4.2v-8.9c1.3.1 3.8.2 7.4.2h20.8V43.7h-14.4c-2.9 0-4.8.1-5.9.2v-8.8c1.1.1 3 .2 5.9.2h14.4V19.6h-18.3c-3.3 0-5.6.1-6.8.2V11c1.2.1 3.5.2 6.8.2h47.1c3.3 0 5.5 0 6.7-.2v8.8c-1.2-.1-3.5-.2-6.7-.2h-19.3v15.6h15.2c2.9 0 4.8 0 5.9-.2v8.8c-1.1-.1-3-.2-5.9-.2h-15.2v18.2h21.8zm-219.555-7.604 5.717-6.95.54.444-5.716 6.95zM200.6 64.9v-5.2l21.4.1v-7l-21.4.2v-4.7l24.6.1v-7.2c-1 .1-24.6.1-24.6.1v-2.6H192v2.6h-7.3l-1.6 2-4 4.9h13V53l-16.8-.1-5.7 6.9 22.4-.1v5.2l-29.2-.1v7.8h66.3v-7.8l-28.5.1zm5.1-50.1h7.7v13.6h-18l-5.3 6.4h31.6V8.3h-7.2l-8.7 6.3c0 .1-.1.1-.1.2z"/><path class="st0" d="m168.6 43.2 5.1 4.2-5.5 6.7.5.4 16.6-20.2 8.8-10.7 1.1-1.3-11.7 8.5c-.8.5-1.8-.2-1.5-1.1l2.2-6.6-4.3 5.2h-1.2V14.8h7.7c0-.1-.1-.1-.2-.1l-8.7-6.3h-7.2v26.5h4.3l-5.1 6.2-4.7 5.8.5.4 3.3-4.1z"/><path class="st0" d="m189 21.8 7.1-5.2 2.4 1.8 4.6 3.4-2.1-6.5-.6-1.8 7.1-5.2h-8.8L196.1 0l-2.7 8.3h-8.8l7.1 5.2zM.4 85.4c1.9 0 3.7 0 5.6.1 13.4.1 26.8.4 40.3.3 16.5-.1 32.9-.8 49.4-.7 44.3.3 88.6 1 132.9 1.5 3 0 6.1-.1 9.1.1 1.4.1 2.7.9 4.1 1.4-.1.4-.1.7-.2 1.1-2.2.4-4.4 1-6.7 1-22.1.5-44.3 1.2-66.4 1.2-36.2-.1-72.4-.7-108.7-1.1-15.1-.2-30.3-.2-45.4-.6-4-.1-8-1.1-11.9-1.8-.9-.1-1.7-.9-2.5-1.3.1-.4.3-.8.4-1.2zM328 88.8c-4.1.3-7.5.7-11 .8-15.2.1-30.4.1-45.6 0-3.6 0-7.2-.6-10.8-1.1-1.5-.2-3.2-.5-3.4-3.2 2-.2 4-.5 6-.4 19.3.3 38.6.6 58 1 2.3 0 4.8 0 6.8 2.9zm33-.9c-1.9.4-3.2.8-4.4.8-4.8.1-9.5.2-14.3 0-1 0-2-1.1-3-1.7 1-.6 2-1.7 2.9-1.7 5.6.2 11.3.7 16.9 1.2.5 0 .8.6 1.9 1.4zm26.7.6c-5.3-.1-10.6-.1-15.9-.2-.6 0-1.2-.1-1.7-.4-.8-.5-1.4-1.2-2.1-1.7.8-.5 1.5-1.2 2.3-1.3 1.4-.2 2.9-.1 4.4 0 3.2.3 6.5.8 9.7 1.3 1.1.2 2.2.8 3.3 1.2.1.4 0 .8 0 1.1z"/></svg>