<svg xmlns="http://www.w3.org/2000/svg" width="387.8" height="91.5" style="overflow:visible;enable-background:new 0 0 387.8 91.5" xml:space="preserve"><style>.st0{fill:#ffe656}</style><path class="st0" d="M179.6 66c3.2 0 5.4 0 6.6-.2v6.9c-1.2-.1-3.5-.2-6.7-.2h-53.9c-3.2 0-5.5 0-6.7.2v-6.9c1.3.1 3.5.2 6.6.2-.5-.8-1.4-2.1-2.9-4.1 1.9-.6 3.8-1.3 5.7-2.2 1.9-.9 3.5-1.9 4.7-3.1h-5c-2.9 0-4.9.1-6 .2v-5.9c1.1.1 3.1.2 6 .2h48.8c2.9 0 4.9 0 6-.2v5.9c-1.1-.1-3.1-.2-6-.2h-2.4l-1.1 1.8c2.9.8 6 1.9 9.4 3.6l-3.1 4zm-59.8-34.9c.1-.7.2-1.4.2-2V18c0-.5-.1-1.2-.2-2h28.8v-2.6H130c-2.7 0-4.6.1-5.7.2v-6c1.1.1 3 .2 5.7.2h45.5c2.7 0 4.6 0 5.7-.2v6c-1.1-.1-3-.2-5.7-.2h-19.1V16h29.1l-.1 2v11l.1 2h-8.3v-9.7h-20.8V31c0 1.4 0 2.3.2 2.8h-8.1c.1-.5.2-1.4.2-2.8v-9.7h-20.3V31h-8.6zm21.1 4.9c-.1.4-.1 1-.1 1.8v8.8c0 .9 0 1.5.1 1.8h-18.1c0-.4.1-1 .1-1.8v-8.8c0-.9 0-1.5-.1-1.8h18.1zm-12.6 8.2h7.1v-4h-7.1v4zM140.9 66c-2.5-1.5-4.5-2.5-6.2-3.2-1.2 1-2.8 2.1-4.7 3.2h10.9zm1.7-38.9H134l-2.5.1v-4l2.5.1h8.6l2.5-.1v4l-2.5-.1zm2.5 5.8-2.5-.1H134l-2.5.1v-4l2.5.1h8.6l2.5-.1v4zm3.2 23.8h-7.8c-.7 1-1.3 1.8-1.7 2.3 2.3.6 5 1.6 7.9 3.1l-3.1 3.9h4.7v-9.3zM161.6 36c-.1.4-.1 1-.1 1.8v8.8c0 .9 0 1.5.1 1.8h-18.1c0-.4.1-1 .1-1.8v-8.8c0-.9 0-1.5-.1-1.8h18.1zM149 44.2h7v-4h-7v4zm9.2 18.4c1.6-.5 3.2-1.3 4.9-2.3 1.7-1.1 3.2-2.3 4.3-3.6h-11V66h4.7c-.4-.6-1.3-1.7-2.9-3.4zm12.7-35.5h-8.5l-2.5.1v-4l2.5.1h8.5l2.5-.1v4l-2.5-.1zm0 5.8h-8.5l-2.5.1v-4l2.5.1h8.5l2.5-.1v4l-2.5-.1zm11.5 3.1c-.1.4-.1 1-.1 1.8v8.8c0 .9 0 1.5.1 1.8h-18.2c0-.4.1-1 .1-1.8v-8.8c0-.9 0-1.5-.1-1.8h18.2zM170 62.5c-.5.5-1.2 1.1-2.2 1.9-1 .7-1.8 1.3-2.4 1.6H177c-1.1-.7-2.3-1.4-3.7-2-1.3-.7-2.4-1.2-3.3-1.5zm-.3-18.3h7.2v-4h-7.2v4zm51.7-19.3c-.4 2.8-1.1 5.4-2.1 7.8-1.1 2.4-2.4 4.5-4.2 6.3-1.7 1.8-3.8 3.3-6.2 4.5-2.4 1.2-5.1 2-8.1 2.5-.6-1.7-1.6-3.9-3.1-6.6 3.8-.7 6.8-1.5 9.1-2.6s4.1-2.5 5.4-4.3c-1 .2-2.4.4-4.3.7-1.9.3-3.4.6-4.5.9-1.1.3-1.9.5-2.4.6l-2-6.6c1-.1 2-.5 2.9-1.2 1.7-1.3 3.5-3 5.4-5-3.5.5-5.8.9-7.1 1.2l-1.2-6.2c.9-.3 1.5-.5 1.9-.8.4-.3.7-.5.9-.7 1.1-1.3 2.3-2.8 3.6-4.7 1.3-1.9 2.4-3.7 3.3-5.5l6.7 3.2c-.5.4-1 .9-1.5 1.6-2.3 2.9-4.4 5.2-6.3 6.8l4.8-.8 2.9-4.1 6 3.8c-.7.6-1.3 1.2-1.9 1.8-1.3 1.6-2.9 3.3-4.8 5.1-1.9 1.8-3.6 3.3-5.1 4.4l5.3-.6c.3-.9.5-2 .8-3.3l5.8 1.8zm39.4 23.5v14.3l.2 5.7c0 1-.2 1.9-.7 2.8-.5.9-1.2 1.6-2.3 2.2-1 .6-2.4 1.1-4 1.4-1.7.3-3.6.5-5.8.5-.6-1.6-1.6-4-3.1-7.1 1.5.2 3.3.3 5.4.3.3 0 .7-.1 1.2-.2s.8-.4.9-.7c.2-.4.2-.7.2-1.1V52.2h-41.2v19.9c0 1.4 0 2.3.2 2.9h-8.3c.1-.6.2-1.6.2-2.9V48.8c0-.6-.1-1.4-.2-2.4h21.6c.3-.4.8-1.1 1.6-2.3.8-1.2 1.5-2.3 2-3.4l8.4 1.4c-.5.5-.7.8-.8.9l-2.5 3.4h27v2zm-14.9 17.9.1 2h-20.8v3.6h-7.3c.1-.8.2-1.5.2-2.1V56.9c0-.5-.1-1.2-.2-2.1H246l-.1 2v9.5zm-25.2-30.4c1.1-.7 1.7-1.7 1.7-3.2V12.4c0-.7-.1-1.5-.2-2.5h6.6c-.5-1.2-1-2.2-1.6-3.1l7.3-1.2c.2.2.4.6.7 1.3.3.7.7 1.7 1.2 3h6.4c-.1.5-.1 1.3-.1 2.4v13.5l.1 2.5h-4.3c2.3 2.7 4.6 6.1 6.7 10.4l-5.3 2.9c-.2-.6-.6-1.3-1.1-2.3-.5-1-.9-1.7-1.3-2.3l-11.3 3.2c-1.5.5-2.6.9-3.6 1.2l-1.9-5.5zm4.5 27.3h13.6v-3.5h-13.6v3.5zm3.6-48.3v1.9h7.6v-1.9h-7.6zm0 6.4v1.9h7.6v-1.9h-7.6zm6 11.2-1.6-2.2 4.2-2h-8.7V34c1.4-.3 3.4-.8 6.1-1.5zm26.3-9.7c3.1 2.9 4.7 5.9 4.7 9.1 0 2.6-.9 4.6-2.7 6.1-1.8 1.5-4.2 2.3-7.3 2.3-.1-.3-.3-.7-.5-1.3-.3-.6-.7-1.6-1.3-3-.6-1.4-1-2.3-1.2-2.8 1.7.3 2.7.4 3.1.4.9 0 1.7-.3 2.3-1 .6-.7.9-1.5.9-2.5 0-1.1-.4-2.2-1.2-3.4-.8-1.1-2.1-2.2-3.7-3.1 1.1-2 2.3-4.9 3.9-8.9h-5.6v25.2c0 1.6 0 2.7.2 3.3H246c.1-.6.2-1.7.2-3.3V10.5c0-.7-.1-1.5-.2-2.5h15l.7-.8c1 .9 1.9 1.6 2.7 2.4.8.7 1.5 1.5 2.2 2.3l-.8.4c-.5 1.3-1.1 2.9-2 5.1-1.1 2-1.9 3.9-2.7 5.4zM330 53.6h8.3c3.4 0 5.7 0 7-.2v7.4c-1.3 0-3.6-.1-7-.1H330v.3l.2 5.8c0 1.2-.3 2.3-.9 3.2-.6 1-1.5 1.8-2.7 2.4-1.2.7-2.9 1.2-4.9 1.5-2.1.4-4.5.5-7.3.5-1.7-3.8-2.9-6.5-3.9-8.1 2.2.4 4.4.5 6.5.5 1.7 0 2.8-.2 3.5-.5.7-.4 1-.9 1-1.7v-3.9h-24.3c1.7.6 3.6 1.4 5.8 2.4 2.1 1 4.1 2 5.8 2.9-1.6 1.7-3.4 3.8-5.5 6.5-1.3-1-3-2.1-5.1-3.3-2.1-1.2-3.9-2.2-5.5-2.9-1.6-.8-2.8-1.3-3.6-1.6l3.9-4h-9c-3.4 0-5.7 0-7 .1v-7.4c1.3.1 3.6.2 7 .2h37.4v-2.7h-3.3c-8.3 0-14.6-.7-18.9-2.1-4.3-1.4-7.3-3.5-9-6.3-1.3 1.5-2.7 3-4.5 4.3-1.7 1.4-3.5 2.6-5.3 3.6-1.1-1.9-2.5-4-4.3-6.3 5.4-2.4 9.2-5.4 11.6-9.2H284c-1.8 0-3.1 0-3.8.1l-1.3-5.4c.2-.1.6-.3 1.1-.5.6-.3 1.1-.6 1.7-1.1 1.1-.8 2.4-2.1 3.9-4h-8v-6.3l2.9.1h7.4c-1-1.1-2.3-2.4-3.9-3.9s-3-2.6-4.2-3.6l4.9-4.6c1.5 1.1 3.2 2.3 4.9 3.8 1.8 1.5 3.3 2.9 4.6 4.3L291 17c1.4.7 3.3 1.9 5.8 3.6l-.8.4c-1.5 2.2-3.5 4.8-6.2 7.8h1.4l.9-.7c.6.3 2.3 1.4 5.1 3.3l-1.2.8c-.6 1.6-1.1 2.9-1.7 3.9.1 1.1.5 2.1 1.1 3 .6 1 1.6 1.8 2.9 2.4 1.3.6 2.9 1.1 4.7 1.4 1.8.3 4 .6 6.5.8 2.5.2 5.5.3 8.8.3 4.9 0 10-.2 15.5-.5 5.4-.3 9.7-.7 12.9-1.1l-2 7c-3 .4-7.9.8-14.7 1.1v3.1zm-13.7-37.7h-14.6c-2.4 0-4.2.1-5.2.2V9.6c1.1.1 2.8.2 5.2.2h6.3c-.7-1-1.3-1.7-1.8-2.3-.5-.6-.8-1-1-1.1l7.8-1.1c.9 1 2 2.5 3.3 4.6h8.2c1.3-2.1 2-3.6 2.3-4.7l7.9 1.7-.7.9c-.3.5-.7 1.1-1.3 2h7.2c2.5 0 4.2 0 5.2-.2V16c-1-.1-2.7-.2-5.2-.2H324l-.9 2.2h17.1l-.1 2.4v18.8l.1 2.5h-38.9l.1-2.5V20.5l-.1-2.4h14.1c.4-.8.7-1.6.9-2.2zm16.1 8.9v-2.3h-23.1v2.3h23.1zm-23.1 3.9v2.1h23.1v-2.1h-23.1zm0 8.5h23.1v-2.5h-23.1v2.5zM41.74 54.28l5.717-6.95.54.444-5.716 6.95zM79.4 64.9v-5.2l21.4.1v-7l-21.4.2v-4.7l24.6.1v-7.2c-1 .1-24.6.1-24.6.1v-2.6h-8.5v2.6h-7.3l-1.6 2-4 4.9h13V53l-16.8-.1-5.7 6.9 22.4-.1v5.2l-29.2-.1v7.8H108v-7.8l-28.6.1zm5.2-50.1h7.7v13.6h-18L69 34.8h31.6V8.3h-7.2l-8.7 6.3c0 .1-.1.1-.1.2z"/><path class="st0" d="m47.5 43.2 5.1 4.2-5.5 6.7.5.4 16.6-20.2L73 23.6l1.1-1.3-11.7 8.5c-.8.5-1.8-.2-1.5-1.1l2.2-6.6-4.3 5.2h-1.2V14.8h7.7c0-.1-.1-.1-.2-.1l-8.7-6.3h-7.2v26.5h4.3L48.4 41l-4.7 5.8.5.4 3.3-4z"/><path class="st0" d="m67.9 21.8 7-5.2 2.5 1.8 4.6 3.4-2.1-6.5-.6-1.8 7.1-5.2h-8.8L74.9 0l-2.6 8.3h-8.8l7.1 5.2zM.4 85.4c1.9 0 3.7 0 5.6.1 13.4.1 26.8.4 40.3.3 16.5-.1 32.9-.8 49.4-.7 44.3.3 88.6 1 132.9 1.5 3 0 6.1-.1 9.1.1 1.4.1 2.7.9 4.1 1.4-.1.4-.1.7-.2 1.1-2.2.4-4.4 1-6.7 1-22.1.5-44.3 1.2-66.4 1.2-36.2-.1-72.4-.7-108.7-1.1-15.1-.2-30.3-.2-45.4-.6-4-.1-8-1.1-11.9-1.8-.9-.1-1.7-.9-2.5-1.3.1-.4.3-.8.4-1.2zM328 88.8c-4.1.3-7.5.7-11 .8-15.2.1-30.4.1-45.6 0-3.6 0-7.2-.6-10.8-1.1-1.5-.2-3.2-.5-3.4-3.2 2-.2 4-.5 6-.4 19.3.3 38.6.6 58 1 2.3 0 4.8 0 6.8 2.9zm33-.9c-1.9.4-3.2.8-4.4.8-4.8.1-9.5.2-14.3 0-1 0-2-1.1-3-1.7 1-.6 2-1.7 2.9-1.7 5.6.2 11.3.7 16.9 1.2.5 0 .8.6 1.9 1.4zm26.7.6c-5.3-.1-10.6-.1-15.9-.2-.6 0-1.2-.1-1.7-.4-.8-.5-1.4-1.2-2.1-1.7.8-.5 1.5-1.2 2.3-1.3 1.4-.2 2.9-.1 4.4 0 3.2.3 6.5.8 9.7 1.3 1.1.2 2.2.8 3.3 1.2.1.4 0 .8 0 1.1z"/></svg>