<svg xmlns="http://www.w3.org/2000/svg" width="117.3" height="33.1" style="overflow:visible;enable-background:new 0 0 117.3 33.1" xml:space="preserve"><path d="M62.7 16.8c0 4.4.2 8.8 0 13.2-.2 2.9-1.8 3.8-4.4 2.6-.9-.4-2.1-1.7-2.2-2.6-2.1-10.2-.7-10.8 0-20.8 0-.6.9-1.4 1.4-1.4 1.4 0 2.9.4 3.2 2.3.8 5 .6.5 1.5 5.6.1.3.1.7.1 1 .2.1.3.1.4.1zM24.9 21c.8-1.7 1.2-3.2 2-4.4 2-2.7 4.2-5.3 6.3-7.9.3-.4.6-.9 1-1 1.4-.3 2.9-.4 4.4-.6.1 1.4.7 3.1.2 4.1-1.8 3.6-4 7-6.2 10.4-1 1.5-2.8 2.5-4.9 1.6-1-.4-1.8-1.4-2.8-2.2zM78 2.9c2.1 1.1 4.1 1.6 5 2.8 2.7 3.6 5.3 7.5 7.5 11.4 1.4 2.6.2 3.9-2.7 3.2-1.1-.3-2.4-.8-3.1-1.7-3.6-4.4-6-9.3-6.7-15.7zm-78 5C.4 3.4 6.3-.5 11.2.7c.7 4.7-5.9 9-11.2 7.2zM106.2 0c4.2 0 9.2 3.2 11.1 7-3.4.6-9.1-3-11.1-7z"/></svg>