<!-- Generator: Adobe Illustrator 25.0.0, SVG Export Plug-In  -->
<svg version="1.1" xmlns="http://www.w3.org/2000/svg" xmlns:xlink="http://www.w3.org/1999/xlink" x="0px" y="0px" width="117.3px"
	 height="33.1px" viewBox="0 0 117.3 33.1" style="overflow:visible;enable-background:new 0 0 117.3 33.1;" xml:space="preserve">
<defs>
</defs>
<g>
	<path d="M62.7,16.8c0,4.4,0.2,8.8,0,13.2c-0.2,2.9-1.8,3.8-4.4,2.6c-0.9-0.4-2.1-1.7-2.2-2.6C54,19.8,55.4,19.2,56.1,9.2
		c0-0.6,0.9-1.4,1.4-1.4c1.4,0,2.9,0.4,3.2,2.3c0.8,5,0.6,0.5,1.5,5.6c0.1,0.3,0.1,0.7,0.1,1C62.5,16.8,62.6,16.8,62.7,16.8z"/>
	<path d="M24.9,21c0.8-1.7,1.2-3.2,2-4.4c2-2.7,4.2-5.3,6.3-7.9c0.3-0.4,0.6-0.9,1-1c1.4-0.3,2.9-0.4,4.4-0.6
		c0.1,1.4,0.7,3.1,0.2,4.1c-1.8,3.6-4,7-6.2,10.4c-1,1.5-2.8,2.5-4.9,1.6C26.7,22.8,25.9,21.8,24.9,21z"/>
	<path d="M78,2.9c2.1,1.1,4.1,1.6,5,2.8c2.7,3.6,5.3,7.5,7.5,11.4c1.4,2.6,0.2,3.9-2.7,3.2c-1.1-0.3-2.4-0.8-3.1-1.7
		C81.1,14.2,78.7,9.3,78,2.9z"/>
	<path d="M0,7.9c0.4-4.5,6.3-8.4,11.2-7.2C11.9,5.4,5.3,9.7,0,7.9z"/>
	<path d="M106.2,0c4.2,0,9.2,3.2,11.1,7C113.9,7.6,108.2,4,106.2,0z"/>
</g>
</svg>
