<svg xmlns="http://www.w3.org/2000/svg" width="342.2" height="106.7" style="overflow:visible;enable-background:new 0 0 342.2 106.7" xml:space="preserve"><path d="M113.1 25.2c1.6 0 2.7 0 3.3-.1v3.7c-.7-.1-1.8-.1-3.6-.1h-4.1l.1 2.9c0 .7-.2 1.3-.5 1.8s-.8.9-1.5 1.3-1.7.6-2.8.8c-1.2.2-2.6.3-4.2.3-.5-1.1-1.2-2.5-2.1-4.2 1.4.2 2.7.3 3.9.3 1 0 1.7-.1 2.1-.3s.6-.5.6-1v-1.8H92c.9.3 1.7.6 2.6 1 .9.4 1.7.7 2.4 1.1-.3.5-1.1 1.5-2.4 3.1-.4-.3-1-.6-1.7-1.1-.8-.4-1.6-.8-2.7-1.3-1-.4-1.9-.8-2.5-1l1.6-1.9H85c-1.7 0-2.9 0-3.5.1v-3.7c.7.1 1.8.1 3.5.1h19.3v-.6l-.1-1c.5 0 1.3 0 2.4.1 1.1 0 1.8.1 2.3.1-.1.3-.1.6-.1.9v.6h3.7c-.5-.8-1-1.5-1.5-2.2-3.1.1-7.6.3-13.6.5s-10.3.3-12.9.3l-2.1.1-.3-3.5 2.6.2c1.7.1 5.8.1 12.2 0v-1.6H86.1c.1-.4.1-.8.1-1.3V8.7c0-.4 0-.8-.1-1.3h10.8V5.9H85.3c-1.6 0-2.8 0-3.4.1V2.4c.6.1 1.8.1 3.4.1h11.6v-1c0-.5 0-1-.1-1.5.6 0 1.4 0 2.4.1 1.1 0 1.8.1 2.3.1l-.1 1.4v1h11.1c1.6 0 2.7 0 3.4-.1V6c-.7-.1-1.8-.1-3.4-.1h-11.1v1.6h10.9v11c1.6 1.7 2.9 3.2 3.9 4.4l-3.1 2.3zM96.9 10.3h-6.4v1.6h6.4v-1.6zm-6.4 5.8h6.4v-1.7h-6.4v1.7zm17.4-5.8h-6.5v1.6h6.5v-1.6zm0 5.8v-1.7h-6.5v1.7h6.5zm-6.5 4.3 7.3-.2c-.3-.3-.7-.8-1.2-1.3h-6.1v1.5zm55.1.6c-.1.5-.1 1-.1 1.3 0 3.3-.1 5.7-.2 7.1-.1 1.4-.3 2.5-.6 3.3-.4 1-1.2 1.9-2.3 2.4-1.1.6-2.7.8-4.6.8 0-.2-.2-.8-.6-1.8l-.9.4-.6-1.4c-1.5.2-4 .4-7.6.7-3.6.3-6.2.5-7.8.6l-1.5.2-.5-2.9h1.9c1.2 0 3.7-.2 7.6-.5v-1.6h-7.1c.1-.3.1-.6.1-.9v-3.4c-.7.5-1.4.9-2.2 1.4-.2-.3-.7-1-1.5-2.1-.3 1.8-.7 3.6-1.2 5.2s-1 2.9-1.5 4c-.5 1-1 1.9-1.4 2.4-.4-.4-1.5-1.6-3.4-3.6.9-1.4 1.6-3.1 2.2-5.2s1-4.4 1.3-7c.3-2.5.4-5.3.4-8.3V2.6l-.1-1.3h31.1v5.5H129v5.3c0 1.8-.1 3.7-.2 5.6-.1 1.9-.3 3.7-.5 5.2.8-.4 1.6-.9 2.3-1.4.7-.6 1.4-1.1 1.9-1.8h-2c.1-.4.1-.7.1-.9v-3.9c0-.2 0-.5-.1-.9h24.9v5.7h-18.6c-.5.7-.7 1.2-.8 1.3h20.5zm-5.6-17.5H129v1.1h21.9V3.5zm-20.3 10.2-1.1-2.5c1.4-.2 2.2-.2 2.4-.3.2 0 .3 0 .5-.1 2.9-.3 4.6-.5 5-.6.4-.1 1-.2 1.6-.3l1 2.1c-1.4.3-3.6.6-6.4 1.1l-3 .6zm8.1-5.6-1.1 2.1c-2.8-.6-5-.9-6.5-1.1l1.3-2 6.3 1zm-6.3 16.6h6.2v-1.3h-4.8c-.5.5-.9 1-1.4 1.3zm5.3-8.7h-3.6v1.7h3.6V16zM135 26.5v1.2h3.8v-1.2H135zm5.7-13.5c.1-.3.1-.6.1-.9V7.6c.6 0 1.4 0 2.4.1 1 0 1.7.1 2.1.1V12c0 .3 0 .6.1.9h-4.7zm3.9 3H141v1.7h3.6V16zm1.3 11.7v-1.2H142v1.2h3.9zm-3.8 3.1 3.1-.3-.4-.5 1.6-.5H142v1.3zm7.5 1.5c.4 0 .8-.1 1.1-.2.3-.1.5-.3.7-.5.2-.2.3-.4.4-.6.1-.3.2-1 .3-1.8.1-.9.1-2.8.2-5.7h-10v1.3h7v4.8h-1.4c.1.1.3.4.7.9.2.4.6 1 1 1.8zm-3.8-20.1 1.3-2 1 .1-1.3-1.9c1.5-.2 3.5-.6 6-1.1l1.9 1.9h-.4c-2.6.6-4.5 1-5.9 1.2 2.4.3 5 .6 7.6 1l-1.1 2.2c-3.3-.6-6.4-1.1-9.1-1.4zm5.9 3.8H148v1.7h3.7V16zm18.4-6.6v24.3c0 .7 0 1.5.1 2.4h-4.6c.1-.9.1-1.7.1-2.4 0-2.1.1-4.9.2-8.4.1-3.4.3-6.5.4-9.3-1 1.9-2 3.3-2.8 4.3-.4-1-1.1-2.6-2.2-4.8.9-1 1.9-2.3 2.9-4 1-1.7 1.9-3.6 2.9-5.7.9-2.1 1.6-4.1 2.1-5.9l4.2 1.4-.2.4c-.3 1-.7 2.1-1.2 3.4-.6 1.5-1.2 2.9-1.9 4.3zm10.5 8.1c-.1.1-.2.4-.3.8-1.3 5.1-2.9 9.1-4.9 12-.5-.6-1.6-1.7-3.4-3.2.8-1 1.5-2.2 2.2-3.7.7-1.5 1.3-2.9 1.7-4.2.4-1.3.8-2.5 1-3.3l3.7 1.6zm-5.3-1.6c-.2-.3-.6-.7-1.2-1.4-.6-.6-1.2-1.3-1.9-1.9.8-1 1.6-2.4 2.4-4.1.8-1.7 1.3-3.3 1.7-4.8.4-1.5.6-2.7.7-3.7l4.2.8c-.1.2-.2.3-.2.5-.2 1.2-.5 2.5-.9 4h13.7l.4-.4c.5.3 1.1.7 1.8 1.2.6.5 1.2.9 1.6 1.3l-.4.2c-.4 1.5-.9 2.9-1.5 4.3-.6 1.3-1 2.3-1.3 2.9-.3.6-.5 1-.6 1.1-.4-.3-.9-.7-1.6-1.2-.7-.5-1.3-.8-1.9-1 .6-1 1.1-1.9 1.5-2.7.4-.8.6-1.3.7-1.6h-13.6c-.4 1.2-1 2.3-1.6 3.5-.7 1.1-1.4 2.1-2 3zm11.9-4.4c-.1.4-.1.7-.1.9v16.2l.1 3c0 2.8-2.8 4.2-8.3 4.2-.6-1.4-1.3-2.9-2.1-4.5 1.2.2 2.4.3 3.4.3.9 0 1.6-.1 1.9-.3.4-.2.6-.5.6-.9v-18l-.1-1.1c.1 0 .6 0 1.5.1.9 0 1.6.1 2.1.1h1zm5.3 4.4c.7 1.3 1.4 2.8 2.1 4.4.7 1.6 1.4 3 1.9 4.3.5 1.3 1 2.3 1.2 3.1l-3.5 2.7c-1.1-3.4-2.8-7.7-5.1-12.7l3.4-1.8zm44.4-10.2c-.1.5-.1 1-.1 1.4 0 6.9-.1 12.2-.3 15.8-.2 3.6-.7 6.3-1.4 8.1-.3.8-.7 1.4-1.2 1.9s-1 .9-1.6 1.3c-.6.3-1.2.6-2 .8-.8.2-1.6.4-2.6.5-1 .1-2 .2-3.1.2 0-.2-.1-.5-.3-1.1-.2-.5-.6-1.8-1.4-4 .9.2 2 .4 3.1.4 1.4 0 2.5-.2 3.3-.6.8-.4 1.4-1.1 1.7-2 .4-1.1.7-3.1.9-6 .2-2.9.2-7.1.3-12.6h-9c-.4.8-.8 1.8-1.4 2.8-.6 1-1.3 2-2 2.9-.2-.2-.6-.6-1.1-1-.5-.5-1.2-1-2-1.6v16.8l.1 2.1h-4.2v-1.7h-5.2v3.2h-4.3c.1-.8.1-1.6.1-2.2V7.8c0-.6 0-1.4-.1-2.2h4.2c.2-.8.5-1.8.7-2.9.2-1.1.3-2 .4-2.6l4.6.6-.3.6c-.4 1.7-.8 3.1-1.1 4.2h5.4l-.1 2.1v4.2c1.1-1.3 2.1-3 3-5.2 1-2.1 1.6-4.3 2.1-6.5l4.4.8-.4.5c-.4 1.7-.8 3.1-1.2 4.2h12.1zm-24.3 3.7h-5.2v6.2h5.2V9.4zm-5.2 16.7h5.2v-6.7h-5.2v6.7zm21.6-3.4-3.9 2.4c-.2-.6-.6-1.3-1.1-2.3-.5-.9-1.1-1.9-1.8-3s-1.3-2-1.8-2.6l3.4-2.2c.3.3.7.9 1.3 1.6.6.7 1.2 1.7 1.9 2.8.8 1.1 1.4 2.2 2 3.3zM102.7 99.2c2.6 0 4.4 0 5.3-.1v6c-1-.1-2.7-.1-5.3-.1h-40c-2.6 0-4.4 0-5.3.1v-6c1 0 2.7.1 5.3.1h17.1v-4H69.3c-1.9 0-3.2 0-4.1.1V90c-1 1.2-2.3 2.5-3.8 4-.6-.7-2.2-2.3-4.8-4.9.9-.6 2.1-1.6 3.4-2.9s2.7-2.9 4.1-4.8c1.4-1.9 2.3-3.6 2.8-5.1h-2.2c.1-.8.1-1.5.1-2.1V58c0-.6 0-1.4-.1-2.1h36l-.1 2.1v16l.1 2.1H67.2l6 1.6c-.1.1-.2.3-.4.7-.3.8-.7 1.7-1.3 2.7h8.3v-1.9c0-.6 0-1.2-.1-2 4.1.2 6.3.2 6.6.3-.1.7-.1 1.3-.1 1.7v1.9h14.5c2.1 0 3.5 0 4.3-.1v5.5c-.8-.1-2.2-.1-4.3-.1H86.2V90h12.3c1.9 0 3.3 0 4.1-.1v5.3c-.8-.1-2.1-.1-4.1-.1H86.2v4h16.5zm-33.4-9.1h10.5v-3.6H68.1c-.6.8-1.5 1.9-2.9 3.5.9 0 2.3.1 4.1.1zm25.1-29.3H71.2v2.9h23.2v-2.9zM71.2 71.2h23.2v-3.1H71.2v3.1zm43.7 32.2c.3-.8.6-1.9 1-3.4s.7-3.2.9-5c.2-1.8.4-3.3.5-4.4l4.5.9c-.1 2.3-.3 4.8-.7 7.5-.3 2.7-.8 5-1.3 6.9l-4.9-2.5zm3.9-28.8-1.9.3-1.3-4.9c.5-.2 1-.5 1.3-1 1.1-1.5 2.2-3.3 3.4-5.4 1.2-2.1 2.2-4 3-5.7.8-1.7 1.4-3.1 1.8-4.2l5.1 3.2-.6 1c-.8 1.8-1.9 3.8-3.3 6-1.3 2.2-2.5 4.1-3.6 5.5l4.9-.6c1.8-2.8 3.1-5.1 4.1-7l4.8 3.4-.7 1c-3.9 6.3-7.9 12-12.3 16.8l6.4-1.1c-.6-1.6-1.1-2.8-1.5-3.7l4.5-1.3c.7 1.5 1.4 3.2 2.1 5.4.7 2.1 1.3 4 1.7 5.5l-4.9 1.5c-.1-.4-.3-1.3-.6-2.7l-11.7 2.1-2.3.5-1.4-5.3c.7-.3 1.2-.6 1.6-1.1 2.1-2.4 4.4-5.3 6.9-8.9l-5.5.7zm4.7 16.7 4.3-.6c.4 1.8.8 3.8 1.1 6 .4 2.3.6 4.2.8 5.9l-5 .6c-.1-4.3-.6-8.2-1.2-11.9zm36 2.2c1.1 1.1 2.4 2.3 3.9 3.5 1.5 1.2 3 2.3 4.6 3.3-.3.4-.7 1.1-1.2 1.9s-1 1.7-1.3 2.4c-.4.7-.6 1.2-.8 1.5-1.7-1.2-3.3-2.4-4.8-3.8-1.5-1.3-2.9-2.7-4.2-4.2-3.3 3.6-7.1 6.4-11.5 8.3-.3-.5-1.5-2.2-3.6-5.1-1.1 1.9-2.4 3.6-3.9 5.1-1.8-1.8-3.3-3.4-4.7-4.8 1.4-1.1 2.6-2.5 3.7-4l-3.6 1.2c-.2-1.1-.4-2.4-.8-4s-.9-3.2-1.4-4.7l3.7-1c.5 1 1 2.1 1.5 3.5s.9 2.7 1.2 4c2.1-3.5 3.6-8.1 4.6-13.8 1-5.7 1.5-12.7 1.6-21.1h-1.9l-2.9.1v-6l2.9.1H157l.5-.5c1.5 1 3.1 2.2 4.9 3.8-.1.1-.2.1-.3.2-.1 0-.2.1-.3.1-.4 1.6-.9 3.6-1.6 6-.7 2.4-1.3 4.5-1.9 6.4h4.4l.5-.5c1 .6 1.9 1.4 2.8 2.1.9.8 1.5 1.3 1.8 1.6l-.6.3c-.8 3.3-1.9 6.5-3.2 9.6-1.2 3.2-2.7 6-4.5 8.5zm-18.6 7.7c3.9-1.8 7.5-4.4 10.9-8-1-1.5-1.9-3.2-2.7-5.1-.9-1.9-1.6-3.7-2.2-5.6-1.2 7.8-3.2 14-6 18.7zm19.8-23.7h-5.2c-.3 0-.7 0-1.3.1-.6.1-1 .1-1.3.1l-2.1-5.4c.5-.2 1-.6 1.5-1.5.5-.8 1-2.1 1.5-3.6.5-1.6.9-3.3 1.3-5.1h-6.8l-.1 2.1c.2 5.2.9 9.9 2.1 13.9 1.2 4 2.9 7.6 5 10.7 1.1-1.6 2.2-3.5 3.1-5.5a29 29 0 0 0 2.3-5.8zm16.8-21.2h19.6c1.5 0 2.6 0 3.2-.1v5.7c-.6 0-1.7-.1-3.2-.1h-4v5.3h6.6l-.1 2.9v32.8l.1 2.9h-5.3v-3h-13.9v3h-5.2c.1-1.1.1-2 .1-2.9V70c0-.8 0-1.7-.1-2.9h6.6v-5.3h-4.6c-1.5 0-2.6 0-3.3.1v-5.7c.9.1 2 .1 3.5.1zm3.2 41.3h13.9v-13l-1.7.1c-1.7 0-2.8-.2-3.4-.7-.5-.5-.8-1.4-.8-2.9v-8.8h-2.1v1c0 3.1-.3 5.9-1 8.4s-1.5 4.4-2.6 5.8c-.7-1.1-1.5-2.3-2.3-3.4v13.5zm2.4-25.4h-2.4v10.9c.8-1.3 1.3-2.7 1.7-4.4.4-1.7.6-3.8.7-6.5zm7 17c1.5 0 2.5 0 3.2-.1V94c-.6 0-1.7-.1-3.2-.1h-4.9c-1.5 0-2.5 0-3.1.1v-4.9c.6.1 1.7.1 3.1.1h4.9zm-1.4-22.1v-5.3h-2.2v5.3h2.2zm5.8 13.1v-8h-2.3v6.3c0 .7.1 1.2.3 1.4.2.2.7.3 1.5.3h.5zm26.3 9.5c2.6 1.8 4.6 3 6 3.7-.2 3.6-.8 6.2-1.7 7.7-.9 1.5-2.3 2.6-4 3.2-1.7.6-3.9.9-6.6.9-1.5 0-2.9 0-4.1-.1-1.3-.1-2.3-.2-3.1-.4-.8-.2-1.5-.5-1.9-.8-.7-.5-1.2-1.3-1.5-2.3-.3-1-.4-2.5-.4-4.4 0-1 .1-8.4.1-22.2 0-.5 0-.9-.1-1.3h14.3V62.4h-12.3l-2.6.1v-6l2.6.1h18.7l-.1 2.4v21l.1 2.4h-6.4v-3.1h-8.1v17.8c0 .9.4 1.4 1.1 1.7.6.1 2 .2 4.2.2 1.2 0 2.2-.1 2.9-.3.7-.2 1.3-.6 1.8-1.1.4-.5.7-1.4.9-2.6.1-1.2.2-3 .2-5.3zm28.7 2.7v4.9c5.2-.7 8.7-1.2 10.4-1.6l-.7 6c-1.5.3-5 .8-10.6 1.5-5.6.8-9.7 1.3-12.3 1.5l-2.7.5-1.1-6.2 3.6-.1c1.4-.1 3.8-.4 7.1-.7v-5.7h-5.1c-1.4 0-2.4 0-3 .1v-5.4c.6 0 1.6.1 3 .1h5.1v-4.9H237c-1.5 0-2.6 0-3.2.1V77c.6 0 1.7.1 3.2.1h2.1c-.5-1.7-1.2-3.7-2.1-6.1l3-.6h-3.8c-1.6 0-2.7 0-3.4.1v-5.6c.6 0 1.8.1 3.4.1h4.6v-9.3l-.1-1.5c1.3 0 2.9.1 5 .2-.1.5-.1 1-.1 1.4v9.3h2.2v-9.3l-.1-1.5c1.3 0 2.9.1 5 .2-.1.5-.1 1-.1 1.4v9.3h3.9c1.5 0 2.7 0 3.4-.1v5.6c-.7 0-1.8-.1-3.4-.1h-4.1l4 1.3c-.2.2-.4.5-.5.7 0 .1-.3.7-.7 1.8-.4 1.1-.8 2.1-1.1 2.9h1.8c1.5 0 2.6 0 3.2-.1v5.5c-.6 0-1.7-.1-3.2-.1h-6.2v4.9h5.2l3-.1v5.4l-3-.1h-5.4zm-9.1-29.8c-2.4.8-3.9 1.2-4.7 1.4-.4-1.2-.9-2.5-1.4-4-.6-1.5-1.1-2.6-1.4-3.4l4.7-1.4c.1.3.2.6.4.9.2.3.3.6.4.9.1.3.2.6.4 1s.3.8.5 1.3.4 1.2.7 2c.2.7.3 1.2.4 1.3zm1.5 7.6c.7 2 1.4 4.3 2.1 6.7h4.5c.5-1 .9-2.2 1.3-3.5.4-1.3.8-2.4.9-3.2h-8.8zm14.8-5.9-4.2-1.8c.6-.9 1.3-2.1 2.1-3.8.8-1.6 1.3-2.9 1.5-3.7l4.8 1.8-.5.7c-.5 1.1-1.1 2.3-1.8 3.7-.8 1.3-1.4 2.4-1.9 3.1zm25.2 1.9c1.6 0 2.7 0 3.4-.1v6.4c-.7 0-1.8-.1-3.4-.1H280v22.8l.1 4.7c0 1-.2 1.8-.7 2.6-.4.8-1.1 1.4-2 2-.9.6-2.1 1-3.6 1.3-1.5.3-3.2.4-5.1.4-.7-1.7-1.7-4-3-6.8.5.1 1.2.2 2.1.2 1 .1 1.8.1 2.6.1 1.3 0 2.1-.1 2.7-.4.5-.3.8-.7.8-1.3V72.4h-10.4c-1.6 0-2.7 0-3.3.1v-6.4c.6.1 1.8.1 3.3.1h10.4v-10c0-.8 0-1.6-.1-2.5.7 0 1.8 0 3.3.1 1.5.1 2.5.1 3.1.1-.1.9-.1 1.7-.1 2.3v10h1.8zm-10 22.5c-.9.3-1.9.7-3.1 1.1-1.1.4-2 .7-2.5.9-.6-1.9-1.3-4-2.1-6.2-.9-2.2-1.7-4.2-2.5-5.9l5.2-1.7c.8 1.5 1.7 3.3 2.7 5.7.9 2.2 1.6 4.3 2.3 6.1zm-263.5 14L22 92.8l4.6 3.4 9 6.5-4.1-12.4-1.1-3.6L44 76.9H27.1v-.1L22 60.9l-5.2 15.9v.1H0l13.6 9.8zm298.2 0 13.7-9.9 4.6 3.4 9 6.5-4.1-12.4-1.2-3.6 13.6-9.8h-16.8v-.1l-5.1-15.9-5.2 15.9v.1h-16.8l13.6 9.8z" style="fill:#e2809c"/></svg>