<svg xmlns="http://www.w3.org/2000/svg" width="387.8" height="91.5" style="overflow:visible;enable-background:new 0 0 387.8 91.5" xml:space="preserve"><style>.st0{fill:#ffe656}</style><path class="st0" d="M42.1 12.9c.1 4.6.6 9.1 1.5 13.6s2.2 8.7 3.9 12.6c1.7 4 3.8 7.6 6.2 11 2.4 3.4 5.3 6.4 8.7 9.2 3.3 2.8 7.1 5.1 11.1 7-2.8 4.4-4.6 7.3-5.4 8.8-3.3-1.9-6.4-4-9.4-6.4-3-2.4-5.6-5-7.8-7.7s-4.2-5.4-5.9-8.2c-1.7-2.8-3-5.6-4.2-8.4-1.1-2.8-2-5.3-2.6-7.6-1.7 7.8-5.1 14.9-10.2 21.6C22.9 65 16.4 70.6 8.6 75.1c-.7-1.2-1.6-2.6-2.7-4.4-1.2-1.8-2.1-3.2-2.9-4.3 2.7-1.3 5.2-2.7 7.5-4.2 2.3-1.6 4.5-3.2 6.4-5 1.9-1.8 3.7-3.8 5.5-6.1 1.7-2.3 3.4-5.1 5.1-8.7 1.6-3.5 3-7.8 4-13S33 18.3 33 11.6c0-2-.1-3.7-.2-4.9l9.5.3-.2 2.5v3.4zm71 44.4.1 14.7c0 1.2 0 2 .2 2.5h-8.5c.1-.5.1-1.3.1-2.5 0-2.3.1-5.7.4-10.1-2.4 2.4-5.1 4.6-8.2 6.6-3 2-6.1 3.7-9.1 4.9-.2-.4-.5-.9-1-1.7S85.9 70 85 69c-.9-1-1.5-1.8-2-2.3 2.2-.7 4.5-1.6 6.9-2.7 2.4-1.2 4.6-2.3 6.5-3.5 1.9-1.2 3.3-2.2 4.5-3.1H90.6c-2.3 0-4 .1-5 .2v-7.2c1 .1 2.6.2 5 .2h5.1c-.7-.9-1.6-1.9-2.8-3.1l-2.8-2.8 6-3.6c.4.3 1.1 1 2.2 2 1.1 1.1 2.4 2.5 4 4.3l-4.8 3.2h7.7v-8.2l-.2-2.1c5.1.2 7.9.3 8.2.4-.1.3-.1.9-.1 1.8v8.1h5.7l-3.8-2.9c1-.8 2.1-1.8 3.4-3.2 1.3-1.4 2.3-2.6 3-3.5.2.1 1 .7 2.6 1.7s2.7 1.8 3.3 2.3l-.7.7c-2 2.2-3.7 3.8-5.2 5h2.9c2.4 0 4 0 5-.2v7.2c-1-.1-2.6-.2-5-.2h-11.2zm33.9-6.5c1.1.9 2.3 1.9 3.7 3 1.4 1.1 2.4 1.8 3.1 2.2-.1 4.1-.5 7.4-1.2 9.9s-1.7 4.5-3 5.8c-1.3 1.3-3.2 2-5.5 2-1.9 0-3.6-.6-5.1-1.7-1.5-1.2-2.8-2.9-3.9-5.4-1.1-2.4-1.9-5.6-2.5-9.4-.6-3.9-.9-8.3-.9-13.4l.2-5H93.2c-2.7 0-4.5.1-5.5.2v-7.6l2.2.2c-.8-1-2.9-2.9-6.4-5.8 2.3-1.6 4.5-3.5 6.6-5.9 2.1-2.4 3.9-4.8 5.4-7.4 1.5-2.6 2.6-5.2 3.4-7.8l8.2 1.7-.5.9c-.5 1.5-.9 2.6-1.2 3.3h38c2.6 0 4.4 0 5.4-.2V18c-1-.1-2.8-.2-5.4-.2h-41.5c-.8 1.4-1.5 2.5-2.1 3.4.9.1 2.4.2 4.6.2h33.9c2.3 0 4 0 5-.2v6.6c-1 0-2.7-.1-5-.1h-33.9c-2.3 0-4 0-5 .1v-6.1c-1.3 1.9-2.7 3.7-4.3 5.4-1.6 1.7-3.2 3.2-4.7 4.4h50.5c-.1 1.1-.2 3.1-.4 5.9-.2 2.8-.2 5.4-.2 7.7 0 6.1.3 10.9 1 14.3.7 3.5 1.7 5.2 3.1 5.2 1.7-.1 2.6-4.6 2.6-13.8zm-33.5 12.4 4.8-5c.9.4 2.1.9 3.7 1.7 1.6.8 3.5 1.7 5.7 2.9 2.1 1.2 3.9 2.2 5.3 3.1l-4.3 6.4c-3.9-2.8-9-5.8-15.2-9.1zm187.1-49.9v56.6l.2 5.1h-8.3v-4.2h-46.2V75H238c.1-1.9.2-3.6.2-5.1V13.3c0-1.4-.1-3.1-.2-5h62.8l-.2 5zm-25.1 50.2h17v-48h-46.2v48H269l-2.1-4.8-4.2 3.9c-1-1-2.3-2-4-3.2-1.6-1.2-3.1-2.1-4.3-2.8l2-1.5h-4.3c-2.1 0-3.7 0-4.6.1v-5.5c1 0 2.5.1 4.6.1h22.7V49l-.2-1.4c-9.8.3-17.4.4-22.7.5L249 48l-1.7-5.5 4.2.2c2.7.2 7.5.1 14.4-.1v-2h-14.1c.1-.8.2-1.5.2-2V27.4c0-.6-.1-1.2-.2-2h14.1v-2h-13.1c-2.1 0-3.6 0-4.5.1v-5.3c.9.1 2.4.1 4.5.1h13.1v-.7l-.2-1.9c.9 0 2.2 0 3.9.1 1.7.1 2.9.1 3.5.2-.1.6-.2 1.2-.2 1.7v.6h12.7c2.1 0 3.6 0 4.5-.1v5.3c-.9 0-2.4-.1-4.5-.1H273v2h14l-.1 2v12.1c.8 1 1.6 2.1 2.5 3.3.9 1.3 1.6 2.4 2.2 3.5l-6 3.2c-.2-.4-.3-.8-.6-1.3-.2-.5-.4-.9-.6-1.2l-5.1.2 2.3.2c-.1.3-.1.8-.1 1.5v.8h4.8c2.2 0 3.7 0 4.7-.1v5.5c-1 0-2.5-.1-4.7-.1h-4.8l.1 2.7c.1 3-2 5-6.1 5.8zm-16.6-34.3v2h7.3v-2h-7.3zm0 5.4v2.2h7.3v-2.2h-7.3zm8 23.3c1.1.2 2.4.2 4.2.2 1.4 0 2.3-.2 2.9-.5.6-.3.8-.8.8-1.5V55h-12.6c.6.3 1.4.8 2.4 1.4 1 .6 1.8 1.1 2.3 1.5zM280 31.3v-2h-7.1v2h7.1zm-7.1 5.5h7.1v-2.2h-7.1v2.2zm.1 3.8v1.9c4-.1 6.8-.2 8.6-.3l-1.1-1.6H273zm69-5.5h2.7c1.9 0 3.2 0 4.1-.1v6.6c-.9 0-2.2-.1-4.1-.1h-24.9c-1.9 0-3.3 0-4.2.1V35c.9.1 2.2.1 4.2.1h3.5c-.7-1.8-1.4-3.4-2.2-4.9l2.5-.5h-2.2l-4 .1v-6.4l4 .1h7.3c-.5-1.1-1.2-2.3-2-3.6l7.6-1.1c.2.3.5.8.9 1.6.5.8.9 1.8 1.4 3.1h7.4l3.9-.1v6.4l-3.9-.1h-3.4l3.5 1.2-.6.8c-.3.8-.8 2-1.5 3.4zm-25.4-13.7c.1-.7.2-1.3.2-1.8v-7.3c0-.6-.1-1.2-.2-1.9H344c-.6-1.2-1.4-2.4-2.4-3.9l8.7-1.4c.9 1.4 1.8 3.2 2.9 5.3h27l-.1 2v7.2l.1 1.9h-8.7v-4.9h-46.2v4.9h-8.7zm30 24.7v15.6l.2 5.8c0 .4-.1 1-.3 1.8-.2.8-.6 1.5-1.2 2.1-.6.6-1.3 1.1-2.2 1.5-.9.4-2 .8-3.3 1.1-1.4.3-3.1.4-5.1.4-.6-1.5-1.6-3.9-3.1-7.3 1.2.2 2.7.3 4.4.3 1.2 0 2.1-.2 2.5-.5.5-.3.7-.8.7-1.5V64h-12.8v7.6c0 1.4 0 2.3.2 2.9h-7.7c.1-.5.1-1.5.1-2.9V46.2c0-.7-.1-1.4-.2-2.3h27.8v2.2zm-7.4 3.1h-12.8v2.5h12.8v-2.5zm-12.7 7.4v2.5h12.8v-2.5h-12.8zm1.5-27 2.3 5.4h4.8c1-2.1 1.8-3.9 2.3-5.4H328zm48.5 31.7 7.3 3.5c-.2 1.3-.4 2.4-.9 3.4-.4 1-1 1.8-1.7 2.6-.7.7-1.8 1.4-3.1 2-1.4.6-3.1 1-5.3 1.2-2.1.3-4.4.4-6.8.4-2.7 0-5.2-.1-7.5-.3-2.3-.2-4-.6-5-1.3-1-.7-1.7-1.6-2.1-2.8-.4-1.2-.6-3-.6-5.2 0-1.2.1-9.5.1-25.2 0-.7-.1-1.2-.2-1.6H368v-2.5h-17.3c.1-.8.2-1.7.2-2.6V20.2l-.1-2c.9 0 2.3 0 4.2.1 1.9.1 3.2.1 4 .2l-.1 1.7v2.4h16.5l3.2-.1V28l-3.2-.1h-16.5v2.3h17.4l-.1 1.7v9.2l.1 2h-17.4v2.2h14.4c1.3 0 2.3 0 3.1-.1v5.1c-.8 0-1.8-.1-3.1-.1h-14.4v2.3h14.4c1.3 0 2.3 0 3.1-.1v5.1c-.8 0-1.8-.1-3.1-.1h-14.4v2.3h14.4c1.3 0 2.3 0 3.1-.1v3.2c.1-.6.1-1.1.1-1.5zm-1.9 4.9c.2-.1.4-.3.6-.6.3-.3.4-.5.5-.7l-2.4-.1h-14.4v.2c0 1.2.6 2 1.7 2.3.5.1 1.3.2 2.6.3 1.3.1 2.5.1 3.5.1 1.7 0 3.2-.1 4.5-.2 1.3-.2 2.4-.6 3.4-1.3zM160.845 54.296l5.717-6.95.54.444-5.716 6.95zM198.6 64.9v-5.2l21.4.1v-7l-21.4.2v-4.7l24.6.1v-7.2c-1 .1-24.6.1-24.6.1v-2.6H190v2.6h-7.3l-1.6 2-4 4.9h13V53l-16.8-.1-5.7 6.9 22.4-.1v5.2l-29.2-.1v7.8h66.3v-7.8l-28.5.1zm5.1-50.1h7.7v13.6h-18l-5.3 6.4h31.6V8.3h-7.2l-8.7 6.3c0 .1-.1.1-.1.2z"/><path class="st0" d="m166.6 43.2 5.1 4.2-5.5 6.7.5.4 16.6-20.2 8.8-10.7 1.1-1.3-11.7 8.5c-.8.5-1.8-.2-1.5-1.1l2.2-6.6-4.3 5.2h-1.2V14.8h7.7c0-.1-.1-.1-.2-.1l-8.7-6.3h-7.2v26.5h4.3l-5.1 6.2-4.7 5.8.5.4 3.3-4.1z"/><path class="st0" d="m187 21.8 7.1-5.2 2.4 1.8 4.6 3.4-2.1-6.5-.6-1.8 7.1-5.2h-8.8L194.1 0l-2.7 8.3h-8.8l7.1 5.2zM.4 85.4c1.9 0 3.7 0 5.6.1 13.4.1 26.8.4 40.3.3 16.5-.1 32.9-.8 49.4-.7 44.3.3 88.6 1 132.9 1.5 3 0 6.1-.1 9.1.1 1.4.1 2.7.9 4.1 1.4-.1.4-.1.7-.2 1.1-2.2.4-4.4 1-6.7 1-22.1.5-44.3 1.2-66.4 1.2-36.2-.1-72.4-.7-108.7-1.1-15.1-.2-30.3-.2-45.4-.6-4-.1-8-1.1-11.9-1.8-.9-.1-1.7-.9-2.5-1.3.1-.4.3-.8.4-1.2zM328 88.8c-4.1.3-7.5.7-11 .8-15.2.1-30.4.1-45.6 0-3.6 0-7.2-.6-10.8-1.1-1.5-.2-3.2-.5-3.4-3.2 2-.2 4-.5 6-.4 19.3.3 38.6.6 58 1 2.3 0 4.8 0 6.8 2.9zm33-.9c-1.9.4-3.2.8-4.4.8-4.8.1-9.5.2-14.3 0-1 0-2-1.1-3-1.7 1-.6 2-1.7 2.9-1.7 5.6.2 11.3.7 16.9 1.2.5 0 .8.6 1.9 1.4zm26.7.6c-5.3-.1-10.6-.1-15.9-.2-.6 0-1.2-.1-1.7-.4-.8-.5-1.4-1.2-2.1-1.7.8-.5 1.5-1.2 2.3-1.3 1.4-.2 2.9-.1 4.4 0 3.2.3 6.5.8 9.7 1.3 1.1.2 2.2.8 3.3 1.2.1.4 0 .8 0 1.1z"/></svg>