<!-- Generator: Adobe Illustrator 25.0.0, SVG Export Plug-In  -->
<svg version="1.1" xmlns="http://www.w3.org/2000/svg" xmlns:xlink="http://www.w3.org/1999/xlink" x="0px" y="0px" width="387.8px"
	 height="91.5px" viewBox="0 0 387.8 91.5" style="overflow:visible;enable-background:new 0 0 387.8 91.5;" xml:space="preserve">
<style type="text/css">
	.st0{fill:#FFE656;}
</style>
<defs>
</defs>
<g>
	<g>
		<g>
			<path class="st0" d="M42.1,12.9c0.1,4.6,0.6,9.1,1.5,13.6c0.9,4.5,2.2,8.7,3.9,12.6c1.7,4,3.8,7.6,6.2,11
				c2.4,3.4,5.3,6.4,8.7,9.2c3.3,2.8,7.1,5.1,11.1,7c-2.8,4.4-4.6,7.3-5.4,8.8c-3.3-1.9-6.4-4-9.4-6.4c-3-2.4-5.6-5-7.8-7.7
				c-2.2-2.7-4.2-5.4-5.9-8.2c-1.7-2.8-3-5.6-4.2-8.4c-1.1-2.8-2-5.3-2.6-7.6c-1.7,7.8-5.1,14.9-10.2,21.6
				c-5.1,6.6-11.6,12.2-19.4,16.7c-0.7-1.2-1.6-2.6-2.7-4.4c-1.2-1.8-2.1-3.2-2.9-4.3c2.7-1.3,5.2-2.7,7.5-4.2
				c2.3-1.6,4.5-3.2,6.4-5c1.9-1.8,3.7-3.8,5.5-6.1c1.7-2.3,3.4-5.1,5.1-8.7c1.6-3.5,3-7.8,4-13c1-5.2,1.5-11.1,1.5-17.8
				c0-2-0.1-3.7-0.2-4.9L42.3,7l-0.2,2.5V12.9z"/>
			<path class="st0" d="M113.1,57.3l0.1,14.7c0,1.2,0,2,0.2,2.5h-8.5C105,74,105,73.2,105,72c0-2.3,0.1-5.7,0.4-10.1
				c-2.4,2.4-5.1,4.6-8.2,6.6c-3,2-6.1,3.7-9.1,4.9c-0.2-0.4-0.5-0.9-1-1.7s-1.2-1.7-2.1-2.7c-0.9-1-1.5-1.8-2-2.3
				c2.2-0.7,4.5-1.6,6.9-2.7c2.4-1.2,4.6-2.3,6.5-3.5c1.9-1.2,3.3-2.2,4.5-3.1H90.6c-2.3,0-4,0.1-5,0.2v-7.2c1,0.1,2.6,0.2,5,0.2
				h5.1c-0.7-0.9-1.6-1.9-2.8-3.1c-1.2-1.2-2.1-2.1-2.8-2.8l6-3.6c0.4,0.3,1.1,1,2.2,2c1.1,1.1,2.4,2.5,4,4.3l-4.8,3.2h7.7v-8.2
				l-0.2-2.1c5.1,0.2,7.9,0.3,8.2,0.4c-0.1,0.3-0.1,0.9-0.1,1.8v8.1h5.7l-3.8-2.9c1-0.8,2.1-1.8,3.4-3.2c1.3-1.4,2.3-2.6,3-3.5
				c0.2,0.1,1,0.7,2.6,1.7c1.6,1,2.7,1.8,3.3,2.3l-0.7,0.7c-2,2.2-3.7,3.8-5.2,5h2.9c2.4,0,4,0,5-0.2v7.2c-1-0.1-2.6-0.2-5-0.2
				H113.1z M147,50.8c1.1,0.9,2.3,1.9,3.7,3c1.4,1.1,2.4,1.8,3.1,2.2c-0.1,4.1-0.5,7.4-1.2,9.9c-0.7,2.5-1.7,4.5-3,5.8
				c-1.3,1.3-3.2,2-5.5,2c-1.9,0-3.6-0.6-5.1-1.7c-1.5-1.2-2.8-2.9-3.9-5.4c-1.1-2.4-1.9-5.6-2.5-9.4c-0.6-3.9-0.9-8.3-0.9-13.4
				l0.2-5H93.2c-2.7,0-4.5,0.1-5.5,0.2v-7.6l2.2,0.2c-0.8-1-2.9-2.9-6.4-5.8c2.3-1.6,4.5-3.5,6.6-5.9c2.1-2.4,3.9-4.8,5.4-7.4
				c1.5-2.6,2.6-5.2,3.4-7.8l8.2,1.7l-0.5,0.9c-0.5,1.5-0.9,2.6-1.2,3.3h38c2.6,0,4.4,0,5.4-0.2v7.6c-1-0.1-2.8-0.2-5.4-0.2h-41.5
				c-0.8,1.4-1.5,2.5-2.1,3.4c0.9,0.1,2.4,0.2,4.6,0.2h33.9c2.3,0,4,0,5-0.2v6.6c-1,0-2.7-0.1-5-0.1h-33.9c-2.3,0-4,0-5,0.1v-6.1
				c-1.3,1.9-2.7,3.7-4.3,5.4c-1.6,1.7-3.2,3.2-4.7,4.4h2.8h47.7c-0.1,1.1-0.2,3.1-0.4,5.9c-0.2,2.8-0.2,5.4-0.2,7.7
				c0,6.1,0.3,10.9,1,14.3c0.7,3.5,1.7,5.2,3.1,5.2C146.1,64.5,147,60,147,50.8z M113.5,63.2l4.8-5c0.9,0.4,2.1,0.9,3.7,1.7
				c1.6,0.8,3.5,1.7,5.7,2.9c2.1,1.2,3.9,2.2,5.3,3.1l-4.3,6.4C124.8,69.5,119.7,66.5,113.5,63.2z"/>
			<path class="st0" d="M300.6,13.3v56.6l0.2,5.1h-8.3v-4.2h-46.2v4.2H238c0.1-1.9,0.2-3.6,0.2-5.1V13.3c0-1.4-0.1-3.1-0.2-5h62.8
				L300.6,13.3z M275.5,63.5h17v-48h-46.2v48H269l-2.1-4.8l-4.2,3.9c-1-1-2.3-2-4-3.2c-1.6-1.2-3.1-2.1-4.3-2.8l2-1.5h-4.3
				c-2.1,0-3.7,0-4.6,0.1v-5.5c1,0,2.5,0.1,4.6,0.1h22.7v-0.8l-0.2-1.4c-9.8,0.3-17.4,0.4-22.7,0.5L249,48l-1.7-5.5l4.2,0.2
				c2.7,0.2,7.5,0.1,14.4-0.1v-2h-14.1c0.1-0.8,0.2-1.5,0.2-2V27.4c0-0.6-0.1-1.2-0.2-2h14.1v-2h-13.1c-2.1,0-3.6,0-4.5,0.1v-5.3
				c0.9,0.1,2.4,0.1,4.5,0.1h13.1v-0.7l-0.2-1.9c0.9,0,2.2,0,3.9,0.1c1.7,0.1,2.9,0.1,3.5,0.2c-0.1,0.6-0.2,1.2-0.2,1.7v0.6h12.7
				c2.1,0,3.6,0,4.5-0.1v5.3c-0.9,0-2.4-0.1-4.5-0.1H273v2h14l-0.1,2v12.1c0.8,1,1.6,2.1,2.5,3.3c0.9,1.3,1.6,2.4,2.2,3.5l-6,3.2
				c-0.2-0.4-0.3-0.8-0.6-1.3c-0.2-0.5-0.4-0.9-0.6-1.2l-5.1,0.2l2.3,0.2c-0.1,0.3-0.1,0.8-0.1,1.5v0.8h4.8c2.2,0,3.7,0,4.7-0.1v5.5
				c-1,0-2.5-0.1-4.7-0.1h-4.8l0.1,2.7C281.7,60.7,279.6,62.7,275.5,63.5z M258.9,29.2v2h7.3v-2H258.9z M258.9,34.6v2.2h7.3v-2.2
				H258.9z M266.9,57.9c1.1,0.2,2.4,0.2,4.2,0.2c1.4,0,2.3-0.2,2.9-0.5c0.6-0.3,0.8-0.8,0.8-1.5V55h-12.6c0.6,0.3,1.4,0.8,2.4,1.4
				C265.6,57,266.4,57.5,266.9,57.9z M280,31.3v-2h-7.1v2H280z M272.9,36.8h7.1v-2.2h-7.1V36.8z M273,40.6v1.9
				c4-0.1,6.8-0.2,8.6-0.3l-1.1-1.6H273z"/>
			<path class="st0" d="M342,35.1h2.7c1.9,0,3.2,0,4.1-0.1v6.6c-0.9,0-2.2-0.1-4.1-0.1h-24.9c-1.9,0-3.3,0-4.2,0.1V35
				c0.9,0.1,2.2,0.1,4.2,0.1h3.5c-0.7-1.8-1.4-3.4-2.2-4.9l2.5-0.5h-2.2l-4,0.1v-6.4l4,0.1h7.3c-0.5-1.1-1.2-2.3-2-3.6l7.6-1.1
				c0.2,0.3,0.5,0.8,0.9,1.6c0.5,0.8,0.9,1.8,1.4,3.1h7.4l3.9-0.1v6.4l-3.9-0.1h-3.4l3.5,1.2l-0.6,0.8
				C343.2,32.5,342.7,33.7,342,35.1z M316.6,21.4c0.1-0.7,0.2-1.3,0.2-1.8v-7.3c0-0.6-0.1-1.2-0.2-1.9h27.4
				c-0.6-1.2-1.4-2.4-2.4-3.9l8.7-1.4c0.9,1.4,1.8,3.2,2.9,5.3h27l-0.1,2v7.2l0.1,1.9h-8.7v-4.9h-46.2v4.9H316.6z M346.6,46.1v15.6
				l0.2,5.8c0,0.4-0.1,1-0.3,1.8c-0.2,0.8-0.6,1.5-1.2,2.1c-0.6,0.6-1.3,1.1-2.2,1.5c-0.9,0.4-2,0.8-3.3,1.1
				c-1.4,0.3-3.1,0.4-5.1,0.4c-0.6-1.5-1.6-3.9-3.1-7.3c1.2,0.2,2.7,0.3,4.4,0.3c1.2,0,2.1-0.2,2.5-0.5c0.5-0.3,0.7-0.8,0.7-1.5V64
				h-12.8v7.6c0,1.4,0,2.3,0.2,2.9h-7.7C319,74,319,73,319,71.6V46.2c0-0.7-0.1-1.4-0.2-2.3h27.8L346.6,46.1z M339.2,49.2h-12.8v2.5
				h12.8V49.2z M326.5,56.6v2.5h12.8v-2.5H326.5z M328,29.6l2.3,5.4h4.8c1-2.1,1.8-3.9,2.3-5.4H328z M376.5,61.3l7.3,3.5
				c-0.2,1.3-0.4,2.4-0.9,3.4c-0.4,1-1,1.8-1.7,2.6c-0.7,0.7-1.8,1.4-3.1,2c-1.4,0.6-3.1,1-5.3,1.2c-2.1,0.3-4.4,0.4-6.8,0.4
				c-2.7,0-5.2-0.1-7.5-0.3c-2.3-0.2-4-0.6-5-1.3c-1-0.7-1.7-1.6-2.1-2.8c-0.4-1.2-0.6-3-0.6-5.2c0-1.2,0.1-9.5,0.1-25.2
				c0-0.7-0.1-1.2-0.2-1.6H368v-2.5h-17.3c0.1-0.8,0.2-1.7,0.2-2.6V20.2l-0.1-2c0.9,0,2.3,0,4.2,0.1c1.9,0.1,3.2,0.1,4,0.2l-0.1,1.7
				v2.4h16.5l3.2-0.1V28l-3.2-0.1h-16.5v2.3h17.4l-0.1,1.7v9.2l0.1,2h-17.4v2.2h14.4c1.3,0,2.3,0,3.1-0.1v5.1
				c-0.8,0-1.8-0.1-3.1-0.1h-14.4v2.3h14.4c1.3,0,2.3,0,3.1-0.1v5.1c-0.8,0-1.8-0.1-3.1-0.1h-14.4v2.3h14.4c1.3,0,2.3,0,3.1-0.1v3.2
				C376.5,62.2,376.5,61.7,376.5,61.3z M374.6,66.2c0.2-0.1,0.4-0.3,0.6-0.6c0.3-0.3,0.4-0.5,0.5-0.7l-2.4-0.1h-14.4V65
				c0,1.2,0.6,2,1.7,2.3c0.5,0.1,1.3,0.2,2.6,0.3c1.3,0.1,2.5,0.1,3.5,0.1c1.7,0,3.2-0.1,4.5-0.2C372.5,67.3,373.6,66.9,374.6,66.2z
				"/>
		</g>
		<g>
			<g>
				
					<rect x="159.5" y="50.7" transform="matrix(0.6352 -0.7723 0.7723 0.6352 20.3752 145.2735)" class="st0" width="9" height="0.7"/>
			</g>
			<g>
				<g>
					<path class="st0" d="M198.6,64.9v-5.2l21.4,0.1v-7L198.6,53v-4.7l24.6,0.1v-7.2c-1,0.1-24.6,0.1-24.6,0.1v-2.6H190v2.6h-7.3
						l-1.6,2l-4,4.9h13V53l-16.8-0.1l-5.7,6.9l22.4-0.1v5.2l-29.2-0.1v7.8h66.3v-7.8L198.6,64.9L198.6,64.9z"/>
				</g>
				<g>
					<path class="st0" d="M203.7,14.8h7.7v13.6h-18l-5.3,6.4h10.3h17.2h4.1V8.3h-7.2l-8.7,6.3C203.8,14.7,203.7,14.7,203.7,14.8z"/>
				</g>
				<g>
					<path class="st0" d="M166.6,43.2l5.1,4.2l-5.5,6.7l0.5,0.4l16.6-20.2l8.8-10.7l0,0l1.1-1.3l-11.7,8.5c-0.8,0.5-1.8-0.2-1.5-1.1
						l2.2-6.6l-4.3,5.2h-1.2V14.8h7.7c0-0.1-0.1-0.1-0.2-0.1l-8.7-6.3h-7.2v26.5h4.3l-5.1,6.2l0,0l-4.7,5.8l0.5,0.4L166.6,43.2z"/>
				</g>
				<g>
					<polygon class="st0" points="187,21.8 194.1,16.6 196.5,18.4 201.1,21.8 199,15.3 198.4,13.5 205.5,8.3 196.7,8.3 196.7,8.3 
						194.1,0 191.4,8.3 191.4,8.3 182.6,8.3 189.7,13.5 					"/>
				</g>
			</g>
		</g>
	</g>
	<g>
		<g>
			<path class="st0" d="M0.4,85.4c1.9,0,3.7,0,5.6,0.1c13.4,0.1,26.8,0.4,40.3,0.3c16.5-0.1,32.9-0.8,49.4-0.7
				c44.3,0.3,88.6,1,132.9,1.5c3,0,6.1-0.1,9.1,0.1c1.4,0.1,2.7,0.9,4.1,1.4c-0.1,0.4-0.1,0.7-0.2,1.1c-2.2,0.4-4.4,1-6.7,1
				c-22.1,0.5-44.3,1.2-66.4,1.2c-36.2-0.1-72.4-0.7-108.7-1.1c-15.1-0.2-30.3-0.2-45.4-0.6c-4-0.1-8-1.1-11.9-1.8
				C1.6,87.8,0.8,87,0,86.6C0.1,86.2,0.3,85.8,0.4,85.4z"/>
			<path class="st0" d="M328,88.8c-4.1,0.3-7.5,0.7-11,0.8c-15.2,0.1-30.4,0.1-45.6,0c-3.6,0-7.2-0.6-10.8-1.1
				c-1.5-0.2-3.2-0.5-3.4-3.2c2-0.2,4-0.5,6-0.4c19.3,0.3,38.6,0.6,58,1C323.5,85.9,326,85.9,328,88.8z"/>
			<path class="st0" d="M361,87.9c-1.9,0.4-3.2,0.8-4.4,0.8c-4.8,0.1-9.5,0.2-14.3,0c-1,0-2-1.1-3-1.7c1-0.6,2-1.7,2.9-1.7
				c5.6,0.2,11.3,0.7,16.9,1.2C359.6,86.5,359.9,87.1,361,87.9z"/>
			<path class="st0" d="M387.7,88.5c-5.3-0.1-10.6-0.1-15.9-0.2c-0.6,0-1.2-0.1-1.7-0.4c-0.8-0.5-1.4-1.2-2.1-1.7
				c0.8-0.5,1.5-1.2,2.3-1.3c1.4-0.2,2.9-0.1,4.4,0c3.2,0.3,6.5,0.8,9.7,1.3c1.1,0.2,2.2,0.8,3.3,1.2
				C387.8,87.8,387.7,88.2,387.7,88.5z"/>
		</g>
	</g>
</g>
</svg>
