<!-- Generator: Adobe Illustrator 25.0.0, SVG Export Plug-In  -->
<svg version="1.1" xmlns="http://www.w3.org/2000/svg" xmlns:xlink="http://www.w3.org/1999/xlink" x="0px" y="0px" width="387.8px"
	 height="91.5px" viewBox="0 0 387.8 91.5" style="overflow:visible;enable-background:new 0 0 387.8 91.5;" xml:space="preserve">
<style type="text/css">
	.st0{fill:#FFBC0D;}
</style>
<defs>
</defs>
<g>
	<g>
		<path class="st0" d="M64,52.5c-1.5-3.2-3.4-6.4-5.7-9.6v28c0,1.1,0,2.3,0.2,3.7h-8.7c0.1-1.4,0.2-2.6,0.2-3.7
			c0-4.5,0.2-13.1,0.6-25.9c-1.5,3.7-3.2,7.1-5,10.2c-1.8,3.1-3.7,5.7-5.6,7.6c-0.5-1.5-1.8-4.1-3.9-7.8c2.1-2,4.3-5,6.7-8.8
			c2.3-3.9,4.2-7.8,5.6-11.8h-6.7c-1.9,0-3.2,0-4,0.1v-7.6c0.8,0.1,2.1,0.1,4,0.1h8.4v-8.3c-1.3,0.3-2.8,0.6-4.5,1
			c-1.7,0.4-3.1,0.6-4.1,0.8c-0.3-0.8-1.4-3.2-3.2-7.1c4-0.5,8.3-1.4,13-2.8c4.7-1.4,8.4-2.8,11.1-4.2l5.4,6.3l-2,0.5
			c-2.5,1-5,2-7.6,2.9V27h5.1l3.9-0.1v7.6l-3.9-0.1h-5.1v5.1l3.4-2.4c3,3.5,5.6,7,8,10.6L64,52.5z M100.9,54.7l-1.5,0.2v14.5
			c0,1.4,0,3.2,0.2,5.3h-9c0.1-2.1,0.2-3.9,0.2-5.3V56.2L71,59.1c-0.3,0.1-1.1,0.2-2.3,0.3c-1.2,0.2-2.1,0.3-2.6,0.4l-0.5-8.4
			c2.2-0.3,3.8-0.5,4.8-0.6l20.2-2.9V9.7c0-1.3-0.1-2.6-0.2-3.9c0.1,0,1.1,0,2.9,0.1s3.2,0.1,4.1,0.2c0.9,0,1.6,0.1,2,0.1
			c-0.1,0.8-0.2,1.9-0.2,3.6v36.9l0.9-0.2c1.6-0.2,3.2-0.5,4.8-0.8l0.6,8.4L100.9,54.7z M88.3,37.2l-4.8,7c-1.8-1.5-3.7-3-5.9-4.5
			c-2.1-1.5-3.8-2.6-5-3.2c-1.2-0.7-2-1.1-2.3-1.3l4.6-6.7c1.8,1,3.9,2.4,6.5,4.1C84.2,34.3,86.4,35.8,88.3,37.2z M89,18.7l-4.5,7
			c-2.6-2.1-5.1-3.9-7.3-5.4c-2.3-1.5-4.1-2.5-5.4-3.2l4.6-6.6c0.8,0.5,2,1.2,3.6,2.1c1.6,1,3.2,2.1,5,3.3C86.7,17.1,88,18,89,18.7z
			"/>
		<path class="st0" d="M133.3,47v12.9l0.2,6.9c0,2.4-1.1,4.3-3.2,5.7c-2.1,1.5-5.3,2.2-9.4,2.2c-0.6-1.5-1.8-4.6-3.8-9.3
			c1.7,0.3,3.2,0.4,4.5,0.4c0.9,0,1.7-0.1,2.3-0.3c0.7-0.2,1-0.8,1-1.6v-3.9V49.4l-4.5,1.2l-3.6,1.2l-1.4-8.8l4.2-0.8l5.2-1.3V27.3
			h-5.5l-3.6,0.1v-7.8l3.6,0.1h5.5V9.1c0-1.2-0.1-2.3-0.2-3.4c1.1,0,2.6,0,4.6,0.1c2,0.1,3.3,0.2,4.1,0.3c-0.1,1.1-0.2,2.1-0.2,3
			v10.5h3.3l3.6-0.1v7.8l-3.6-0.1h-3.3v11.4c2.5-0.7,4.7-1.4,6.6-2c0,4,0,6.8,0.1,8.4L133.3,47z M186.2,65.7l-3.1,8.8
			c-7.2-1.6-13.7-4.9-19.6-9.7c-2.9,2.3-6.3,4.3-10.1,6c-3.8,1.7-7.9,2.9-12.2,3.7c-0.6-1.8-1.9-4.6-3.8-8.5c3.8-0.7,7.5-1.6,11-2.9
			c3.5-1.3,6.5-2.8,9-4.6c-4.2-5.2-7.1-11.3-8.8-18.2H148c-1.9,0-3.3,0-4.2,0.1v-7.9c0.9,0.1,2.2,0.1,4.2,0.1h10.9v-9h-11.3
			c-2.4,0-4,0.1-5,0.2v-8.2c0.9,0.1,2.6,0.2,5,0.2h11.3V8.2c0-0.8-0.1-1.7-0.2-2.6c1,0,2.5,0,4.6,0.1c2,0.1,3.5,0.1,4.3,0.2
			c-0.1,0.5-0.1,1.2-0.1,2.3v7.3h11.3c2.4,0,4,0,5-0.2v8.2c-0.9-0.1-2.6-0.2-5-0.2h-11.3v9h6.9l0.5-0.5c1.4,1,2.6,1.9,3.7,2.8
			c1.1,0.9,2.1,1.7,2.8,2.4l-0.9,0.5c-0.5,2.3-1.2,4.7-2.1,7.3c-0.9,2.6-2.1,5.1-3.6,7.5c-1.5,2.4-3.2,4.6-5.1,6.7
			c2,1.5,4.6,2.9,7.6,4.1C180.4,64.4,183.3,65.3,186.2,65.7z M171.1,40.3h-14.4c0.7,2.5,1.7,4.9,2.9,7.1c1.2,2.2,2.5,4.2,3.9,5.9
			c1.8-1.9,3.4-4,4.7-6.2C169.5,45,170.5,42.7,171.1,40.3z"/>
		<path class="st0" d="M320.5,62.8c2.5,0.5,5.9,1.2,10.3,2.3c4.4,1.1,8.2,2.1,11.3,3.1c-1.2,2-2.6,4.1-4.2,6.3
			c-4.6-1.7-9.3-3.2-14.1-4.8c-4.7-1.5-8.4-2.6-11-3.2l5.8-3.7h-20.5l6.3,3.4c-1.3,0.7-3.1,1.6-5.6,2.6c-2.5,1.1-5.5,2.1-9.1,3.2
			c-3.6,1.1-7.1,1.9-10.3,2.5c-0.8-1.2-2.5-3.2-5.4-6.3c3.8-0.5,8.1-1.3,12.8-2.4c4.7-1.1,8-2.1,10-3.1h-11.6c0.1-1,0.2-1.9,0.2-2.8
			V37.7c0-0.9-0.1-1.8-0.2-2.8h46.8l-0.1,2.8V60l0.1,2.8H320.5z M335.9,25.3c3.3,0,5.6,0,6.9-0.2v7c-1.3-0.1-3.6-0.2-6.9-0.2h-54.8
			c-3.3,0-5.6,0.1-6.9,0.2v-7c1.3,0.1,3.6,0.2,6.9,0.2H304v-3h-19.9c0.1-0.7,0.2-1.4,0.2-2v-9.5c0-0.6-0.1-1.3-0.2-2H304V7.7
			l-0.2-2.3c5.3,0.2,8.2,0.3,8.7,0.4c-0.1,0.7-0.2,1.4-0.2,2v1.1h20.2c-0.1,0.4-0.1,1.1-0.1,2v9.5l0.1,2h-20.2v3H335.9z M292.7,17.2
			H304V14h-11.3V17.2z M323.6,39.9H294v3h29.5V39.9z M323.6,50.1v-2.7H294v2.7H323.6z M294,54.5v3.2h29.5v-3.2H294z M324,14h-11.6
			v3.2H324V14z"/>
	</g>
	<g>
		<g>
			
				<rect x="194.5" y="50.7" transform="matrix(0.6352 -0.7723 0.7723 0.6352 33.1415 172.302)" class="st0" width="9" height="0.7"/>
		</g>
		<g>
			<g>
				<path class="st0" d="M233.5,64.9v-5.2l21.4,0.1v-7L233.5,53v-4.7l24.6,0.1v-7.2c-1,0.1-24.6,0.1-24.6,0.1v-2.6H225v2.6h-7.3
					l-1.6,2l-4,4.9h13V53l-16.8-0.1l-5.7,6.9l22.4-0.1v5.2l-29.2-0.1v7.8h66.3v-7.8L233.5,64.9L233.5,64.9z"/>
			</g>
			<g>
				<path class="st0" d="M238.7,14.8h7.7v13.6h-18l-5.3,6.4h10.3h17.2h4.1V8.3h-7.2l-8.7,6.3C238.8,14.7,238.7,14.7,238.7,14.8z"/>
			</g>
			<g>
				<path class="st0" d="M201.6,43.2l5.1,4.2l-5.5,6.7l0.5,0.4l16.6-20.2l8.8-10.7l0,0l1.1-1.3l-11.7,8.5c-0.8,0.5-1.8-0.2-1.5-1.1
					l2.2-6.6l-4.3,5.2h-1.2V14.8h7.7c0-0.1-0.1-0.1-0.2-0.1l-8.7-6.3h-7.2v26.5h4.3l-5.1,6.2l0,0l-4.7,5.8l0.5,0.4L201.6,43.2z"/>
			</g>
			<g>
				<polygon class="st0" points="222,21.8 229,16.6 231.5,18.4 236.1,21.8 234,15.3 233.4,13.5 240.5,8.3 231.7,8.3 231.7,8.3 
					229,0 226.4,8.3 226.4,8.3 217.6,8.3 224.7,13.5 				"/>
			</g>
		</g>
	</g>
</g>
<g>
	<path class="st0" d="M0.4,85.4c1.9,0,3.7,0,5.6,0.1c13.4,0.1,26.8,0.4,40.3,0.3c16.5-0.1,32.9-0.8,49.4-0.7
		c44.3,0.3,88.6,1,132.9,1.5c3,0,6.1-0.1,9.1,0.1c1.4,0.1,2.7,0.9,4.1,1.4c-0.1,0.4-0.1,0.7-0.2,1.1c-2.2,0.4-4.4,1-6.7,1
		c-22.1,0.5-44.3,1.2-66.4,1.2c-36.2-0.1-72.4-0.7-108.7-1.1c-15.1-0.2-30.3-0.2-45.4-0.6c-4-0.1-8-1.1-11.9-1.8
		C1.6,87.8,0.8,87,0,86.6C0.1,86.2,0.3,85.8,0.4,85.4z"/>
	<path class="st0" d="M328,88.8c-4.1,0.3-7.5,0.7-11,0.8c-15.2,0.1-30.4,0.1-45.6,0c-3.6,0-7.2-0.6-10.8-1.1
		c-1.5-0.2-3.2-0.5-3.4-3.2c2-0.2,4-0.5,6-0.4c19.3,0.3,38.6,0.6,58,1C323.5,85.9,326,85.9,328,88.8z"/>
	<path class="st0" d="M361,87.9c-1.9,0.4-3.2,0.8-4.4,0.8c-4.8,0.1-9.5,0.2-14.3,0c-1,0-2-1.1-3-1.7c1-0.6,2-1.7,2.9-1.7
		c5.6,0.2,11.3,0.7,16.9,1.2C359.6,86.5,359.9,87.1,361,87.9z"/>
	<path class="st0" d="M387.7,88.5c-5.3-0.1-10.6-0.1-15.9-0.2c-0.6,0-1.2-0.1-1.7-0.4c-0.8-0.5-1.4-1.2-2.1-1.7
		c0.8-0.5,1.5-1.2,2.3-1.3c1.4-0.2,2.9-0.1,4.4,0c3.2,0.3,6.5,0.8,9.7,1.3c1.1,0.2,2.2,0.8,3.3,1.2
		C387.8,87.8,387.7,88.2,387.7,88.5z"/>
</g>
</svg>
