<svg xmlns="http://www.w3.org/2000/svg" width="387.8" height="91.5" style="overflow:visible;enable-background:new 0 0 387.8 91.5" xml:space="preserve"><style>.st0{fill:#ffbc0d}</style><path class="st0" d="M64 52.5c-1.5-3.2-3.4-6.4-5.7-9.6v28c0 1.1 0 2.3.2 3.7h-8.7c.1-1.4.2-2.6.2-3.7 0-4.5.2-13.1.6-25.9-1.5 3.7-3.2 7.1-5 10.2-1.8 3.1-3.7 5.7-5.6 7.6-.5-1.5-1.8-4.1-3.9-7.8 2.1-2 4.3-5 6.7-8.8 2.3-3.9 4.2-7.8 5.6-11.8h-6.7c-1.9 0-3.2 0-4 .1v-7.6c.8.1 2.1.1 4 .1h8.4v-8.3c-1.3.3-2.8.6-4.5 1-1.7.4-3.1.6-4.1.8-.3-.8-1.4-3.2-3.2-7.1 4-.5 8.3-1.4 13-2.8 4.7-1.4 8.4-2.8 11.1-4.2l5.4 6.3-2 .5c-2.5 1-5 2-7.6 2.9V27h5.1l3.9-.1v7.6l-3.9-.1h-5.1v5.1l3.4-2.4c3 3.5 5.6 7 8 10.6L64 52.5zm36.9 2.2-1.5.2v14.5c0 1.4 0 3.2.2 5.3h-9c.1-2.1.2-3.9.2-5.3V56.2L71 59.1c-.3.1-1.1.2-2.3.3-1.2.2-2.1.3-2.6.4l-.5-8.4c2.2-.3 3.8-.5 4.8-.6l20.2-2.9V9.7c0-1.3-.1-2.6-.2-3.9.1 0 1.1 0 2.9.1s3.2.1 4.1.2c.9 0 1.6.1 2 .1-.1.8-.2 1.9-.2 3.6v36.9l.9-.2c1.6-.2 3.2-.5 4.8-.8l.6 8.4-4.6.6zM88.3 37.2l-4.8 7c-1.8-1.5-3.7-3-5.9-4.5-2.1-1.5-3.8-2.6-5-3.2-1.2-.7-2-1.1-2.3-1.3l4.6-6.7c1.8 1 3.9 2.4 6.5 4.1 2.8 1.7 5 3.2 6.9 4.6zm.7-18.5-4.5 7c-2.6-2.1-5.1-3.9-7.3-5.4-2.3-1.5-4.1-2.5-5.4-3.2l4.6-6.6c.8.5 2 1.2 3.6 2.1 1.6 1 3.2 2.1 5 3.3 1.7 1.2 3 2.1 4 2.8zM133.3 47v12.9l.2 6.9c0 2.4-1.1 4.3-3.2 5.7-2.1 1.5-5.3 2.2-9.4 2.2-.6-1.5-1.8-4.6-3.8-9.3 1.7.3 3.2.4 4.5.4.9 0 1.7-.1 2.3-.3.7-.2 1-.8 1-1.6V49.4l-4.5 1.2-3.6 1.2-1.4-8.8 4.2-.8 5.2-1.3V27.3h-5.5l-3.6.1v-7.8l3.6.1h5.5V9.1c0-1.2-.1-2.3-.2-3.4 1.1 0 2.6 0 4.6.1 2 .1 3.3.2 4.1.3-.1 1.1-.2 2.1-.2 3v10.5h3.3l3.6-.1v7.8l-3.6-.1h-3.3v11.4c2.5-.7 4.7-1.4 6.6-2 0 4 0 6.8.1 8.4l-6.5 2zm52.9 18.7-3.1 8.8c-7.2-1.6-13.7-4.9-19.6-9.7-2.9 2.3-6.3 4.3-10.1 6-3.8 1.7-7.9 2.9-12.2 3.7-.6-1.8-1.9-4.6-3.8-8.5 3.8-.7 7.5-1.6 11-2.9 3.5-1.3 6.5-2.8 9-4.6-4.2-5.2-7.1-11.3-8.8-18.2h-.6c-1.9 0-3.3 0-4.2.1v-7.9c.9.1 2.2.1 4.2.1h10.9v-9h-11.3c-2.4 0-4 .1-5 .2v-8.2c.9.1 2.6.2 5 .2h11.3V8.2c0-.8-.1-1.7-.2-2.6 1 0 2.5 0 4.6.1 2 .1 3.5.1 4.3.2-.1.5-.1 1.2-.1 2.3v7.3h11.3c2.4 0 4 0 5-.2v8.2c-.9-.1-2.6-.2-5-.2h-11.3v9h6.9l.5-.5c1.4 1 2.6 1.9 3.7 2.8 1.1.9 2.1 1.7 2.8 2.4l-.9.5c-.5 2.3-1.2 4.7-2.1 7.3-.9 2.6-2.1 5.1-3.6 7.5-1.5 2.4-3.2 4.6-5.1 6.7 2 1.5 4.6 2.9 7.6 4.1 3.1 1.3 6 2.2 8.9 2.6zm-15.1-25.4h-14.4c.7 2.5 1.7 4.9 2.9 7.1 1.2 2.2 2.5 4.2 3.9 5.9 1.8-1.9 3.4-4 4.7-6.2 1.3-2.1 2.3-4.4 2.9-6.8zm149.4 22.5c2.5.5 5.9 1.2 10.3 2.3 4.4 1.1 8.2 2.1 11.3 3.1-1.2 2-2.6 4.1-4.2 6.3-4.6-1.7-9.3-3.2-14.1-4.8-4.7-1.5-8.4-2.6-11-3.2l5.8-3.7h-20.5l6.3 3.4c-1.3.7-3.1 1.6-5.6 2.6-2.5 1.1-5.5 2.1-9.1 3.2-3.6 1.1-7.1 1.9-10.3 2.5-.8-1.2-2.5-3.2-5.4-6.3 3.8-.5 8.1-1.3 12.8-2.4 4.7-1.1 8-2.1 10-3.1h-11.6c.1-1 .2-1.9.2-2.8V37.7c0-.9-.1-1.8-.2-2.8H332l-.1 2.8V60l.1 2.8h-11.5zm15.4-37.5c3.3 0 5.6 0 6.9-.2v7c-1.3-.1-3.6-.2-6.9-.2h-54.8c-3.3 0-5.6.1-6.9.2v-7c1.3.1 3.6.2 6.9.2H304v-3h-19.9c.1-.7.2-1.4.2-2v-9.5c0-.6-.1-1.3-.2-2H304V7.7l-.2-2.3c5.3.2 8.2.3 8.7.4-.1.7-.2 1.4-.2 2v1.1h20.2c-.1.4-.1 1.1-.1 2v9.5l.1 2h-20.2v3h23.6zm-43.2-8.1H304V14h-11.3v3.2zm30.9 22.7H294v3h29.5v-3zm0 10.2v-2.7H294v2.7h29.6zM294 54.5v3.2h29.5v-3.2H294zM324 14h-11.6v3.2H324V14zM195.844 54.294l5.716-6.95.54.444-5.716 6.95zM233.5 64.9v-5.2l21.4.1v-7l-21.4.2v-4.7l24.6.1v-7.2c-1 .1-24.6.1-24.6.1v-2.6H225v2.6h-7.3l-1.6 2-4 4.9h13V53l-16.8-.1-5.7 6.9 22.4-.1v5.2l-29.2-.1v7.8h66.3v-7.8l-28.6.1zm5.2-50.1h7.7v13.6h-18l-5.3 6.4h31.6V8.3h-7.2l-8.7 6.3c0 .1-.1.1-.1.2z"/><path class="st0" d="m201.6 43.2 5.1 4.2-5.5 6.7.5.4 16.6-20.2 8.8-10.7 1.1-1.3-11.7 8.5c-.8.5-1.8-.2-1.5-1.1l2.2-6.6-4.3 5.2h-1.2V14.8h7.7c0-.1-.1-.1-.2-.1l-8.7-6.3h-7.2v26.5h4.3l-5.1 6.2-4.7 5.8.5.4 3.3-4.1z"/><path class="st0" d="m222 21.8 7-5.2 2.5 1.8 4.6 3.4-2.1-6.5-.6-1.8 7.1-5.2h-8.8L229 0l-2.6 8.3h-8.8l7.1 5.2zM.4 85.4c1.9 0 3.7 0 5.6.1 13.4.1 26.8.4 40.3.3 16.5-.1 32.9-.8 49.4-.7 44.3.3 88.6 1 132.9 1.5 3 0 6.1-.1 9.1.1 1.4.1 2.7.9 4.1 1.4-.1.4-.1.7-.2 1.1-2.2.4-4.4 1-6.7 1-22.1.5-44.3 1.2-66.4 1.2-36.2-.1-72.4-.7-108.7-1.1-15.1-.2-30.3-.2-45.4-.6-4-.1-8-1.1-11.9-1.8-.9-.1-1.7-.9-2.5-1.3.1-.4.3-.8.4-1.2zM328 88.8c-4.1.3-7.5.7-11 .8-15.2.1-30.4.1-45.6 0-3.6 0-7.2-.6-10.8-1.1-1.5-.2-3.2-.5-3.4-3.2 2-.2 4-.5 6-.4 19.3.3 38.6.6 58 1 2.3 0 4.8 0 6.8 2.9zm33-.9c-1.9.4-3.2.8-4.4.8-4.8.1-9.5.2-14.3 0-1 0-2-1.1-3-1.7 1-.6 2-1.7 2.9-1.7 5.6.2 11.3.7 16.9 1.2.5 0 .8.6 1.9 1.4zm26.7.6c-5.3-.1-10.6-.1-15.9-.2-.6 0-1.2-.1-1.7-.4-.8-.5-1.4-1.2-2.1-1.7.8-.5 1.5-1.2 2.3-1.3 1.4-.2 2.9-.1 4.4 0 3.2.3 6.5.8 9.7 1.3 1.1.2 2.2.8 3.3 1.2.1.4 0 .8 0 1.1z"/></svg>