<!-- Generator: Adobe Illustrator 25.0.0, SVG Export Plug-In  -->
<svg version="1.1" xmlns="http://www.w3.org/2000/svg" xmlns:xlink="http://www.w3.org/1999/xlink" x="0px" y="0px" width="387.8px"
	 height="91.5px" viewBox="0 0 387.8 91.5" style="overflow:visible;enable-background:new 0 0 387.8 91.5;" xml:space="preserve">
<style type="text/css">
	.st0{fill:#FFE656;}
</style>
<defs>
</defs>
<g>
	<g>
		<g>
			<path class="st0" d="M179.6,66c3.2,0,5.4,0,6.6-0.2v6.9c-1.2-0.1-3.5-0.2-6.7-0.2h-53.9c-3.2,0-5.5,0-6.7,0.2v-6.9
				c1.3,0.1,3.5,0.2,6.6,0.2c-0.5-0.8-1.4-2.1-2.9-4.1c1.9-0.6,3.8-1.3,5.7-2.2c1.9-0.9,3.5-1.9,4.7-3.1H128c-2.9,0-4.9,0.1-6,0.2
				v-5.9c1.1,0.1,3.1,0.2,6,0.2h48.8c2.9,0,4.9,0,6-0.2v5.9c-1.1-0.1-3.1-0.2-6-0.2h-2.4l-1.1,1.8c2.9,0.8,6,1.9,9.4,3.6L179.6,66z
				 M119.8,31.1c0.1-0.7,0.2-1.4,0.2-2V18c0-0.5-0.1-1.2-0.2-2h28.8v-2.6H130c-2.7,0-4.6,0.1-5.7,0.2v-6c1.1,0.1,3,0.2,5.7,0.2h45.5
				c2.7,0,4.6,0,5.7-0.2v6c-1.1-0.1-3-0.2-5.7-0.2h-19.1V16h29.1l-0.1,2v11l0.1,2h-8.3v-9.7h-20.8v9.7c0,1.4,0,2.3,0.2,2.8h-8.1
				c0.1-0.5,0.2-1.4,0.2-2.8v-9.7h-20.3v9.7H119.8z M140.9,36c-0.1,0.4-0.1,1-0.1,1.8v8.8c0,0.9,0,1.5,0.1,1.8h-18.1
				c0-0.4,0.1-1,0.1-1.8v-8.8c0-0.9,0-1.5-0.1-1.8H140.9z M128.3,44.2h7.1v-4h-7.1V44.2z M140.9,66c-2.5-1.5-4.5-2.5-6.2-3.2
				c-1.2,1-2.8,2.1-4.7,3.2H140.9z M142.6,27.1H134l-2.5,0.1v-4l2.5,0.1h8.6l2.5-0.1v4L142.6,27.1z M145.1,32.9l-2.5-0.1H134
				l-2.5,0.1v-4L134,29h8.6l2.5-0.1V32.9z M148.3,56.7h-7.8c-0.7,1-1.3,1.8-1.7,2.3c2.3,0.6,5,1.6,7.9,3.1l-3.1,3.9h4.7V56.7z
				 M161.6,36c-0.1,0.4-0.1,1-0.1,1.8v8.8c0,0.9,0,1.5,0.1,1.8h-18.1c0-0.4,0.1-1,0.1-1.8v-8.8c0-0.9,0-1.5-0.1-1.8H161.6z
				 M149,44.2h7v-4h-7V44.2z M158.2,62.6c1.6-0.5,3.2-1.3,4.9-2.3c1.7-1.1,3.2-2.3,4.3-3.6h-11V66h4.7
				C160.7,65.4,159.8,64.3,158.2,62.6z M170.9,27.1h-8.5l-2.5,0.1v-4l2.5,0.1h8.5l2.5-0.1v4L170.9,27.1z M170.9,32.9h-8.5l-2.5,0.1
				v-4l2.5,0.1h8.5l2.5-0.1v4L170.9,32.9z M182.4,36c-0.1,0.4-0.1,1-0.1,1.8v8.8c0,0.9,0,1.5,0.1,1.8h-18.2c0-0.4,0.1-1,0.1-1.8
				v-8.8c0-0.9,0-1.5-0.1-1.8H182.4z M170,62.5c-0.5,0.5-1.2,1.1-2.2,1.9c-1,0.7-1.8,1.3-2.4,1.6H177c-1.1-0.7-2.3-1.4-3.7-2
				C172,63.3,170.9,62.8,170,62.5z M169.7,44.2h7.2v-4h-7.2V44.2z"/>
			<path class="st0" d="M221.4,24.9c-0.4,2.8-1.1,5.4-2.1,7.8c-1.1,2.4-2.4,4.5-4.2,6.3c-1.7,1.8-3.8,3.3-6.2,4.5
				c-2.4,1.2-5.1,2-8.1,2.5c-0.6-1.7-1.6-3.9-3.1-6.6c3.8-0.7,6.8-1.5,9.1-2.6c2.3-1.1,4.1-2.5,5.4-4.3c-1,0.2-2.4,0.4-4.3,0.7
				c-1.9,0.3-3.4,0.6-4.5,0.9c-1.1,0.3-1.9,0.5-2.4,0.6l-2-6.6c1-0.1,2-0.5,2.9-1.2c1.7-1.3,3.5-3,5.4-5c-3.5,0.5-5.8,0.9-7.1,1.2
				l-1.2-6.2c0.9-0.3,1.5-0.5,1.9-0.8c0.4-0.3,0.7-0.5,0.9-0.7c1.1-1.3,2.3-2.8,3.6-4.7c1.3-1.9,2.4-3.7,3.3-5.5l6.7,3.2
				c-0.5,0.4-1,0.9-1.5,1.6c-2.3,2.9-4.4,5.2-6.3,6.8l4.8-0.8l2.9-4.1l6,3.8c-0.7,0.6-1.3,1.2-1.9,1.8c-1.3,1.6-2.9,3.3-4.8,5.1
				c-1.9,1.8-3.6,3.3-5.1,4.4l5.3-0.6c0.3-0.9,0.5-2,0.8-3.3L221.4,24.9z M260.8,48.4v14.3l0.2,5.7c0,1-0.2,1.9-0.7,2.8
				c-0.5,0.9-1.2,1.6-2.3,2.2c-1,0.6-2.4,1.1-4,1.4c-1.7,0.3-3.6,0.5-5.8,0.5c-0.6-1.6-1.6-4-3.1-7.1c1.5,0.2,3.3,0.3,5.4,0.3
				c0.3,0,0.7-0.1,1.2-0.2c0.5-0.1,0.8-0.4,0.9-0.7c0.2-0.4,0.2-0.7,0.2-1.1v-3.9V52.2h-41.2v19.9c0,1.4,0,2.3,0.2,2.9h-8.3
				c0.1-0.6,0.2-1.6,0.2-2.9V48.8c0-0.6-0.1-1.4-0.2-2.4h21.6c0.3-0.4,0.8-1.1,1.6-2.3c0.8-1.2,1.5-2.3,2-3.4l8.4,1.4
				c-0.5,0.5-0.7,0.8-0.8,0.9l-2.5,3.4h27L260.8,48.4z M245.9,66.3l0.1,2h-20.8v3.6h-7.3c0.1-0.8,0.2-1.5,0.2-2.1V56.9
				c0-0.5-0.1-1.2-0.2-2.1H246l-0.1,2V66.3z M220.7,35.9c1.1-0.7,1.7-1.7,1.7-3.2V12.4c0-0.7-0.1-1.5-0.2-2.5h6.6
				c-0.5-1.2-1-2.2-1.6-3.1l7.3-1.2c0.2,0.2,0.4,0.6,0.7,1.3c0.3,0.7,0.7,1.7,1.2,3h6.4c-0.1,0.5-0.1,1.3-0.1,2.4v13.5l0.1,2.5h-4.3
				c2.3,2.7,4.6,6.1,6.7,10.4l-5.3,2.9c-0.2-0.6-0.6-1.3-1.1-2.3c-0.5-1-0.9-1.7-1.3-2.3l-11.3,3.2c-1.5,0.5-2.6,0.9-3.6,1.2
				L220.7,35.9z M225.2,63.2h13.6v-3.5h-13.6V63.2z M228.8,14.9v1.9h7.6v-1.9H228.8z M228.8,21.3v1.9h7.6v-1.9H228.8z M234.8,32.5
				l-1.6-2.2l4.2-2h-8.7V34C230.1,33.7,232.1,33.2,234.8,32.5z M261.1,22.8c3.1,2.9,4.7,5.9,4.7,9.1c0,2.6-0.9,4.6-2.7,6.1
				c-1.8,1.5-4.2,2.3-7.3,2.3c-0.1-0.3-0.3-0.7-0.5-1.3c-0.3-0.6-0.7-1.6-1.3-3c-0.6-1.4-1-2.3-1.2-2.8c1.7,0.3,2.7,0.4,3.1,0.4
				c0.9,0,1.7-0.3,2.3-1c0.6-0.7,0.9-1.5,0.9-2.5c0-1.1-0.4-2.2-1.2-3.4c-0.8-1.1-2.1-2.2-3.7-3.1c1.1-2,2.3-4.9,3.9-8.9h-5.6v25.2
				c0,1.6,0,2.7,0.2,3.3h-6.7c0.1-0.6,0.2-1.7,0.2-3.3V10.5c0-0.7-0.1-1.5-0.2-2.5h15l0.7-0.8c1,0.9,1.9,1.6,2.7,2.4
				c0.8,0.7,1.5,1.5,2.2,2.3l-0.8,0.4c-0.5,1.3-1.1,2.9-2,5.1C262.7,19.4,261.9,21.3,261.1,22.8z"/>
			<path class="st0" d="M330,53.6h8.3c3.4,0,5.7,0,7-0.2v7.4c-1.3,0-3.6-0.1-7-0.1H330V61l0.2,5.8c0,1.2-0.3,2.3-0.9,3.2
				c-0.6,1-1.5,1.8-2.7,2.4c-1.2,0.7-2.9,1.2-4.9,1.5c-2.1,0.4-4.5,0.5-7.3,0.5c-1.7-3.8-2.9-6.5-3.9-8.1c2.2,0.4,4.4,0.5,6.5,0.5
				c1.7,0,2.8-0.2,3.5-0.5c0.7-0.4,1-0.9,1-1.7V61v-0.3h-24.3c1.7,0.6,3.6,1.4,5.8,2.4c2.1,1,4.1,2,5.8,2.9
				c-1.6,1.7-3.4,3.8-5.5,6.5c-1.3-1-3-2.1-5.1-3.3c-2.1-1.2-3.9-2.2-5.5-2.9c-1.6-0.8-2.8-1.3-3.6-1.6l3.9-4H284
				c-3.4,0-5.7,0-7,0.1v-7.4c1.3,0.1,3.6,0.2,7,0.2h37.4v-2.7h-3.3c-8.3,0-14.6-0.7-18.9-2.1c-4.3-1.4-7.3-3.5-9-6.3
				c-1.3,1.5-2.7,3-4.5,4.3c-1.7,1.4-3.5,2.6-5.3,3.6c-1.1-1.9-2.5-4-4.3-6.3c5.4-2.4,9.2-5.4,11.6-9.2H284H284
				c-1.8,0-3.1,0-3.8,0.1l-1.3-5.4c0.2-0.1,0.6-0.3,1.1-0.5c0.6-0.3,1.1-0.6,1.7-1.1c1.1-0.8,2.4-2.1,3.9-4h-5.1h-2.9v-6.3l2.9,0.1
				h7.4c-1-1.1-2.3-2.4-3.9-3.9c-1.6-1.5-3-2.6-4.2-3.6l4.9-4.6c1.5,1.1,3.2,2.3,4.9,3.8c1.8,1.5,3.3,2.9,4.6,4.3l-3.2,3.2
				c1.4,0.7,3.3,1.9,5.8,3.6L296,21c-1.5,2.2-3.5,4.8-6.2,7.8h1.4l0.9-0.7c0.6,0.3,2.3,1.4,5.1,3.3l-1.2,0.8
				c-0.6,1.6-1.1,2.9-1.7,3.9c0.1,1.1,0.5,2.1,1.1,3c0.6,1,1.6,1.8,2.9,2.4c1.3,0.6,2.9,1.1,4.7,1.4c1.8,0.3,4,0.6,6.5,0.8
				c2.5,0.2,5.5,0.3,8.8,0.3c4.9,0,10-0.2,15.5-0.5c5.4-0.3,9.7-0.7,12.9-1.1l-2,7c-3,0.4-7.9,0.8-14.7,1.1v0.2V53.6z M316.3,15.9
				h-14.6c-2.4,0-4.2,0.1-5.2,0.2V9.6c1.1,0.1,2.8,0.2,5.2,0.2h6.3c-0.7-1-1.3-1.7-1.8-2.3c-0.5-0.6-0.8-1-1-1.1l7.8-1.1
				c0.9,1,2,2.5,3.3,4.6h8.2c1.3-2.1,2-3.6,2.3-4.7l7.9,1.7l-0.7,0.9c-0.3,0.5-0.7,1.1-1.3,2h7.2c2.5,0,4.2,0,5.2-0.2V16
				c-1-0.1-2.7-0.2-5.2-0.2h-15.9l-0.9,2.2h17.1l-0.1,2.4v18.8l0.1,2.5h-38.9l0.1-2.5V20.5l-0.1-2.4h14.1
				C315.8,17.3,316.1,16.5,316.3,15.9z M332.4,24.8v-2.3h-23.1v2.3H332.4z M309.3,28.7v2.1h23.1v-2.1H309.3z M309.3,37.2h23.1v-2.5
				h-23.1V37.2z"/>
		</g>
		<g>
			<g>
				
					<rect x="40.4" y="50.7" transform="matrix(0.6352 -0.7723 0.7723 0.6352 -23.0775 53.2761)" class="st0" width="9" height="0.7"/>
			</g>
			<g>
				<g>
					<path class="st0" d="M79.4,64.9v-5.2l21.4,0.1v-7L79.4,53v-4.7l24.6,0.1v-7.2c-1,0.1-24.6,0.1-24.6,0.1v-2.6h-8.5v2.6h-7.3
						l-1.6,2l-4,4.9h13V53l-16.8-0.1l-5.7,6.9l22.4-0.1v5.2l-29.2-0.1v7.8H108v-7.8L79.4,64.9L79.4,64.9z"/>
				</g>
				<g>
					<path class="st0" d="M84.6,14.8h7.7v13.6h-18L69,34.8h10.3h17.2h4.1V8.3h-7.2l-8.7,6.3C84.7,14.7,84.6,14.7,84.6,14.8z"/>
				</g>
				<g>
					<path class="st0" d="M47.5,43.2l5.1,4.2l-5.5,6.7l0.5,0.4l16.6-20.2L73,23.6l0,0l1.1-1.3l-11.7,8.5c-0.8,0.5-1.8-0.2-1.5-1.1
						l2.2-6.6l-4.3,5.2h-1.2V14.8h7.7c0-0.1-0.1-0.1-0.2-0.1l-8.7-6.3h-7.2v26.5h4.3L48.4,41l0,0l-4.7,5.8l0.5,0.4L47.5,43.2z"/>
				</g>
				<g>
					<polygon class="st0" points="67.9,21.8 74.9,16.6 77.4,18.4 82,21.8 79.9,15.3 79.3,13.5 86.4,8.3 77.6,8.3 77.6,8.3 74.9,0 
						72.3,8.3 72.2,8.3 63.5,8.3 70.6,13.5 					"/>
				</g>
			</g>
		</g>
	</g>
	<g>
		<g>
			<path class="st0" d="M0.4,85.4c1.9,0,3.7,0,5.6,0.1c13.4,0.1,26.8,0.4,40.3,0.3c16.5-0.1,32.9-0.8,49.4-0.7
				c44.3,0.3,88.6,1,132.9,1.5c3,0,6.1-0.1,9.1,0.1c1.4,0.1,2.7,0.9,4.1,1.4c-0.1,0.4-0.1,0.7-0.2,1.1c-2.2,0.4-4.4,1-6.7,1
				c-22.1,0.5-44.3,1.2-66.4,1.2c-36.2-0.1-72.4-0.7-108.7-1.1c-15.1-0.2-30.3-0.2-45.4-0.6c-4-0.1-8-1.1-11.9-1.8
				C1.6,87.8,0.8,87,0,86.6C0.1,86.2,0.3,85.8,0.4,85.4z"/>
			<path class="st0" d="M328,88.8c-4.1,0.3-7.5,0.7-11,0.8c-15.2,0.1-30.4,0.1-45.6,0c-3.6,0-7.2-0.6-10.8-1.1
				c-1.5-0.2-3.2-0.5-3.4-3.2c2-0.2,4-0.5,6-0.4c19.3,0.3,38.6,0.6,58,1C323.5,85.9,326,85.9,328,88.8z"/>
			<path class="st0" d="M361,87.9c-1.9,0.4-3.2,0.8-4.4,0.8c-4.8,0.1-9.5,0.2-14.3,0c-1,0-2-1.1-3-1.7c1-0.6,2-1.7,2.9-1.7
				c5.6,0.2,11.3,0.7,16.9,1.2C359.6,86.5,359.9,87.1,361,87.9z"/>
			<path class="st0" d="M387.7,88.5c-5.3-0.1-10.6-0.1-15.9-0.2c-0.6,0-1.2-0.1-1.7-0.4c-0.8-0.5-1.4-1.2-2.1-1.7
				c0.8-0.5,1.5-1.2,2.3-1.3c1.4-0.2,2.9-0.1,4.4,0c3.2,0.3,6.5,0.8,9.7,1.3c1.1,0.2,2.2,0.8,3.3,1.2
				C387.8,87.8,387.7,88.2,387.7,88.5z"/>
		</g>
	</g>
</g>
</svg>
