<!-- Generator: Adobe Illustrator 25.0.0, SVG Export Plug-In  -->
<svg version="1.1" xmlns="http://www.w3.org/2000/svg" xmlns:xlink="http://www.w3.org/1999/xlink" x="0px" y="0px" width="389.5px"
	 height="91.5px" viewBox="0 0 389.5 91.5" style="overflow:visible;enable-background:new 0 0 389.5 91.5;" xml:space="preserve">
<style type="text/css">
	.st0{fill:#FFE656;}
</style>
<defs>
</defs>
<g>
	<g>
		<g>
			<path class="st0" d="M9.4,18.7h21c1.8,0,3,0,3.9-0.1V26c-0.8,0-2.1-0.1-3.9-0.1h-21L5.6,26v-7.3L9.4,18.7z M32.2,50.5L32.1,53
				v19.3l0.1,2.6h-7.3v-3.2h-9.4v3.2H8.1c0.1-1,0.2-1.9,0.2-2.6V53c0-0.7-0.1-1.5-0.2-2.5H32.2z M27.7,36.3h-15l-3.2,0.1v-6.5
				l3.2,0.1h15l3.2-0.1v6.5L27.7,36.3z M9.5,46.7v-6.5l3.2,0.1h15l3.2-0.1v6.5l-3.2-0.1h-15L9.5,46.7z M26.5,14.3l-7.7,3.9
				c-0.7-1.5-1.6-3.1-2.7-4.8c-1.2-1.8-2.2-3.2-3.2-4.3l7.3-3.6c1.1,1.1,2.2,2.4,3.4,4.1C24.7,11.3,25.7,12.8,26.5,14.3z M15.5,65.1
				h9.4V57h-9.4V65.1z M70,35.3H59v10.2h13.1l-0.1,2.9v23.8l0.1,2.9h-8.2v-3.4H46.1V75h-8.3c0.1-1.1,0.2-2.1,0.2-2.9V48.4
				c0-0.8-0.1-1.8-0.2-2.9h13.1V35.3H39.7c-2.3,0-3.9,0-4.8,0.1v-8.1c0.9,0.1,2.5,0.2,4.8,0.2h11.2v-8.9c-1.6,0.3-3.6,0.5-6.2,0.9
				c-2.5,0.3-5,0.6-7.3,0.7c-0.6-1.6-1.5-4.1-2.8-7.6c2.7,0,6-0.3,10-0.7c4-0.4,8.2-1.1,12.6-2.1c4.4-1,8-2.1,10.8-3.2
				c1.6,1.9,3.4,4.1,5.4,6.7c-0.1,0-0.4,0-0.8,0.1c-0.4,0.1-0.9,0.2-1.5,0.3c-3.6,1.1-7.7,2.2-12.2,3.2v10.5h11c2.4,0,4,0,4.9-0.2
				v8.1C74,35.3,72.4,35.3,70,35.3z M63.9,64.4V52.7H46.1v11.7H63.9z"/>
			<path class="st0" d="M155.5,59.4l-3.7,5.7l3.2-0.5l-2,8.1c-1.6,0.2-3.9,0.4-7,0.7c-3,0.3-6.9,0.5-11.4,0.7
				c-4.6,0.2-8.6,0.3-12.3,0.3c-3.4,0-6.6-0.2-9.6-0.6c-3-0.4-5.7-1.1-8.1-2c-2.4-0.9-4.6-2.1-6.5-3.6c-1.9-1.5-3.4-3.2-4.5-5.2
				c-1.2,5-2.5,9-3.9,12.2c-0.3-0.4-1-1.2-2-2.3c-1-1.1-2.3-2.3-3.7-3.5c1.3-2.3,2.4-5.6,3.4-10c0.9-4.4,1.5-9.1,1.6-14.1l7,1.4
				l-0.3,1.1c-0.1,1.1-0.2,2.6-0.4,4.5c0.3,1.2,0.6,2.4,1.1,3.4c0.5,1.1,1,2,1.5,2.8c0.6,0.8,1.1,1.4,1.6,1.9V42.2h-10
				c-2,0-3.5,0-4.3,0.1v-7.3c0.9,0.1,2.3,0.1,4.3,0.1h25.9c2,0,3.4,0,4.2-0.1v7.3c-0.9,0-2.3-0.1-4.2-0.1h-7.9v6.1h8l2.8-0.1v7.2
				l-2.8-0.1h-8v9.5c4.1,1.2,9.1,1.8,15.2,1.8c2.3,0,5.1,0,8.5-0.2c3.3-0.1,6.9-0.3,10.7-0.5c3.8-0.3,7-0.6,9.8-0.9
				c-1-0.7-2.1-1.4-3.3-2.2c-1.2-0.8-2.4-1.4-3.5-2c-1.1-0.6-2-1.1-2.8-1.5c-0.8-0.4-1.6-0.9-2.5-1.4c-0.9-0.5-1.5-0.8-1.6-0.8
				l4.5-4.4h-20c0-0.6,0.1-1.5,0.1-2.9V22.6c0-1.4,0-2.4-0.1-2.9h8.6c0.9-2.1,1.4-3.6,1.7-4.5h-9.3c-2,0-3.5,0-4.3,0.1v-7
				c0.9,0.1,2.3,0.1,4.3,0.1h26.4l4.3-0.1v7l-4.3-0.1h-9.3c-0.3,0.9-0.9,2.4-1.8,4.5h12.1l-0.1,2.9v27.3l0.1,2.9h-8.2
				c1.5,0.6,3.6,1.6,6.3,3C151.5,57.2,153.7,58.4,155.5,59.4z M88.2,32c0.1-0.9,0.2-1.7,0.2-2.5v-19c0-0.7-0.1-1.5-0.2-2.5h28.2
				c-0.1,0.6-0.1,1.4-0.1,2.5v19l0.1,2.5H88.2z M108.8,13.5H95.9v3.7h12.8V13.5z M95.9,26.4h12.8v-3.9H95.9V26.4z M115,60.4
				c2.7-0.9,5.5-2.1,8.5-3.6c2.9-1.5,4.9-2.9,6-4l5.4,4.3c-3.5,2.7-6.3,4.7-8.6,6c-2.3,1.3-4.4,2.4-6.4,3.3c-0.3-0.5-0.8-1.1-1.5-2
				C117.6,63.6,116.5,62.3,115,60.4z M143.5,25.5h-14.1v3.6h14.1V25.5z M143.5,37.7v-3.3h-14.1v3.3H143.5z M129.5,43.1v3.6h14.1
				v-3.6H129.5z"/>
			<path class="st0" d="M284,40.6c1.3,3.1,2.9,6,4.9,8.8c2,2.8,4.3,5.3,6.8,7.6c2.5,2.2,5.2,4.2,8.2,5.9c2.9,1.7,5.9,3,9,3.9
				c-0.9,1.2-2,2.6-3.1,4.2c-1.2,1.7-2,3-2.5,4c-6.4-2.4-12.2-6-17.1-10.7c-5-4.7-9-10.3-12.1-16.8c-2.7,6-6.5,11.4-11.6,16.2
				c-5.1,4.7-10.9,8.3-17.6,10.8c-0.7-1-1.6-2.3-2.9-4c-1.3-1.7-2.5-3-3.5-4.2c7.4-2.4,13.6-5.7,18.5-10c4.9-4.3,8.4-9.5,10.3-15.6
				h-20.5c-3.1,0-5.3,0.1-6.4,0.2v-9.1c1.2,0.1,3.3,0.2,6.4,0.2h22.2l0.1-2.8v-9.7h-16.3c-3.5,0-5.8,0.1-7.1,0.2v-9
				c1.3,0.1,3.6,0.2,7.1,0.2h41.6c3.5,0,5.8,0,7-0.2v9c-1.2-0.1-3.6-0.2-7-0.2h-16.4v10.1l-0.1,2.3H304c3.2,0,5.3,0,6.5-0.2v9.1
				c-1.2-0.1-3.3-0.2-6.5-0.2H284z"/>
			<path class="st0" d="M382.4,19.2c3.5,0,5.9,0,7.1-0.2v8.8c-1.2-0.1-3.6-0.2-7.1-0.2h-11v32.3l0.2,5.7c0,2.2-0.7,3.9-2.2,5.1
				c-1.5,1.3-3.6,2.2-6.5,2.8c-2.8,0.6-6.5,0.9-11,0.9c-1-2.1-2.6-5.1-4.8-9.2c3.1,0.5,6.1,0.7,9,0.7c2.2,0,3.7-0.2,4.7-0.6
				c1-0.4,1.5-1.1,1.5-1.9v-3.5v-26c-2.2,3.2-4.6,6.4-7.3,9.5c-2.7,3.1-5.5,6-8.5,8.7c-3,2.7-6,5.1-9.2,7.3c-3.2,2.2-6.3,4-9.4,5.4
				c-0.6-1.1-1.5-2.3-2.6-3.9c-1.1-1.5-2.1-2.8-3.1-3.9c2.6-1.1,5.4-2.4,8.3-4.2c2.9-1.7,6.1-3.9,9.4-6.7c3.4-2.7,6.5-5.8,9.5-9.1
				c2.9-3.3,5.4-6.5,7.4-9.5h-24.9c-3.5,0-5.9,0.1-7.1,0.2V19c1.2,0.1,3.6,0.2,7.1,0.2h30.3V9.6c0-1.1-0.1-2.3-0.2-3.5
				c0.5,0,1.2,0,2.3,0c1.1,0,2.4,0.1,3.9,0.2c1.5,0.1,2.6,0.1,3.3,0.2c-0.1,0.6-0.2,1.7-0.2,3.2v9.5H382.4z"/>
		</g>
		<g>
			<g>
				
					<rect x="163.5" y="50.7" transform="matrix(0.6352 -0.7723 0.7723 0.6352 21.8604 148.4179)" class="st0" width="9" height="0.7"/>
			</g>
			<g>
				<g>
					<path class="st0" d="M202.6,64.9v-5.2l21.4,0.1v-7L202.6,53v-4.7l24.6,0.1v-7.2c-1,0.1-24.6,0.1-24.6,0.1v-2.6h-8.5v2.6h-7.3
						l-1.6,2l-4,4.9h13V53l-16.8-0.1l-5.7,6.9l22.4-0.1v5.2l-29.2-0.1v7.8h66.3v-7.8L202.6,64.9L202.6,64.9z"/>
				</g>
				<g>
					<path class="st0" d="M207.8,14.8h7.7v13.6h-18l-5.3,6.4h10.3h17.2h4.1V8.3h-7.2l-8.7,6.3C207.9,14.7,207.8,14.7,207.8,14.8z"/>
				</g>
				<g>
					<path class="st0" d="M170.7,43.2l5.1,4.2l-5.5,6.7l0.5,0.4l16.6-20.2l8.8-10.7l0,0l1.1-1.3l-11.7,8.5c-0.8,0.5-1.8-0.2-1.5-1.1
						l2.2-6.6l-4.3,5.2h-1.2V14.8h7.7c0-0.1-0.1-0.1-0.2-0.1l-8.7-6.3h-7.2v26.5h4.3l-5.1,6.2l0,0l-4.7,5.8l0.5,0.4L170.7,43.2z"/>
				</g>
				<g>
					<polygon class="st0" points="191,21.8 198.1,16.6 200.5,18.4 205.2,21.8 203.1,15.3 202.5,13.5 209.6,8.3 200.8,8.3 200.8,8.3 
						198.1,0 195.4,8.3 195.4,8.3 186.7,8.3 193.8,13.5 					"/>
				</g>
			</g>
		</g>
	</g>
	<g>
		<path class="st0" d="M0.4,85.4c1.9,0,3.7,0,5.6,0.1c13.4,0.1,26.8,0.4,40.3,0.3c16.5-0.1,32.9-0.8,49.4-0.7
			c44.3,0.3,88.6,1,132.9,1.5c3,0,6.1-0.1,9.1,0.1c1.4,0.1,2.7,0.9,4.1,1.4c-0.1,0.4-0.1,0.7-0.2,1.1c-2.2,0.4-4.4,1-6.7,1
			c-22.1,0.5-44.3,1.2-66.4,1.2c-36.2-0.1-72.4-0.7-108.7-1.1c-15.1-0.2-30.3-0.2-45.4-0.6c-4-0.1-8-1.1-11.9-1.8
			C1.6,87.8,0.8,87,0,86.6C0.1,86.2,0.3,85.8,0.4,85.4z"/>
		<path class="st0" d="M328,88.8c-4.1,0.3-7.5,0.7-11,0.8c-15.2,0.1-30.4,0.1-45.6,0c-3.6,0-7.2-0.6-10.8-1.1
			c-1.5-0.2-3.2-0.5-3.4-3.2c2-0.2,4-0.5,6-0.4c19.3,0.3,38.6,0.6,58,1C323.5,85.9,326,85.9,328,88.8z"/>
		<path class="st0" d="M361,87.9c-1.9,0.4-3.2,0.8-4.4,0.8c-4.8,0.1-9.5,0.2-14.3,0c-1,0-2-1.1-3-1.7c1-0.6,2-1.7,2.9-1.7
			c5.6,0.2,11.3,0.7,16.9,1.2C359.6,86.5,359.9,87.1,361,87.9z"/>
		<path class="st0" d="M387.7,88.5c-5.3-0.1-10.6-0.1-15.9-0.2c-0.6,0-1.2-0.1-1.7-0.4c-0.8-0.5-1.4-1.2-2.1-1.7
			c0.8-0.5,1.5-1.2,2.3-1.3c1.4-0.2,2.9-0.1,4.4,0c3.2,0.3,6.5,0.8,9.7,1.3c1.1,0.2,2.2,0.8,3.3,1.2
			C387.8,87.8,387.7,88.2,387.7,88.5z"/>
	</g>
</g>
</svg>
