<!-- Generator: Adobe Illustrator 25.0.0, SVG Export Plug-In  -->
<svg version="1.1" xmlns="http://www.w3.org/2000/svg" xmlns:xlink="http://www.w3.org/1999/xlink" x="0px" y="0px" width="217.5px"
	 height="203.3px" viewBox="0 0 217.5 203.3" style="overflow:visible;enable-background:new 0 0 217.5 203.3;"
	 xml:space="preserve">
<style type="text/css">
	.st0{fill:#FFBC0D;}
	.st1{fill:#FFFFFF;}
	.st2{fill:none;stroke:#FFFFFF;stroke-width:0.9111;stroke-linecap:round;stroke-linejoin:round;stroke-miterlimit:10;}
</style>
<defs>
</defs>
<path class="st0" d="M180.5,40c-1.9,0.4-3.6,0.7-5,0.8c-9.7,1.1-19.3,2.5-28.9,4.1c-9.2,1.6-16.1,1.3-23.7-4.9
	C108.2,27.9,97.4,13,81.2,2.3c-13.4-8.8-14.9,9.3-16.7,17.9c-3,13.8-5.8,22.2-8.8,36c-0.6,2.7-1.2,5.5-2.9,7.6
	c-1.6,2-3.9,3.2-6.2,4.4C29.2,77.2,21.8,81,5.3,91.6c-1.6,1-3.2,2.1-4.2,3.8c-1.6,2.6-1.3,6,0.3,8.6c4.9,8,17.7,11.8,25.7,14.7
	c11.1,4.1,31.2,15.9,32.7,18.1c1.3,1.9,1.5,4.3,1.6,6.6c0.8,14.3,0.1,29.5,3.8,43.4c5.1,19.2,18.1,21.6,31.9,6.9
	c10.5-11.3,20.9-22.7,30.7-34.6c4-4.8,8.1-6.1,13.9-5.2c22.2,3.5,43.8,6.8,66.4,4.4c2.7-0.3,5.5-0.7,7.4-2.6c2-2,2.4-5.3,1.6-8.1
	c-0.8-2.8-2.5-5.2-4.2-7.5c-9.5-13.1-20-25.8-28.7-39.4c-5.2-5.2-5.2-10-1.4-15.6c5.1-7.4,8.3-10.9,12.8-18.6
	c3.5-6,16.5-22.8,6.7-27.8C197.9,36.5,187.7,38.7,180.5,40z"/>
<g>
	<g>
		<path class="st1" d="M85.9,85c3.4,0,6.3,0.8,8.5,2.3s3.3,3.8,3.3,6.7c0,2.4-0.8,4.5-2.4,6.3c-1.6,1.8-3.6,3.1-6.2,3.8
			c1.8,0.8,3.2,1.9,4.2,3.4s1.6,3.2,1.6,5.4c0,2.4-0.7,4.5-2,6.3c-1.3,1.8-3.1,3.2-5.4,4.2c-2.3,1-4.9,1.5-7.8,1.5
			c-2.4,0-4.6-0.4-6.5-1.2c-1.9-0.8-3.5-1.9-4.6-3.4c-1.1-1.5-1.7-3.3-1.7-5.5c0-2.8,0.9-5.2,2.8-7.2c1.8-2,4.3-3.4,7.2-4.1
			c-1.4-0.7-2.6-1.7-3.4-3c-0.8-1.3-1.2-2.8-1.2-4.6c0-2.1,0.6-4,1.8-5.6c1.2-1.6,2.9-2.9,4.9-3.9C81.1,85.4,83.4,85,85.9,85z
			 M81.9,105.5c-1.9,0-3.6,0.4-5,1.2c-1.4,0.8-2.5,1.9-3.3,3.3c-0.8,1.4-1.2,2.8-1.2,4.5c0,2.3,0.7,4,2.1,5.1
			c1.4,1.1,3.2,1.6,5.4,1.6c1.9,0,3.6-0.4,5-1.2c1.4-0.8,2.5-1.9,3.3-3.3c0.8-1.4,1.2-2.9,1.2-4.4c0-2.3-0.7-4-2.1-5.1
			C85.9,106.1,84.1,105.5,81.9,105.5z M84.1,102.1c1.7,0,3.2-0.4,4.4-1.1c1.2-0.7,2.2-1.7,2.8-2.9c0.7-1.2,1-2.4,1-3.8
			c0-1.9-0.6-3.4-1.8-4.4c-1.2-1-2.8-1.5-4.8-1.5c-1.7,0-3.1,0.4-4.4,1.1c-1.2,0.7-2.2,1.7-2.9,2.9c-0.7,1.2-1,2.5-1,3.8
			c0,1.9,0.6,3.4,1.8,4.4C80.6,101.6,82.2,102.1,84.1,102.1z"/>
		<path class="st1" d="M103.4,123.9c1.4-4.3,3-8.3,5-12s4.4-7.3,7.2-10.9c2.8-3.5,6.2-7.2,10-10.9h-20l0.9-4.2h25.2l-0.9,4.4
			c-5.7,5.5-10.2,11-13.7,16.4c-3.5,5.4-6.2,11.2-8.1,17.2H103.4z"/>
		<path class="st1" d="M135.1,116.2c-1.4,0-2.4-0.4-3.1-1.3c-0.7-0.9-1.1-2.1-1.1-3.8c0-1.1,0.2-2.1,0.5-3.2c0.3-1.1,0.7-2,1.3-2.9
			c0.6-0.9,1.3-1.6,2.1-2.1c0.8-0.5,1.8-0.8,2.8-0.8c1.4,0,2.4,0.4,3.1,1.3c0.7,0.9,1.1,2.1,1.1,3.8c0,1.1-0.2,2.1-0.5,3.2
			c-0.3,1.1-0.7,2-1.3,2.9c-0.6,0.9-1.3,1.6-2.1,2.1C137.1,115.9,136.1,116.2,135.1,116.2z M135.3,114.4c0.6,0,1.1-0.2,1.6-0.7
			c0.5-0.5,0.9-1.1,1.3-1.9c0.4-0.8,0.6-1.6,0.8-2.5c0.2-0.9,0.3-1.7,0.3-2.4c0-2-0.6-3-1.9-3c-0.6,0-1.1,0.2-1.6,0.7
			c-0.5,0.5-0.9,1.1-1.3,1.9s-0.6,1.6-0.8,2.5c-0.2,0.9-0.3,1.7-0.3,2.4C133.4,113.4,134.1,114.4,135.3,114.4z M134.9,125l15.8-22.5
			h2.9L137.8,125H134.9z M150.9,125.3c-1.4,0-2.4-0.4-3.1-1.3c-0.7-0.9-1.1-2.1-1.1-3.8c0-1.1,0.2-2.1,0.5-3.2
			c0.3-1.1,0.7-2,1.3-2.9c0.6-0.9,1.3-1.6,2.1-2.1c0.8-0.5,1.8-0.8,2.8-0.8c1.4,0,2.4,0.4,3.1,1.3c0.7,0.9,1.1,2.1,1.1,3.8
			c0,1.1-0.2,2.1-0.5,3.2c-0.3,1.1-0.7,2-1.3,2.9c-0.6,0.9-1.3,1.6-2.1,2.1C152.9,125.1,152,125.3,150.9,125.3z M151.1,123.6
			c0.6,0,1.1-0.2,1.6-0.7c0.5-0.5,0.9-1.1,1.3-1.9c0.4-0.8,0.6-1.6,0.8-2.5c0.2-0.9,0.3-1.7,0.3-2.4c0-2-0.6-3-1.9-3
			c-0.6,0-1.1,0.2-1.6,0.7c-0.5,0.5-0.9,1.1-1.3,1.9s-0.6,1.6-0.8,2.5c-0.2,0.9-0.3,1.7-0.3,2.4
			C149.3,122.6,149.9,123.6,151.1,123.6z"/>
	</g>
	<g>
		<g>
			<g>
				<path class="st1" d="M82.4,63.9c0.1,1.1,0.4,2.1,0.8,3c0.4,1,1,1.8,1.8,2.6c0.8,0.7,1.6,1.3,2.5,1.7c-0.1,0.1-0.3,0.4-0.5,0.6
					s-0.4,0.5-0.6,0.7c-0.2,0.2-0.3,0.4-0.3,0.5c-1.3-0.6-2.4-1.5-3.3-2.8c-0.9-1.3-1.5-2.7-1.9-4.4c-0.3,0.6-0.7,1.3-1.1,1.9
					c-0.4,0.6-0.9,1.3-1.6,1.9c-0.6,0.6-1.4,1.3-2.2,1.8c-0.9,0.6-1.8,1.1-2.8,1.5c-0.4-0.9-0.6-1.4-0.7-1.5
					c-0.1-0.1-0.1-0.2-0.2-0.4c0.7-0.3,1.4-0.6,2-0.9s1.2-0.7,1.7-1.2c0.5-0.4,1-0.9,1.4-1.3c0.4-0.5,0.8-1,1.2-1.6
					c0.4-0.6,0.7-1.3,1-2.1h-4c-0.8,0-1.3,0-1.6,0l0.3-2c0.3,0,0.8,0,1.6,0h4.3c0.1-0.6,0.3-1.2,0.4-1.8c0.2-0.9,0.3-1.6,0.3-2
					l2.1,0.1c0,0-0.1,0.2-0.1,0.6c-0.1,0.3-0.1,0.6-0.2,0.8c-0.2,0.9-0.3,1.7-0.5,2.3h4.7c0.8,0,1.3,0,1.6,0l-0.3,2
					c-0.3,0-0.8,0-1.6,0H82.4z"/>
				<path class="st1" d="M91.6,69.2l-0.3,1.8h-1.6c0.1-0.3,0.1-0.6,0.2-0.8l1.7-9.4c0.1-0.4,0.1-0.7,0.1-0.8h4.3l-0.2,0.7l-1.4,7.8
					l-0.1,0.7H91.6z M91.9,67.6H93l1.1-6.2H93L91.9,67.6z M100.9,61.5l-0.1,0.5c-0.5,2.9-0.9,5-1.2,6.4c-0.3,1.4-0.6,2.4-0.8,2.9
					c-0.2,0.5-0.6,1-1,1.2c-0.4,0.3-1,0.4-1.7,0.4c0-0.3-0.1-0.9-0.2-1.9c0.1,0,0.2,0.1,0.3,0.1c0.1,0,0.2,0,0.3,0
					c0.2,0,0.5-0.1,0.6-0.2c0.2-0.1,0.3-0.4,0.4-0.7c0.2-0.4,0.4-1.1,0.6-2.2c0.2-1.1,0.5-2.7,0.9-5h-0.9c-0.4,1.8-0.8,3.3-1.1,4.5
					c-0.4,1.2-0.8,2.2-1.3,3.1c-0.5,0.9-1,1.7-1.7,2.4c-0.1-0.1-0.3-0.3-0.6-0.6c-0.2-0.2-0.5-0.4-0.6-0.6c0.4-0.4,0.8-0.9,1.1-1.3
					c0.3-0.4,0.6-1,0.9-1.5c0.3-0.6,0.5-1.3,0.8-2.3c0.3-1,0.6-2.2,0.9-3.8h-0.3l-0.7,0l0.3-1.7l0.7,0h0.3l0.4-2.1
					c0.1-0.3,0.1-0.6,0.1-1l1.6,0.1L99,58.8c-0.1,0.7-0.3,1.5-0.5,2.6H100.9z M105.9,60.5l-2,11.6l-0.1,1h-1.6l0.2-1h-1.2l-0.2,1
					h-1.6c0.1-0.4,0.2-0.7,0.2-1l2-11.6c0.1-0.5,0.1-0.8,0.1-1h4.3C106.1,59.8,106,60.1,105.9,60.5z M101.5,70.4h1.2l1.6-9.1h-1.2
					L101.5,70.4z"/>
				<path class="st1" d="M112.2,61.3h0.8l0.8,0l-0.3,1.7l-0.8,0H112l-0.4,2.4c0.9-0.3,1.5-0.4,1.6-0.5c-0.1,0.8-0.2,1.4-0.3,1.8
					l-1.7,0.5l-0.5,2.8l-0.2,1.5c0,0.2-0.1,0.5-0.3,0.7s-0.4,0.4-0.6,0.6s-0.6,0.3-1,0.4c-0.4,0.1-0.8,0.1-1.2,0.1
					c0-0.2-0.2-0.9-0.5-2c0.4,0.1,0.7,0.1,1,0.1c0.3,0,0.5,0,0.6-0.1c0.1-0.1,0.2-0.2,0.2-0.3l0.1-0.8l0.4-2.3
					c-0.3,0.1-0.7,0.2-1.1,0.3l-0.8,0.3l0-1.9l0.9-0.2l1.3-0.3l0.5-3h-1.3l-0.8,0l0.3-1.7l0.8,0h1.3l0.4-2.3c0-0.2,0.1-0.5,0.1-0.7
					c0.2,0,0.6,0,1,0c0.4,0,0.7,0,0.9,0.1c-0.1,0.2-0.1,0.5-0.1,0.7L112.2,61.3z M121.8,65.7l-0.1,0.7l-1.1,6.1l-0.1,0.7h-1.8
					l0.1-0.8h-4.2l-0.1,0.8h-1.8c0.1-0.2,0.1-0.5,0.2-0.7l1.1-6.1c0-0.2,0.1-0.4,0.1-0.7H121.8z M114.9,64.4
					c-0.2-0.1-0.3-0.4-0.3-0.6c0-0.3,0-0.7,0.1-1.2l0.7-3.9c0-0.1,0-0.2,0-0.4l1.8,0.1c0,0.1-0.1,0.2-0.1,0.3l-0.3,1.6
					c0.9-0.2,1.9-0.4,3-0.7c1.1-0.3,1.8-0.5,2.1-0.7l0.9,1.5l-0.3,0.1c-0.7,0.2-1.6,0.5-2.9,0.8c-1.2,0.3-2.3,0.5-3.1,0.7l-0.1,0.7
					c0,0.2,0.1,0.4,0.3,0.5c0.1,0,0.2,0,0.4,0.1c0.2,0,0.7,0,1.5,0c0.5,0,0.9,0,1.2-0.1c0.3-0.1,0.6-0.1,0.8-0.3
					c0.2-0.2,0.4-0.4,0.5-0.7c0.1-0.3,0.2-0.6,0.3-0.9c0.2,0.1,0.5,0.3,0.8,0.5c0.3,0.2,0.6,0.3,0.8,0.4c-0.2,0.8-0.5,1.3-0.9,1.7
					c-0.4,0.4-0.9,0.6-1.5,0.7c-0.6,0.1-1.5,0.2-2.5,0.2c-1,0-1.8,0-2.3-0.1C115.4,64.7,115,64.6,114.9,64.4z M114.9,70.9h4.2
					l0.2-1.2h-4.2L114.9,70.9z M119.7,67.3h-4.2l-0.2,1.1h4.2L119.7,67.3z"/>
				<path class="st1" d="M136.7,69.2c0.4,0.9,1.1,1.6,2.1,2.3c-0.1,0.1-0.2,0.4-0.5,0.9c-0.2,0.4-0.4,0.7-0.5,0.9
					c-0.5-0.3-0.9-0.7-1.3-1.1c-0.4-0.4-0.7-0.9-1-1.5c-0.8,1-1.9,1.8-3.2,2.6c0-0.3-0.2-0.7-0.4-1.4c-0.2,0.3-0.6,0.7-1,1.3
					c-0.4-0.2-0.8-0.5-1.3-0.7c-0.5-0.2-0.9-0.5-1.3-0.6c-1.2,0.7-2.8,1.1-4.7,1.3c0-0.2-0.1-0.4-0.1-0.7c-0.1-0.3-0.1-0.6-0.2-0.8
					c1.3-0.1,2.4-0.3,3.3-0.6c-0.8-0.3-1.4-0.6-1.9-0.7c0.3-0.3,0.7-0.7,1.1-1.2H125c-0.5,0-0.8,0-1,0l0.2-1.4c0.2,0,0.5,0,1,0h1.9
					l0.4-0.7h-2.6c0-0.1,0.1-0.3,0.1-0.4l0.3-1.7c0-0.1,0-0.2,0-0.4h2.9l0.1-0.8h-2.8c0.1-0.2,0.1-0.4,0.1-0.5l0.2-1.2h-0.1l-0.5,0
					l0.3-1.5l0.5,0h0.1l0.2-1.1c0-0.1,0-0.3,0.1-0.5h2.8l0.1-0.5l0-0.4c0.2,0,0.5,0,1,0c0.4,0,0.7,0,0.9,0l-0.1,0.3L131,59h2.8
					l-0.1,0.5l-0.2,1.1h0.2l0.5,0l-0.3,1.5l-0.5,0h-0.2l-0.2,1.2l-0.1,0.5h-2.8l-0.1,0.8h3c0,0.1-0.1,0.2-0.1,0.4l-0.3,1.7l-0.1,0.4
					h-3.3l-0.4,0.7h3.4c0.5,0,0.8,0,1,0l-0.2,1.4c-0.2,0-0.5,0-1,0H131c-0.3,0.7-0.7,1.2-1.2,1.7l2.1,0.9l-0.1-0.2
					c0.6-0.3,1.1-0.6,1.6-1c0.5-0.4,0.9-0.8,1.4-1.3c-0.4-1.2-0.5-2.7-0.4-4.5c-0.3,0.3-0.5,0.7-0.8,1c0-0.1-0.1-0.4-0.2-0.7
					c-0.1-0.3-0.2-0.7-0.4-1c0.5-0.5,1.1-1.3,1.7-2.4c0.6-1.1,1.1-2.2,1.4-3.2l1.5,0.3l-0.1,0.2c-0.3,0.8-0.6,1.5-0.9,2.2h3.1l0.7,0
					l-0.3,1.7l-0.7,0h-0.1c-0.3,1.4-0.7,2.5-1.1,3.6C137.7,67.3,137.2,68.3,136.7,69.2z M126.7,65.5l-0.1,0.6h1.5l0.1-0.6H126.7z
					 M127.2,69.8c0.2,0.1,0.6,0.2,1.3,0.4c0.1-0.1,0.2-0.2,0.4-0.4c0.2-0.2,0.4-0.4,0.6-0.8h-1.8C127.6,69.3,127.4,69.5,127.2,69.8z
					 M127.4,62l-0.1,0.6h1.4l0.1-0.6H127.4z M129.1,60.2h-1.4l-0.1,0.6h1.4L129.1,60.2z M131.2,66.1l0.1-0.6h-1.5l-0.1,0.6H131.2z
					 M130.2,62.6h1.4l0.1-0.6h-1.4L130.2,62.6z M132,60.8l0.1-0.6h-1.4l-0.1,0.6H132z M136,67.4c0.4-0.6,0.7-1.3,1-2
					s0.5-1.6,0.8-2.6h-1.8C135.7,64.6,135.8,66.2,136,67.4z"/>
			</g>
		</g>
		<g>
			<polyline class="st2" points="153.9,62.3 158.7,66.7 153.9,71.1 			"/>
			<polyline class="st2" points="149.4,62.3 154.2,66.7 149.4,71.1 			"/>
			<polyline class="st2" points="145,62.3 149.8,66.7 145,71.1 			"/>
		</g>
	</g>
</g>
</svg>
