<svg xmlns="http://www.w3.org/2000/svg" width="387.8" height="91.5" style="overflow:visible;enable-background:new 0 0 387.8 91.5" xml:space="preserve"><style>.st0{fill:#e65743}</style><path class="st0" d="M32.8 72.4c-6.3 0-11.6-1.3-16-4C12.5 65.7 9.2 62 7 57.3c-2.2-4.7-3.3-10.2-3.3-16.5 0-6.2 1.1-11.6 3.3-16.4 2.2-4.7 5.5-8.5 9.9-11.2 4.3-2.7 9.7-4.1 16-4.1 7.7 0 13.9 2.1 18.6 6.3 4.7 4.2 7.7 9.9 9 17h-17c-.7-3.7-1.9-6.5-3.8-8.6-1.9-2.1-4.2-3.1-6.9-3.1-4 0-7.1 1.8-9.2 5.3-2.1 3.5-3.2 8.4-3.2 14.7 0 6.2 1.1 11.1 3.2 14.7 2.1 3.5 5.2 5.3 9.2 5.3 2.7 0 5-1 6.8-2.9 1.8-1.9 3.1-4.7 3.7-8.2h16.8c-.7 4.6-2.3 8.6-4.6 12-2.4 3.4-5.5 6.1-9.3 8-3.8 1.9-8.3 2.8-13.4 2.8zM87 21.8V70c0 1.4 0 2.9.2 4.6H78c.1-1.7.2-3.2.2-4.6 0-3.8.1-9 .3-15.8.2-6.7.5-13 .8-18.8-1 1.7-2.1 3.4-3.2 5s-2.1 2.9-3 3.9c-.6-1.9-1.9-5-3.9-9.1 2-2.2 4.1-5.3 6.4-9.1 2.2-3.9 4.1-7.7 5.7-11.3 1.5-3.7 2.6-6.8 3.1-9.5l8.2 2.6-.6.8c-1.4 4.3-3.1 8.6-5 13.1zm46.4 42c2.8 0 4.7 0 5.7-.2v8.8c-1-.1-2.9-.2-5.7-.2H95.7c-2.8 0-4.7 0-5.7.2v-8.8c1.1.1 3 .2 5.7.2h19.1c1.8-4.6 3.5-10.3 5.2-17 1.6-6.7 2.6-11.9 2.9-15.7 1.6.4 3.4.9 5.4 1.5 2 .6 3.4 1 4.2 1.3-.4 1-.6 1.5-.7 1.7-.9 4-1.9 8.2-3.1 12.7-1.2 4.5-2.2 7.9-3 10.5-.8 2.5-1.4 4.2-1.7 5.1h9.4zM91.3 18.2c1.1.1 2.9.2 5.6.2h14.4c-.6-1.3-1.3-2.8-2.3-4.7-1-1.9-2.1-3.7-3.2-5.5l7.8-2.6c.9 1.4 1.9 3.1 3 5.1 1.1 2 1.9 3.4 2.3 4.4.5 1 .8 1.6.9 1.9-.7.4-1.7.8-3.1 1.4h14.9c2.6 0 4.4 0 5.4-.2v8.7c-1.1-.1-2.9-.2-5.4-.2H96.9c-2.7 0-4.5.1-5.6.2v-8.7zm10.9 42.5c-1-4.4-2.1-9-3.4-13.7-1.3-4.7-2.7-8.9-4-12.6l8.6-2.3c1 3 2.2 7 3.6 12s2.5 9.7 3.5 13.9c-1 .4-2.4.8-4 1.4-1.9.5-3.3 1-4.3 1.3zm100.8-4c1.1 1.6 2.4 3.1 4.1 4.6 1.7 1.4 3.6 2.7 5.8 3.7 2.2 1 4.3 1.8 6.4 2.3-.6 1.1-1.3 2.4-2.1 4s-1.3 2.8-1.5 3.6c-4.4-1.5-8.3-3.6-11.7-6.5-3.4-2.9-6-6.3-7.8-10.2-.8 2.1-1.6 3.9-2.5 5.4-.9 1.5-1.9 2.9-3.1 4.2-1.1 1.3-2.6 2.5-4.4 3.8-1.8 1.3-4 2.4-6.6 3.4-.5-.9-1.2-2-2.2-3.4-1-1.4-1.9-2.6-2.6-3.5 2.1-.6 4-1.3 5.7-2.2 1.7-.9 3.2-2 4.6-3.4 1.4-1.4 2.7-3.3 3.7-5.6h-7c-2.3 0-4 .1-5 .2v-1.4l-3.6 6.9c-.2-.2-.7-.6-1.4-1.3-.7-.7-2-1.7-3.7-3.1-1.8 3.4-3.9 6.5-6.3 9.1-2.4 2.6-5 4.8-7.8 6.5-.3-.6-.9-1.5-1.9-2.8-1-1.3-2.1-2.6-3.3-4 5.4-3.1 9.7-7.7 13.1-13.7-5.2-3.7-8.9-6.1-11-7.3.5-1.6 1.1-3.7 1.8-6.5s1.4-6.4 2.3-10.7h-2l-3.2.1v-7.8l3.2.1h3.4c1-5.8 1.6-10.9 1.9-15.3l8.3.9-.5 2.1c-.5 3.7-1.2 7.8-2 12.2h12.6c-.6 11.2-2.3 20.8-5.1 28.9 2.5 1.7 4.2 2.9 5.3 3.7v-4.4c1 .1 2.7.2 5 .2h9.1c.3-2 .5-4.1.7-6.5h-12.1c.1-1.1.2-2.1.2-2.9V14.6l-.1-2.6c.2 0 1 0 2.5.1s2.6.1 3.4.2c.8 0 1.3.1 1.7.1l-.1 2.2v21.2h26.7l-.1 2.1v11.4c2.3 0 4 0 4.9-.2v7.6c-1-.1-2.6-.2-4.9-.2H203zm-43.6-14.2 5.6 3.2c.8-2.3 1.5-5 2.2-8 .7-3 1.2-6.1 1.5-9.1h-6.2c-1.2 5.7-2.2 10.3-3.1 13.9zm31.9-11.7c.1-.9.2-1.7.2-2.4V10.1c0-.7-.1-1.5-.2-2.4h23.3l-.1 2.4v18.3l.1 2.4h-23.3zm7.8 12c-.2 2.3-.4 4.5-.7 6.5h7.5v-6.5h-6.8zm8.1-28.5h-8.6v10h8.6v-10zm82.2 39.5h-16.3c3.1 2.2 7.1 4.2 11.9 6.1 4.8 1.9 9.5 3.4 14 4.4-.9 1.7-1.6 3.2-2.3 4.5-.7 1.3-1.1 2.4-1.3 3.1-4.9-1.5-9.8-3.5-14.8-6.1-5-2.6-9.4-5.4-13.1-8.5.2 4.8.3 9.6.3 14.4 0 1.4 0 2.3.2 2.8h-9.2c.1-.5.2-1.4.2-2.8 0-3.8.1-8.5.2-13.9-2.2 1.8-4.6 3.6-7.2 5.3-2.6 1.7-5.6 3.3-8.8 4.8-3.2 1.5-6.6 2.8-10.2 3.9-.3-.7-.9-1.8-1.8-3.2-.9-1.4-1.8-2.8-2.8-4.2 4.5-1 9.1-2.5 13.9-4.4 4.8-1.9 8.7-4 11.8-6.2h-16.5c-3.4 0-5.7.1-7 .2v-7.8c1.3.1 3.6.2 7 .2h21.3V43l-.2-1.9c1.1 0 2.6 0 4.8.1s3.6.1 4.5.2l-.2 1.7v3.2h21.6c3.4 0 5.7 0 6.9-.2v7.8c-1.2-.1-3.5-.1-6.9-.1zm-60-17.5c.7-.2 1.5-.7 2.5-1.5s2.2-1.9 3.5-3.5c1.3-1.5 2.7-3.3 4-5.2l-7.9 1.4-1.4-7c1.5-.7 3.2-2.4 5.1-5.3 1.9-2.9 3.6-6.2 5.1-9.9 2.8 1.5 4.9 2.7 6.3 3.5l-.6.9c-.1.1-.1.2-.2.3-.1.2-.8 1.4-2.2 3.6-1.4 2.3-2.9 4.4-4.4 6.4l4.5-.5c1-1.6 2.1-3.5 3.2-5.7l5.7 3.4V14c0-.7-.1-1.6-.2-2.7h6.5c.4-1.1.8-2.2 1.2-3.5.4-1.3.6-2.3.6-3.1l7.6 1.6-.5 1.1c-.4 1.2-.8 2.4-1.4 3.9h8.1l-.1 2.8v23.5l.1 2.7H254l.4 1.7c-1.5.5-3.5 1.1-6 2-.2-1.2-.4-2.5-.7-3.9-1 .2-3.2.5-6.6 1-3.5.5-5.7.9-6.8 1.1-.9.2-1.9.4-2.9.6l-2-6.5zM252 18.5c-1.3 2.2-3 4.8-5.2 8-2.2 3.1-4.3 6.1-6.5 8.7l5.7-.9c-.2-.7-.5-1.4-.8-2.4-.3-.9-.6-1.6-.8-2.2l5.4-1.7c.9 2 1.8 4.4 2.6 7.2V17.8l-.4.7zm15.5 3.8v-4.6h-8v4.6h8zm-8.1 11.5h8v-5.3h-8v5.3zm25-7.7-7.9 1.4-1.4-7c1.1-.5 2.4-1.7 3.7-3.5 1.4-1.8 2.6-3.8 3.7-6s2-4.1 2.7-5.7c1.9 1 4 2.1 6.3 3.5l-.8.9c-.1.1-.2.3-.3.5-.2.2-.9 1.4-2.3 3.7-1.4 2.2-2.7 4.3-4.2 6.2l4.5-.5c1-1.7 2.1-3.6 3.2-5.7l5.9 3.6-.5.5c-.2.2-.4.4-.5.6-1.4 2.6-3.8 6.1-7 10.7 2.5-.8 4.2-1.2 5-1.4.8 1.6 1.7 3.6 2.6 6.1 1 2.5 1.8 5 2.4 7.5l-6 2-.8-3.3-13.9 2.2c-.9.2-1.9.4-2.9.6l-1.8-6.7c1.2-.4 2.6-1.4 4.3-3.1 2.1-1.8 4-4.1 6-7.1zm6.8 8.1c-.7-1.9-1.3-3.4-1.7-4.5l-4.2 5.4 5.9-.9zm19.645 20.103 5.717-6.95.54.444-5.716 6.951zM348.6 64.9v-5.2l21.4.1v-7l-21.4.2v-4.7l24.6.1v-7.2c-1 .1-24.6.1-24.6.1v-2.6H340v2.6h-7.3l-1.6 2-4 4.9h13V53l-16.8-.1-5.7 6.9 22.4-.1v5.2l-29.2-.1v7.8h66.3v-7.8l-28.5.1zm5.1-50.1h7.7v13.6h-18l-5.3 6.4h31.6V8.3h-7.2l-8.7 6.3c0 .1-.1.1-.1.2z"/><path class="st0" d="m316.6 43.2 5.1 4.2-5.5 6.7.5.4 16.6-20.2 8.8-10.7 1.1-1.3-11.7 8.5c-.8.5-1.8-.2-1.5-1.1l2.2-6.6-4.3 5.2h-1.2V14.8h7.7c0-.1-.1-.1-.2-.1l-8.7-6.3h-7.2v26.5h4.3l-5.1 6.2-4.7 5.8.5.4 3.3-4.1z"/><path class="st0" d="m337 21.8 7.1-5.2 2.4 1.8 4.6 3.4-2.1-6.5-.6-1.8 7.1-5.2h-8.8L344.1 0l-2.7 8.3h-8.8l7.1 5.2zM.4 85.4c1.9 0 3.7 0 5.6.1 13.4.1 26.8.4 40.3.3 16.5-.1 32.9-.8 49.4-.7 44.3.3 88.6 1 132.9 1.5 3 0 6.1-.1 9.1.1 1.4.1 2.7.9 4.1 1.4-.1.4-.1.7-.2 1.1-2.2.4-4.4 1-6.7 1-22.1.5-44.3 1.2-66.4 1.2-36.2-.1-72.4-.7-108.7-1.1-15.1-.2-30.3-.2-45.4-.6-4-.1-8-1.1-11.9-1.8-.9-.1-1.7-.9-2.5-1.3.1-.4.3-.8.4-1.2zM328 88.8c-4.1.3-7.5.7-11 .8-15.2.1-30.4.1-45.6 0-3.6 0-7.2-.6-10.8-1.1-1.5-.2-3.2-.5-3.4-3.2 2-.2 4-.5 6-.4 19.3.3 38.6.6 58 1 2.3 0 4.8 0 6.8 2.9zm33-.9c-1.9.4-3.2.8-4.4.8-4.8.1-9.5.2-14.3 0-1 0-2-1.1-3-1.7 1-.6 2-1.7 2.9-1.7 5.6.2 11.3.7 16.9 1.2.5 0 .8.6 1.9 1.4zm26.7.6c-5.3-.1-10.6-.1-15.9-.2-.6 0-1.2-.1-1.7-.4-.8-.5-1.4-1.2-2.1-1.7.8-.5 1.5-1.2 2.3-1.3 1.4-.2 2.9-.1 4.4 0 3.2.3 6.5.8 9.7 1.3 1.1.2 2.2.8 3.3 1.2.1.4 0 .8 0 1.1z"/></svg>