<svg xmlns="http://www.w3.org/2000/svg" width="389.5" height="91.5" style="overflow:visible;enable-background:new 0 0 389.5 91.5" xml:space="preserve"><style>.st0{fill:#ffe656}</style><path class="st0" d="M9.4 18.7h21c1.8 0 3 0 3.9-.1V26c-.8 0-2.1-.1-3.9-.1h-21l-3.8.1v-7.3h3.8zm22.8 31.8-.1 2.5v19.3l.1 2.6h-7.3v-3.2h-9.4v3.2H8.1c.1-1 .2-1.9.2-2.6V53c0-.7-.1-1.5-.2-2.5h24.1zm-4.5-14.2h-15l-3.2.1v-6.5l3.2.1h15l3.2-.1v6.5l-3.2-.1zM9.5 46.7v-6.5l3.2.1h15l3.2-.1v6.5l-3.2-.1h-15l-3.2.1zm17-32.4-7.7 3.9c-.7-1.5-1.6-3.1-2.7-4.8-1.2-1.8-2.2-3.2-3.2-4.3l7.3-3.6c1.1 1.1 2.2 2.4 3.4 4.1 1.1 1.7 2.1 3.2 2.9 4.7zm-11 50.8h9.4V57h-9.4v8.1zM70 35.3H59v10.2h13.1l-.1 2.9v23.8l.1 2.9h-8.2v-3.4H46.1V75h-8.3c.1-1.1.2-2.1.2-2.9V48.4c0-.8-.1-1.8-.2-2.9h13.1V35.3H39.7c-2.3 0-3.9 0-4.8.1v-8.1c.9.1 2.5.2 4.8.2h11.2v-8.9c-1.6.3-3.6.5-6.2.9-2.5.3-5 .6-7.3.7-.6-1.6-1.5-4.1-2.8-7.6 2.7 0 6-.3 10-.7 4-.4 8.2-1.1 12.6-2.1s8-2.1 10.8-3.2c1.6 1.9 3.4 4.1 5.4 6.7-.1 0-.4 0-.8.1s-.9.2-1.5.3c-3.6 1.1-7.7 2.2-12.2 3.2v10.5h11c2.4 0 4 0 4.9-.2v8.1H70zm-6.1 29.1V52.7H46.1v11.7h17.8zm91.6-5-3.7 5.7 3.2-.5-2 8.1c-1.6.2-3.9.4-7 .7-3 .3-6.9.5-11.4.7-4.6.2-8.6.3-12.3.3-3.4 0-6.6-.2-9.6-.6-3-.4-5.7-1.1-8.1-2-2.4-.9-4.6-2.1-6.5-3.6-1.9-1.5-3.4-3.2-4.5-5.2-1.2 5-2.5 9-3.9 12.2-.3-.4-1-1.2-2-2.3-1-1.1-2.3-2.3-3.7-3.5 1.3-2.3 2.4-5.6 3.4-10 .9-4.4 1.5-9.1 1.6-14.1l7 1.4-.3 1.1c-.1 1.1-.2 2.6-.4 4.5.3 1.2.6 2.4 1.1 3.4.5 1.1 1 2 1.5 2.8.6.8 1.1 1.4 1.6 1.9V42.2h-10c-2 0-3.5 0-4.3.1V35c.9.1 2.3.1 4.3.1h25.9c2 0 3.4 0 4.2-.1v7.3c-.9 0-2.3-.1-4.2-.1h-7.9v6.1h8l2.8-.1v7.2l-2.8-.1h-8v9.5c4.1 1.2 9.1 1.8 15.2 1.8 2.3 0 5.1 0 8.5-.2 3.3-.1 6.9-.3 10.7-.5 3.8-.3 7-.6 9.8-.9-1-.7-2.1-1.4-3.3-2.2-1.2-.8-2.4-1.4-3.5-2-1.1-.6-2-1.1-2.8-1.5-.8-.4-1.6-.9-2.5-1.4-.9-.5-1.5-.8-1.6-.8l4.5-4.4h-20c0-.6.1-1.5.1-2.9V22.6c0-1.4 0-2.4-.1-2.9h8.6c.9-2.1 1.4-3.6 1.7-4.5h-9.3c-2 0-3.5 0-4.3.1v-7c.9.1 2.3.1 4.3.1h26.4l4.3-.1v7l-4.3-.1h-9.3c-.3.9-.9 2.4-1.8 4.5h12.1l-.1 2.9v27.3l.1 2.9h-8.2c1.5.6 3.6 1.6 6.3 3 2.5 1.4 4.7 2.6 6.5 3.6zM88.2 32c.1-.9.2-1.7.2-2.5v-19c0-.7-.1-1.5-.2-2.5h28.2c-.1.6-.1 1.4-.1 2.5v19l.1 2.5H88.2zm20.6-18.5H95.9v3.7h12.8v-3.7zM95.9 26.4h12.8v-3.9H95.9v3.9zm19.1 34c2.7-.9 5.5-2.1 8.5-3.6 2.9-1.5 4.9-2.9 6-4l5.4 4.3c-3.5 2.7-6.3 4.7-8.6 6-2.3 1.3-4.4 2.4-6.4 3.3-.3-.5-.8-1.1-1.5-2-.8-.8-1.9-2.1-3.4-4zm28.5-34.9h-14.1v3.6h14.1v-3.6zm0 12.2v-3.3h-14.1v3.3h14.1zm-14 5.4v3.6h14.1v-3.6h-14.1zM284 40.6c1.3 3.1 2.9 6 4.9 8.8 2 2.8 4.3 5.3 6.8 7.6 2.5 2.2 5.2 4.2 8.2 5.9 2.9 1.7 5.9 3 9 3.9-.9 1.2-2 2.6-3.1 4.2-1.2 1.7-2 3-2.5 4-6.4-2.4-12.2-6-17.1-10.7-5-4.7-9-10.3-12.1-16.8-2.7 6-6.5 11.4-11.6 16.2-5.1 4.7-10.9 8.3-17.6 10.8-.7-1-1.6-2.3-2.9-4-1.3-1.7-2.5-3-3.5-4.2 7.4-2.4 13.6-5.7 18.5-10s8.4-9.5 10.3-15.6h-20.5c-3.1 0-5.3.1-6.4.2v-9.1c1.2.1 3.3.2 6.4.2H273l.1-2.8v-9.7h-16.3c-3.5 0-5.8.1-7.1.2v-9c1.3.1 3.6.2 7.1.2h41.6c3.5 0 5.8 0 7-.2v9c-1.2-.1-3.6-.2-7-.2H282v10.1l-.1 2.3H304c3.2 0 5.3 0 6.5-.2v9.1c-1.2-.1-3.3-.2-6.5-.2h-20zm98.4-21.4c3.5 0 5.9 0 7.1-.2v8.8c-1.2-.1-3.6-.2-7.1-.2h-11v32.3l.2 5.7c0 2.2-.7 3.9-2.2 5.1-1.5 1.3-3.6 2.2-6.5 2.8-2.8.6-6.5.9-11 .9-1-2.1-2.6-5.1-4.8-9.2 3.1.5 6.1.7 9 .7 2.2 0 3.7-.2 4.7-.6 1-.4 1.5-1.1 1.5-1.9V33.9c-2.2 3.2-4.6 6.4-7.3 9.5-2.7 3.1-5.5 6-8.5 8.7-3 2.7-6 5.1-9.2 7.3-3.2 2.2-6.3 4-9.4 5.4-.6-1.1-1.5-2.3-2.6-3.9-1.1-1.5-2.1-2.8-3.1-3.9 2.6-1.1 5.4-2.4 8.3-4.2 2.9-1.7 6.1-3.9 9.4-6.7 3.4-2.7 6.5-5.8 9.5-9.1 2.9-3.3 5.4-6.5 7.4-9.5h-24.9c-3.5 0-5.9.1-7.1.2V19c1.2.1 3.6.2 7.1.2h30.3V9.6c0-1.1-.1-2.3-.2-3.5h2.3c1.1 0 2.4.1 3.9.2s2.6.1 3.3.2c-.1.6-.2 1.7-.2 3.2v9.5h11.1zM164.871 54.351l5.717-6.95.54.444-5.716 6.951zM202.6 64.9v-5.2l21.4.1v-7l-21.4.2v-4.7l24.6.1v-7.2c-1 .1-24.6.1-24.6.1v-2.6h-8.5v2.6h-7.3l-1.6 2-4 4.9h13V53l-16.8-.1-5.7 6.9 22.4-.1v5.2l-29.2-.1v7.8h66.3v-7.8l-28.6.1zm5.2-50.1h7.7v13.6h-18l-5.3 6.4h31.6V8.3h-7.2l-8.7 6.3c0 .1-.1.1-.1.2z"/><path class="st0" d="m170.7 43.2 5.1 4.2-5.5 6.7.5.4 16.6-20.2 8.8-10.7 1.1-1.3-11.7 8.5c-.8.5-1.8-.2-1.5-1.1l2.2-6.6-4.3 5.2h-1.2V14.8h7.7c0-.1-.1-.1-.2-.1l-8.7-6.3h-7.2v26.5h4.3l-5.1 6.2-4.7 5.8.5.4 3.3-4.1z"/><path class="st0" d="m191 21.8 7.1-5.2 2.4 1.8 4.7 3.4-2.1-6.5-.6-1.8 7.1-5.2h-8.8L198.1 0l-2.7 8.3h-8.7l7.1 5.2zM.4 85.4c1.9 0 3.7 0 5.6.1 13.4.1 26.8.4 40.3.3 16.5-.1 32.9-.8 49.4-.7 44.3.3 88.6 1 132.9 1.5 3 0 6.1-.1 9.1.1 1.4.1 2.7.9 4.1 1.4-.1.4-.1.7-.2 1.1-2.2.4-4.4 1-6.7 1-22.1.5-44.3 1.2-66.4 1.2-36.2-.1-72.4-.7-108.7-1.1-15.1-.2-30.3-.2-45.4-.6-4-.1-8-1.1-11.9-1.8-.9-.1-1.7-.9-2.5-1.3.1-.4.3-.8.4-1.2zM328 88.8c-4.1.3-7.5.7-11 .8-15.2.1-30.4.1-45.6 0-3.6 0-7.2-.6-10.8-1.1-1.5-.2-3.2-.5-3.4-3.2 2-.2 4-.5 6-.4 19.3.3 38.6.6 58 1 2.3 0 4.8 0 6.8 2.9zm33-.9c-1.9.4-3.2.8-4.4.8-4.8.1-9.5.2-14.3 0-1 0-2-1.1-3-1.7 1-.6 2-1.7 2.9-1.7 5.6.2 11.3.7 16.9 1.2.5 0 .8.6 1.9 1.4zm26.7.6c-5.3-.1-10.6-.1-15.9-.2-.6 0-1.2-.1-1.7-.4-.8-.5-1.4-1.2-2.1-1.7.8-.5 1.5-1.2 2.3-1.3 1.4-.2 2.9-.1 4.4 0 3.2.3 6.5.8 9.7 1.3 1.1.2 2.2.8 3.3 1.2.1.4 0 .8 0 1.1z"/></svg>