<svg xmlns="http://www.w3.org/2000/svg" width="3753" height="2953.7" style="overflow:visible;enable-background:new 0 0 3753 2953.7" xml:space="preserve"><path style="fill:none;stroke:#4f255a;stroke-width:2.1464;stroke-miterlimit:10" d="m1876.5 2.3 404.6 747.3h1468l-1157.3 690.9 442 1510.4-1157.3-840.8-1157.3 840.8 442-1510.4L3.9 749.6h1468z"/><path style="fill:none;stroke:#4f255a;stroke-width:2.0594;stroke-miterlimit:10" d="m1876.5 70.6 385.8 712.7h1400l-1103.7 658.9 421.6 1440.4-1103.7-801.8-1103.7 801.8 421.6-1440.4L90.6 783.3h1400.1z"/><path style="fill:none;stroke:#4f255a;stroke-width:1.9724;stroke-miterlimit:10" d="m1876.5 138.9 367.1 678h1332l-1050.1 627 401.1 1370.4-1050.1-762.9-1050.1 762.9 401.1-1370.4-1050.1-627h1332z"/><path style="fill:none;stroke:#4f255a;stroke-width:1.8855;stroke-miterlimit:10" d="m1876.5 207.2 348.3 643.4h1264l-996.5 594.9L2873 2746l-996.5-723.9L880 2746l380.6-1300.5-996.4-594.9h1263.9z"/><path style="fill:none;stroke:#4f255a;stroke-width:1.7985;stroke-miterlimit:10" d="m1876.5 275.5 329.6 608.8h1196l-942.9 562.9 360.1 1230.5-942.8-685-942.9 685 360.2-1230.5-942.9-562.9h1196z"/><path style="fill:none;stroke:#4f255a;stroke-width:1.7115;stroke-miterlimit:10" d="M1876.5 343.8 2187.4 918h1127.9l-889.2 530.9 339.6 1160.5-889.2-646-889.3 646 339.7-1160.5L437.7 918h1127.9z"/><path style="fill:none;stroke:#4f255a;stroke-width:1.6245;stroke-miterlimit:10" d="m1876.5 412.1 292.1 539.6h1060l-835.7 498.8 319.2 1090.6-835.6-607.1-835.6 607.1L1360 1450.5 524.4 951.7h1060z"/><path style="fill:none;stroke:#4f255a;stroke-width:1.5375;stroke-miterlimit:10" d="m1876.5 480.4 273.4 505h991.9l-782 466.8 298.7 1020.6-782-568.1-782 568.1 298.7-1020.6-782-466.8h991.9z"/><path style="fill:none;stroke:#4f255a;stroke-width:1.4505;stroke-miterlimit:10" d="m1876.5 548.7 254.6 470.3H3055l-728.3 434.9 278.2 950.6-728.4-529.2-728.4 529.2 278.2-950.6L697.9 1019h924z"/><path style="fill:none;stroke:#4f255a;stroke-width:1.3635;stroke-miterlimit:10" d="m1876.5 617 235.9 435.7h855.9l-674.8 402.9 257.8 880.6-674.8-490.2-674.8 490.2 257.8-880.6-674.8-402.9h855.9z"/><path style="fill:none;stroke:#4f255a;stroke-width:1.2765;stroke-miterlimit:10" d="m1876.5 685.3 217.1 401.1h787.9l-621.1 370.8 237.2 810.7-621.1-451.3-621.2 451.3 237.3-810.7-621.2-370.8h787.9z"/><path style="fill:none;stroke:#4f255a;stroke-width:1.1895;stroke-miterlimit:10" d="m1876.5 753.6 198.4 366.5h719.9l-567.6 338.8 216.8 740.7-567.5-412.3-567.5 412.3 216.7-740.7-567.5-338.8h719.9z"/><path style="fill:none;stroke:#4f255a;stroke-width:1.1025;stroke-miterlimit:10" d="m1876.5 821.9 179.6 331.9H2708l-513.9 306.8 196.3 670.7-513.9-373.4-513.9 373.4 196.3-670.7-514-306.8h651.9z"/><path style="fill:none;stroke:#4f255a;stroke-width:1.0155;stroke-miterlimit:10" d="m1876.5 890.2 160.9 297.2h583.9L2161 1462.2l175.8 600.8-460.3-334.4-460.3 334.4 175.8-600.8-460.3-274.8h583.9z"/><path style="fill:none;stroke:#4f255a;stroke-width:.9285;stroke-miterlimit:10" d="m1876.5 958.5 142.2 262.6h515.8l-406.7 242.8 155.4 530.8-406.7-295.5-406.7 295.5 155.3-530.8-406.6-242.8h515.8z"/><path style="fill:none;stroke:#4f255a;stroke-width:.8415;stroke-miterlimit:10" d="m1876.5 1026.8 123.4 228h447.9l-353.1 210.8 134.9 460.8-353.1-256.5-353.1 256.5 134.9-460.8-353.1-210.8h447.9z"/><path style="fill:none;stroke:#4f255a;stroke-width:.7545;stroke-miterlimit:10" d="m1876.5 1095.1 104.7 193.4H2361l-299.4 178.8 114.3 390.8-299.4-217.6-299.5 217.6 114.4-390.8-299.4-178.8h379.8z"/><path style="fill:none;stroke:#4f255a;stroke-width:.6675;stroke-miterlimit:10" d="m1876.5 1163.4 85.9 158.8h311.9l-245.9 146.7 93.9 320.9-245.8-178.6-245.8 178.6 93.9-320.9-245.9-146.7h311.9z"/><path style="fill:none;stroke:#4f255a;stroke-width:.5805;stroke-miterlimit:10" d="m1876.5 1231.7 67.2 124.2h243.8l-192.2 114.7 73.4 250.9-192.2-139.7-192.2 139.7 73.4-250.9-192.2-114.7h243.8z"/><path style="fill:none;stroke:#4f255a;stroke-width:.4935;stroke-miterlimit:10" d="m1876.5 1300 48.4 89.5h175.8l-138.6 82.8 53 180.9-138.6-100.7-138.6 100.7 52.9-180.9-138.6-82.8H1828z"/><path style="fill:none;stroke:#4f255a;stroke-width:.4066;stroke-miterlimit:10" d="m1876.5 1368.3 29.7 54.9H2014l-85 50.8 32.5 110.9-85-61.8-85 61.8L1824 1474l-85-50.8h107.8z"/><path style="fill:none;stroke:#4f255a;stroke-width:.3196;stroke-miterlimit:10" d="m1876.5 1436.6 11 20.3h39.7l-31.3 18.7 12 41-31.4-22.8-31.4 22.8 12-41-31.4-18.7h39.8z"/></svg>