<!-- Generator: Adobe Illustrator 25.0.0, SVG Export Plug-In  -->
<svg version="1.1" xmlns="http://www.w3.org/2000/svg" xmlns:xlink="http://www.w3.org/1999/xlink" x="0px" y="0px" width="3753px"
	 height="2953.7px" viewBox="0 0 3753 2953.7" style="overflow:visible;enable-background:new 0 0 3753 2953.7;"
	 xml:space="preserve">
<style type="text/css">
	.st0{fill:none;stroke:#4F255A;stroke-width:2.1464;stroke-miterlimit:10;}
	.st1{fill:none;stroke:#4F255A;stroke-width:2.0594;stroke-miterlimit:10;}
	.st2{fill:none;stroke:#4F255A;stroke-width:1.9724;stroke-miterlimit:10;}
	.st3{fill:none;stroke:#4F255A;stroke-width:1.8855;stroke-miterlimit:10;}
	.st4{fill:none;stroke:#4F255A;stroke-width:1.7985;stroke-miterlimit:10;}
	.st5{fill:none;stroke:#4F255A;stroke-width:1.7115;stroke-miterlimit:10;}
	.st6{fill:none;stroke:#4F255A;stroke-width:1.6245;stroke-miterlimit:10;}
	.st7{fill:none;stroke:#4F255A;stroke-width:1.5375;stroke-miterlimit:10;}
	.st8{fill:none;stroke:#4F255A;stroke-width:1.4505;stroke-miterlimit:10;}
	.st9{fill:none;stroke:#4F255A;stroke-width:1.3635;stroke-miterlimit:10;}
	.st10{fill:none;stroke:#4F255A;stroke-width:1.2765;stroke-miterlimit:10;}
	.st11{fill:none;stroke:#4F255A;stroke-width:1.1895;stroke-miterlimit:10;}
	.st12{fill:none;stroke:#4F255A;stroke-width:1.1025;stroke-miterlimit:10;}
	.st13{fill:none;stroke:#4F255A;stroke-width:1.0155;stroke-miterlimit:10;}
	.st14{fill:none;stroke:#4F255A;stroke-width:0.9285;stroke-miterlimit:10;}
	.st15{fill:none;stroke:#4F255A;stroke-width:0.8415;stroke-miterlimit:10;}
	.st16{fill:none;stroke:#4F255A;stroke-width:0.7545;stroke-miterlimit:10;}
	.st17{fill:none;stroke:#4F255A;stroke-width:0.6675;stroke-miterlimit:10;}
	.st18{fill:none;stroke:#4F255A;stroke-width:0.5805;stroke-miterlimit:10;}
	.st19{fill:none;stroke:#4F255A;stroke-width:0.4935;stroke-miterlimit:10;}
	.st20{fill:none;stroke:#4F255A;stroke-width:0.4066;stroke-miterlimit:10;}
	.st21{fill:none;stroke:#4F255A;stroke-width:0.3196;stroke-miterlimit:10;}
</style>
<defs>
</defs>
<g>
	<polygon class="st0" points="1876.5,2.3 2281.1,749.6 3749.1,749.6 2591.8,1440.5 3033.8,2950.9 1876.5,2110.1 719.2,2950.9 
		1161.2,1440.5 3.9,749.6 1471.9,749.6 	"/>
	<polygon class="st1" points="1876.5,70.6 2262.3,783.3 3662.3,783.3 2558.6,1442.2 2980.2,2882.6 1876.5,2080.8 772.8,2882.6 
		1194.4,1442.2 90.6,783.3 1490.7,783.3 	"/>
	<polygon class="st2" points="1876.5,138.9 2243.6,816.9 3575.6,816.9 2525.5,1443.9 2926.6,2814.3 1876.5,2051.4 826.4,2814.3 
		1227.5,1443.9 177.4,816.9 1509.4,816.9 	"/>
	<polygon class="st3" points="1876.5,207.2 2224.8,850.6 3488.8,850.6 2492.3,1445.5 2873,2746 1876.5,2022.1 880,2746 
		1260.6,1445.5 264.2,850.6 1528.1,850.6 	"/>
	<polygon class="st4" points="1876.5,275.5 2206.1,884.3 3402.1,884.3 2459.2,1447.2 2819.3,2677.7 1876.5,1992.7 933.6,2677.7 
		1293.8,1447.2 350.9,884.3 1546.9,884.3 	"/>
	<polygon class="st5" points="1876.5,343.8 2187.4,918 3315.3,918 2426.1,1448.9 2765.7,2609.4 1876.5,1963.4 987.2,2609.4 
		1326.9,1448.9 437.7,918 1565.6,918 	"/>
	<polygon class="st6" points="1876.5,412.1 2168.6,951.7 3228.6,951.7 2392.9,1450.5 2712.1,2541.1 1876.5,1934 1040.9,2541.1 
		1360,1450.5 524.4,951.7 1584.4,951.7 	"/>
	<polygon class="st7" points="1876.5,480.4 2149.9,985.4 3141.8,985.4 2359.8,1452.2 2658.5,2472.8 1876.5,1904.7 1094.5,2472.8 
		1393.2,1452.2 611.2,985.4 1603.1,985.4 	"/>
	<polygon class="st8" points="1876.5,548.7 2131.1,1019 3055,1019 2326.7,1453.9 2604.9,2404.5 1876.5,1875.3 1148.1,2404.5 
		1426.3,1453.9 697.9,1019 1621.9,1019 	"/>
	<polygon class="st9" points="1876.5,617 2112.4,1052.7 2968.3,1052.7 2293.5,1455.6 2551.3,2336.2 1876.5,1846 1201.7,2336.2 
		1459.5,1455.6 784.7,1052.7 1640.6,1052.7 	"/>
	<polygon class="st10" points="1876.5,685.3 2093.6,1086.4 2881.5,1086.4 2260.4,1457.2 2497.6,2267.9 1876.5,1816.6 1255.3,2267.9 
		1492.6,1457.2 871.4,1086.4 1659.3,1086.4 	"/>
	<polygon class="st11" points="1876.5,753.6 2074.9,1120.1 2794.8,1120.1 2227.2,1458.9 2444,2199.6 1876.5,1787.3 1309,2199.6 
		1525.7,1458.9 958.2,1120.1 1678.1,1120.1 	"/>
	<polygon class="st12" points="1876.5,821.9 2056.1,1153.8 2708,1153.8 2194.1,1460.6 2390.4,2131.3 1876.5,1757.9 1362.6,2131.3 
		1558.9,1460.6 1044.9,1153.8 1696.8,1153.8 	"/>
	<polygon class="st13" points="1876.5,890.2 2037.4,1187.4 2621.3,1187.4 2161,1462.2 2336.8,2063 1876.5,1728.6 1416.2,2063 
		1592,1462.2 1131.7,1187.4 1715.6,1187.4 	"/>
	<polygon class="st14" points="1876.5,958.5 2018.7,1221.1 2534.5,1221.1 2127.8,1463.9 2283.2,1994.7 1876.5,1699.2 1469.8,1994.7 
		1625.1,1463.9 1218.5,1221.1 1734.3,1221.1 	"/>
	<polygon class="st15" points="1876.5,1026.8 1999.9,1254.8 2447.8,1254.8 2094.7,1465.6 2229.6,1926.4 1876.5,1669.9 
		1523.4,1926.4 1658.3,1465.6 1305.2,1254.8 1753.1,1254.8 	"/>
	<polygon class="st16" points="1876.5,1095.1 1981.2,1288.5 2361,1288.5 2061.6,1467.3 2175.9,1858.1 1876.5,1640.5 1577,1858.1 
		1691.4,1467.3 1392,1288.5 1771.8,1288.5 	"/>
	<polygon class="st17" points="1876.5,1163.4 1962.4,1322.2 2274.3,1322.2 2028.4,1468.9 2122.3,1789.8 1876.5,1611.2 
		1630.7,1789.8 1724.6,1468.9 1478.7,1322.2 1790.6,1322.2 	"/>
	<polygon class="st18" points="1876.5,1231.7 1943.7,1355.9 2187.5,1355.9 1995.3,1470.6 2068.7,1721.5 1876.5,1581.8 
		1684.3,1721.5 1757.7,1470.6 1565.5,1355.9 1809.3,1355.9 	"/>
	<polygon class="st19" points="1876.5,1300 1924.9,1389.5 2100.7,1389.5 1962.1,1472.3 2015.1,1653.2 1876.5,1552.5 1737.9,1653.2 
		1790.8,1472.3 1652.2,1389.5 1828,1389.5 	"/>
	<polygon class="st20" points="1876.5,1368.3 1906.2,1423.2 2014,1423.2 1929,1474 1961.5,1584.9 1876.5,1523.1 1791.5,1584.9 
		1824,1474 1739,1423.2 1846.8,1423.2 	"/>
	<polygon class="st21" points="1876.5,1436.6 1887.5,1456.9 1927.2,1456.9 1895.9,1475.6 1907.9,1516.6 1876.5,1493.8 
		1845.1,1516.6 1857.1,1475.6 1825.7,1456.9 1865.5,1456.9 	"/>
</g>
</svg>
