<!-- Generator: Adobe Illustrator 25.0.0, SVG Export Plug-In  -->
<svg version="1.1" xmlns="http://www.w3.org/2000/svg" xmlns:xlink="http://www.w3.org/1999/xlink" x="0px" y="0px" width="342.2px"
	 height="106.7px" viewBox="0 0 342.2 106.7" style="overflow:visible;enable-background:new 0 0 342.2 106.7;"
	 xml:space="preserve">
<style type="text/css">
	.st0{fill:#E2809C;}
</style>
<defs>
</defs>
<g>
	<g>
		<path class="st0" d="M113.1,25.2c1.6,0,2.7,0,3.3-0.1v3.7c-0.7-0.1-1.8-0.1-3.6-0.1h-4.1v0l0.1,2.9c0,0.7-0.2,1.3-0.5,1.8
			c-0.3,0.5-0.8,0.9-1.5,1.3c-0.7,0.4-1.7,0.6-2.8,0.8c-1.2,0.2-2.6,0.3-4.2,0.3c-0.5-1.1-1.2-2.5-2.1-4.2c1.4,0.2,2.7,0.3,3.9,0.3
			c1,0,1.7-0.1,2.1-0.3s0.6-0.5,0.6-1v-1.8v0H92c0.9,0.3,1.7,0.6,2.6,1c0.9,0.4,1.7,0.7,2.4,1.1c-0.3,0.5-1.1,1.5-2.4,3.1
			c-0.4-0.3-1-0.6-1.7-1.1c-0.8-0.4-1.6-0.8-2.7-1.3c-1-0.4-1.9-0.8-2.5-1l1.6-1.9H85c-1.7,0-2.9,0-3.5,0.1v-3.7
			c0.7,0.1,1.8,0.1,3.5,0.1h19.3v-0.6l-0.1-1c0.5,0,1.3,0,2.4,0.1c1.1,0,1.8,0.1,2.3,0.1c-0.1,0.3-0.1,0.6-0.1,0.9v0.6h3.7
			c-0.5-0.8-1-1.5-1.5-2.2c-3.1,0.1-7.6,0.3-13.6,0.5c-6,0.2-10.3,0.3-12.9,0.3l-2.1,0.1l-0.3-3.5l2.6,0.2c1.7,0.1,5.8,0.1,12.2,0
			v-1.6H86.1c0.1-0.4,0.1-0.8,0.1-1.3V8.7c0-0.4,0-0.8-0.1-1.3h10.8V5.9H85.3c-1.6,0-2.8,0-3.4,0.1V2.4c0.6,0.1,1.8,0.1,3.4,0.1
			h11.6v-1c0-0.5,0-1-0.1-1.5c0.6,0,1.4,0,2.4,0.1c1.1,0,1.8,0.1,2.3,0.1l-0.1,1.4v1h11.1c1.6,0,2.7,0,3.4-0.1V6
			c-0.7-0.1-1.8-0.1-3.4-0.1h-11.1v1.6h10.9l0,1.3v8.9l0,0.8c1.6,1.7,2.9,3.2,3.9,4.4L113.1,25.2z M96.9,10.3h-6.4v1.6h6.4V10.3z
			 M90.5,16.1h6.4v-1.7h-6.4V16.1z M107.9,10.3h-6.5v1.6h6.5V10.3z M107.9,16.1v-1.7h-6.5v1.7H107.9z M101.4,20.4l7.3-0.2
			c-0.3-0.3-0.7-0.8-1.2-1.3h-6.1V20.4z"/>
		<path class="st0" d="M156.5,21c-0.1,0.5-0.1,1-0.1,1.3c0,3.3-0.1,5.7-0.2,7.1c-0.1,1.4-0.3,2.5-0.6,3.3c-0.4,1-1.2,1.9-2.3,2.4
			c-1.1,0.6-2.7,0.8-4.6,0.8c0-0.2-0.2-0.8-0.6-1.8l-0.9,0.4l-0.6-1.4c-1.5,0.2-4,0.4-7.6,0.7c-3.6,0.3-6.2,0.5-7.8,0.6l-1.5,0.2
			l-0.5-2.9l1.9,0c1.2,0,3.7-0.2,7.6-0.5v-1.6h-7.1c0.1-0.3,0.1-0.6,0.1-0.9v-3v-0.4c-0.7,0.5-1.4,0.9-2.2,1.4
			c-0.2-0.3-0.7-1-1.5-2.1c-0.3,1.8-0.7,3.6-1.2,5.2c-0.5,1.6-1,2.9-1.5,4c-0.5,1-1,1.9-1.4,2.4c-0.4-0.4-1.5-1.6-3.4-3.6
			c0.9-1.4,1.6-3.1,2.2-5.2s1-4.4,1.3-7c0.3-2.5,0.4-5.3,0.4-8.3V2.6l-0.1-1.3h31.1c0,0.2,0,0.5,0,0.9v3.7l0,0.9H129v5.3
			c0,1.8-0.1,3.7-0.2,5.6c-0.1,1.9-0.3,3.7-0.5,5.2c0.8-0.4,1.6-0.9,2.3-1.4c0.7-0.6,1.4-1.1,1.9-1.8h-2c0.1-0.4,0.1-0.7,0.1-0.9
			v-3.9c0-0.2,0-0.5-0.1-0.9h24.9c0,0.2,0,0.5,0,0.9v3.9l0,0.9h-18.6c-0.5,0.7-0.7,1.2-0.8,1.3H156.5z M150.9,3.5H129v1.1h21.9V3.5z
			 M130.6,13.7l-1.1-2.5c1.4-0.2,2.2-0.2,2.4-0.3c0.2,0,0.3,0,0.5-0.1c2.9-0.3,4.6-0.5,5-0.6c0.4-0.1,1-0.2,1.6-0.3l1,2.1
			c-1.4,0.3-3.6,0.6-6.4,1.1L130.6,13.7z M138.7,8.1l-1.1,2.1c-2.8-0.6-5-0.9-6.5-1.1l1.3-2L138.7,8.1z M132.4,24.7h6.2v-1.1v-0.2
			h-4.8C133.3,23.9,132.9,24.4,132.4,24.7z M137.7,16h-3.6v1.7h3.6V16z M135,26.5v1.2h3.8v-1.2H135z M140.7,13
			c0.1-0.3,0.1-0.6,0.1-0.9V8.6l0-1c0.6,0,1.4,0,2.4,0.1c1,0,1.7,0.1,2.1,0.1l0,0.8V12c0,0.3,0,0.6,0.1,0.9H140.7z M144.6,16h-3.6
			v1.7h3.6V16z M145.9,27.7v-1.2H142v1.2H145.9z M142.1,30.8l3.1-0.3l-0.4-0.5l1.6-0.5h-4.4V30.8z M149.6,32.3
			c0.4,0,0.8-0.1,1.1-0.2c0.3-0.1,0.5-0.3,0.7-0.5c0.2-0.2,0.3-0.4,0.4-0.6c0.1-0.3,0.2-1,0.3-1.8c0.1-0.9,0.1-2.8,0.2-5.7h-10v0.2
			v1.1h7c0,0.2,0,0.5,0,0.9v3l0,0.9h-1.4c0.1,0.1,0.3,0.4,0.7,0.9C148.8,30.9,149.2,31.5,149.6,32.3z M145.8,12.2l1.3-2l1,0.1
			l-1.3-1.9c1.5-0.2,3.5-0.6,6-1.1l1.9,1.9l-0.4,0c-2.6,0.6-4.5,1-5.9,1.2c2.4,0.3,5,0.6,7.6,1l-1.1,2.2
			C151.6,13,148.5,12.5,145.8,12.2z M151.7,16H148v1.7h3.7V16z"/>
		<path class="st0" d="M170.1,9.4v24.3c0,0.7,0,1.5,0.1,2.4h-4.6c0.1-0.9,0.1-1.7,0.1-2.4c0-2.1,0.1-4.9,0.2-8.4
			c0.1-3.4,0.3-6.5,0.4-9.3c-1,1.9-2,3.3-2.8,4.3c-0.4-1-1.1-2.6-2.2-4.8c0.9-1,1.9-2.3,2.9-4c1-1.7,1.9-3.6,2.9-5.7
			c0.9-2.1,1.6-4.1,2.1-5.9l4.2,1.4l-0.2,0.4c-0.3,1-0.7,2.1-1.2,3.4C171.4,6.6,170.8,8,170.1,9.4z M180.6,17.5
			c-0.1,0.1-0.2,0.4-0.3,0.8c-1.3,5.1-2.9,9.1-4.9,12c-0.5-0.6-1.6-1.7-3.4-3.2c0.8-1,1.5-2.2,2.2-3.7c0.7-1.5,1.3-2.9,1.7-4.2
			c0.4-1.3,0.8-2.5,1-3.3L180.6,17.5z M175.3,15.9c-0.2-0.3-0.6-0.7-1.2-1.4c-0.6-0.6-1.2-1.3-1.9-1.9c0.8-1,1.6-2.4,2.4-4.1
			c0.8-1.7,1.3-3.3,1.7-4.8c0.4-1.5,0.6-2.7,0.7-3.7l4.2,0.8C181.1,1,181,1.1,181,1.3c-0.2,1.2-0.5,2.5-0.9,4h13.7l0.4-0.4
			c0.5,0.3,1.1,0.7,1.8,1.2c0.6,0.5,1.2,0.9,1.6,1.3l-0.4,0.2c-0.4,1.5-0.9,2.9-1.5,4.3c-0.6,1.3-1,2.3-1.3,2.9
			c-0.3,0.6-0.5,1-0.6,1.1c-0.4-0.3-0.9-0.7-1.6-1.2c-0.7-0.5-1.3-0.8-1.9-1c0.6-1,1.1-1.9,1.5-2.7c0.4-0.8,0.6-1.3,0.7-1.6h-13.6
			c-0.4,1.2-1,2.3-1.6,3.5C176.6,14,175.9,15,175.3,15.9z M187.2,11.5c-0.1,0.4-0.1,0.7-0.1,0.9v16.2l0.1,3c0,2.8-2.8,4.2-8.3,4.2
			c-0.6-1.4-1.3-2.9-2.1-4.5c1.2,0.2,2.4,0.3,3.4,0.3c0.9,0,1.6-0.1,1.9-0.3c0.4-0.2,0.6-0.5,0.6-0.9v-1.9V12.4l-0.1-1.1
			c0.1,0,0.6,0,1.5,0.1c0.9,0,1.6,0.1,2.1,0.1C186.7,11.5,187,11.5,187.2,11.5z M192.5,15.9c0.7,1.3,1.4,2.8,2.1,4.4
			c0.7,1.6,1.4,3,1.9,4.3c0.5,1.3,1,2.3,1.2,3.1l-3.5,2.7c-1.1-3.4-2.8-7.7-5.1-12.7L192.5,15.9z"/>
		<path class="st0" d="M236.9,5.7c-0.1,0.5-0.1,1-0.1,1.4c0,6.9-0.1,12.2-0.3,15.8c-0.2,3.6-0.7,6.3-1.4,8.1
			c-0.3,0.8-0.7,1.4-1.2,1.9c-0.5,0.5-1,0.9-1.6,1.3c-0.6,0.3-1.2,0.6-2,0.8c-0.8,0.2-1.6,0.4-2.6,0.5c-1,0.1-2,0.2-3.1,0.2
			c0-0.2-0.1-0.5-0.3-1.1c-0.2-0.5-0.6-1.8-1.4-4c0.9,0.2,2,0.4,3.1,0.4c1.4,0,2.5-0.2,3.3-0.6c0.8-0.4,1.4-1.1,1.7-2
			c0.4-1.1,0.7-3.1,0.9-6c0.2-2.9,0.2-7.1,0.3-12.6h-9c-0.4,0.8-0.8,1.8-1.4,2.8c-0.6,1-1.3,2-2,2.9c-0.2-0.2-0.6-0.6-1.1-1
			c-0.5-0.5-1.2-1-2-1.6v16.8l0.1,2.1h-4.2v-1.7h-5.2v3.2h-4.3c0.1-0.8,0.1-1.6,0.1-2.2V7.8c0-0.6,0-1.4-0.1-2.2h4.2
			c0.2-0.8,0.5-1.8,0.7-2.9c0.2-1.1,0.3-2,0.4-2.6l4.6,0.6c-0.1,0.2-0.2,0.4-0.3,0.6c-0.4,1.7-0.8,3.1-1.1,4.2h5.4l-0.1,2.1v4.2
			c1.1-1.3,2.1-3,3-5.2c1-2.1,1.6-4.3,2.1-6.5l4.4,0.8L226,1.4c-0.4,1.7-0.8,3.1-1.2,4.2H236.9z M212.6,9.4h-5.2v6.2h5.2V9.4z
			 M207.4,26.1h5.2v-6.7h-5.2V26.1z M229,22.7l-3.9,2.4c-0.2-0.6-0.6-1.3-1.1-2.3c-0.5-0.9-1.1-1.9-1.8-3c-0.7-1.1-1.3-2-1.8-2.6
			l3.4-2.2c0.3,0.3,0.7,0.9,1.3,1.6c0.6,0.7,1.2,1.7,1.9,2.8C227.8,20.5,228.4,21.6,229,22.7z"/>
	</g>
	<g>
		<path class="st0" d="M102.7,99.2c2.6,0,4.4,0,5.3-0.1v6c-1-0.1-2.7-0.1-5.3-0.1h-40c-2.6,0-4.4,0-5.3,0.1v-6c1,0,2.7,0.1,5.3,0.1
			h17.1v-4H69.3c-1.9,0-3.2,0-4.1,0.1v-5.3c-1,1.2-2.3,2.5-3.8,4c-0.6-0.7-2.2-2.3-4.8-4.9c0.9-0.6,2.1-1.6,3.4-2.9s2.7-2.9,4.1-4.8
			c1.4-1.9,2.3-3.6,2.8-5.1h-2.2c0.1-0.8,0.1-1.5,0.1-2.1V58c0-0.6,0-1.4-0.1-2.1h36l-0.1,2.1v16l0.1,2.1H67.2l6,1.6
			c-0.1,0.1-0.2,0.3-0.4,0.7c-0.3,0.8-0.7,1.7-1.3,2.7h8.3v-1.9c0-0.6,0-1.2-0.1-2c4.1,0.2,6.3,0.2,6.6,0.3
			c-0.1,0.7-0.1,1.3-0.1,1.7v1.9h14.5c2.1,0,3.5,0,4.3-0.1v5.5c-0.8-0.1-2.2-0.1-4.3-0.1H86.2v3.6h12.3c1.9,0,3.3,0,4.1-0.1v5.3
			c-0.8-0.1-2.1-0.1-4.1-0.1H86.2v4H102.7z M69.3,90.1h10.5v-3.6H68.1c-0.6,0.8-1.5,1.9-2.9,3.5C66.1,90,67.5,90.1,69.3,90.1z
			 M94.4,60.8H71.2v2.9h23.2V60.8z M71.2,71.2h23.2v-3.1H71.2V71.2z"/>
		<path class="st0" d="M114.9,103.4c0.3-0.8,0.6-1.9,1-3.4c0.4-1.5,0.7-3.2,0.9-5c0.2-1.8,0.4-3.3,0.5-4.4l4.5,0.9
			c-0.1,2.3-0.3,4.8-0.7,7.5c-0.3,2.7-0.8,5-1.3,6.9L114.9,103.4z M118.8,74.6l-1.9,0.3l-1.3-4.9c0.5-0.2,1-0.5,1.3-1
			c1.1-1.5,2.2-3.3,3.4-5.4c1.2-2.1,2.2-4,3-5.7c0.8-1.7,1.4-3.1,1.8-4.2l5.1,3.2l-0.6,1c-0.8,1.8-1.9,3.8-3.3,6
			c-1.3,2.2-2.5,4.1-3.6,5.5l4.9-0.6c1.8-2.8,3.1-5.1,4.1-7l4.8,3.4l-0.7,1c-3.9,6.3-7.9,12-12.3,16.8l6.4-1.1
			c-0.6-1.6-1.1-2.8-1.5-3.7l4.5-1.3c0.7,1.5,1.4,3.2,2.1,5.4c0.7,2.1,1.3,4,1.7,5.5l-4.9,1.5c-0.1-0.4-0.3-1.3-0.6-2.7l-11.7,2.1
			l-2.3,0.5l-1.4-5.3c0.7-0.3,1.2-0.6,1.6-1.1c2.1-2.4,4.4-5.3,6.9-8.9L118.8,74.6z M123.5,91.3l4.3-0.6c0.4,1.8,0.8,3.8,1.1,6
			c0.4,2.3,0.6,4.2,0.8,5.9l-5,0.6C124.6,98.9,124.1,95,123.5,91.3z M159.5,93.5c1.1,1.1,2.4,2.3,3.9,3.5c1.5,1.2,3,2.3,4.6,3.3
			c-0.3,0.4-0.7,1.1-1.2,1.9s-1,1.7-1.3,2.4c-0.4,0.7-0.6,1.2-0.8,1.5c-1.7-1.2-3.3-2.4-4.8-3.8c-1.5-1.3-2.9-2.7-4.2-4.2
			c-3.3,3.6-7.1,6.4-11.5,8.3c-0.3-0.5-1.5-2.2-3.6-5.1c-1.1,1.9-2.4,3.6-3.9,5.1c-1.8-1.8-3.3-3.4-4.7-4.8c1.4-1.1,2.6-2.5,3.7-4
			l-3.6,1.2c-0.2-1.1-0.4-2.4-0.8-4c-0.4-1.6-0.9-3.2-1.4-4.7l3.7-1c0.5,1,1,2.1,1.5,3.5c0.5,1.4,0.9,2.7,1.2,4
			c2.1-3.5,3.6-8.1,4.6-13.8c1-5.7,1.5-12.7,1.6-21.1h-1.9l-2.9,0.1v-6l2.9,0.1H157l0.5-0.5c1.5,1,3.1,2.2,4.9,3.8
			c-0.1,0.1-0.2,0.1-0.3,0.2c-0.1,0-0.2,0.1-0.3,0.1c-0.4,1.6-0.9,3.6-1.6,6c-0.7,2.4-1.3,4.5-1.9,6.4h4.4l0.5-0.5
			c1,0.6,1.9,1.4,2.8,2.1c0.9,0.8,1.5,1.3,1.8,1.6l-0.6,0.3c-0.8,3.3-1.9,6.5-3.2,9.6C162.8,88.2,161.3,91,159.5,93.5z M140.9,101.2
			c3.9-1.8,7.5-4.4,10.9-8c-1-1.5-1.9-3.2-2.7-5.1c-0.9-1.9-1.6-3.7-2.2-5.6C145.7,90.3,143.7,96.5,140.9,101.2z M160.7,77.5h-5.2
			c-0.3,0-0.7,0-1.3,0.1c-0.6,0.1-1,0.1-1.3,0.1l-2.1-5.4c0.5-0.2,1-0.6,1.5-1.5c0.5-0.8,1-2.1,1.5-3.6c0.5-1.6,0.9-3.3,1.3-5.1
			h-6.8l-0.1,2.1c0.2,5.2,0.9,9.9,2.1,13.9c1.2,4,2.9,7.6,5,10.7c1.1-1.6,2.2-3.5,3.1-5.5C159.5,81.2,160.2,79.3,160.7,77.5z"/>
		<path class="st0" d="M177.5,56.3h19.6c1.5,0,2.6,0,3.2-0.1v5.7c-0.6,0-1.7-0.1-3.2-0.1h-4v5.3h6.6l-0.1,2.9v32.8l0.1,2.9h-5.3v-3
			h-13.9v3h-5.2c0.1-1.1,0.1-2,0.1-2.9V70c0-0.8,0-1.7-0.1-2.9h6.6v-5.3h-4.6c-1.5,0-2.6,0-3.3,0.1v-5.7
			C174.9,56.3,176,56.3,177.5,56.3z M180.7,97.6h13.9V84.6l-1.7,0.1c-1.7,0-2.8-0.2-3.4-0.7c-0.5-0.5-0.8-1.4-0.8-2.9v-8.8h-2.1v1
			c0,3.1-0.3,5.9-1,8.4c-0.7,2.5-1.5,4.4-2.6,5.8c-0.7-1.1-1.5-2.3-2.3-3.4V97.6z M183.1,72.2h-2.4v10.9c0.8-1.3,1.3-2.7,1.7-4.4
			C182.8,77,183,74.9,183.1,72.2z M190.1,89.2c1.5,0,2.5,0,3.2-0.1v4.9c-0.6,0-1.7-0.1-3.2-0.1h-4.9c-1.5,0-2.5,0-3.1,0.1v-4.9
			c0.6,0.1,1.7,0.1,3.1,0.1H190.1z M188.7,67.1v-5.3h-2.2v5.3H188.7z M194.5,80.2v-8h-2.3v6.3c0,0.7,0.1,1.2,0.3,1.4
			c0.2,0.2,0.7,0.3,1.5,0.3H194.5z M220.8,89.7c2.6,1.8,4.6,3,6,3.7c-0.2,3.6-0.8,6.2-1.7,7.7c-0.9,1.5-2.3,2.6-4,3.2
			c-1.7,0.6-3.9,0.9-6.6,0.9c-1.5,0-2.9,0-4.1-0.1c-1.3-0.1-2.3-0.2-3.1-0.4c-0.8-0.2-1.5-0.5-1.9-0.8c-0.7-0.5-1.2-1.3-1.5-2.3
			c-0.3-1-0.4-2.5-0.4-4.4c0-1,0.1-8.4,0.1-22.2c0-0.5,0-0.9-0.1-1.3h14.3V62.4h-12.3l-2.6,0.1v-6l2.6,0.1h18.7l-0.1,2.4V80l0.1,2.4
			h-6.4v-3.1h-8.1v17.8c0,0.9,0.4,1.4,1.1,1.7c0.6,0.1,2,0.2,4.2,0.2c1.2,0,2.2-0.1,2.9-0.3c0.7-0.2,1.3-0.6,1.8-1.1
			c0.4-0.5,0.7-1.4,0.9-2.6C220.7,93.8,220.8,92,220.8,89.7z"/>
		<path class="st0" d="M249.5,92.4v4.9c5.2-0.7,8.7-1.2,10.4-1.6l-0.7,6c-1.5,0.3-5,0.8-10.6,1.5c-5.6,0.8-9.7,1.3-12.3,1.5
			l-2.7,0.5l-1.1-6.2l3.6-0.1c1.4-0.1,3.8-0.4,7.1-0.7v-5.7h-5.1c-1.4,0-2.4,0-3,0.1v-5.4c0.6,0,1.6,0.1,3,0.1h5.1v-4.9h-6.2
			c-1.5,0-2.6,0-3.2,0.1v-5.5c0.6,0,1.7,0.1,3.2,0.1h2.1c-0.5-1.7-1.2-3.7-2.1-6.1l3-0.6h-3.8c-1.6,0-2.7,0-3.4,0.1v-5.6
			c0.6,0,1.8,0.1,3.4,0.1h4.6v-9.3l-0.1-1.5c1.3,0,2.9,0.1,5,0.2c-0.1,0.5-0.1,1-0.1,1.4v9.3h2.2v-9.3l-0.1-1.5c1.3,0,2.9,0.1,5,0.2
			c-0.1,0.5-0.1,1-0.1,1.4v9.3h3.9c1.5,0,2.7,0,3.4-0.1v5.6c-0.7,0-1.8-0.1-3.4-0.1h-4.1l4,1.3c-0.2,0.2-0.4,0.5-0.5,0.7
			c0,0.1-0.3,0.7-0.7,1.8c-0.4,1.1-0.8,2.1-1.1,2.9h1.8c1.5,0,2.6,0,3.2-0.1v5.5c-0.6,0-1.7-0.1-3.2-0.1h-6.2v4.9h5.2l3-0.1v5.4
			l-3-0.1H249.5z M240.4,62.6c-2.4,0.8-3.9,1.2-4.7,1.4c-0.4-1.2-0.9-2.5-1.4-4c-0.6-1.5-1.1-2.6-1.4-3.4l4.7-1.4
			c0.1,0.3,0.2,0.6,0.4,0.9c0.2,0.3,0.3,0.6,0.4,0.9c0.1,0.3,0.2,0.6,0.4,1c0.2,0.4,0.3,0.8,0.5,1.3c0.2,0.5,0.4,1.2,0.7,2
			C240.2,62,240.3,62.5,240.4,62.6z M241.9,70.2c0.7,2,1.4,4.3,2.1,6.7h4.5c0.5-1,0.9-2.2,1.3-3.5c0.4-1.3,0.8-2.4,0.9-3.2H241.9z
			 M256.7,64.3l-4.2-1.8c0.6-0.9,1.3-2.1,2.1-3.8c0.8-1.6,1.3-2.9,1.5-3.7l4.8,1.8l-0.5,0.7c-0.5,1.1-1.1,2.3-1.8,3.7
			C257.8,62.5,257.2,63.6,256.7,64.3z M281.9,66.2c1.6,0,2.7,0,3.4-0.1v6.4c-0.7,0-1.8-0.1-3.4-0.1H280v22.8l0.1,4.7
			c0,1-0.2,1.8-0.7,2.6c-0.4,0.8-1.1,1.4-2,2c-0.9,0.6-2.1,1-3.6,1.3c-1.5,0.3-3.2,0.4-5.1,0.4c-0.7-1.7-1.7-4-3-6.8
			c0.5,0.1,1.2,0.2,2.1,0.2c1,0.1,1.8,0.1,2.6,0.1c1.3,0,2.1-0.1,2.7-0.4c0.5-0.3,0.8-0.7,0.8-1.3v-2.7V72.4h-10.4
			c-1.6,0-2.7,0-3.3,0.1v-6.4c0.6,0.1,1.8,0.1,3.3,0.1h10.4v-10c0-0.8,0-1.6-0.1-2.5c0.7,0,1.8,0,3.3,0.1c1.5,0.1,2.5,0.1,3.1,0.1
			c-0.1,0.9-0.1,1.7-0.1,2.3v10H281.9z M271.9,88.7c-0.9,0.3-1.9,0.7-3.1,1.1c-1.1,0.4-2,0.7-2.5,0.9c-0.6-1.9-1.3-4-2.1-6.2
			c-0.9-2.2-1.7-4.2-2.5-5.9l5.2-1.7c0.8,1.5,1.7,3.3,2.7,5.7C270.5,84.8,271.2,86.9,271.9,88.7z"/>
	</g>
	<g>
		<polygon class="st0" points="8.4,102.7 22,92.8 26.6,96.2 35.6,102.7 31.5,90.3 30.4,86.7 44,76.9 27.1,76.9 27.1,76.8 22,60.9 
			16.8,76.8 16.8,76.9 0,76.9 13.6,86.7 		"/>
	</g>
	<g>
		<polygon class="st0" points="306.6,102.7 320.3,92.8 324.9,96.2 333.9,102.7 329.8,90.3 328.6,86.7 342.2,76.9 325.4,76.9 
			325.4,76.8 320.3,60.9 315.1,76.8 315.1,76.9 298.3,76.9 311.9,86.7 		"/>
	</g>
</g>
</svg>
