<!-- Generator: Adobe Illustrator 25.0.0, SVG Export Plug-In  -->
<svg version="1.1" xmlns="http://www.w3.org/2000/svg" xmlns:xlink="http://www.w3.org/1999/xlink" x="0px" y="0px" width="387.8px"
	 height="91.5px" viewBox="0 0 387.8 91.5" style="overflow:visible;enable-background:new 0 0 387.8 91.5;" xml:space="preserve">
<style type="text/css">
	.st0{fill:#E65743;}
</style>
<defs>
</defs>
<g>
	<g>
		<g>
			<path class="st0" d="M32.8,72.4c-6.3,0-11.6-1.3-16-4C12.5,65.7,9.2,62,7,57.3c-2.2-4.7-3.3-10.2-3.3-16.5
				c0-6.2,1.1-11.6,3.3-16.4c2.2-4.7,5.5-8.5,9.9-11.2c4.3-2.7,9.7-4.1,16-4.1c7.7,0,13.9,2.1,18.6,6.3c4.7,4.2,7.7,9.9,9,17H43.5
				c-0.7-3.7-1.9-6.5-3.8-8.6c-1.9-2.1-4.2-3.1-6.9-3.1c-4,0-7.1,1.8-9.2,5.3c-2.1,3.5-3.2,8.4-3.2,14.7c0,6.2,1.1,11.1,3.2,14.7
				c2.1,3.5,5.2,5.3,9.2,5.3c2.7,0,5-1,6.8-2.9c1.8-1.9,3.1-4.7,3.7-8.2h16.8c-0.7,4.6-2.3,8.6-4.6,12c-2.4,3.4-5.5,6.1-9.3,8
				C42.4,71.5,37.9,72.4,32.8,72.4z"/>
			<path class="st0" d="M87,21.8V70c0,1.4,0,2.9,0.2,4.6h-9.2c0.1-1.7,0.2-3.2,0.2-4.6c0-3.8,0.1-9,0.3-15.8
				c0.2-6.7,0.5-13,0.8-18.8c-1,1.7-2.1,3.4-3.2,5c-1.1,1.6-2.1,2.9-3,3.9c-0.6-1.9-1.9-5-3.9-9.1c2-2.2,4.1-5.3,6.4-9.1
				c2.2-3.9,4.1-7.7,5.7-11.3c1.5-3.7,2.6-6.8,3.1-9.5l8.2,2.6L92,8.7C90.6,13,88.9,17.3,87,21.8z M133.4,63.8c2.8,0,4.7,0,5.7-0.2
				v8.8c-1-0.1-2.9-0.2-5.7-0.2H95.7c-2.8,0-4.7,0-5.7,0.2v-8.8c1.1,0.1,3,0.2,5.7,0.2h19.1c1.8-4.6,3.5-10.3,5.2-17
				c1.6-6.7,2.6-11.9,2.9-15.7c1.6,0.4,3.4,0.9,5.4,1.5c2,0.6,3.4,1,4.2,1.3c-0.4,1-0.6,1.5-0.7,1.7c-0.9,4-1.9,8.2-3.1,12.7
				c-1.2,4.5-2.2,7.9-3,10.5c-0.8,2.5-1.4,4.2-1.7,5.1H133.4z M91.3,18.2c1.1,0.1,2.9,0.2,5.6,0.2h14.4c-0.6-1.3-1.3-2.8-2.3-4.7
				c-1-1.9-2.1-3.7-3.2-5.5l7.8-2.6c0.9,1.4,1.9,3.1,3,5.1c1.1,2,1.9,3.4,2.3,4.4c0.5,1,0.8,1.6,0.9,1.9c-0.7,0.4-1.7,0.8-3.1,1.4
				h14.9c2.6,0,4.4,0,5.4-0.2v8.7c-1.1-0.1-2.9-0.2-5.4-0.2H96.9c-2.7,0-4.5,0.1-5.6,0.2V18.2z M102.2,60.7c-1-4.4-2.1-9-3.4-13.7
				c-1.3-4.7-2.7-8.9-4-12.6l8.6-2.3c1,3,2.2,7,3.6,12c1.4,5,2.5,9.7,3.5,13.9c-1,0.4-2.4,0.8-4,1.4
				C104.6,59.9,103.2,60.4,102.2,60.7z"/>
			<path class="st0" d="M203,56.7c1.1,1.6,2.4,3.1,4.1,4.6c1.7,1.4,3.6,2.7,5.8,3.7c2.2,1,4.3,1.8,6.4,2.3c-0.6,1.1-1.3,2.4-2.1,4
				c-0.8,1.6-1.3,2.8-1.5,3.6c-4.4-1.5-8.3-3.6-11.7-6.5c-3.4-2.9-6-6.3-7.8-10.2c-0.8,2.1-1.6,3.9-2.5,5.4
				c-0.9,1.5-1.9,2.9-3.1,4.2c-1.1,1.3-2.6,2.5-4.4,3.8c-1.8,1.3-4,2.4-6.6,3.4c-0.5-0.9-1.2-2-2.2-3.4c-1-1.4-1.9-2.6-2.6-3.5
				c2.1-0.6,4-1.3,5.7-2.2c1.7-0.9,3.2-2,4.6-3.4c1.4-1.4,2.7-3.3,3.7-5.6h-7c-2.3,0-4,0.1-5,0.2v-1.4l-3.6,6.9
				c-0.2-0.2-0.7-0.6-1.4-1.3c-0.7-0.7-2-1.7-3.7-3.1c-1.8,3.4-3.9,6.5-6.3,9.1c-2.4,2.6-5,4.8-7.8,6.5c-0.3-0.6-0.9-1.5-1.9-2.8
				c-1-1.3-2.1-2.6-3.3-4c5.4-3.1,9.7-7.7,13.1-13.7c-5.2-3.7-8.9-6.1-11-7.3c0.5-1.6,1.1-3.7,1.8-6.5c0.7-2.8,1.4-6.4,2.3-10.7h-2
				l-3.2,0.1v-7.8l3.2,0.1h3.4c1-5.8,1.6-10.9,1.9-15.3l8.3,0.9l-0.5,2.1c-0.5,3.7-1.2,7.8-2,12.2h12.6c-0.6,11.2-2.3,20.8-5.1,28.9
				c2.5,1.7,4.2,2.9,5.3,3.7v-4.4c1,0.1,2.7,0.2,5,0.2h9.1c0.3-2,0.5-4.1,0.7-6.5h-12.1c0.1-1.1,0.2-2.1,0.2-2.9V14.6l-0.1-2.6
				c0.2,0,1,0,2.5,0.1c1.5,0.1,2.6,0.1,3.4,0.2c0.8,0,1.3,0.1,1.7,0.1l-0.1,2.2v21.2h26.7l-0.1,2.1v11.4c2.3,0,4,0,4.9-0.2v7.6
				c-1-0.1-2.6-0.2-4.9-0.2H203z M159.4,42.5l5.6,3.2c0.8-2.3,1.5-5,2.2-8c0.7-3,1.2-6.1,1.5-9.1h-6.2
				C161.3,34.3,160.3,38.9,159.4,42.5z M191.3,30.8c0.1-0.9,0.2-1.7,0.2-2.4V10.1c0-0.7-0.1-1.5-0.2-2.4h23.3l-0.1,2.4v18.3l0.1,2.4
				H191.3z M199.1,42.8c-0.2,2.3-0.4,4.5-0.7,6.5h7.5v-6.5H199.1z M207.2,14.3h-8.6v10h8.6V14.3z"/>
			<path class="st0" d="M289.4,53.8h-16.3c3.1,2.2,7.1,4.2,11.9,6.1c4.8,1.9,9.5,3.4,14,4.4c-0.9,1.7-1.6,3.2-2.3,4.5
				c-0.7,1.3-1.1,2.4-1.3,3.1c-4.9-1.5-9.8-3.5-14.8-6.1c-5-2.6-9.4-5.4-13.1-8.5c0.2,4.8,0.3,9.6,0.3,14.4c0,1.4,0,2.3,0.2,2.8
				h-9.2c0.1-0.5,0.2-1.4,0.2-2.8c0-3.8,0.1-8.5,0.2-13.9c-2.2,1.8-4.6,3.6-7.2,5.3c-2.6,1.7-5.6,3.3-8.8,4.8
				c-3.2,1.5-6.6,2.8-10.2,3.9c-0.3-0.7-0.9-1.8-1.8-3.2c-0.9-1.4-1.8-2.8-2.8-4.2c4.5-1,9.1-2.5,13.9-4.4c4.8-1.9,8.7-4,11.8-6.2
				h-16.5c-3.4,0-5.7,0.1-7,0.2v-7.8c1.3,0.1,3.6,0.2,7,0.2h21.3V43l-0.2-1.9c1.1,0,2.6,0,4.8,0.1s3.6,0.1,4.5,0.2l-0.2,1.7v3.2
				h21.6c3.4,0,5.7,0,6.9-0.2v7.8C295.1,53.8,292.8,53.8,289.4,53.8z M229.4,36.3c0.7-0.2,1.5-0.7,2.5-1.5c1-0.8,2.2-1.9,3.5-3.5
				c1.3-1.5,2.7-3.3,4-5.2l-7.9,1.4l-1.4-7c1.5-0.7,3.2-2.4,5.1-5.3c1.9-2.9,3.6-6.2,5.1-9.9c2.8,1.5,4.9,2.7,6.3,3.5L246,9.7
				c-0.1,0.1-0.1,0.2-0.2,0.3c-0.1,0.2-0.8,1.4-2.2,3.6c-1.4,2.3-2.9,4.4-4.4,6.4l4.5-0.5c1-1.6,2.1-3.5,3.2-5.7l5.7,3.4v-3.2
				c0-0.7-0.1-1.6-0.2-2.7h6.5c0.4-1.1,0.8-2.2,1.2-3.5c0.4-1.3,0.6-2.3,0.6-3.1l7.6,1.6l-0.5,1.1c-0.4,1.2-0.8,2.4-1.4,3.9h8.1
				l-0.1,2.8v23.5l0.1,2.7h-20.5l0.4,1.7c-1.5,0.5-3.5,1.1-6,2c-0.2-1.2-0.4-2.5-0.7-3.9c-1,0.2-3.2,0.5-6.6,1
				c-3.5,0.5-5.7,0.9-6.8,1.1c-0.9,0.2-1.9,0.4-2.9,0.6L229.4,36.3z M252,18.5c-1.3,2.2-3,4.8-5.2,8c-2.2,3.1-4.3,6.1-6.5,8.7
				l5.7-0.9c-0.2-0.7-0.5-1.4-0.8-2.4c-0.3-0.9-0.6-1.6-0.8-2.2l5.4-1.7c0.9,2,1.8,4.4,2.6,7.2V17.8L252,18.5z M267.5,22.3v-4.6h-8
				v4.6H267.5z M259.4,33.8h8v-5.3h-8V33.8z M284.4,26.1l-7.9,1.4l-1.4-7c1.1-0.5,2.4-1.7,3.7-3.5c1.4-1.8,2.6-3.8,3.7-6
				c1.1-2.2,2-4.1,2.7-5.7c1.9,1,4,2.1,6.3,3.5l-0.8,0.9c-0.1,0.1-0.2,0.3-0.3,0.5c-0.2,0.2-0.9,1.4-2.3,3.7
				c-1.4,2.2-2.7,4.3-4.2,6.2l4.5-0.5c1-1.7,2.1-3.6,3.2-5.7l5.9,3.6c-0.1,0.1-0.3,0.3-0.5,0.5c-0.2,0.2-0.4,0.4-0.5,0.6
				c-1.4,2.6-3.8,6.1-7,10.7c2.5-0.8,4.2-1.2,5-1.4c0.8,1.6,1.7,3.6,2.6,6.1c1,2.5,1.8,5,2.4,7.5l-6,2l-0.8-3.3l-13.9,2.2
				c-0.9,0.2-1.9,0.4-2.9,0.6l-1.8-6.7c1.2-0.4,2.6-1.4,4.3-3.1C280.5,31.4,282.4,29.1,284.4,26.1z M291.2,34.2
				c-0.7-1.9-1.3-3.4-1.7-4.5l-4.2,5.4L291.2,34.2z"/>
		</g>
		<g>
			<g>
				
					<rect x="309.5" y="50.7" transform="matrix(0.6352 -0.7723 0.7723 0.6352 75.0952 261.1256)" class="st0" width="9" height="0.7"/>
			</g>
			<g>
				<g>
					<path class="st0" d="M348.6,64.9v-5.2l21.4,0.1v-7L348.6,53v-4.7l24.6,0.1v-7.2c-1,0.1-24.6,0.1-24.6,0.1v-2.6H340v2.6h-7.3
						l-1.6,2l-4,4.9h13V53l-16.8-0.1l-5.7,6.9l22.4-0.1v5.2l-29.2-0.1v7.8h66.3v-7.8L348.6,64.9L348.6,64.9z"/>
				</g>
				<g>
					<path class="st0" d="M353.7,14.8h7.7v13.6h-18l-5.3,6.4h10.3h17.2h4.1V8.3h-7.2l-8.7,6.3C353.8,14.7,353.7,14.7,353.7,14.8z"/>
				</g>
				<g>
					<path class="st0" d="M316.6,43.2l5.1,4.2l-5.5,6.7l0.5,0.4l16.6-20.2l8.8-10.7l0,0l1.1-1.3l-11.7,8.5c-0.8,0.5-1.8-0.2-1.5-1.1
						l2.2-6.6l-4.3,5.2h-1.2V14.8h7.7c0-0.1-0.1-0.1-0.2-0.1l-8.7-6.3h-7.2v26.5h4.3l-5.1,6.2l0,0l-4.7,5.8l0.5,0.4L316.6,43.2z"/>
				</g>
				<g>
					<polygon class="st0" points="337,21.8 344.1,16.6 346.5,18.4 351.1,21.8 349,15.3 348.4,13.5 355.5,8.3 346.7,8.3 346.7,8.3 
						344.1,0 341.4,8.3 341.4,8.3 332.6,8.3 339.7,13.5 					"/>
				</g>
			</g>
		</g>
	</g>
	<g>
		<g>
			<path class="st0" d="M0.4,85.4c1.9,0,3.7,0,5.6,0.1c13.4,0.1,26.8,0.4,40.3,0.3c16.5-0.1,32.9-0.8,49.4-0.7
				c44.3,0.3,88.6,1,132.9,1.5c3,0,6.1-0.1,9.1,0.1c1.4,0.1,2.7,0.9,4.1,1.4c-0.1,0.4-0.1,0.7-0.2,1.1c-2.2,0.4-4.4,1-6.7,1
				c-22.1,0.5-44.3,1.2-66.4,1.2c-36.2-0.1-72.4-0.7-108.7-1.1c-15.1-0.2-30.3-0.2-45.4-0.6c-4-0.1-8-1.1-11.9-1.8
				C1.6,87.8,0.8,87,0,86.6C0.1,86.2,0.3,85.8,0.4,85.4z"/>
			<path class="st0" d="M328,88.8c-4.1,0.3-7.5,0.7-11,0.8c-15.2,0.1-30.4,0.1-45.6,0c-3.6,0-7.2-0.6-10.8-1.1
				c-1.5-0.2-3.2-0.5-3.4-3.2c2-0.2,4-0.5,6-0.4c19.3,0.3,38.6,0.6,58,1C323.5,85.9,326,85.9,328,88.8z"/>
			<path class="st0" d="M361,87.9c-1.9,0.4-3.2,0.8-4.4,0.8c-4.8,0.1-9.5,0.2-14.3,0c-1,0-2-1.1-3-1.7c1-0.6,2-1.7,2.9-1.7
				c5.6,0.2,11.3,0.7,16.9,1.2C359.6,86.5,359.9,87.1,361,87.9z"/>
			<path class="st0" d="M387.7,88.5c-5.3-0.1-10.6-0.1-15.9-0.2c-0.6,0-1.2-0.1-1.7-0.4c-0.8-0.5-1.4-1.2-2.1-1.7
				c0.8-0.5,1.5-1.2,2.3-1.3c1.4-0.2,2.9-0.1,4.4,0c3.2,0.3,6.5,0.8,9.7,1.3c1.1,0.2,2.2,0.8,3.3,1.2
				C387.8,87.8,387.7,88.2,387.7,88.5z"/>
		</g>
	</g>
</g>
</svg>
