<svg xmlns="http://www.w3.org/2000/svg" width="387.8" height="91.5" style="overflow:visible;enable-background:new 0 0 387.8 91.5" xml:space="preserve"><style>.st0{fill:#008aa8}</style><path class="st0" d="M129.6 61.8c-.5-1.2-1.5-3.4-3.2-6.6v14.7l.2 4.8h-7.8c.1-1.9.2-3.5.2-4.8V10.5c0-.7-.1-1.4-.2-2.3h16.3l.8-.9c1.2.8 2.4 1.7 3.6 2.8 1.2 1.1 2 1.8 2.4 2.2l-1 .5c-.4 1.8-1.2 5.1-2.5 9.9 1.5-1.3 3.1-3 4.6-5.2 1.6-2.1 2.9-4.3 3.9-6.4 1-2.1 1.6-3.9 2-5.4l6.7 1.3-.5.8-1.4 4.1h6.4l.7-.8c.8.5 1.7 1.2 2.8 2.2-.6-2.1-1-3.8-1.3-5.2 2.8-.7 5-1.1 6.6-1.4l.7 3.6h11l.7-.8c2.2 1.6 4.2 3.2 5.8 4.8l-1 .5c-1 2.2-2.2 4.5-3.8 7-1.6 2.5-3.2 4.7-4.9 6.6 1.4 1.8 2.9 3.5 4.6 4.9 1.7 1.5 3.5 2.7 5.4 3.7-.6.8-1.3 1.9-2.2 3.2-.8 1.3-1.4 2.4-1.8 3.1-3.4-2.2-6.2-4.5-8.6-7.1v5.1l-3.3-.1h-15.6l-3.3.1v-4.8c-2.8 2.7-6 4.9-9.5 6.7-.3-.7-.9-1.7-1.7-3-.9-1.3-1.6-2.4-2.3-3.2 2.9-1.2 5.8-2.9 8.5-5.1-1.7-1.2-3.1-2.1-4.5-2.8l3.2-3.5c1.1.5 2.7 1.4 5 2.6.5-.5 1.1-1.2 1.9-2.2-2.4-1.5-4.4-2.5-5.8-3.1-1.7 2.2-3.2 3.8-4.5 5-.7-1-2.2-2.6-4.5-4.8-1.4 4.8-2.4 8.4-3.2 10.7 1.8 2.3 3.2 4.8 4.3 7.6 1.1 2.8 1.6 5.5 1.6 8 0 1.9-.2 3.7-.7 5.2-.5 1.6-1.2 2.9-2.1 4-.9 1.1-2.1 1.9-3.6 2.5-1.6.4-3.2.7-5.1.7zm3.1-46.5h-6.3V54c1 .2 2 .2 2.9.2.9 0 1.6-.3 2.4-.9.7-.6 1.2-1.4 1.5-2.4.3-1 .5-2 .5-2.9 0-2.3-.5-4.7-1.6-7.2s-2.6-4.6-4.4-6.5c.5-1.5 1.2-3.8 2.1-7.1.8-3.2 1.8-7.2 2.9-11.9zM155 58.7l-.5.5c-1.5 2.4-3.3 4.7-5.7 7-2.3 2.2-4.8 4.1-7.4 5.6-.5-.7-1.3-1.6-2.4-2.8-1.1-1.2-2.1-2.2-2.9-3 2.4-1.2 4.9-2.8 7.4-5.1 2.5-2.2 4.2-4.2 5.1-6l6.4 3.8zm12.5-5.7v8.3l.2 6.3c0 2.2-1 3.9-3.1 5.1-2.1 1.2-5.3 1.8-9.7 1.8l-3.2-7.8c1.5.3 3 .4 4.6.4 1 0 1.8-.1 2.4-.3.7-.2 1-.8 1-1.7V53H149c-2.2 0-3.8.1-4.8.2v-7.4c.9.1 2.5.2 4.8.2h30.1c2.3 0 3.9 0 4.8-.2v7.4c-1-.1-2.6-.2-4.8-.2h-11.6zm-9.7-35h-7.1c-.8 1.4-1.6 2.6-2.5 3.9l1.9-2.6c.7.2 2.6 1 5.9 2.5.6-1.2 1.2-2.5 1.8-3.8zm13.9 16.2h1.7c-3.6-4.4-6.4-10.1-8.6-17.1-2 6.5-5.3 12.2-9.9 17.1h16.8zm4.5 21.1c1.7 1.5 3.6 3.3 5.8 5.4 2.1 2.2 4 4.2 5.6 6-.3.3-1 1-2.1 2s-1.9 1.7-2.4 2.2c-.5.5-.9.8-1.1.9-1.6-2.2-3.3-4.4-5.3-6.6-2-2.2-3.9-4.2-5.7-5.8l5.2-4.1zm1.7-38.6h-6.3c.8 2.2 1.5 4 2.3 5.6 1.5-1.8 2.9-3.7 4-5.6zm57.2 48.8c2.8 0 6.2 0 10.1-.2 3.9-.1 7.9-.3 12-.5 4.1-.3 7.4-.6 9.9-.9l-2.3 8.7c-3.3.4-7.8.6-13.5.9-5.7.2-11.2.3-16.2.3-5.4 0-9.9-.5-13.5-1.4-3.6-.9-6.7-2.4-9.3-4.3-2.5-1.9-4.6-4.4-6.2-7.5-1.2 5.6-2.8 10.5-4.8 14.4-1.8-2.3-3.8-4.7-6-7 1.1-2.2 2.1-5 2.9-8.5.8-3.5 1.4-7 1.7-10.5.3-3.5.5-6.6.5-9.3l7.7 1.7c-.2.4-.3.8-.3 1.1 0 2.1-.1 4.2-.2 6.3.3 1.7.7 3.3 1.4 4.8.7 1.6 1.5 2.9 2.4 4.1V36.6h-10.1c-2 0-3.4 0-4.2.1v-8c.9.1 2.3.1 4.2.1h9.2v-7.2h-7l-3.9.1V14l3.9.1h7V8.3c0-.7-.1-1.5-.2-2.4 1 0 2.4 0 4.3.1s3.3.1 4.1.2c-.1.8-.2 1.5-.2 2.2v5.7h5.6l3.9-.1v7.6l-3.9-.1h-5.6v7.2h6.2l4.2-.1v.3c1.5-.6 3-1.3 4.5-2.4 1.5-1 2.8-2.4 3.9-4.1 1.1-1.7 1.8-3.5 2.1-5.6h-5.2l-3.9.1V9.7c.8.1 2 .1 3.9.1h29.5c-.1 1-.2 1.8-.2 2.5-.1 4.8-.2 8.4-.4 10.7-.2 2.3-.6 4.2-1.2 5.5-.8 1.9-2.3 3.3-4.6 4.4-2.3 1.1-5.4 1.6-9.3 1.6-.4-1.2-1.3-4-2.7-8.2 1.4.5 2.8.8 4.3.8 2.5 0 4.1-.8 4.8-2.4.2-.5.4-1.2.5-2.2.2-1 .3-2.8.4-5.5h-7.8c-.4 4.2-1.8 7.9-4.2 11.1-2.4 3.2-5.6 5.7-9.6 7.5-.6-.9-2.3-2.9-5-6v7.1l-4.2-.1h-5.2v8.2h7.5l2.7-.1v7.6l-2.7-.1h-7.5v11c4.5 1.6 9.6 2.3 15.8 2.3zm27.2-27.6-.1 2.5v18.2l.1 2.5h-30.2c.1-.9.2-1.7.2-2.5V40.3c0-.8-.1-1.6-.2-2.5h30.2zm-21.9 16.3h13.7v-9.5h-13.7v9.5zm53-13.5v29.6c0 1.1 0 2.5.2 4.1h-8.5c.1-1.5.2-2.9.2-4.1 0-3.9.2-13.4.5-28.4-1 3.7-2.1 7.1-3.4 10.1-1.2 3.1-2.5 5.6-3.7 7.6-.6-2-1.8-5-3.7-9 .8-1.1 1.7-2.6 2.8-4.4 1-1.8 2-3.7 2.8-5.7.9-2 1.6-4 2.3-5.9.7-1.9 1.3-4 1.8-6.2H280l-3.6.1v-7.9l3.6.1h5.3V8.2c0-.7-.1-1.5-.2-2.3 1 0 2.5 0 4.4.1 1.9.1 3.3.1 4 .2l-.2 2v12.5h2.9l3.5-.1v7.9l-3.5-.1h-2.9v3.2l1.2-.8c.6 1 1.4 2.4 2.5 4.3 1 1.8 1.9 3.6 2.7 5.2.8 1.6 1.3 2.8 1.7 3.6l-5.4 5.4c-.7-3.2-1.6-6.1-2.6-8.6zm33 17.6c1.4 1.7 3.2 3.1 5.6 4.5 2.4 1.3 4.8 2.3 7.3 2.9 2.5.7 4.8 1.1 6.7 1.4-1.7 3.8-2.7 6.4-3.1 7.8-4.7-.8-8.9-2.3-12.6-4.5-3.7-2.2-6.7-4.9-9-8-1.9 3.3-4.7 5.9-8.3 7.9-3.6 2-8.1 3.5-13.4 4.5-.5-1-1.1-2.3-1.9-3.9-.8-1.6-1.5-2.9-2.2-3.8 5.1-.7 9.2-1.7 12.3-3.1 3.1-1.4 5.4-3.3 6.9-5.6h-11.6c-2.5 0-4.3.1-5.3.2v-7.3c1 .1 2.8.2 5.3.2h14.1c.2-1.1.4-2.5.5-4.3h-14c.1-.9.2-1.8.2-2.6v-19c0-.7-.1-1.5-.2-2.5h36.6l-.1 2.5v18.8l.1 2.6h-15c-.1.6-.1 1.3-.2 2.2-.1.9-.2 1.6-.3 2.1h14.6c2.5 0 4.2 0 5.3-.2v7.3c-1.1-.1-2.8-.2-5.3-.2h-13zm-18.6-41.5h-4.5c-2.2 0-3.8 0-4.8.1v-7c1 .1 2.6.2 4.8.2h4.5V7.7l-.1-2.1c.2 0 1.1 0 2.6.1s2.7.1 3.6.2c.8 0 1.4.1 1.8.1l-.1 1.7V10c2.4 0 4 0 5-.2v7c-1 0-2.6-.1-5-.1V19l.1 2.1h-7.9c0-.4.1-1.1.1-2.1v-2.2zm24.4 11.9h-20.1v3.8h20.1v-3.8zm-20.1 8.9v3.8h20.1v-3.8h-20.1zM327.7 19v-2.2c-2.4 0-4.1 0-5.1.1v-7c.9.1 2.6.2 5.1.2V7.7l-.1-2.1c.2 0 1.1 0 2.6.1s2.7.1 3.5.2c.8 0 1.4.1 1.7.1l-.1 1.7V10h4.5c2.3 0 3.9 0 4.9-.2v7c-1 0-2.6-.1-4.9-.1h-4.5V19l.1 2.1h-7.9c.2-.4.2-1.1.2-2.1zM39.142 54.283l5.716-6.951.541.445-5.717 6.95zM76.8 64.9v-5.2l21.4.1v-7l-21.4.2v-4.7l24.6.1v-7.2c-1 .1-24.6.1-24.6.1v-2.6h-8.5v2.6H61l-1.6 2-4 4.9h13V53l-16.8-.1-5.7 6.9 22.4-.1v5.2l-29.2-.1v7.8h66.3v-7.8l-28.6.1zM82 14.8h7.7v13.6h-18l-5.3 6.4h31.7V8.3h-7.2l-8.7 6.3c-.1.1-.2.1-.2.2z"/><path class="st0" d="m44.9 43.2 5.1 4.2-5.5 6.7.5.4 16.6-20.2 8.8-10.7 1.1-1.3-11.7 8.5c-.8.5-1.8-.2-1.5-1.1l2.2-6.6-4.3 5.2H55V14.8h7.7c0-.1-.1-.1-.2-.1l-8.7-6.3h-7.2v26.5h4.3L45.8 41 41 46.8l.5.4 3.4-4z"/><path class="st0" d="m65.3 21.8 7-5.2 2.5 1.8 4.6 3.4-2.1-6.5-.6-1.8 7.1-5.2H75L72.3 0l-2.6 8.3h-8.8l7.1 5.2zM.4 85.4c1.9 0 3.7 0 5.6.1 13.4.1 26.8.4 40.3.3 16.5-.1 32.9-.8 49.4-.7 44.3.3 88.6 1 132.9 1.5 3 0 6.1-.1 9.1.1 1.4.1 2.7.9 4.1 1.4-.1.4-.1.7-.2 1.1-2.2.4-4.4 1-6.7 1-22.1.5-44.3 1.2-66.4 1.2-36.2-.1-72.4-.7-108.7-1.1-15.1-.2-30.3-.2-45.4-.6-4-.1-8-1.1-11.9-1.8-.9-.1-1.7-.9-2.5-1.3.1-.4.3-.8.4-1.2zM328 88.8c-4.1.3-7.5.7-11 .8-15.2.1-30.4.1-45.6 0-3.6 0-7.2-.6-10.8-1.1-1.5-.2-3.2-.5-3.4-3.2 2-.2 4-.5 6-.4 19.3.3 38.6.6 58 1 2.3 0 4.8 0 6.8 2.9zm33-.9c-1.9.4-3.2.8-4.4.8-4.8.1-9.5.2-14.3 0-1 0-2-1.1-3-1.7 1-.6 2-1.7 2.9-1.7 5.6.2 11.3.7 16.9 1.2.5 0 .8.6 1.9 1.4zm26.7.6c-5.3-.1-10.6-.1-15.9-.2-.6 0-1.2-.1-1.7-.4-.8-.5-1.4-1.2-2.1-1.7.8-.5 1.5-1.2 2.3-1.3 1.4-.2 2.9-.1 4.4 0 3.2.3 6.5.8 9.7 1.3 1.1.2 2.2.8 3.3 1.2.1.4 0 .8 0 1.1z"/></svg>