<!-- Generator: Adobe Illustrator 25.0.0, SVG Export Plug-In  -->
<svg version="1.1" xmlns="http://www.w3.org/2000/svg" xmlns:xlink="http://www.w3.org/1999/xlink" x="0px" y="0px" width="29.5px"
	 height="44.3px" viewBox="0 0 29.5 44.3" style="overflow:visible;enable-background:new 0 0 29.5 44.3;" xml:space="preserve">
<style type="text/css">
	.st0{fill:#E2809C;}
</style>
<defs>
</defs>
<path class="st0" d="M15.7,44.3c-0.5,0-0.8,0-1.2,0c-0.4-2-0.9-4-1.3-5.9c-0.8-3.6-1.8-7.1-3.5-10.3c-0.5-0.8-1.1-1.6-1.6-2.4
	c-1.2-1.7-3-2.6-4.9-3.2c-0.7-0.3-1.5-0.4-2.3-0.7c-0.3-0.1-0.6-0.5-0.9-0.7c0.3-0.3,0.5-0.6,0.8-0.7c0.6-0.3,1.2-0.5,1.9-0.7
	c4.2-1.2,7-4,8.6-8c1.1-2.9,1.9-5.9,2.8-8.9c0.2-0.6,0.4-1.2,0.5-1.8c0.2-0.6,0.5-1,1.5-0.7c0.5,1.9,0.8,4,1.5,6.1
	c0.8,2.8,1.7,5.6,2.8,8.2c1.2,2.7,3.4,4.5,6.3,5.3c0.7,0.2,1.4,0.4,2,0.6c0.3,0.1,0.6,0.5,0.9,0.7c-0.3,0.2-0.7,0.5-1,0.6
	c-1.6,0.7-3.2,1.3-4.7,2.1c-2.1,1.2-3.2,3.2-4,5.3c-1.1,2.9-1.7,6-2.5,9C16.8,40.2,16.3,42.2,15.7,44.3z"/>
</svg>
