<svg xmlns="http://www.w3.org/2000/svg" width="388.6" height="91.5" style="overflow:visible;enable-background:new 0 0 388.6 91.5" xml:space="preserve"><style>.st0{fill:#e98c01}</style><path class="st0" d="M55.2 64.4h9.1c3.5 0 5.9 0 7.2-.2v8.5c-1.3-.1-3.7-.1-7.2-.1H12.2c-3.6 0-6 0-7.2.1v-8.5c1.2.1 3.6.2 7.2.2h8.2c-2-4.1-3.8-7.3-5.5-9.7 1-.5 3.4-1.4 7.2-2.9.8 1.3 1.8 2.9 2.9 5.1 1.2 2.1 2.1 4 2.9 5.7l-4 1.7h9.6V50.4H15.1c-3.1 0-5.2.1-6.3.2v-8.2c1.2.1 3.3.2 6.3.2h18.4v-8h-8.9c-2.2 0-3.7 0-4.5.1V30c-3.9 2.6-7.9 4.8-11.8 6.4-.5-1-1.2-2.3-2.3-3.8-1.1-1.5-2.1-2.8-2.9-3.8 2.9-1.1 5.9-2.5 9-4.2 3.1-1.7 6.1-3.7 9-5.9 2.9-2.2 5.5-4.5 7.8-6.9 2.3-2.4 4.2-4.9 5.6-7.3 3.1.6 6.1 1.2 9.1 1.7l-.7.8c2.7 4.2 7 8.4 12.8 12.6 5.9 4.2 11.7 7.2 17.5 9.2-.9 1.2-1.9 2.5-2.9 4.1-1 1.6-1.7 2.8-2.1 3.7-3.7-1.5-7.5-3.4-11.3-5.7v3.9c-.9 0-2.4-.1-4.5-.1H42.1v8h18.8c3.1 0 5.2 0 6.4-.2v8.2c-1.2-.1-3.4-.2-6.4-.2H42.1v14.1h4.4c.6-.9 1.4-2.1 2.3-3.7 1-1.6 1.9-3.3 2.8-5.2.9-1.9 1.4-3.4 1.7-4.4l7.9 2.7-.8 1c-1.6 3.2-3.3 6.3-5.2 9.4zM24.4 26.9h27.1c-1.9-1.4-4-3.1-6.3-5.3-2.3-2.2-4.7-4.8-7.1-7.7-1.9 2.3-4 4.6-6.4 6.8-2.3 2.2-4.8 4.3-7.3 6.2zm83.3 13.8c-.1.8-.2 1.6-.2 2.3v28.3c0 1.5 0 2.5.2 3.1h-7.6c0-.6.1-1.6.1-3.1V47.8h-6.1c-.2 2.9-.5 6-1 9.3-.5 3.3-1.1 6.5-2.1 9.6-.9 3.1-2 5.6-3.2 7.5-.6-.8-1.5-1.9-2.8-3.1s-2.4-2.4-3.4-3.2c1.3-2.2 2.4-4.7 3.1-7.6.8-2.8 1.3-6 1.7-9.5.3-3.5.5-7.5.5-12v-27c0-.8-.1-1.5-.2-2.3.9 0 2.2 0 4 .1 1.8.1 3 .1 3.8.2-.1.7-.2 1.4-.2 2.1v13.4h5.2V9.1c0-.7-.1-1.4-.2-2.2.9 0 2.1 0 3.9.1 1.7.1 2.9.1 3.6.2-.1.7-.2 1.4-.2 2v15.9h.5l3.2-.1v7.4l-3.2-.1H94.4v8.4h13.3zm39.6 11.8c2.4 0 4.1 0 5.1-.1v7.9c-1-.1-2.7-.2-5.1-.2h-5.8v11.2c0 .9 0 1.9.2 3h-8.2c.1-1.1.2-2.1.2-3V60.1h-19.1c-2.4 0-4.1.1-5.1.2v-7.9c1 .1 2.7.1 5.1.1h.6c-1.1-1.5-2.6-3.3-4.8-5.5 3.5-.9 6.3-1.9 8.4-3 2.1-1.1 3.7-2.6 4.9-4.4H112c.1-1 .2-1.9.2-2.7V15.6c0-.8-.1-1.6-.2-2.6h12.2c.8-1.3 1.5-2.6 2.2-4 .7-1.4 1.1-2.6 1.3-3.5l9.3 1.3-.8 1.2c-1.4 2.5-2.3 4.1-2.9 5h16.2l-.1 2.6v21.2l.1 2.7H132c-1.2 3-2.8 5.6-5 7.6s-5 3.8-8.5 5.3h15v-7.9l-.1-2.6c.9 0 2.3 0 4.2.1 1.9.1 3.2.1 3.9.2l-.1 2.3v7.9h5.9zM127.2 19H120v4.5h7.2V19zM120 33.6h6c.3-1.1.5-2.6.8-4.7H120v4.7zm13.7 0h8v-4.7h-7.4c-.1.6-.1 1.4-.3 2.3-.1 1-.2 1.8-.3 2.4zm8-10.2V19h-6.9c0 1.1-.1 2.5-.2 4.5h7.1zm167.8 42.8c-2.4 3.6-4 6.1-4.6 7.5-2.6-.6-5.5-1.5-8.8-2.7-3.3-1.2-6.6-2.8-10-4.8-3.4-2-6.2-4.1-8.6-6.3.2 4.5.2 8.7.2 12.5 0 1.2 0 2 .2 2.5h-8.3c.1-.5.2-1.3.2-2.5 0-3.5.1-7.6.2-12.2-2.4 2.1-5.3 4.1-8.7 6.1-3.4 1.9-6.7 3.5-9.9 4.7-3.2 1.2-6.1 2.1-8.6 2.8-.3-.6-.9-1.6-1.7-2.9-.8-1.4-1.7-2.8-2.8-4.4 4.7-.9 9.3-2.1 13.8-3.7s8.3-3.5 11.2-5.6h-16.5c-3.3 0-5.6.1-6.9.2v-7c1.3.1 3.6.2 6.9.2h23v-4h-16.3c-2.6 0-4.5.1-5.5.2V40c1.1.1 2.9.2 5.5.2h16.3v-3.5h-19c-2.9 0-4.9.1-6 .2v-6.8c1.1.1 3.1.2 6 .2h8.7c-1.3-2.3-2.4-4.2-3.3-5.5l4.8-1.5h-13.2c-3.2 0-5.4.1-6.6.2v-7c1.2.1 3.4.2 6.6.2h4c-1.7-2.5-3.5-4.9-5.2-7.1l7.6-2.3c.6.8 1.4 2 2.5 3.6 1.1 1.7 2.4 3.6 3.7 5.7h3V7.9l-.2-2c.9 0 2.3 0 4 .1 1.8.1 3.1.1 3.8.2-.1.6-.2 1.2-.2 1.7v8.5h6.2V7.9l-.2-2c.9 0 2.3 0 4 .1 1.8.1 3.1.1 3.8.2-.1.6-.2 1.2-.2 1.7v8.5h3.4c1.1-1.4 2.3-3 3.5-4.9 1.2-1.9 2-3.4 2.5-4.7l7.4 2.9-.7.9c-1 1.8-2.3 3.7-4 5.7h3.5c3.2 0 5.4 0 6.6-.2v7c-1.3-.1-3.5-.2-6.6-.2h-13.3l4.8 1.6-.6 1c-.8 1.6-1.6 3-2.4 4.5h8.8c2.9 0 4.9 0 6-.2v6.8c-1.2-.1-3.2-.2-6-.2h-19.9v3.5h17.1c2.6 0 4.5 0 5.5-.2v6.4c-1.1-.1-2.9-.2-5.5-.2h-17.1v4h23.5c3.3 0 5.6 0 6.9-.2v7c-1.3-.1-3.6-.2-6.9-.2h-17.3c1.4 1 3.4 2 5.9 3.2 2.5 1.2 5.6 2.4 9.2 3.4 3.7 1.7 7.3 2.5 10.8 3.1zm-45.1-43c.8 1.3 1.9 3.7 3.6 7h12.2c1.6-2.8 2.7-5.2 3.4-7h-19.2zm88 20.8c-.3-.7-.8-1.9-1.7-3.6-.4 1-1.1 2.5-2 4.5-1 2-1.9 3.8-2.7 5.2-.9 1.4-1.5 2.4-2 3.1-.2-.3-.6-.8-1.3-1.4-.7-.6-1.4-1.2-2.1-1.7v11.3l.2 6.1c0 2.4-1.1 4.3-3.4 5.7-2.3 1.4-5.8 2-10.6 2-.4-1-1.6-3.8-3.8-8.4 2 .3 3.9.5 5.6.5 1.5 0 2.5-.2 3.1-.5.6-.4.9-.9.9-1.7V53.6c0-1.3.2-3.7.5-7-1.4 3.5-2.9 6.8-4.6 9.9-1.7 3.1-3.4 5.6-5 7.5-.3-.6-1-1.4-2-2.5s-2.2-2.4-3.7-3.7c2-2 4-4.7 6.2-8.2 2.1-3.5 3.9-7 5.3-10.6h-6l-3.9.1v-7.4l3.9.1h15c-1.1-.8-2.9-2-5.5-3.5-2.5-1.5-5.7-3.2-9.5-4.9l4.2-5.5c2.6 1 5 2 7.4 3.2.6-.7 1.4-1.5 2.3-2.7.9-1.1 1.6-2 2.2-2.7h-14.9c-1.6 0-2.8 0-3.6.1V8.4c.8.1 1.9.1 3.6.1h19.8l.7-.7c2.5 1.8 4.6 3.5 6.2 5.1l-1.2.5c-1.1 1.8-2.5 3.7-4.1 5.9-1.6 2.1-3.1 4-4.5 5.5 1.6.9 3 1.8 4.2 2.7l-3.1 4.3h4.6l.7-.8c.7.5 1.6 1.2 2.6 2.1s2 1.7 2.8 2.5l-.8.4-.2.5c2.1-.5 4.2-1 6.2-1.7s3.7-1.4 5.3-2.3c-1.1-1.2-2.2-2.4-3.1-3.7-1-1.3-1.8-2.7-2.5-4.2-1.5 1.8-2.8 3.1-4 4-.5-.7-1.3-1.5-2.5-2.7-1.1-1.1-2.2-2.1-3.1-2.9 1.1-.8 2.2-1.7 3.3-3 1.2-1.2 2.3-2.6 3.3-4.2 1-1.5 2-3.2 2.8-4.9.8-1.7 1.5-3.4 1.9-5.1l7.6 1.5-.4.8c-.7 2-1.3 3.5-1.7 4.5h18.4l3.7-.1v7.1l-3.7-.1h-1.4c-.7 2.5-1.7 4.8-2.9 7-1.2 2.1-2.6 4-4 5.7 1.8.9 3.7 1.7 5.9 2.2 2.2.6 4.7 1.1 7.6 1.5-2 5-3 7.7-3.1 7.9-6.6-1.6-11.9-3.8-16-6.5-2.2 1.5-4.8 2.8-7.7 3.9s-6.5 2.1-9.7 2.8zm-12 2.4c.7-1.1 1.4-2.3 2.2-3.6.8-1.3 1.4-2.6 1.9-3.8h-4.1v7.4zm45.5 1.3c-.1.9-.2 1.7-.2 2.3-.1 5.8-.2 10.1-.5 12.7-.3 2.6-.7 4.6-1.3 6.1-.6 1.2-1.4 2.3-2.5 3.1-1.1.9-2.7 1.6-4.6 2.2-2 .6-4.5.8-7.6.8-.1-.4-.3-.9-.5-1.7-.3-.8-.7-2-1.2-3.7-.6-1.7-.9-2.7-1.1-3.2 1.4.5 2.9.7 4.6.7 1.6 0 2.8-.2 3.8-.6 1-.4 1.7-1.1 2.1-1.9.6-1.5 1-4.6 1.1-9.4h-8.7c-1.5 4.7-4 8.8-7.4 12.2-3.4 3.4-7.6 6-12.7 7.9l-5.3-6.5c4.4-1.5 8-3.3 10.8-5.6 2.8-2.3 4.9-4.9 6.3-8h-7.1l-4.2.1v-7.3l4.2.1h9.1c.2-1.3.3-2.7.3-4.5l-.1-2.3 8 .4-.2 1.4c0 1.7-.1 3.2-.2 4.8h15.1zM369 28.1c.9-.9 1.7-2 2.6-3.3.9-1.4 1.7-3.1 2.4-5.3h-10.7c.7 1.7 1.5 3.3 2.4 4.7.9 1.4 2 2.7 3.3 3.9zM162.844 54.293l5.716-6.951.54.445-5.716 6.95zM200.5 64.9v-5.2l21.4.1v-7l-21.4.2v-4.7l24.6.1v-7.2c-1 .1-24.6.1-24.6.1v-2.6H192v2.6h-7.3l-1.6 2-4 4.9h13V53l-16.8-.1-5.7 6.9 22.4-.1v5.2l-29.2-.1v7.8h66.3v-7.8l-28.6.1zm5.2-50.1h7.7v13.6h-18l-5.3 6.4h31.6V8.3h-7.2l-8.7 6.3c0 .1-.1.1-.1.2z"/><path class="st0" d="m168.6 43.2 5.1 4.2-5.5 6.7.5.4 16.6-20.2 8.8-10.7 1.1-1.3-11.7 8.5c-.8.5-1.8-.2-1.5-1.1l2.2-6.6-4.3 5.2h-1.2V14.8h7.7c0-.1-.1-.1-.2-.1l-8.7-6.3h-7.2v26.5h4.3l-5.1 6.2-4.7 5.8.5.4 3.3-4.1z"/><path class="st0" d="m189 21.8 7-5.2 2.5 1.8 4.6 3.4-2.1-6.5-.6-1.8 7.1-5.2h-8.8L196 0l-2.6 8.3h-8.8l7.1 5.2zM.4 85.4c1.9 0 3.7 0 5.6.1 13.4.1 26.8.4 40.3.3 16.5-.1 32.9-.8 49.4-.7 44.3.3 88.6 1 132.9 1.5 3 0 6.1-.1 9.1.1 1.4.1 2.7.9 4.1 1.4-.1.4-.1.7-.2 1.1-2.2.4-4.4 1-6.7 1-22.1.5-44.3 1.2-66.4 1.2-36.2-.1-72.4-.7-108.7-1.1-15.1-.2-30.3-.2-45.4-.6-4-.1-8-1.1-11.9-1.8-.9-.1-1.7-.9-2.5-1.3.1-.4.3-.8.4-1.2zM328 88.8c-4.1.3-7.5.7-11 .8-15.2.1-30.4.1-45.6 0-3.6 0-7.2-.6-10.8-1.1-1.5-.2-3.2-.5-3.4-3.2 2-.2 4-.5 6-.4 19.3.3 38.6.6 58 1 2.3 0 4.8 0 6.8 2.9zm33-.9c-1.9.4-3.2.8-4.4.8-4.8.1-9.5.2-14.3 0-1 0-2-1.1-3-1.7 1-.6 2-1.7 2.9-1.7 5.6.2 11.3.7 16.9 1.2.5 0 .8.6 1.9 1.4zm26.7.6c-5.3-.1-10.6-.1-15.9-.2-.6 0-1.2-.1-1.7-.4-.8-.5-1.4-1.2-2.1-1.7.8-.5 1.5-1.2 2.3-1.3 1.4-.2 2.9-.1 4.4 0 3.2.3 6.5.8 9.7 1.3 1.1.2 2.2.8 3.3 1.2.1.4 0 .8 0 1.1z"/></svg>