<svg xmlns="http://www.w3.org/2000/svg" width="23.3" height="25.5" style="overflow:visible;enable-background:new 0 0 23.3 25.5" xml:space="preserve"><style>.st0{fill:#ffad00}</style><path class="st0" d="M13.2 22.8V21l7.5.1v-2.4l-7.5.1V17l8.6.1v-2.5c-.4 0-8.6.1-8.6.1v-.9h-3v.9H7.7l-.6.7L5.7 17h4.6v1.7H4.4l-2 2.4h7.9v1.8L0 22.8v2.7h23.3v-2.7H13.2zm1.9-17.6h2.7V10h-6.3l-1.9 2.3h11V2.9h-2.5l-3 2.3zM2 15.2l1.8 1.5L1.9 19l.2.2 5.8-7.1L11 8.3l.4-.5-4.1 3c-.3.2-.7 0-.6-.3l.8-2.3L6 10h-.4V5.2h2.7-.1l-3-2.3H2.6v9.3h1.5l-1.8 2.2-1.7 2 .2.2L2 15.2z"/><path class="st0" d="m9.2 7.7 2.5-1.9.8.7 1.7 1.2-.8-2.3-.2-.7 2.5-1.8h-3.1L11.7 0l-1 2.9H7.6l2.5 1.8z"/></svg>