<!-- Generator: Adobe Illustrator 25.0.0, SVG Export Plug-In  -->
<svg version="1.1" xmlns="http://www.w3.org/2000/svg" xmlns:xlink="http://www.w3.org/1999/xlink" x="0px" y="0px" width="33.1px"
	 height="31.5px" viewBox="0 0 33.1 31.5" style="overflow:visible;enable-background:new 0 0 33.1 31.5;" xml:space="preserve">
<style type="text/css">
	.st0{fill:#E3809D;}
</style>
<defs>
</defs>
<path class="st0" d="M17.3,7.5c0.2-3.5,1.9-5.8,4.9-6.8c4.5-1.6,9.6-0.8,10.7,5.6c0.3,1.7,0.4,3.5,0.1,5.2c-1.1,5.4-2.3,10.7-3.8,16
	c-1.2,4.2-2.8,4.8-6.9,3.2c-4.6-1.8-8.8-4.4-12.8-7.3c-2.2-1.7-4.6-3.4-6.4-5.5c-1.3-1.6-2.2-3.7-2.8-5.7c-1-3.8,1.5-6.1,4.3-8
	c2.6-1.8,5.3-1.9,8-0.2C14,4.9,15.5,6.2,17.3,7.5z"/>
</svg>
