<svg xmlns="http://www.w3.org/2000/svg" width="230.8" height="45.1" style="overflow:visible;enable-background:new 0 0 230.8 45.1" xml:space="preserve"><style>.st0{fill:#fff}</style><path class="st0" d="M64.2 19.4v-6.3c1.7-.3 3.3-.8 4.8-1.4 1.5-.6 2.9-1.5 4.2-2.7h6v29.8h-7.9V17.7c-1.2.4-2.3.8-3.5 1.1-1.3.3-2.4.5-3.6.6z"/><path d="M17.2 11.7c-1.5.6-3.1 1.1-4.8 1.4v6.3c1.2-.2 2.3-.4 3.5-.7 1.2-.3 2.3-.7 3.5-1.1v21.1h7.9V9h-6c-1.2 1.2-2.6 2.1-4.1 2.7z" style="fill:none"/><path class="st0" d="M90.9 2.7H55.1c-1.8 0-3.3 1.5-3.3 3.3v13.2h1.4V6c0-1.1.9-1.9 1.9-1.9h35.8c1.1 0 1.9.9 1.9 1.9v35.8c0 1.1-.9 1.9-1.9 1.9H55.1c-1.1 0-1.9-.9-1.9-1.9V28.5h-1.4v13.3c0 1.8 1.5 3.3 3.3 3.3h35.8c1.8 0 3.3-1.5 3.3-3.3V6c.1-1.8-1.4-3.3-3.3-3.3z"/><path class="st0" d="M37.2 21.2h7.2v-7.5h5.4v7.5H57v5.3h-7.2V34h-5.4v-7.5h-7.2v-5.3z"/><path d="M42.4 19.2V6c0-1.8-1.5-3.3-3.3-3.3H3.3C1.5 2.7 0 4.2 0 6v35.8c0 1.8 1.5 3.3 3.3 3.3h35.8c1.8 0 3.3-1.5 3.3-3.3V28.5h-7.2v-9.3h7.2zM14 39l-4.1-3-4.1 3 1.6-4.9-4.1-3h5.1l1.6-4.9 1.6 4.9h5.1l-4.1 3L14 39zm13.3-.2h-7.9V17.7c-1.2.4-2.3.8-3.5 1.1-1.2.3-2.4.5-3.5.7v-6.3c1.7-.3 3.3-.8 4.8-1.4 1.5-.6 2.9-1.5 4.2-2.7h6v29.7z" style="fill:#ea82a4"/><path class="st0" d="M230.8 16.9v-4.1h-7.5V4.7H218l.1 20.1H212v12.1l-1.2-1c-.8-.7-2-.5-2.6.3l-1.8 2.2-2.9-2.4c-.8-.7-2-.5-2.6.3l-1.8 2.2-2.9-2.4c-.8-.7-2-.5-2.6.3l-4.5 5.5 1.9 1.5c.8.7 2 .5 2.6-.3l1.8-2.1 2.9 2.4c.8.7 2 .5 2.6-.3l1.8-2.1 2.9 2.4c.8.7 2 .5 2.6-.3l3.8-4.7v5.3h18.8V24.8h-7.6v-7.9h7.6zm-4.9 12.3v9.9h-9.1v-9.9h9.1z"/><path class="st0" d="M210.7 30.7h-7.4v-2.5h6v-4.1h-6v-2.7h7.1V4.7h-5.6l-3.4 4.1-6 7.3V8.8h2.9l3.4-4.1h-10.3v16.7h7.1v2.7h-6v4.1h6v2.5h-7.4v4.1h19.6v-4.1zm-7-17 1.5-1.8.9-1.1v6.6h-5.5l3.1-3.7zM101.19 32.6l3.43-4.17.31.254-3.43 4.17zM123.9 39v-3.2l12.8.1v-4.2l-12.8.1V29l14.8.1v-4.3c-.6.1-14.8.1-14.8.1v-1.5h-5.1v1.5h-4.4l-1 1.2-2.4 3h7.8v2.8l-10.1-.1-3.4 4.2 13.5-.1V39h-17.5v4.7H141V39h-17.1zM127 8.9h4.6V17h-10.8l-3.2 3.9h18.9V5h-4.3L127 8.9c0-.1 0-.1 0 0z"/><path class="st0" d="m104.7 25.9 3.1 2.5-3.3 4 .3.3 10-12.1 5.3-6.4.6-.8-7 5.1c-.5.3-1.1-.1-.9-.7l1.3-4-2.6 3.1h-.7v-8h4.6l-.1-.1-5.2-3.8h-4.3v15.9h2.6l-3.1 3.7-2.8 3.5.3.3 1.9-2.5z"/><path class="st0" d="m116.9 13.1 4.3-3.1 1.4 1 2.8 2.1-1.2-3.9-.4-1.1 4.3-3.1h-5.3l-1.6-5-1.6 5h-5.3l4.3 3.1zm66.7 23.6c-1.1-.9-2.1-1.7-3-2.7 2.5-3.9 4.5-8.6 5.9-14.2l-4.2-3.2h-2.5c1.3-4.3 2.2-7.3 2.7-9.1L178 4.3h-15.7v5.5h3.8c0 2.2-.1 4.6-.2 7-.1 2.4-.4 4.8-.7 7.1-.3 2.3-.8 4.6-1.4 6.8-.6 2.2-1.4 4.2-2.3 5.9l-.9 1.4c-.8 1.2-1.6 2.1-2.4 2.7 1.4 1.4 2.8 2.8 4.1 4.2 1.1-1.1 2.1-2.5 3.1-4.2.9 1.2 1.5 2.1 2 2.8.4.7.7 1.2.9 1.4 1.6-.8 3.2-1.7 4.7-2.7 1.5-1.1 2.8-2.3 4-3.6 2 2.2 4.4 4.2 7 6 .3-.6.7-1.5 1.3-2.6.6-1.1 1.1-2.1 1.6-2.8-1.1-.8-2.2-1.7-3.3-2.5zm-12.5-.5c-.9.7-1.8 1.4-2.6 1.9s-1.6.9-2.2 1.3c1.7-3.4 3-7.6 3.9-12.6.4 1.2.9 2.5 1.5 3.8.6 1.3 1.2 2.4 1.9 3.4-.8.7-1.6 1.4-2.5 2.2zm7.9-10.5c-.6 1.4-1.3 2.8-2.1 4-1.1-1.7-2.1-3.5-2.8-5.3-.7-1.9-1.3-3.8-1.7-5.9-.4-2-.7-4.2-.8-6.6V9.8h4.9c-.2.8-.4 1.7-.8 2.8-.3 1-.7 2-1.2 2.9-.5.9-.9 1.4-1.4 1.5l1.6 4.7h5.8c-.4 1.2-.9 2.5-1.5 4z"/><path class="st0" d="M157.3 36.2c-.8-.7-2-.5-2.6.3l-1.8 2.2-3-2.4c-.8-.7-2-.5-2.6.3l-4.5 5.5 1.9 1.6c.8.7 2 .5 2.6-.3l1.8-2.2 3 2.4c.8.7 2 .5 2.6-.3l4.5-5.5-1.9-1.6zm-5.8-1.9h6.3l1.3-1.6 2.7-3.3 2-2.4-3.8-3-4.2 5.1-.3.3h-5.2l6.1-7.3.7-.9 1.5-1.8 2.5-3.1 2.4-2.8-3.8-3.1-4.4 5.4-.5.5h-4.4l3.5-4.2 1.6-1.9 3.4-4.1-3.8-3.1-3.1 3.7-7.9 9.6v4.9h6.8l-6.8 8.2v4.9h5.1z"/></svg>