<!-- Generator: Adobe Illustrator 25.0.0, SVG Export Plug-In  -->
<svg version="1.1" xmlns="http://www.w3.org/2000/svg" xmlns:xlink="http://www.w3.org/1999/xlink" x="0px" y="0px" width="23.3px"
	 height="25.5px" viewBox="0 0 23.3 25.5" style="overflow:visible;enable-background:new 0 0 23.3 25.5;" xml:space="preserve">
<style type="text/css">
	.st0{fill:#FFAD00;}
</style>
<defs>
</defs>
<path class="st0" d="M13.2,22.8V21l7.5,0.1v-2.4l-7.5,0.1V17l8.6,0.1v-2.5c-0.4,0-8.6,0.1-8.6,0.1v-0.9h-3v0.9H7.7l-0.6,0.7
	L5.7,17h4.6v1.7l-5.9,0l-2,2.4l7.9,0v1.8L0,22.8v2.7h23.3v-2.7L13.2,22.8L13.2,22.8z"/>
<path class="st0" d="M15.1,5.2h2.7V10h-6.3l-1.9,2.3h3.6h6h1.4V2.9h-2.5L15.1,5.2C15.1,5.2,15.1,5.2,15.1,5.2z"/>
<path class="st0" d="M2,15.2l1.8,1.5L1.9,19l0.2,0.2l5.8-7.1L11,8.3l0,0l0.4-0.5l-4.1,3C7,11,6.6,10.8,6.7,10.5l0.8-2.3L6,10H5.6
	V5.2h2.7c0,0,0,0-0.1,0L5.2,2.9H2.6v9.3h1.5l-1.8,2.2l0,0l-1.7,2l0.2,0.2L2,15.2z"/>
<polygon class="st0" points="9.2,7.7 11.7,5.8 12.5,6.5 14.2,7.7 13.4,5.4 13.2,4.7 15.7,2.9 12.6,2.9 12.6,2.9 11.7,0 10.7,2.9 
	10.7,2.9 7.6,2.9 10.1,4.7"/>
	
</svg>
