<!-- Generator: Adobe Illustrator 25.0.0, SVG Export Plug-In  -->
<svg version="1.1" xmlns="http://www.w3.org/2000/svg" xmlns:xlink="http://www.w3.org/1999/xlink" x="0px" y="0px" width="106.5px"
	 height="113.3px" viewBox="0 0 106.5 113.3" style="overflow:visible;enable-background:new 0 0 106.5 113.3;"
	 xml:space="preserve">
<style type="text/css">
	.st0{fill:#E3809D;}
</style>
<defs>
</defs>
<g>
	<path class="st0" d="M27.4,72.5c-2.1,0.4-4.3,0.9-6.4,1.2c-4.3,0.5-6.3-1.8-4.4-5.8c1.2-2.6,3-5.1,5.1-7.2
		c4.6-4.6,9.5-8.9,14.3-13.2c1.2-1.1,1.5-2.1,0.7-3.5c-2.1-4-4.2-8-6.4-12c-1.3-2.4-2.9-4.8-4-7.3c-1.1-2.6,0.2-4.5,3-4.9
		c2.9-0.4,5.5,0.7,8,2c4.8,2.4,9.6,4.9,14.4,7.3c1.4,0.7,2.5,0.6,3.8-0.6c3.7-3.7,7.5-7.2,11.4-10.7c1.9-1.7,3.9-1.7,5.5,0.3
		c0.8,1,1.5,2.3,1.7,3.6c0.3,1.7,0.4,3.6,0.3,5.4c-0.2,4-0.6,8-0.8,12c0,0.7,0.5,1.8,1.2,2.2c5.1,2.7,10.3,5.2,15.4,7.9
		c1.3,0.7,2.6,1.7,3.7,2.7c1.7,1.6,2.5,3.5,1.9,5.9C95.1,60,93,60,91.3,60.3c-6.4,1.3-12.8,2.5-19.1,3.8c-0.6,0.1-1.3,0.9-1.4,1.5
		c-0.5,3.1-0.8,6.2-1.2,9.4c-0.7,5.2,0.1,10.5-2,15.5c-0.9,2.1-1.1,2.6-3.4,2.6c-2.4,0-4.2-0.9-5.4-3c-1.7-2.9-3.5-5.9-5-8.9
		c-1.7-3.3-3.1-6.7-4.6-10.1c-0.7-1.7-1.6-2.4-3.6-2C39.5,70.4,33.4,71.4,27.4,72.5C27.4,72.5,27.4,72.5,27.4,72.5z M64.4,27.1
		c-2.7,2.8-5.5,5.6-8.1,8.5c-1.5,1.7-2.9,1.4-4.5,0.4c-4.6-2.8-9.2-5.5-13.8-8.1c-1.5-0.9-3-1.6-4.5-2.4c-0.2,0.1-0.3,0.2-0.5,0.4
		c0.4,1,0.7,2.1,1.2,3.1c2.5,5,5,9.9,7.5,14.9c0.1,0.1,0.1,0.2,0.2,0.3c1.2,3.2,1.2,3.2-1.3,5.5c-5.1,4.7-10.3,9.3-15.4,14
		c-1.1,1-2.9,2.1-2.1,3.7c0.3,0.6,2.6,0.6,3.8,0.4c5.6-1,11.2-2.2,16.8-3.3c0.2,0,0.4-0.1,0.6-0.1c5.4-0.8,5.5-0.9,8,3.8
		c2.8,5.3,5.5,10.8,8.2,16.2c0.5,0.9,1,1.9,1.6,2.7c0.9,1.2,1.9,1,2.4-0.4c0.2-0.5,0.2-1.1,0.3-1.6c0.6-7.7,1.2-15.4,1.7-23.1
		c0.1-1.3,0.6-2.1,1.9-2.3c5.4-1,10.8-2.1,16.2-3.1c1.9-0.3,3.8-0.4,5.7-0.5c0.1-0.2,0.2-0.3,0.2-0.5c-0.9-0.6-1.7-1.3-2.6-1.7
		c-5.6-2.8-11.2-5.6-16.9-8.1c-1.9-0.9-2.4-2.1-2.3-3.9c0.4-5,0.7-10,1.1-15c0.1-1.5,0.1-3.1,0.2-4.6c-0.2-0.1-0.5-0.3-0.7-0.4
		C67.7,23.5,66.1,25.3,64.4,27.1z"/>
	<path class="st0" d="M40.3,83c-1.2,1.8-2.4,3.4-3.4,5.1c-3.5,6.3-6.9,12.6-10.2,19c-0.7,1.3-1,2.9-1.2,4.4
		c-0.1,0.6,0.5,1.3,1.1,1.8c0.2,0.1,1.2-0.4,1.5-0.8c1.9-2.9,3.9-5.7,5.5-8.8c2.7-5.5,5.2-11.1,7.7-16.7C42,85.6,42,84.2,40.3,83z"
		/>
	<path class="st0" d="M83.2,78.6c0.7,0.9,1.1,1.7,1.7,2.4c5,5.1,10,10.3,15.1,15.3c2.8,2.7,3.2,2.6,6.6-0.1c-1-1.1-1.9-2.4-3-3.4
		c-5-4.3-10-8.5-15.1-12.6C87,79.1,85.4,78.3,83.2,78.6z"/>
	<path class="st0" d="M2,36.4c-0.6,0.5-2,1.1-2,1.8c0,0.9,0.8,2.2,1.7,2.7C3.3,41.8,5.1,42.6,7,43c4.6,1,9.3,1.8,14,2.6
		c0.5,0.1,1.2,0.2,1.6,0c0.5-0.3,1-0.8,1.3-1.4c0.1-0.2-0.5-1-0.8-1.1c-6.2-2.2-12.4-4.4-18.6-6.5C3.9,36.4,3.2,36.5,2,36.4z"/>
	<path class="st0" d="M82.8,36.8c5-2.2,9.3-5.3,13.5-8.5c1.5-1.1,2.8-2.6,4.3-3.8c1.1-0.9,1.2-2.1,0.3-2.9c-0.5-0.4-1.9-0.3-2.6,0.1
		c-2,1.1-3.9,2.4-5.7,3.8c-3.1,2.4-6.1,5-9.2,7.5C82.2,34.1,81.9,35.2,82.8,36.8z"/>
	<path class="st0" d="M48.7,10.4c0.2,1.7,0.4,3.4,0.7,5.1c0.2,1,0.4,2.2,1.9,2.1c1.5-0.1,1.6-1.2,1.6-2.3c-0.3-4.4-0.6-8.7-0.9-13.1
		c0-0.4-0.1-0.9-0.3-1c-0.7-0.5-1.4-1.1-2.2-1.2c-0.4,0-1.3,1-1.3,1.5c-0.1,3,0.1,5.9,0.2,8.9C48.4,10.4,48.5,10.4,48.7,10.4z"/>
</g>
</svg>
