<!-- Generator: Adobe Illustrator 25.0.0, SVG Export Plug-In  -->
<svg version="1.1" xmlns="http://www.w3.org/2000/svg" xmlns:xlink="http://www.w3.org/1999/xlink" x="0px" y="0px" width="370.5px"
	 height="96.1px" viewBox="0 0 370.5 96.1" style="overflow:visible;enable-background:new 0 0 370.5 96.1;" xml:space="preserve">
<style type="text/css">
	.st0{fill:#E3809D;}
	.st1{fill:#FFFFFF;}
	.st2{fill:#FFE07F;}
</style>
<defs>
</defs>
<g>
	<g>
		<path class="st0" d="M14.1,59l1.9-1.3c0.6,0.6,1.3,1.6,2.4,2.9c1,1.4,1.9,2.7,2.7,4c-0.6,0.4-1.7,1.3-3.4,2.6
			c-0.4-0.9-1-1.9-1.7-3s-1.3-2.1-1.9-2.9l0,14.1c0,0.6,0,1.2,0.1,2H9.6c0.1-0.7,0.1-1.4,0.1-2c0-2.3,0.1-7,0.2-14
			c-0.9,2.1-1.8,4-2.9,5.8c-1.1,1.8-2.2,3.2-3.3,4.3c-0.1-0.4-0.4-0.9-0.8-1.7s-1-1.6-1.7-2.5c1.3-1.2,2.7-2.8,4.1-4.9
			c1.4-2,2.5-4.1,3.3-6.1H4.4c-1.1,0-1.9,0-2.3,0v-4.2c0.5,0,1.2,0,2.3,0h5.3v-4.5c-1.8,0.4-3.5,0.8-5.4,1.1c-0.8-1.8-1.4-3-1.8-3.7
			c1.1-0.1,2.6-0.4,4.3-0.7c1.7-0.3,3.6-0.8,5.5-1.4c1.9-0.6,3.5-1.2,4.6-1.8l2.9,3.3c-0.6,0.2-1,0.3-1,0.3c-1.5,0.6-3,1.1-4.7,1.7
			v5.7h3.3c1.1,0,1.9,0,2.3,0v4.2c-0.5,0-1.2,0-2.3,0h-3.3V59z M36.7,48.1V74l0.1,2.4h-4.6v-3.1h-6.4v3.1h-4.5
			c0.1-0.9,0.1-1.7,0.1-2.4V48c0-0.7,0-1.4-0.1-2.4h15.5L36.7,48.1z M25.8,69.1h6.4V49.9h-6.4V69.1z"/>
		<path class="st0" d="M51.4,50.6v24.7c0,0.7,0,1.5,0.1,2.4h-4.7c0.1-1,0.1-1.8,0.1-2.4c0-2.2,0.1-5,0.2-8.5s0.3-6.6,0.4-9.4
			c-1,1.9-2,3.4-2.8,4.3c-0.4-1-1.2-2.6-2.2-4.8c0.9-1,1.9-2.3,2.9-4c1-1.7,2-3.6,2.9-5.8c0.9-2.2,1.6-4.2,2.1-5.9l4.3,1.4l-0.2,0.4
			c-0.3,1-0.7,2.1-1.2,3.5C52.7,47.7,52.1,49.1,51.4,50.6z M62,58.7c-0.1,0.1-0.2,0.4-0.3,0.8c-1.3,5.2-3,9.2-4.9,12.2
			c-0.5-0.6-1.7-1.7-3.5-3.2c0.8-1,1.5-2.2,2.2-3.7c0.7-1.5,1.3-2.9,1.8-4.3c0.5-1.4,0.8-2.5,1-3.4L62,58.7z M56.7,57.1
			c-0.2-0.3-0.6-0.8-1.2-1.4c-0.6-0.6-1.2-1.3-1.9-1.9c0.9-1.1,1.7-2.5,2.4-4.2c0.8-1.7,1.3-3.3,1.7-4.8c0.4-1.5,0.6-2.8,0.7-3.8
			l4.2,0.8c-0.1,0.2-0.2,0.3-0.2,0.5c-0.2,1.2-0.5,2.5-0.9,4h13.9l0.4-0.4c0.5,0.3,1.1,0.7,1.8,1.2c0.7,0.5,1.2,0.9,1.6,1.3
			l-0.4,0.2c-0.5,1.5-1,3-1.5,4.3c-0.6,1.4-1,2.3-1.3,2.9s-0.5,1-0.6,1.2c-0.4-0.3-0.9-0.8-1.7-1.2c-0.7-0.5-1.4-0.8-1.9-1.1
			c0.6-1,1.1-1.9,1.5-2.7c0.4-0.8,0.6-1.3,0.7-1.6H60.2c-0.5,1.2-1,2.3-1.6,3.5C57.9,55.2,57.3,56.2,56.7,57.1z M68.7,52.7
			c-0.1,0.4-0.1,0.7-0.1,1V70l0.1,3.1c0,2.9-2.8,4.3-8.4,4.3c-0.6-1.4-1.3-2.9-2.2-4.5c1.2,0.2,2.4,0.3,3.5,0.3c0.9,0,1.6-0.1,2-0.3
			c0.4-0.2,0.6-0.5,0.6-0.9V70V53.6l-0.1-1.1c0.1,0,0.6,0,1.5,0.1c0.9,0,1.6,0.1,2.1,0.1C68.2,52.6,68.5,52.7,68.7,52.7z M74.1,57.1
			c0.7,1.3,1.4,2.8,2.1,4.4c0.7,1.6,1.4,3.1,1.9,4.4c0.5,1.3,1,2.3,1.3,3.1l-3.5,2.7c-1.1-3.5-2.9-7.8-5.1-12.9L74.1,57.1z"/>
		<path class="st1" d="M101.2,58.6v17c0,0.9,0,1.5,0.1,1.8h-4.1c0.1-0.3,0.1-0.9,0.1-1.8v-2l-11,2l-1.8,0.4l-1.2-4l2.5-0.2l1.4-0.2
			V58.6c-1.5,0-2.6,0-3.1,0.1v-3.7c0.7,0.1,1.9,0.1,3.6,0.1h28.3c1.8,0,2.9,0,3.6-0.1v3.7c-0.6-0.1-1.8-0.1-3.6-0.1H101.2z
			 M88.7,53.2c0.1-0.5,0.1-0.9,0.1-1.3v-8.8c0-0.4,0-0.8-0.1-1.3h25.7l0,1.3V52l0,1.3h-4.5v-8.1H93.3v8.1H88.7z M97.3,60.7v-2.2
			h-6.2v2.2H97.3z M91.1,63.7v1.9h6.2v-1.9H91.1z M91.1,71.1l6.2-1.2v-1.3h-6.2V71.1z M108.9,46.4v2.8l-1.7,0H96.4l-1.7,0v-2.8
			c0.3,0,0.9,0,1.7,0h10.7L108.9,46.4z M96.4,50.5h10.7l1.7,0v2.8l-1.7,0H96.4l-1.7,0v-2.8C95.1,50.5,95.6,50.5,96.4,50.5z
			 M120.4,73.6c-0.3,0.6-0.6,1.2-1,2c-0.4,0.8-0.6,1.4-0.8,1.8c-1.4-0.4-2.8-1-4.1-1.6c-1.4-0.7-2.5-1.3-3.5-2.1
			c-1,0.7-2.1,1.4-3.3,1.9s-2.5,1-3.9,1.4c-0.2-0.4-0.5-1-0.9-1.8c-0.5-0.8-0.8-1.4-1.2-2c1.2-0.2,2.3-0.6,3.4-1
			c1.1-0.4,2.1-0.9,3-1.4c-0.7-0.9-1.4-2-2-3.1c-0.6-1.1-1.1-2.3-1.5-3.5h-0.4c-0.9,0-1.5,0-1.9,0v-3.6l1.9,0h11.4l0.4-0.4
			c1,0.7,1.9,1.4,2.8,2.2l-0.4,0.2c-1,3.3-2.4,6-4.4,8.2C115.7,72,117.8,72.9,120.4,73.6z M108.4,64.4c0.4,1.1,0.8,1.9,1.3,2.7
			c0.5,0.7,0.9,1.3,1.3,1.7c0.6-0.6,1.2-1.3,1.7-2.1c0.5-0.7,0.9-1.5,1.2-2.3H108.4z"/>
		<path class="st1" d="M127,42.8h13.7c1,0,1.8,0,2.2,0v3.9c-0.5,0-1.2,0-2.2,0h-2.8v3.7h4.6l-0.1,2v22.8l0.1,2h-3.7V75h-9.6v2.1
			h-3.6c0.1-0.7,0.1-1.4,0.1-2V52.3c0-0.5,0-1.2-0.1-2h4.6v-3.7H127c-1.1,0-1.8,0-2.3,0v-3.9C125.1,42.8,125.9,42.8,127,42.8z
			 M129.2,71.5h9.6v-9.1l-1.2,0c-1.2,0-2-0.2-2.4-0.5c-0.4-0.3-0.6-1-0.6-2v-6.1h-1.5v0.7c0,2.2-0.2,4.1-0.7,5.9s-1.1,3.1-1.8,4
			c-0.5-0.8-1-1.6-1.6-2.4V71.5z M130.8,53.8h-1.7v7.6c0.5-0.9,0.9-1.9,1.2-3.1S130.8,55.7,130.8,53.8z M135.7,65.6
			c1,0,1.8,0,2.2-0.1V69c-0.4,0-1.2,0-2.2,0h-3.4c-1,0-1.8,0-2.2,0v-3.4c0.4,0.1,1.2,0.1,2.2,0.1H135.7z M134.8,50.3v-3.7h-1.5v3.7
			H134.8z M138.8,59.4v-5.5h-1.6v4.4c0,0.5,0.1,0.8,0.2,1c0.1,0.1,0.5,0.2,1,0.2H138.8z M157.1,66c1.8,1.2,3.2,2.1,4.1,2.6
			c-0.2,2.5-0.6,4.3-1.2,5.4c-0.7,1.1-1.6,1.8-2.8,2.2c-1.2,0.4-2.7,0.6-4.6,0.6c-1,0-2,0-2.9-0.1c-0.9-0.1-1.6-0.2-2.2-0.3
			c-0.6-0.1-1-0.3-1.4-0.6c-0.5-0.4-0.8-0.9-1-1.6s-0.3-1.7-0.3-3c0-0.7,0-5.8,0-15.5c0-0.3,0-0.6-0.1-0.9h9.9V47h-8.5l-1.8,0v-4.2
			l1.8,0h13l0,1.7v14.7l0,1.7h-4.5v-2.2h-5.6v12.4c0,0.6,0.3,1,0.8,1.2c0.4,0.1,1.4,0.1,2.9,0.1c0.9,0,1.5-0.1,2-0.2
			c0.5-0.1,0.9-0.4,1.2-0.7c0.3-0.4,0.5-1,0.7-1.8C157,68.8,157.1,67.6,157.1,66z"/>
		<path class="st0" d="M200.7,46.7c-0.1,0.5-0.1,1-0.1,1.4c0,7-0.1,12.3-0.3,16c-0.2,3.7-0.7,6.4-1.4,8.2c-0.3,0.8-0.7,1.5-1.2,2
			c-0.5,0.5-1,0.9-1.6,1.3c-0.6,0.3-1.3,0.6-2,0.8c-0.8,0.2-1.6,0.4-2.6,0.5c-1,0.1-2,0.2-3.2,0.2c0-0.2-0.1-0.5-0.3-1.1
			c-0.2-0.5-0.6-1.9-1.4-4c0.9,0.2,2,0.4,3.1,0.4c1.4,0,2.6-0.2,3.3-0.6c0.8-0.4,1.4-1.1,1.8-2.1c0.5-1.1,0.8-3.1,0.9-6
			c0.2-2.9,0.3-7.2,0.3-12.8H187c-0.4,0.8-0.9,1.8-1.5,2.8c-0.6,1-1.3,2-2,3c-0.2-0.2-0.6-0.6-1.1-1.1c-0.5-0.5-1.2-1-2-1.7v17
			l0.1,2.1h-4.3v-1.7h-5.3v3.3h-4.4c0.1-0.8,0.1-1.6,0.1-2.3V48.9c0-0.6,0-1.4-0.1-2.2h4.3c0.2-0.8,0.5-1.8,0.7-2.9
			c0.2-1.1,0.3-2,0.4-2.6l4.6,0.6c-0.1,0.2-0.2,0.4-0.3,0.6c-0.4,1.7-0.8,3.1-1.2,4.3h5.5l-0.1,2.1V53c1.1-1.3,2.1-3.1,3.1-5.3
			c1-2.2,1.7-4.4,2.1-6.6L190,42l-0.2,0.5c-0.4,1.7-0.8,3.2-1.2,4.3H200.7z M176.2,50.5h-5.3v6.3h5.3V50.5z M170.9,67.4h5.3v-6.8
			h-5.3V67.4z M192.8,64l-3.9,2.4c-0.2-0.6-0.6-1.3-1.1-2.3c-0.5-0.9-1.1-2-1.8-3c-0.7-1.1-1.3-2-1.8-2.7l3.5-2.2
			c0.3,0.3,0.7,0.9,1.3,1.7s1.2,1.7,1.9,2.9C191.5,61.8,192.2,62.9,192.8,64z"/>
		<path class="st0" d="M238.3,72.6c1.8,0,3,0,3.7,0v4.1c-0.7-0.1-1.9-0.1-3.7-0.1h-27.8c-1.8,0-3,0-3.7,0.1v-4.1c0.7,0,1.9,0,3.7,0
			h11.9v-2.8h-7.3c-1.3,0-2.2,0-2.8,0.1v-3.7c-0.7,0.8-1.6,1.7-2.7,2.8c-0.4-0.5-1.5-1.6-3.3-3.4c0.6-0.5,1.4-1.1,2.4-2.1
			c1-0.9,1.9-2,2.9-3.3c0.9-1.3,1.6-2.5,2-3.6h-1.5c0.1-0.5,0.1-1,0.1-1.4V44c0-0.5,0-0.9-0.1-1.5h25l0,1.5v11.2l0,1.4h-23.4
			l4.2,1.1c-0.1,0.1-0.1,0.2-0.3,0.5c-0.2,0.6-0.5,1.2-0.9,1.9h5.8v-1.4c0-0.4,0-0.9-0.1-1.4c2.9,0.1,4.4,0.2,4.6,0.2
			c-0.1,0.5-0.1,0.9-0.1,1.2v1.4h10.1c1.4,0,2.4,0,3-0.1v3.8c-0.6-0.1-1.6-0.1-3-0.1h-10.1v2.5h8.5c1.4,0,2.3,0,2.8-0.1v3.7
			c-0.5-0.1-1.5-0.1-2.8-0.1h-8.5v2.8H238.3z M215.1,66.2h7.3v-2.5h-8.1c-0.4,0.5-1.1,1.3-2,2.4C212.8,66.2,213.8,66.2,215.1,66.2z
			 M232.5,45.9h-16.1v2h16.1V45.9z M216.4,53.1h16.1V51h-16.1V53.1z"/>
		<path class="st0" d="M246.8,75.5c0.2-0.5,0.4-1.3,0.7-2.4c0.3-1,0.5-2.2,0.7-3.5c0.2-1.3,0.3-2.3,0.3-3l3.1,0.6
			c-0.1,1.6-0.2,3.4-0.5,5.2c-0.2,1.8-0.5,3.4-0.9,4.8L246.8,75.5z M249.5,55.5l-1.4,0.2l-0.9-3.4c0.4-0.1,0.7-0.4,0.9-0.7
			c0.7-1.1,1.5-2.3,2.4-3.8c0.8-1.5,1.5-2.8,2.1-4c0.6-1.2,1-2.2,1.3-2.9l3.5,2.2l-0.4,0.7c-0.6,1.2-1.3,2.6-2.3,4.2
			c-0.9,1.6-1.8,2.8-2.5,3.8l3.4-0.4c1.2-1.9,2.2-3.6,2.8-4.9l3.3,2.4l-0.5,0.7c-2.7,4.4-5.5,8.3-8.5,11.7l4.4-0.8
			c-0.4-1.1-0.7-2-1-2.6l3.1-0.9c0.5,1,1,2.2,1.5,3.7c0.5,1.5,0.9,2.8,1.2,3.8l-3.4,1c-0.1-0.3-0.2-0.9-0.4-1.9l-8.1,1.4l-1.6,0.4
			l-1-3.7c0.5-0.2,0.9-0.4,1.1-0.8c1.5-1.6,3.1-3.7,4.8-6.2L249.5,55.5z M252.8,67.1l3-0.4c0.3,1.2,0.5,2.6,0.8,4.2
			c0.3,1.6,0.5,2.9,0.6,4.1l-3.5,0.4C253.5,72.4,253.2,69.7,252.8,67.1z M277.9,68.7c0.8,0.8,1.7,1.6,2.7,2.4c1,0.8,2.1,1.6,3.2,2.3
			c-0.2,0.3-0.5,0.7-0.8,1.4c-0.4,0.6-0.7,1.2-0.9,1.7c-0.3,0.5-0.5,0.9-0.6,1.1c-1.2-0.8-2.3-1.7-3.4-2.6c-1-0.9-2-1.9-2.9-2.9
			c-2.3,2.5-5,4.4-8,5.8c-0.2-0.4-1-1.6-2.5-3.5c-0.8,1.3-1.7,2.5-2.7,3.5c-1.2-1.3-2.3-2.4-3.3-3.3c1-0.8,1.8-1.7,2.6-2.8l-2.5,0.8
			c-0.1-0.7-0.3-1.7-0.6-2.8c-0.3-1.1-0.6-2.2-1-3.3l2.6-0.7c0.3,0.7,0.7,1.5,1,2.4c0.3,0.9,0.6,1.9,0.8,2.8
			c1.5-2.4,2.5-5.6,3.2-9.6c0.7-4,1.1-8.9,1.1-14.7h-1.4l-2,0v-4.1l2,0h11.4l0.4-0.4c1,0.7,2.2,1.5,3.4,2.6
			c-0.1,0.1-0.1,0.1-0.2,0.1c-0.1,0-0.2,0.1-0.2,0.1c-0.3,1.1-0.6,2.5-1.1,4.1c-0.5,1.6-0.9,3.1-1.3,4.4h3.1l0.4-0.4
			c0.7,0.5,1.3,0.9,2,1.5c0.6,0.5,1,0.9,1.2,1.1l-0.4,0.2c-0.6,2.3-1.3,4.5-2.2,6.7C280.1,65,279.1,66.9,277.9,68.7z M264.9,74
			c2.7-1.2,5.2-3.1,7.6-5.5c-0.7-1.1-1.3-2.2-1.9-3.5c-0.6-1.3-1.1-2.6-1.5-3.9C268.2,66.4,266.8,70.7,264.9,74z M278.7,57.5h-3.6
			c-0.2,0-0.5,0-0.9,0.1c-0.4,0-0.7,0.1-0.9,0.1l-1.4-3.7c0.3-0.1,0.7-0.5,1-1c0.4-0.6,0.7-1.4,1.1-2.5c0.3-1.1,0.7-2.3,0.9-3.6
			h-4.7l0,1.5c0.1,3.6,0.6,6.9,1.5,9.6c0.9,2.8,2,5.3,3.5,7.4c0.8-1.1,1.5-2.4,2.2-3.8C277.9,60.1,278.4,58.7,278.7,57.5z"/>
		<path class="st0" d="M322.4,45.1V70l0.1,3.3c0,0.6-0.1,1.2-0.4,1.7c-0.3,0.5-0.7,0.9-1.3,1.3c-0.6,0.4-1.3,0.6-2.2,0.8
			c-0.9,0.2-1.9,0.3-3,0.3c-0.5-1.2-1.1-2.7-1.9-4.5c0.9,0.1,1.8,0.2,2.6,0.2c0.5,0,0.9-0.1,1.3-0.2c0.4-0.1,0.5-0.4,0.5-0.9v-2V65
			h-5.8c-0.3,2.8-0.9,5.3-1.6,7.5c-0.7,2.2-1.5,3.9-2.5,5.1c-0.3-0.3-1-1-2-1.9c-1-0.9-1.5-1.4-1.7-1.5c-0.1,0.6-0.5,1.2-1,1.7
			c-0.5,0.5-1.3,0.9-2.3,1.2c-1,0.3-2.1,0.4-3.4,0.4c-0.4-1.1-1-2.6-1.9-4.5c0.9,0.1,1.7,0.2,2.5,0.2c0.5,0,0.9-0.1,1.3-0.2
			c0.3-0.1,0.5-0.4,0.5-0.9v-2v-5H295c-0.3,2.8-0.9,5.3-1.6,7.5c-0.7,2.2-1.5,3.9-2.5,5.2c-0.5-0.5-1.7-1.5-3.6-3.2
			c1.2-1.6,2.1-3.8,2.8-6.7c0.7-2.8,1-6.2,1-10.1V44.2c0-0.3,0-0.8-0.1-1.3h13.5l-0.1,2.2v25l0.1,3.4l0,0.6c0.7-1,1.3-2.1,1.8-3.4
			s0.9-2.5,1.1-3.7c0.3-1.2,0.5-2.6,0.6-4.1c0.2-1.5,0.2-3.2,0.2-5.2V44.2c0-0.3,0-0.8-0.1-1.3h14.2
			C322.4,43.9,322.4,44.7,322.4,45.1z M295.3,61.1h4.9v-5h-4.8v1.8L295.3,61.1z M300.2,47h-4.8v5.1h4.8V47z M312.5,61h5.5v-4.9h-5.4
			v1.7L312.5,61z M318,47h-5.4v5.1h5.4V47z"/>
		<path class="st0" d="M363.2,45.1V70l0.1,3.3c0,0.6-0.1,1.2-0.4,1.7c-0.3,0.5-0.7,0.9-1.3,1.3c-0.6,0.4-1.3,0.6-2.2,0.8
			c-0.9,0.2-1.9,0.3-3,0.3c-0.5-1.2-1.1-2.7-1.9-4.5c0.9,0.1,1.8,0.2,2.6,0.2c0.5,0,0.9-0.1,1.3-0.2c0.4-0.1,0.5-0.4,0.5-0.9v-2V65
			h-5.8c-0.3,2.8-0.9,5.3-1.6,7.5c-0.7,2.2-1.5,3.9-2.5,5.1c-0.3-0.3-1-1-2-1.9c-1-0.9-1.5-1.4-1.7-1.5c-0.1,0.6-0.5,1.2-1,1.7
			c-0.5,0.5-1.3,0.9-2.3,1.2c-1,0.3-2.1,0.4-3.4,0.4c-0.4-1.1-1-2.6-1.9-4.5c0.9,0.1,1.7,0.2,2.5,0.2c0.5,0,0.9-0.1,1.3-0.2
			c0.3-0.1,0.5-0.4,0.5-0.9v-2v-5h-5.2c-0.3,2.8-0.9,5.3-1.6,7.5c-0.7,2.2-1.5,3.9-2.5,5.2c-0.5-0.5-1.7-1.5-3.6-3.2
			c1.2-1.6,2.1-3.8,2.8-6.7c0.7-2.8,1-6.2,1-10.1V44.2c0-0.3,0-0.8-0.1-1.3h13.5l-0.1,2.2v25l0.1,3.4l0,0.6c0.7-1,1.3-2.1,1.8-3.4
			s0.9-2.5,1.1-3.7c0.3-1.2,0.5-2.6,0.6-4.1c0.2-1.5,0.2-3.2,0.2-5.2V44.2c0-0.3,0-0.8-0.1-1.3h14.2
			C363.3,43.9,363.2,44.7,363.2,45.1z M336.2,61.1h4.9v-5h-4.8v1.8L336.2,61.1z M341,47h-4.8v5.1h4.8V47z M353.4,61h5.5v-4.9h-5.4
			v1.7L353.4,61z M358.9,47h-5.4v5.1h5.4V47z"/>
	</g>
	<path class="st2" d="M0.3,90.6C5.6,89.9,10.7,89,16,88.5c10.5-1,21-1.9,31.6-2.4c7-0.3,13.9,1.1,20.6,2.6c7,1.6,14.2,3.3,21.7,2.6
		c5.1-0.5,10.1-1.5,15-2.7c8.7-2.2,17.2-2.2,24.8,1.4c8.4,3.9,17.1,3.2,26,1.9c9.7-1.3,19.4-2.7,29.2-3.8c8.5-0.9,17-0.8,25.3,1.2
		c4,1,8.2,1.9,12.5,1.2c1.9-0.3,3.7-1,5.6-1.4c3-0.7,5.9-1.6,8.9-1.8c8.4-0.5,16.7-0.1,24.6,2.5c3.8,1.3,7.8,1,11.6-0.1
		c2.8-0.8,5.6-1.7,8.3-2.7c5.4-1.8,10.8-1.9,16.4-0.6c2,0.5,4,1,5.9,1.7c5.3,1.9,10.8,2.3,16.7,1.9c15.2-1.1,30.4-1.8,45.7-1.3
		c1.5,0.1,3.4-0.2,4.4,1.7c-4.1,0.4-7.9,0.7-11.7,1c-8.3,0.5-16.5,1-24.8,1.4c-7.2,0.4-14.5,1.2-21.6,0.1c-4-0.6-8-1.8-11.8-3
		c-4.5-1.4-8.8-1.3-13.2,0.2c-3.5,1.2-7,2.4-10.8,3.1c-6.2,1.2-12.2,0.1-18.1-1.6c-7.5-2.1-15.3-2.2-22.5-0.2
		c-7.8,2.2-15.1,2.8-23.1,0.9c-11-2.6-22.1-1.9-33.2-0.3c-9.2,1.3-18.5,2.6-27.8,3.6c-7.9,0.8-15.6,0.2-22.4-3
		c-5.8-2.7-11.7-3-18-1.2c-8.4,2.4-17,3.9-26.1,2.7c-6-0.8-11.9-1.9-17.7-3.1c-9.9-2-19.9-2.5-30.1-1.5c-10.1,1-20.2,2-30.3,2.9
		c-1.7,0.2-3.5,0-5.2-0.2c-0.8-0.1-1.4-0.7-2.1-1.1C0.1,91.1,0.2,90.8,0.3,90.6z"/>
	<g>
		<path class="st2" d="M117.8,11.4c0.3-3.1,0.6-6.2,1.1-9.2c0.4-2,1.6-2.6,3.3-1.8c0.6,0.3,1.3,1.2,1.4,1.8
			c0.6,7.2-0.4,14.2-1.8,21.2c-0.1,0.4-0.7,1-1.1,1c-1,0-2-0.3-2-1.6c-0.2-3.5-0.4-7.1-0.6-10.6c0-0.2,0-0.5,0-0.7
			C118,11.4,117.9,11.4,117.8,11.4z"/>
		<path class="st2" d="M144.6,15.1c-0.7,1.2-1.1,2.3-1.8,3.1c-1.6,1.9-3.4,3.7-5.1,5.5c-0.2,0.3-0.5,0.6-0.8,0.7
			c-1,0.2-2.1,0.3-3.1,0.4c0.1-1-0.2-2.1,0.2-2.9c1.6-2.5,3.4-4.9,5.2-7.3c0.9-1.1,2.1-1.8,3.6-1.1C143.5,13.9,144,14.5,144.6,15.1z
			"/>
		<path class="st2" d="M106,27.8c-1.4-0.8-2.7-1.1-3.3-2c-1.6-2.5-3.1-5.2-4.3-8c-0.8-1.8,0.2-2.7,2.1-2.2c0.7,0.2,1.6,0.6,2,1.2
			C104.8,19.9,106.1,23.3,106,27.8z"/>
		<path class="st2" d="M161,24.3c-0.6,3.2-5.1,5.9-8.4,5.1C152.4,26,157.4,23,161,24.3z"/>
		<path class="st2" d="M86.1,29.8c-2.9,0-6.2-2.2-7.2-4.9C81.3,24.5,85,27,86.1,29.8z"/>
	</g>
</g>
</svg>
