<svg xmlns="http://www.w3.org/2000/svg" width="370.5" height="96.1" style="overflow:visible;enable-background:new 0 0 370.5 96.1" xml:space="preserve"><style>.st0{fill:#e3809d}</style><path class="st0" d="m14.1 59 1.9-1.3c.6.6 1.3 1.6 2.4 2.9 1 1.4 1.9 2.7 2.7 4-.6.4-1.7 1.3-3.4 2.6-.4-.9-1-1.9-1.7-3s-1.3-2.1-1.9-2.9v14.1c0 .6 0 1.2.1 2H9.6c.1-.7.1-1.4.1-2 0-2.3.1-7 .2-14-.9 2.1-1.8 4-2.9 5.8-1.1 1.8-2.2 3.2-3.3 4.3-.1-.4-.4-.9-.8-1.7s-1-1.6-1.7-2.5c1.3-1.2 2.7-2.8 4.1-4.9 1.4-2 2.5-4.1 3.3-6.1H2.1v-4.2h7.6v-4.5c-1.8.4-3.5.8-5.4 1.1-.8-1.8-1.4-3-1.8-3.7 1.1-.1 2.6-.4 4.3-.7 1.7-.3 3.6-.8 5.5-1.4 1.9-.6 3.5-1.2 4.6-1.8l2.9 3.3c-.6.2-1 .3-1 .3-1.5.6-3 1.1-4.7 1.7v5.7h5.6v4.2h-5.6V59zm22.6-10.9V74l.1 2.4h-4.6v-3.1h-6.4v3.1h-4.5c.1-.9.1-1.7.1-2.4V48c0-.7 0-1.4-.1-2.4h15.5l-.1 2.5zm-10.9 21h6.4V49.9h-6.4v19.2zm25.6-18.5v24.7c0 .7 0 1.5.1 2.4h-4.7c.1-1 .1-1.8.1-2.4 0-2.2.1-5 .2-8.5s.3-6.6.4-9.4c-1 1.9-2 3.4-2.8 4.3-.4-1-1.2-2.6-2.2-4.8.9-1 1.9-2.3 2.9-4 1-1.7 2-3.6 2.9-5.8.9-2.2 1.6-4.2 2.1-5.9l4.3 1.4-.2.4c-.3 1-.7 2.1-1.2 3.5-.6 1.2-1.2 2.6-1.9 4.1zM62 58.7c-.1.1-.2.4-.3.8-1.3 5.2-3 9.2-4.9 12.2-.5-.6-1.7-1.7-3.5-3.2.8-1 1.5-2.2 2.2-3.7.7-1.5 1.3-2.9 1.8-4.3s.8-2.5 1-3.4l3.7 1.6zm-5.3-1.6c-.2-.3-.6-.8-1.2-1.4-.6-.6-1.2-1.3-1.9-1.9.9-1.1 1.7-2.5 2.4-4.2.8-1.7 1.3-3.3 1.7-4.8.4-1.5.6-2.8.7-3.8l4.2.8c-.1.2-.2.3-.2.5-.2 1.2-.5 2.5-.9 4h13.9l.4-.4c.5.3 1.1.7 1.8 1.2s1.2.9 1.6 1.3l-.4.2c-.5 1.5-1 3-1.5 4.3-.6 1.4-1 2.3-1.3 2.9l-.6 1.2c-.4-.3-.9-.8-1.7-1.2-.7-.5-1.4-.8-1.9-1.1.6-1 1.1-1.9 1.5-2.7.4-.8.6-1.3.7-1.6H60.2c-.5 1.2-1 2.3-1.6 3.5-.7 1.3-1.3 2.3-1.9 3.2zm12-4.4c-.1.4-.1.7-.1 1V70l.1 3.1c0 2.9-2.8 4.3-8.4 4.3-.6-1.4-1.3-2.9-2.2-4.5 1.2.2 2.4.3 3.5.3.9 0 1.6-.1 2-.3.4-.2.6-.5.6-.9V53.6l-.1-1.1c.1 0 .6 0 1.5.1.9 0 1.6.1 2.1.1.5-.1.8 0 1 0zm5.4 4.4c.7 1.3 1.4 2.8 2.1 4.4.7 1.6 1.4 3.1 1.9 4.4.5 1.3 1 2.3 1.3 3.1l-3.5 2.7c-1.1-3.5-2.9-7.8-5.1-12.9l3.3-1.7z"/><path d="M101.2 58.6v17c0 .9 0 1.5.1 1.8h-4.1c.1-.3.1-.9.1-1.8v-2l-11 2-1.8.4-1.2-4 2.5-.2 1.4-.2v-13c-1.5 0-2.6 0-3.1.1V55c.7.1 1.9.1 3.6.1H116c1.8 0 2.9 0 3.6-.1v3.7c-.6-.1-1.8-.1-3.6-.1h-14.8zm-12.5-5.4c.1-.5.1-.9.1-1.3v-8.8c0-.4 0-.8-.1-1.3h25.7v11.5h-4.5v-8.1H93.3v8.1h-4.6zm8.6 7.5v-2.2h-6.2v2.2h6.2zm-6.2 3v1.9h6.2v-1.9h-6.2zm0 7.4 6.2-1.2v-1.3h-6.2v2.5zm17.8-24.7v2.8H94.7v-2.8h14.2zm-12.5 4.1h12.4v2.8H94.7v-2.8h1.7zm24 23.1-1 2c-.4.8-.6 1.4-.8 1.8-1.4-.4-2.8-1-4.1-1.6-1.4-.7-2.5-1.3-3.5-2.1-1 .7-2.1 1.4-3.3 1.9s-2.5 1-3.9 1.4l-.9-1.8c-.5-.8-.8-1.4-1.2-2 1.2-.2 2.3-.6 3.4-1s2.1-.9 3-1.4c-.7-.9-1.4-2-2-3.1-.6-1.1-1.1-2.3-1.5-3.5h-2.3v-3.6h13.3l.4-.4c1 .7 1.9 1.4 2.8 2.2l-.4.2c-1 3.3-2.4 6-4.4 8.2 1.7 1.2 3.8 2.1 6.4 2.8zm-12-9.2c.4 1.1.8 1.9 1.3 2.7.5.7.9 1.3 1.3 1.7.6-.6 1.2-1.3 1.7-2.1.5-.7.9-1.5 1.2-2.3h-5.5zM127 42.8h15.9v3.9h-5v3.7h4.6l-.1 2v22.8l.1 2h-3.7V75h-9.6v2.1h-3.6c.1-.7.1-1.4.1-2V52.3c0-.5 0-1.2-.1-2h4.6v-3.7h-5.5v-3.9c.4.1 1.2.1 2.3.1zm2.2 28.7h9.6v-9.1h-1.2c-1.2 0-2-.2-2.4-.5-.4-.3-.6-1-.6-2v-6.1h-1.5v.7c0 2.2-.2 4.1-.7 5.9s-1.1 3.1-1.8 4c-.5-.8-1-1.6-1.6-2.4v9.5zm1.6-17.7h-1.7v7.6c.5-.9.9-1.9 1.2-3.1s.5-2.6.5-4.5zm4.9 11.8c1 0 1.8 0 2.2-.1V69h-7.8v-3.4c.4.1 1.2.1 2.2.1h3.4zm-.9-15.3v-3.7h-1.5v3.7h1.5zm4 9.1v-5.5h-1.6v4.4c0 .5.1.8.2 1 .1.1.5.2 1 .2h.4zm18.3 6.6c1.8 1.2 3.2 2.1 4.1 2.6-.2 2.5-.6 4.3-1.2 5.4-.7 1.1-1.6 1.8-2.8 2.2-1.2.4-2.7.6-4.6.6-1 0-2 0-2.9-.1-.9-.1-1.6-.2-2.2-.3-.6-.1-1-.3-1.4-.6-.5-.4-.8-.9-1-1.6s-.3-1.7-.3-3V55.7c0-.3 0-.6-.1-.9h9.9V47h-10.3v-4.2h14.8v18.1h-4.5v-2.2H149v12.4c0 .6.3 1 .8 1.2.4.1 1.4.1 2.9.1.9 0 1.5-.1 2-.2s.9-.4 1.2-.7c.3-.4.5-1 .7-1.8.4-.9.5-2.1.5-3.7z" style="fill:#fff"/><path class="st0" d="M200.7 46.7c-.1.5-.1 1-.1 1.4 0 7-.1 12.3-.3 16-.2 3.7-.7 6.4-1.4 8.2-.3.8-.7 1.5-1.2 2s-1 .9-1.6 1.3c-.6.3-1.3.6-2 .8-.8.2-1.6.4-2.6.5-1 .1-2 .2-3.2.2 0-.2-.1-.5-.3-1.1-.2-.5-.6-1.9-1.4-4 .9.2 2 .4 3.1.4 1.4 0 2.6-.2 3.3-.6.8-.4 1.4-1.1 1.8-2.1.5-1.1.8-3.1.9-6 .2-2.9.3-7.2.3-12.8h-9c-.4.8-.9 1.8-1.5 2.8-.6 1-1.3 2-2 3l-1.1-1.1c-.5-.5-1.2-1-2-1.7v17l.1 2.1h-4.3v-1.7h-5.3v3.3h-4.4c.1-.8.1-1.6.1-2.3V48.9c0-.6 0-1.4-.1-2.2h4.3c.2-.8.5-1.8.7-2.9.2-1.1.3-2 .4-2.6l4.6.6-.3.6c-.4 1.7-.8 3.1-1.2 4.3h5.5l-.1 2.1V53c1.1-1.3 2.1-3.1 3.1-5.3 1-2.2 1.7-4.4 2.1-6.6l4.4.9-.2.5c-.4 1.7-.8 3.2-1.2 4.3h12.1zm-24.5 3.8h-5.3v6.3h5.3v-6.3zm-5.3 16.9h5.3v-6.8h-5.3v6.8zm21.9-3.4-3.9 2.4c-.2-.6-.6-1.3-1.1-2.3-.5-.9-1.1-2-1.8-3-.7-1.1-1.3-2-1.8-2.7l3.5-2.2c.3.3.7.9 1.3 1.7s1.2 1.7 1.9 2.9c.6 1 1.3 2.1 1.9 3.2zm45.5 8.6h3.7v4.1c-.7-.1-1.9-.1-3.7-.1h-27.8c-1.8 0-3 0-3.7.1v-4.1h15.6v-2.8h-7.3c-1.3 0-2.2 0-2.8.1v-3.7c-.7.8-1.6 1.7-2.7 2.8-.4-.5-1.5-1.6-3.3-3.4.6-.5 1.4-1.1 2.4-2.1 1-.9 1.9-2 2.9-3.3.9-1.3 1.6-2.5 2-3.6h-1.5c.1-.5.1-1 .1-1.4V44c0-.5 0-.9-.1-1.5h25v14.1h-23.4l4.2 1.1c-.1.1-.1.2-.3.5-.2.6-.5 1.2-.9 1.9h5.8v-1.4c0-.4 0-.9-.1-1.4 2.9.1 4.4.2 4.6.2-.1.5-.1.9-.1 1.2v1.4H237c1.4 0 2.4 0 3-.1v3.8c-.6-.1-1.6-.1-3-.1h-10.1v2.5h8.5c1.4 0 2.3 0 2.8-.1v3.7c-.5-.1-1.5-.1-2.8-.1h-8.5v2.8h11.4zm-23.2-6.4h7.3v-2.5h-8.1c-.4.5-1.1 1.3-2 2.4.5.1 1.5.1 2.8.1zm17.4-20.3h-16.1v2h16.1v-2zm-16.1 7.2h16.1V51h-16.1v2.1zm30.4 22.4c.2-.5.4-1.3.7-2.4.3-1 .5-2.2.7-3.5.2-1.3.3-2.3.3-3l3.1.6c-.1 1.6-.2 3.4-.5 5.2-.2 1.8-.5 3.4-.9 4.8l-3.4-1.7zm2.7-20-1.4.2-.9-3.4c.4-.1.7-.4.9-.7.7-1.1 1.5-2.3 2.4-3.8.8-1.5 1.5-2.8 2.1-4 .6-1.2 1-2.2 1.3-2.9l3.5 2.2-.4.7c-.6 1.2-1.3 2.6-2.3 4.2-.9 1.6-1.8 2.8-2.5 3.8l3.4-.4c1.2-1.9 2.2-3.6 2.8-4.9l3.3 2.4-.5.7c-2.7 4.4-5.5 8.3-8.5 11.7l4.4-.8c-.4-1.1-.7-2-1-2.6l3.1-.9c.5 1 1 2.2 1.5 3.7s.9 2.8 1.2 3.8l-3.4 1c-.1-.3-.2-.9-.4-1.9L250 65l-1.6.4-1-3.7c.5-.2.9-.4 1.1-.8 1.5-1.6 3.1-3.7 4.8-6.2l-3.8.8zm3.3 11.6 3-.4c.3 1.2.5 2.6.8 4.2.3 1.6.5 2.9.6 4.1l-3.5.4c-.2-3-.5-5.7-.9-8.3zm25.1 1.6c.8.8 1.7 1.6 2.7 2.4 1 .8 2.1 1.6 3.2 2.3-.2.3-.5.7-.8 1.4-.4.6-.7 1.2-.9 1.7-.3.5-.5.9-.6 1.1-1.2-.8-2.3-1.7-3.4-2.6-1-.9-2-1.9-2.9-2.9-2.3 2.5-5 4.4-8 5.8-.2-.4-1-1.6-2.5-3.5-.8 1.3-1.7 2.5-2.7 3.5-1.2-1.3-2.3-2.4-3.3-3.3 1-.8 1.8-1.7 2.6-2.8l-2.5.8c-.1-.7-.3-1.7-.6-2.8-.3-1.1-.6-2.2-1-3.3l2.6-.7c.3.7.7 1.5 1 2.4.3.9.6 1.9.8 2.8 1.5-2.4 2.5-5.6 3.2-9.6.7-4 1.1-8.9 1.1-14.7h-3.4v-4.1h13.4l.4-.4c1 .7 2.2 1.5 3.4 2.6-.1.1-.1.1-.2.1s-.2.1-.2.1c-.3 1.1-.6 2.5-1.1 4.1-.5 1.6-.9 3.1-1.3 4.4h3.1l.4-.4c.7.5 1.3.9 2 1.5.6.5 1 .9 1.2 1.1l-.4.2c-.6 2.3-1.3 4.5-2.2 6.7-.9 2.4-1.9 4.3-3.1 6.1zm-13 5.3c2.7-1.2 5.2-3.1 7.6-5.5-.7-1.1-1.3-2.2-1.9-3.5-.6-1.3-1.1-2.6-1.5-3.9-.9 5.3-2.3 9.6-4.2 12.9zm13.8-16.5h-3.6c-.2 0-.5 0-.9.1-.4 0-.7.1-.9.1l-1.4-3.7c.3-.1.7-.5 1-1 .4-.6.7-1.4 1.1-2.5.3-1.1.7-2.3.9-3.6h-4.7v1.5c.1 3.6.6 6.9 1.5 9.6.9 2.8 2 5.3 3.5 7.4.8-1.1 1.5-2.4 2.2-3.8.5-1.5 1-2.9 1.3-4.1zm43.7-12.4V70l.1 3.3c0 .6-.1 1.2-.4 1.7-.3.5-.7.9-1.3 1.3-.6.4-1.3.6-2.2.8-.9.2-1.9.3-3 .3-.5-1.2-1.1-2.7-1.9-4.5.9.1 1.8.2 2.6.2.5 0 .9-.1 1.3-.2s.5-.4.5-.9v-7h-5.8c-.3 2.8-.9 5.3-1.6 7.5-.7 2.2-1.5 3.9-2.5 5.1-.3-.3-1-1-2-1.9-1-.9-1.5-1.4-1.7-1.5-.1.6-.5 1.2-1 1.7s-1.3.9-2.3 1.2c-1 .3-2.1.4-3.4.4-.4-1.1-1-2.6-1.9-4.5.9.1 1.7.2 2.5.2.5 0 .9-.1 1.3-.2.3-.1.5-.4.5-.9v-7H295c-.3 2.8-.9 5.3-1.6 7.5-.7 2.2-1.5 3.9-2.5 5.2-.5-.5-1.7-1.5-3.6-3.2 1.2-1.6 2.1-3.8 2.8-6.7.7-2.8 1-6.2 1-10.1V44.2c0-.3 0-.8-.1-1.3h13.5l-.1 2.2v25l.1 3.4v.6c.7-1 1.3-2.1 1.8-3.4s.9-2.5 1.1-3.7c.3-1.2.5-2.6.6-4.1.2-1.5.2-3.2.2-5.2V44.2c0-.3 0-.8-.1-1.3h14.2c.1 1 .1 1.8.1 2.2zm-27.1 16h4.9v-5h-4.8v1.8l-.1 3.2zm4.9-14.1h-4.8v5.1h4.8V47zm12.3 14h5.5v-4.9h-5.4v1.7l-.1 3.2zm5.5-14h-5.4v5.1h5.4V47zm45.2-1.9V70l.1 3.3c0 .6-.1 1.2-.4 1.7-.3.5-.7.9-1.3 1.3-.6.4-1.3.6-2.2.8-.9.2-1.9.3-3 .3-.5-1.2-1.1-2.7-1.9-4.5.9.1 1.8.2 2.6.2.5 0 .9-.1 1.3-.2s.5-.4.5-.9v-7h-5.8c-.3 2.8-.9 5.3-1.6 7.5-.7 2.2-1.5 3.9-2.5 5.1-.3-.3-1-1-2-1.9-1-.9-1.5-1.4-1.7-1.5-.1.6-.5 1.2-1 1.7s-1.3.9-2.3 1.2c-1 .3-2.1.4-3.4.4-.4-1.1-1-2.6-1.9-4.5.9.1 1.7.2 2.5.2.5 0 .9-.1 1.3-.2.3-.1.5-.4.5-.9v-7h-5.2c-.3 2.8-.9 5.3-1.6 7.5-.7 2.2-1.5 3.9-2.5 5.2-.5-.5-1.7-1.5-3.6-3.2 1.2-1.6 2.1-3.8 2.8-6.7.7-2.8 1-6.2 1-10.1V44.2c0-.3 0-.8-.1-1.3h13.5l-.1 2.2v25l.1 3.4v.6c.7-1 1.3-2.1 1.8-3.4s.9-2.5 1.1-3.7c.3-1.2.5-2.6.6-4.1.2-1.5.2-3.2.2-5.2V44.2c0-.3 0-.8-.1-1.3h14.2c.2 1 .1 1.8.1 2.2zm-27 16h4.9v-5h-4.8v1.8l-.1 3.2zM341 47h-4.8v5.1h4.8V47zm12.4 14h5.5v-4.9h-5.4v1.7l-.1 3.2zm5.5-14h-5.4v5.1h5.4V47z"/><path d="M.3 90.6c5.3-.7 10.4-1.6 15.7-2.1 10.5-1 21-1.9 31.6-2.4 7-.3 13.9 1.1 20.6 2.6 7 1.6 14.2 3.3 21.7 2.6 5.1-.5 10.1-1.5 15-2.7 8.7-2.2 17.2-2.2 24.8 1.4 8.4 3.9 17.1 3.2 26 1.9 9.7-1.3 19.4-2.7 29.2-3.8 8.5-.9 17-.8 25.3 1.2 4 1 8.2 1.9 12.5 1.2 1.9-.3 3.7-1 5.6-1.4 3-.7 5.9-1.6 8.9-1.8 8.4-.5 16.7-.1 24.6 2.5 3.8 1.3 7.8 1 11.6-.1 2.8-.8 5.6-1.7 8.3-2.7 5.4-1.8 10.8-1.9 16.4-.6 2 .5 4 1 5.9 1.7 5.3 1.9 10.8 2.3 16.7 1.9 15.2-1.1 30.4-1.8 45.7-1.3 1.5.1 3.4-.2 4.4 1.7-4.1.4-7.9.7-11.7 1-8.3.5-16.5 1-24.8 1.4-7.2.4-14.5 1.2-21.6.1-4-.6-8-1.8-11.8-3-4.5-1.4-8.8-1.3-13.2.2-3.5 1.2-7 2.4-10.8 3.1-6.2 1.2-12.2.1-18.1-1.6-7.5-2.1-15.3-2.2-22.5-.2-7.8 2.2-15.1 2.8-23.1.9-11-2.6-22.1-1.9-33.2-.3-9.2 1.3-18.5 2.6-27.8 3.6-7.9.8-15.6.2-22.4-3-5.8-2.7-11.7-3-18-1.2-8.4 2.4-17 3.9-26.1 2.7-6-.8-11.9-1.9-17.7-3.1-9.9-2-19.9-2.5-30.1-1.5-10.1 1-20.2 2-30.3 2.9-1.7.2-3.5 0-5.2-.2-.8-.1-1.4-.7-2.1-1.1-.2 0-.1-.3 0-.5zm117.5-79.2c.3-3.1.6-6.2 1.1-9.2.4-2 1.6-2.6 3.3-1.8.6.3 1.3 1.2 1.4 1.8.6 7.2-.4 14.2-1.8 21.2-.1.4-.7 1-1.1 1-1 0-2-.3-2-1.6-.2-3.5-.4-7.1-.6-10.6v-.7c-.1-.1-.2-.1-.3-.1zm26.8 3.7c-.7 1.2-1.1 2.3-1.8 3.1-1.6 1.9-3.4 3.7-5.1 5.5-.2.3-.5.6-.8.7-1 .2-2.1.3-3.1.4.1-1-.2-2.1.2-2.9 1.6-2.5 3.4-4.9 5.2-7.3.9-1.1 2.1-1.8 3.6-1.1.7.4 1.2 1 1.8 1.6zM106 27.8c-1.4-.8-2.7-1.1-3.3-2-1.6-2.5-3.1-5.2-4.3-8-.8-1.8.2-2.7 2.1-2.2.7.2 1.6.6 2 1.2 2.3 3.1 3.6 6.5 3.5 11zm55-3.5c-.6 3.2-5.1 5.9-8.4 5.1-.2-3.4 4.8-6.4 8.4-5.1zm-74.9 5.5c-2.9 0-6.2-2.2-7.2-4.9 2.4-.4 6.1 2.1 7.2 4.9z" style="fill:#ffe07f"/></svg>