<!-- Generator: Adobe Illustrator 25.0.0, SVG Export Plug-In  -->
<svg version="1.1" xmlns="http://www.w3.org/2000/svg" xmlns:xlink="http://www.w3.org/1999/xlink" x="0px" y="0px" width="230.8px"
	 height="45.1px" viewBox="0 0 230.8 45.1" style="overflow:visible;enable-background:new 0 0 230.8 45.1;" xml:space="preserve">
<style type="text/css">
	.st0{fill:#FFFFFF;}
	.st1{fill:none;}
	.st2{fill:#EA82A4;}
</style>
<defs>
</defs>
<g>
	<g>
		<g>
			<g>
				<g>
					<path class="st0" d="M64.2,19.4v-6.3c1.7-0.3,3.3-0.8,4.8-1.4c1.5-0.6,2.9-1.5,4.2-2.7h6v29.8h-7.9V17.7
						c-1.2,0.4-2.3,0.8-3.5,1.1C66.5,19.1,65.4,19.3,64.2,19.4z"/>
				</g>
			</g>
			<path class="st1" d="M17.2,11.7c-1.5,0.6-3.1,1.1-4.8,1.4v6.3c1.2-0.2,2.3-0.4,3.5-0.7c1.2-0.3,2.3-0.7,3.5-1.1v21.1h7.9V9h-6
				C20.1,10.2,18.7,11.1,17.2,11.7z"/>
			<path class="st0" d="M90.9,2.7H55.1c-1.8,0-3.3,1.5-3.3,3.3v13.2h1.4V6c0-1.1,0.9-1.9,1.9-1.9h35.8c1.1,0,1.9,0.9,1.9,1.9v35.8
				c0,1.1-0.9,1.9-1.9,1.9H55.1c-1.1,0-1.9-0.9-1.9-1.9V28.5h-1.4v13.3c0,1.8,1.5,3.3,3.3,3.3h35.8c1.8,0,3.3-1.5,3.3-3.3V6
				C94.3,4.2,92.8,2.7,90.9,2.7z"/>
			<g>
				<path class="st0" d="M37.2,21.2h7.2v-7.5h5.4v7.5H57v5.3h-7.2V34h-5.4v-7.5h-7.2V21.2z"/>
			</g>
			<path class="st2" d="M42.4,19.2v-7.5h0V6c0-1.8-1.5-3.3-3.3-3.3H3.3C1.5,2.7,0,4.2,0,6v35.8c0,1.8,1.5,3.3,3.3,3.3h35.8
				c1.8,0,3.3-1.5,3.3-3.3V36h0v-7.5h-7.2v-9.3H42.4z M14,39l-4.1-3l-4.1,3l1.6-4.9l-4.1-3h5.1l1.6-4.9l1.6,4.9h5.1l-4.1,3L14,39z
				 M27.3,38.8h-7.9V17.7c-1.2,0.4-2.3,0.8-3.5,1.1c-1.2,0.3-2.4,0.5-3.5,0.7v-6.3c1.7-0.3,3.3-0.8,4.8-1.4c1.5-0.6,2.9-1.5,4.2-2.7
				h6V38.8z"/>
		</g>
		<g>
			<g>
				<g>
					<g>
						<path class="st0" d="M230.8,16.9v-4.1h-7.5l0-8.1H218l0.1,20.1H212v12.1l-1.2-1c-0.8-0.7-2-0.5-2.6,0.3l-1.8,2.2l-2.9-2.4
							c-0.8-0.7-2-0.5-2.6,0.3l-1.8,2.2l-2.9-2.4c-0.8-0.7-2-0.5-2.6,0.3l-4.5,5.5l1.9,1.5c0.8,0.7,2,0.5,2.6-0.3l1.8-2.1l2.9,2.4
							c0.8,0.7,2,0.5,2.6-0.3l1.8-2.1l2.9,2.4c0.8,0.7,2,0.5,2.6-0.3l3.8-4.7v5.3h18.8V24.8h-7.6l0-7.9H230.8z M225.9,29.2v9.9h-9.1
							v-9.9H225.9z"/>
					</g>
				</g>
				<g>
					<g>
						<path class="st0" d="M210.7,30.7h-7.4v-2.5h6v-4.1h-6v-0.8h0v-1.9h1.7h5.4v-4V4.7h-5.6l-3.4,4.1h0l-6,7.3V8.8h2.9l3.4-4.1
							h-10.3v16.7h4.1h1.3h1.7v1.9v0.8h-6v4.1h6v2.5h-7.4v4.1h19.6V30.7z M203.7,13.7l1.5-1.8l0.9-1.1v6.6H205h-1.7h-2.7L203.7,13.7
							z"/>
					</g>
				</g>
			</g>
			<g>
				<g>
					
						<rect x="100.4" y="30.4" transform="matrix(0.6352 -0.7723 0.7723 0.6352 13.9385 90.8289)" class="st0" width="5.4" height="0.4"/>
				</g>
				<g>
					<g>
						<path class="st0" d="M123.9,39v-3.2l12.8,0.1v-4.2l-12.8,0.1V29l14.8,0.1v-4.3c-0.6,0.1-14.8,0.1-14.8,0.1v-1.5h-5.1v1.5h-4.4
							l-1,1.2l-2.4,3h7.8v2.8l-10.1-0.1l-3.4,4.2l13.5-0.1V39l-17.5,0v4.7H141v-4.7L123.9,39L123.9,39z"/>
					</g>
					<g>
						<path class="st0" d="M127,8.9h4.6V17h-10.8l-3.2,3.9h6.2h10.3h2.4V5h-4.3L127,8.9C127,8.8,127,8.8,127,8.9z"/>
					</g>
					<g>
						<path class="st0" d="M104.7,25.9l3.1,2.5l-3.3,4l0.3,0.3l10-12.1l5.3-6.4l0,0l0.6-0.8l-7,5.1c-0.5,0.3-1.1-0.1-0.9-0.7l1.3-4
							l-2.6,3.1h-0.7V8.9h4.6c0,0-0.1-0.1-0.1-0.1L110.1,5h-4.3v15.9h2.6l-3.1,3.7l0,0l-2.8,3.5l0.3,0.3L104.7,25.9z"/>
					</g>
					<g>
						<polygon class="st0" points="116.9,13.1 121.2,10 122.6,11 125.4,13.1 124.2,9.2 123.8,8.1 128.1,5 122.8,5 122.8,5 121.2,0 
							119.6,5 119.6,5 114.3,5 118.6,8.1 						"/>
					</g>
				</g>
			</g>
			<g>
				<path class="st0" d="M183.6,36.7c-1.1-0.9-2.1-1.7-3-2.7c2.5-3.9,4.5-8.6,5.9-14.2l-4.2-3.2h-2.5c1.3-4.3,2.2-7.3,2.7-9.1
					L178,4.3h-13.2c-1.1,0-2,0-2.5,0v5.5h3.8c0,2.2-0.1,4.6-0.2,7c-0.1,2.4-0.4,4.8-0.7,7.1c-0.3,2.3-0.8,4.6-1.4,6.8
					c-0.6,2.2-1.4,4.2-2.3,5.9l-0.9,1.4c-0.8,1.2-1.6,2.1-2.4,2.7c1.4,1.4,2.8,2.8,4.1,4.2c1.1-1.1,2.1-2.5,3.1-4.2
					c0.9,1.2,1.5,2.1,2,2.8c0.4,0.7,0.7,1.2,0.9,1.4c1.6-0.8,3.2-1.7,4.7-2.7c1.5-1.1,2.8-2.3,4-3.6c2,2.2,4.4,4.2,7,6
					c0.3-0.6,0.7-1.5,1.3-2.6c0.6-1.1,1.1-2.1,1.6-2.8C185.8,38.4,184.7,37.5,183.6,36.7z M171.1,36.2c-0.9,0.7-1.8,1.4-2.6,1.9
					c-0.8,0.5-1.6,0.9-2.2,1.3c1.7-3.4,3-7.6,3.9-12.6c0.4,1.2,0.9,2.5,1.5,3.8c0.6,1.3,1.2,2.4,1.9,3.4
					C172.8,34.7,172,35.4,171.1,36.2z M179,25.7c-0.6,1.4-1.3,2.8-2.1,4c-1.1-1.7-2.1-3.5-2.8-5.3c-0.7-1.9-1.3-3.8-1.7-5.9
					c-0.4-2-0.7-4.2-0.8-6.6l0-2.1h4.9c-0.2,0.8-0.4,1.7-0.8,2.8c-0.3,1-0.7,2-1.2,2.9c-0.5,0.9-0.9,1.4-1.4,1.5l1.6,4.7h5.8
					C180.1,22.9,179.6,24.2,179,25.7z"/>
				<path class="st0" d="M157.3,36.2c-0.8-0.7-2-0.5-2.6,0.3l-1.8,2.2l-3-2.4c-0.8-0.7-2-0.5-2.6,0.3l-4.5,5.5l1.9,1.6
					c0.8,0.7,2,0.5,2.6-0.3l1.8-2.2l3,2.4c0.8,0.7,2,0.5,2.6-0.3l4.5-5.5L157.3,36.2z"/>
				<polygon class="st0" points="151.5,34.3 157.8,34.3 159.1,32.7 161.8,29.4 163.8,27 160,24 155.8,29.1 155.5,29.4 152.4,29.4 
					150.3,29.4 156.4,22.1 157.1,21.2 158.6,19.4 161.1,16.3 163.5,13.5 159.7,10.4 155.3,15.8 154.8,16.3 152,16.3 150.4,16.3 
					153.9,12.1 155.5,10.2 158.9,6.1 155.1,3 152,6.7 144.1,16.3 144.1,16.3 144.1,21.2 149,21.2 150.9,21.2 144.1,29.4 144.1,29.4 
					144.1,29.4 144.1,34.3 149.2,34.3 				"/>
			</g>
		</g>
	</g>
</g>
</svg>
