<svg xmlns="http://www.w3.org/2000/svg" width="29.5" height="44.3" style="overflow:visible;enable-background:new 0 0 29.5 44.3" xml:space="preserve"><path d="M15.7 44.3h-1.2c-.4-2-.9-4-1.3-5.9-.8-3.6-1.8-7.1-3.5-10.3-.5-.8-1.1-1.6-1.6-2.4-1.2-1.7-3-2.6-4.9-3.2-.7-.3-1.5-.4-2.3-.7-.3-.1-.6-.5-.9-.7.3-.3.5-.6.8-.7.6-.3 1.2-.5 1.9-.7 4.2-1.2 7-4 8.6-8 1.1-2.9 1.9-5.9 2.8-8.9.2-.6.4-1.2.5-1.8.2-.6.5-1 1.5-.7.5 1.9.8 4 1.5 6.1.8 2.8 1.7 5.6 2.8 8.2 1.2 2.7 3.4 4.5 6.3 5.3.7.2 1.4.4 2 .6.3.1.6.5.9.7-.3.2-.7.5-1 .6-1.6.7-3.2 1.3-4.7 2.1-2.1 1.2-3.2 3.2-4 5.3-1.1 2.9-1.7 6-2.5 9-.6 2-1.1 4-1.7 6.1z" style="fill:#e2809c"/></svg>