<!-- Generator: Adobe Illustrator 25.0.0, SVG Export Plug-In  -->
<svg version="1.1" xmlns="http://www.w3.org/2000/svg" xmlns:xlink="http://www.w3.org/1999/xlink" x="0px" y="0px" width="697px"
	 height="44.4px" viewBox="0 0 697 44.4" style="overflow:visible;enable-background:new 0 0 697 44.4;" xml:space="preserve">
<style type="text/css">
	.st0{fill:#E3809D;}
</style>
<defs>
</defs>
<g>
	<g>
		<g>
			<path class="st0" d="M10.8,9.9h2.8l2.1,0v3.9l-2.1,0h-2.8v8c2.3-0.7,3.9-1.3,4.8-1.7l0,4.3l-4.9,1.6v9.4l0.1,3.7
				c0,0.5-0.1,1-0.3,1.5c-0.2,0.5-0.5,1-1,1.3c-0.5,0.4-1,0.7-1.6,0.9c-0.6,0.2-1.3,0.4-2.1,0.5c-0.8,0.1-1.7,0.2-2.7,0.2
				c0-0.1-0.1-0.3-0.2-0.6c-0.1-0.3-0.7-1.7-1.8-4.2c0.1,0,0.5,0.1,1.2,0.1c0.7,0.1,1.3,0.1,1.8,0.1c0.9,0,1.5-0.1,1.9-0.3
				c0.3-0.2,0.5-0.5,0.5-1v-2.3v-8.1l-3.7,1.1l-2,0.8L0,24.7l2.3-0.5c1.2-0.3,2.6-0.7,4.2-1.2v-9.3H2.5c-0.9,0-1.7,0-2.2,0V9.9
				l2.2,0h4.1v-7c0-0.7,0-1.3-0.1-1.9C7,0.9,7.7,1,8.7,1c1,0,1.7,0.1,2.2,0.1c-0.1,0.6-0.1,1.2-0.1,1.7V9.9z M19.3,13.6V1.9
				c0-0.3,0-0.6-0.1-0.9c0.6,0.1,1.3,0.1,2.2,0.2c0.9,0,1.6,0.1,2.1,0.1c-0.1,0.2-0.1,0.4-0.1,0.7v5.4C26,6.8,28.9,6,31.9,5.1
				C35,4.2,37,3.4,38,2.8l2.8,3.5L40,6.6c-2.7,0.9-5.7,1.7-8.8,2.6c-3.1,0.9-5.7,1.5-7.8,1.8v2.6c0,0.5,0.1,0.9,0.3,1.1
				c0.2,0.2,0.5,0.4,0.9,0.4c0.4,0.1,1,0.2,1.9,0.2c0.9,0,2.3,0.1,4.2,0.1c1.6,0,2.8-0.1,3.8-0.2c0.9-0.2,1.7-0.4,2.4-0.8
				c0.6-0.3,1-0.8,1.2-1.4c0.2-0.6,0.4-1.2,0.4-1.8c0.1-0.6,0.1-1,0.1-1.3c1.5,0.9,2.9,1.6,4.1,2.1c-0.1,1.3-0.4,2.3-0.7,3.2
				c-0.4,0.9-0.9,1.6-1.7,2.2c-0.7,0.6-1.9,1-3.4,1.4c-1.5,0.3-3.7,0.5-6.7,0.5c-2.9,0-5.1-0.1-6.5-0.2c-1.4-0.1-2.3-0.4-2.9-0.8
				c-0.6-0.4-1-0.9-1.3-1.7C19.4,15.9,19.3,14.9,19.3,13.6z M40.8,22.6l0,1.8V42l0,1.8h-4.1v-2.4H23.5v2.4h-4.2
				c0.1-0.7,0.1-1.3,0.1-1.8V24.4l-0.1-1.8H40.8z M36.7,26.3H23.5v3.8h13.3V26.3z M23.5,37.7h13.3v-4.1H23.5V37.7z"/>
			<path class="st0" d="M85.1,38.5c5.6,0,10.1-0.3,13.6-0.8c-0.2,0.6-0.4,1.3-0.6,2.2c-0.2,0.9-0.4,1.6-0.5,2.1
				c-1.2,0.2-2.7,0.3-4.5,0.4c-1.8,0.1-4.6,0.2-8.2,0.2c-3.1,0-5.8-0.3-8.2-1s-4.5-1.7-6.2-3c-1.7-1.3-3.2-3-4.2-4.9
				c-0.8,2-1.7,3.9-2.8,5.6c-1.1,1.7-2.2,3.2-3.4,4.4c-0.5-0.4-1.8-1.3-3.9-2.6c1.3-1.2,2.5-2.5,3.5-4.1c1-1.6,1.8-3.1,2.5-4.5
				c0.6-1.4,1.2-2.9,1.6-4.5c0.5-1.6,0.9-3.3,1.2-5.3l4.3,0.9l-0.2,0.6c-0.1,0.6-0.3,1.4-0.5,2.3c-0.2,1-0.4,1.7-0.6,2.3
				c0.3,0.9,0.7,1.8,1.3,2.9c0.6,1,1.4,2,2.5,2.9c1.1,0.9,2.3,1.6,3.6,2.2V18.9H66c-1.5,0-2.6,0-3.2,0v-4.1c0.6,0.1,1.7,0.1,3.2,0.1
				h23.2c1.4,0,2.3,0,2.9,0V9.6H62.7V16h-4.4c0.1-0.5,0.1-0.9,0.1-1.3V7.1c0-0.3,0-0.8-0.1-1.3h17.3c-0.1-0.3-0.4-0.8-0.8-1.6
				c-0.4-0.8-0.9-1.5-1.4-2.4l3.9-1.6c0.2,0.3,0.6,1,1.1,1.8c0.5,0.9,1.2,2.1,2,3.7h16c0,0.3,0,0.7,0,1.3v7.7l0,1.3h-3.9v3
				c-0.7,0-1.8,0-3.3,0h-9.8v6.9h10.1l2.1,0v3.9l-2.1,0H79.4V38C81.1,38.4,83,38.5,85.1,38.5z"/>
			<path class="st0" d="M129.2,33.3h-4.2v-2h-7.1v4h-4.3c0.1-0.9,0.1-1.7,0.1-2.4V6.1l-0.1-2.4h15.5L129.1,6v25.1L129.2,33.3z
				 M125.1,7.4h-7.1v8h7.1V7.4z M117.9,27.6h7.1V19h-7.1V27.6z M152.3,5.2v30.3l0.1,3.4c0,0.5-0.1,1-0.3,1.5c-0.2,0.5-0.6,1-1.2,1.4
				s-1.4,0.7-2.5,1c-1.1,0.3-2.6,0.4-4.5,0.4c-0.1-0.3-0.8-1.7-2-4.3c0.4,0.1,0.9,0.1,1.6,0.2c0.7,0.1,1.3,0.1,1.9,0.1
				c1,0,1.7-0.1,2.1-0.4c0.4-0.2,0.6-0.6,0.6-1.1v-2.2v-6.9h-10.9c-0.3,1.6-0.8,3.3-1.5,5.2c-0.7,1.9-1.7,3.7-2.9,5.4
				c-1.2,1.7-2.6,3.1-4.2,4.2c-1.8-1.4-2.9-2.4-3.5-2.9c3.1-2.1,5.3-4.8,6.7-8.2c1.4-3.4,2.1-7.5,2.1-12.4V4.1l-0.1-1.3h18.6
				L152.3,5.2z M137.9,24.8h10.3v-7.3h-10.1V20C138.1,21.5,138.1,23.1,137.9,24.8z M148.2,6.6h-10.1v7.3h10.1V6.6z"/>
			<path class="st0" d="M205.3,38.6c2,0,3.3,0,4.1-0.1v4.1c-0.8-0.1-2.1-0.1-4.1-0.1h-33.1c-2,0-3.4,0-4.1,0.1v-4.1
				c0.8,0.1,2.1,0.1,4.1,0.1H187v-4.1h-9.3c-1.4,0-2.5,0-3.2,0.1V31c0.7,0.1,1.7,0.1,3.2,0.1h9.3v-3.7h-10.5
				c-1.9,2.5-3.8,4.4-5.5,5.9c-0.5-0.6-1.5-1.7-3.2-3.2c1.7-1.2,3.5-2.9,5.2-5c1.7-2.1,2.9-4.1,3.6-5.8l4.1,1.2
				c-0.1,0.1-0.2,0.3-0.3,0.5c-0.4,0.9-0.8,1.8-1.4,2.7h8.1v-2.2c0-0.5,0-1-0.1-1.6c0.5,0,1.3,0,2.3,0.1c1,0,1.7,0.1,2.2,0.1
				c-0.1,0.5-0.1,1-0.1,1.4v2.2h12.3c1.6,0,2.7,0,3.3-0.1v3.8c-0.6-0.1-1.7-0.1-3.3-0.1h-12.3v3.7h10.5c1.5,0,2.5,0,3.2-0.1v3.6
				c-0.6-0.1-1.7-0.1-3.2-0.1h-10.5v4.1H205.3z M174.6,18.9c0.1-0.6,0.1-1.2,0.1-1.6V4.5c0-0.4,0-1-0.1-1.6h28.4l0,1.6v12.8l0,1.6
				H174.6z M198.9,6.3h-20v3h20V6.3z M178.9,15.5h20v-3.2h-20V15.5z"/>
			<path class="st0" d="M255.2,9.2l-0.3,0.4c-0.6,1.3-1.4,2.7-2.2,4.1h10.2l0,1.9v20.4l0.1,3.2c0,0.8-0.1,1.4-0.4,1.9
				c-0.3,0.5-0.7,0.9-1.2,1.2c-0.5,0.3-1.1,0.6-1.8,0.8c-0.7,0.2-1.6,0.4-2.7,0.5c-1.1,0.1-2.3,0.2-3.6,0.2c-0.2-0.5-0.6-1.2-1-2.1
				c-0.4-0.9-0.8-1.7-1.2-2.3c0.5,0.1,1.1,0.2,1.9,0.2c0.8,0.1,1.6,0.1,2.3,0.1c1.2,0,2.1-0.1,2.6-0.4c0.5-0.3,0.7-0.6,0.7-1.1v-2.1
				V17.3h-8.6V21c0,0.3,0.1,0.5,0.4,0.5c0.7,0.2,1.8,0.3,3.1,0.2c1.4,0,2.6-0.1,3.8-0.3l-0.3,3.5c-2.3,0.3-4.4,0.3-6.4,0.2
				c-2-0.1-3.2-0.4-3.6-0.7c-0.3-0.3-0.5-0.6-0.7-1c-0.2-0.4-0.2-1.3-0.2-2.7v-3.4h-3.4c-0.3,1.3-0.6,2.5-1.2,3.5
				c-0.5,1-1.2,2-2,2.8s-1.8,1.5-2.9,2.1c-1.1,0.6-2.4,1.1-3.8,1.6c-0.1-0.3-0.3-0.6-0.6-1.1c-0.3-0.5-0.9-1.3-1.6-2.3
				c2.6-0.6,4.6-1.4,5.8-2.4c1.2-1.1,2-2.4,2.5-4.1h-8.4v24.1c0,0.6,0,1.4,0.1,2.3H226c0.1-0.8,0.1-1.6,0.1-2.3V15
				c0-0.4,0-0.8-0.1-1.3h9.7c-0.9-1.9-1.7-3.4-2.4-4.4h-5.1c-2,0-3.4,0-4.1,0V5.1c0.8,0.1,2.1,0.1,4.1,0.1h13.9
				c-0.2-0.5-0.5-1.1-0.9-1.7c-0.3-0.7-0.7-1.3-0.9-1.7l4-1.2c0.3,0.5,0.7,1.2,1.2,2.1c0.5,0.9,0.9,1.8,1.2,2.6h14.1
				c1.9,0,3.2,0,4-0.1v4.1c-0.7,0-2,0-4,0H255.2z M252.6,36.7l0,1.3h-12.4v3.3h-4c0.1-0.6,0.1-1.1,0.1-1.5V28.1c0-0.3,0-0.8-0.1-1.5
				h16.4c0,0.3,0,0.7,0,1.3V36.7z M239.9,13.6h8.2c0.4-0.6,0.8-1.4,1.3-2.2c0.5-0.8,0.8-1.6,1.1-2.2h-12.6
				C238.8,11,239.4,12.5,239.9,13.6z M240.2,34.5h8.5v-4.4h-8.5V34.5z"/>
			<path class="st0" d="M298.3,23.8l0,1.7v16.3l0,1.7h-4.2V41h-9.2v2.6h-4.4c0.1-0.7,0.1-1.3,0.1-1.8V25.5c0-0.5,0-1.1-0.1-1.7
				H298.3z M284.9,37.1h9.2v-9.5h-9.2V37.1z M287.6,19.2c0.1-0.6,0.1-1.2,0.1-1.6V4.7c0-0.4,0-1-0.1-1.6h25.1c0,0.4,0,0.9,0,1.6
				v12.8l0,1.6H287.6z M308.3,7.1H292v8.2h16.3V7.1z M320.5,25.5v16.2l0,1.8h-4.4V41h-9.4v2.6h-4.4c0.1-0.7,0.1-1.3,0.1-1.8V25.5
				c0-0.5,0-1.1-0.1-1.7h18.1L320.5,25.5z M306.8,37.1h9.4v-9.5h-9.4V37.1z"/>
			<path class="st0" d="M344.9,25.9h-10.7v-4.2h10.7V11h4.4v10.8h10.6v4.2h-10.6v10.7h-4.4V25.9z"/>
			<path class="st0" d="M379.7,10.1c-0.9,0.9-1.7,1.7-2.7,2.5c-0.9,0.8-1.8,1.5-2.7,2c-0.3-0.9-1-2.2-1.9-3.7
				c1.8-1.1,3.6-2.5,5.5-4.4c1.8-1.9,3.2-3.8,4-5.7l4,0.6l-0.3,0.5l-0.2,0.4c1.2,0.9,2.6,2.1,4.3,3.5c1.7,1.4,2.9,2.5,3.8,3.4
				c-0.3,0.3-1,1.4-2.3,3.4l-2.6-2.7v2.1l-1.7,0h-5.6l-1.7,0V10.1z M405.1,20.2c0.1,1.9,0.4,3.7,1.1,5.7c0.6,1.9,1.4,3.7,2.4,5.4
				c1,1.7,2.1,3.2,3.4,4.6c1.3,1.4,2.6,2.4,3.9,3.3c-1.3,2.3-2,3.7-2.2,4.2c-0.9-0.6-1.7-1.4-2.7-2.3c-0.9-0.9-1.9-1.9-2.8-3.1
				c-0.9-1.2-1.8-2.6-2.6-4.2c-0.8-1.6-1.5-3.4-2.1-5.5c-0.7,3.3-1.9,6.2-3.6,8.9c-1.7,2.6-3.8,4.8-6.3,6.3
				c-0.4-0.6-1.2-1.7-2.4-3.4l-2.1,1c-0.1-0.3-0.3-0.8-0.6-1.4c-0.3-0.6-0.5-1.1-0.7-1.5c-2.8,0.9-5.9,2-9.3,3.2l-2.1,0.8l-1.6-3.5
				c0.9-0.4,1.3-1.1,1.3-2.1V15.6l-0.1-1.2h15.5l0,1.5v11.9l0,1.4h-11.8v7.8c1.7-0.5,3.7-1.1,6.2-2c-1.2-1.8-2-3.1-2.6-3.8l3-1.1
				c0.9,1,1.9,2.4,3,4c1.1,1.7,2.1,3.3,3,5c6-4,9-11.6,9-22.8c0-0.6,0-1.1-0.1-1.6l4,0.2c-0.1,0.3-0.1,0.7-0.1,0.9L405.1,20.2z
				 M388,17.4h-8.1v2.9h8.1V17.4z M379.9,26.2h8.1V23h-8.1V26.2z M387.8,9.1c-0.5-0.5-1.2-1.2-2.1-2c-0.9-0.8-1.6-1.4-2.1-1.9
				c-0.3,0.5-0.8,1.2-1.5,2c-0.6,0.8-1.1,1.4-1.6,1.9h0.8h5.6H387.8z M395.5,20.7c-0.2-0.3-0.5-0.7-1.1-1.3
				c-0.5-0.5-1.2-1.2-1.9-1.9c0.9-1,1.7-2.3,2.6-3.8c0.8-1.6,1.6-3.4,2.3-5.6c0.7-2.2,1.3-4.6,1.7-7.3l3.9,0.7L402.7,2
				c-0.1,0.8-0.3,1.8-0.7,3c-0.3,1.3-0.6,2.3-0.8,3h11.1l0.4-0.4c1,0.6,2.1,1.4,3.1,2.3l-0.4,0.2c-0.3,1.1-0.6,2.5-1.2,4
				c-0.5,1.6-1.2,3.1-1.9,4.7c-0.8,1.6-1.5,2.9-2.2,3.8c-0.8-0.9-1.7-2-2.9-3c0.5-0.6,1-1.4,1.6-2.5c0.6-1,1-2,1.4-3.1
				c0.4-1,0.7-1.8,0.9-2.4H400c-0.7,1.9-1.4,3.6-2.2,5.1C397,18.6,396.2,19.8,395.5,20.7z"/>
			<path class="st0" d="M447.8,23.8l0,1.7v16.3l0,1.7h-4.2V41h-9.2v2.6H430c0.1-0.7,0.1-1.3,0.1-1.8V25.5c0-0.5,0-1.1-0.1-1.7H447.8
				z M434.4,37.1h9.2v-9.5h-9.2V37.1z M437.1,19.2c0.1-0.6,0.1-1.2,0.1-1.6V4.7c0-0.4,0-1-0.1-1.6h25.1c0,0.4,0,0.9,0,1.6v12.8
				l0,1.6H437.1z M457.8,7.1h-16.3v8.2h16.3V7.1z M470,25.5v16.2l0,1.8h-4.4V41h-9.4v2.6h-4.4c0.1-0.7,0.1-1.3,0.1-1.8V25.5
				c0-0.5,0-1.1-0.1-1.7H470L470,25.5z M456.3,37.1h9.4v-9.5h-9.4V37.1z"/>
			<path class="st0" d="M504.8,43.1v-1.4c0-3.6,0.8-6.7,2.4-9.3c1.6-2.6,4.1-5.2,7.6-7.7L520,21c1.8-1.3,3.1-2.5,3.9-3.7
				s1.2-2.4,1.2-3.9c0-1.7-0.4-3.1-1.2-4c-0.8-0.9-1.9-1.4-3.3-1.4c-1.6,0-2.9,0.6-3.7,1.9c-0.9,1.3-1.4,3.2-1.6,5.9h-10.6
				c0.3-4.9,1.9-8.6,4.9-11.4c3-2.7,6.9-4.1,11.8-4.1c3,0,5.7,0.5,7.9,1.6c2.3,1,4,2.5,5.3,4.4c1.3,1.9,1.9,4.1,1.9,6.7
				c0,2.6-0.6,5-1.9,7.1c-1.3,2.1-3.3,4.1-6,6.1l-5.9,4.2c-1.4,1-2.4,1.8-3.2,2.5c-0.7,0.7-1.2,1.4-1.4,2.1h18.6v8.3H504.8z"/>
			<path class="st0" d="M563.2,11v30c0,1.1,0,2.2,0.1,3.4h-7.4c0.1-1.2,0.1-2.3,0.1-3.4c0-1.9,0.1-4.8,0.2-8.7
				c0.1-3.9,0.3-7.6,0.4-11c-1.2,1.8-2.2,3.1-3.1,4.1c-0.4-1.7-1.3-4.3-2.7-7.7c0.8-0.9,1.8-2.2,3-3.9c1.2-1.7,2.4-3.9,3.7-6.5
				c1.3-2.6,2.2-5,2.8-7.1l7,1.6l-0.4,0.6C565.9,5,564.7,7.9,563.2,11z M591.7,23c2,0,3.3,0,3.9-0.1V30c-0.7-0.1-2-0.1-3.9-0.1h-6.8
				v10.4c0,1.2,0,2.5,0.1,3.9h-7.4c0.1-1.4,0.1-2.8,0.1-3.9V29.9h-8.5c-2,0-3.3,0-4,0.1v-7.2c0.7,0.1,2,0.1,4,0.1h8.5v-6.7H572
				c-0.4,1-0.9,2-1.3,3c-0.5,1-1,1.8-1.4,2.5c-0.4-0.4-1.1-1.1-2.1-2c-1-0.9-2.1-1.7-3.3-2.6c0.9-1.2,1.7-2.8,2.5-4.8
				c0.8-2,1.5-4,1.9-5.9c0.5-1.9,0.8-3.6,1-4.9l6.7,1.4c-0.1,0.2-0.2,0.4-0.3,0.8c-0.1,0.7-0.3,1.7-0.6,2.9
				c-0.3,1.2-0.5,2.2-0.7,2.9h3.4v-6c0-1.1,0-2-0.1-2.9c0.9,0,2.2,0,3.9,0.1c1.7,0,2.8,0.1,3.5,0.2c-0.1,0.6-0.1,1.5-0.1,2.7v6h5.7
				c1.6,0,2.7,0,3.3,0v6.8c-0.6,0-1.7,0-3.3,0h-5.7V23H591.7z"/>
			<path class="st0" d="M614.2,29.1v-3.4c-2.3-0.2-4-0.9-5.3-2c-1.3-1.2-2.1-2.7-2.3-4.5h5.6c0.1,0.9,0.4,1.6,0.8,2.1
				c0.4,0.5,0.9,0.8,1.6,0.9v-4.9l-1.7-0.4c-1.8-0.4-3.2-1.2-4.2-2.2c-1-1-1.5-2.3-1.5-3.8c0-1.3,0.3-2.5,0.9-3.4
				c0.6-0.9,1.4-1.6,2.5-2.2c1.1-0.5,2.3-0.8,3.6-0.9V1h2.2v3.4c2,0.2,3.7,0.8,4.8,2c1.2,1.2,1.9,2.8,2.2,4.8H618
				c-0.1-0.8-0.3-1.5-0.6-2.1c-0.3-0.5-0.7-0.9-1.2-1.1v5l1.5,0.4c1.6,0.4,2.8,0.8,3.7,1.4s1.5,1.2,1.9,1.9c0.4,0.7,0.5,1.6,0.5,2.5
				c0,1.9-0.6,3.4-1.9,4.6c-1.3,1.1-3.1,1.8-5.4,1.9v3.4H614.2z M612.5,10.2c0,0.6,0.2,1.1,0.5,1.4c0.3,0.4,0.9,0.7,1.6,0.9V7.8
				c-0.7,0.1-1.2,0.3-1.6,0.8C612.7,9,612.5,9.6,612.5,10.2z M618.4,19.7c0-0.5-0.2-0.9-0.5-1.3c-0.4-0.4-0.9-0.7-1.7-0.9v4.6
				c0.8-0.1,1.4-0.4,1.7-0.8C618.2,20.9,618.4,20.4,618.4,19.7z"/>
			<path class="st0" d="M643.5,44.1c-3.4,0-6.4-0.5-9.1-1.6c-2.6-1-4.7-2.5-6.1-4.4c-1.5-1.9-2.2-4.2-2.2-6.8c0-2.5,0.7-4.7,2.2-6.5
				c1.5-1.8,3.5-3.2,6.1-4.1c-2.2-0.9-3.9-2.2-5.1-3.8c-1.2-1.6-1.9-3.5-1.9-5.7c0-2.3,0.7-4.2,2-5.9c1.3-1.6,3.2-2.9,5.6-3.8
				c2.4-0.9,5.2-1.3,8.4-1.3s6,0.4,8.4,1.3c2.4,0.9,4.2,2.2,5.6,3.8c1.3,1.6,2,3.6,2,5.9c0,2.2-0.6,4.1-1.9,5.7
				c-1.2,1.6-2.9,2.9-5.1,3.8c2.6,0.9,4.6,2.2,6.1,4.1c1.5,1.8,2.2,4,2.2,6.5c0,2.6-0.7,4.9-2.2,6.8c-1.5,1.9-3.5,3.4-6.1,4.4
				C649.9,43.6,646.9,44.1,643.5,44.1z M643.5,37.4c1.6,0,3-0.6,4.1-1.7s1.6-2.8,1.6-5c0-2.2-0.5-3.9-1.6-5s-2.4-1.7-4.1-1.7
				c-1.6,0-3,0.6-4.1,1.7c-1.1,1.1-1.6,2.8-1.6,5c0,2.2,0.5,3.9,1.6,5C640.5,36.8,641.9,37.4,643.5,37.4z M643.5,17.5
				c1.4,0,2.6-0.5,3.5-1.4c0.9-0.9,1.3-2.2,1.3-4c0-1.7-0.4-3.1-1.3-4c-0.9-0.9-2-1.4-3.5-1.4c-1.5,0-2.6,0.5-3.5,1.4
				c-0.9,0.9-1.3,2.2-1.3,4c0,1.7,0.4,3.1,1.3,4C640.9,17.1,642.1,17.5,643.5,17.5z"/>
			<path class="st0" d="M680.4,0.2c3.1,0,5.9,0.7,8.4,2.2c2.5,1.5,4.5,3.8,6,6.9c1.5,3.1,2.2,7.2,2.2,12.1c0,4.5-0.6,8.4-1.9,11.8
				c-1.3,3.4-3.2,6-5.8,8c-2.6,1.9-5.9,2.9-10,2.9c-3.8,0-7-0.9-9.7-2.8c-2.7-1.9-4.3-4.6-5-8.3h11.2c0.2,1.2,0.7,2.2,1.4,2.9
				c0.7,0.7,1.6,1,2.7,1c1.9,0,3.3-0.9,4.3-2.7c1-1.8,1.6-4.7,1.8-8.7c-2.1,2.3-5,3.5-8.5,3.5c-2.7,0-5.1-0.6-7.2-1.7
				c-2-1.1-3.7-2.7-4.8-4.8c-1.2-2-1.8-4.5-1.8-7.2c0-3.1,0.7-5.7,2.1-8c1.4-2.2,3.3-4,5.8-5.2C674.1,0.9,677,0.2,680.4,0.2z
				 M680.5,7.5c-1.8,0-3.2,0.6-4.1,1.9s-1.4,3-1.4,5.3c0,2.3,0.5,4,1.4,5.3s2.3,1.9,4.1,1.9c1.7,0,3-0.6,3.9-1.9s1.4-3,1.4-5.3
				c0-2.3-0.5-4-1.4-5.3S682.2,7.5,680.5,7.5z"/>
		</g>
	</g>
</g>
</svg>
