<svg xmlns="http://www.w3.org/2000/svg" width="697" height="44.4" style="overflow:visible;enable-background:new 0 0 697 44.4" xml:space="preserve"><path d="M10.8 9.9h4.9v3.9h-4.9v8c2.3-.7 3.9-1.3 4.8-1.7v4.3L10.7 26v9.4l.1 3.7c0 .5-.1 1-.3 1.5-.2.5-.5 1-1 1.3-.5.4-1 .7-1.6.9-.6.2-1.3.4-2.1.5-.8.1-1.7.2-2.7.2 0-.1-.1-.3-.2-.6s-.7-1.7-1.8-4.2c.1 0 .5.1 1.2.1.7.1 1.3.1 1.8.1.9 0 1.5-.1 1.9-.3.3-.2.5-.5.5-1V27.2l-3.7 1.1-2 .8-.8-4.4 2.3-.5c1.2-.3 2.6-.7 4.2-1.2v-9.3H.3V9.9h6.3v-7c0-.7 0-1.3-.1-1.9.5-.1 1.2 0 2.2 0 1 0 1.7.1 2.2.1-.1.6-.1 1.2-.1 1.7v7.1zm8.5 3.7V1.9c0-.3 0-.6-.1-.9.6.1 1.3.1 2.2.2.9 0 1.6.1 2.1.1-.1.2-.1.4-.1.7v5.4c2.6-.6 5.5-1.4 8.5-2.3C35 4.2 37 3.4 38 2.8l2.8 3.5-.8.3c-2.7.9-5.7 1.7-8.8 2.6-3.1.9-5.7 1.5-7.8 1.8v2.6c0 .5.1.9.3 1.1.2.2.5.4.9.4.4.1 1 .2 1.9.2.9 0 2.3.1 4.2.1 1.6 0 2.8-.1 3.8-.2.9-.2 1.7-.4 2.4-.8.6-.3 1-.8 1.2-1.4.2-.6.4-1.2.4-1.8.1-.6.1-1 .1-1.3 1.5.9 2.9 1.6 4.1 2.1-.1 1.3-.4 2.3-.7 3.2-.4.9-.9 1.6-1.7 2.2-.7.6-1.9 1-3.4 1.4-1.5.3-3.7.5-6.7.5-2.9 0-5.1-.1-6.5-.2-1.4-.1-2.3-.4-2.9-.8-.6-.4-1-.9-1.3-1.7-.1-.7-.2-1.7-.2-3zm21.5 9v21.2h-4.1v-2.4H23.5v2.4h-4.2c.1-.7.1-1.3.1-1.8V24.4l-.1-1.8h21.5zm-4.1 3.7H23.5v3.8h13.3v-3.8zM23.5 37.7h13.3v-4.1H23.5v4.1zm61.6.8c5.6 0 10.1-.3 13.6-.8-.2.6-.4 1.3-.6 2.2-.2.9-.4 1.6-.5 2.1-1.2.2-2.7.3-4.5.4-1.8.1-4.6.2-8.2.2-3.1 0-5.8-.3-8.2-1s-4.5-1.7-6.2-3c-1.7-1.3-3.2-3-4.2-4.9-.8 2-1.7 3.9-2.8 5.6-1.1 1.7-2.2 3.2-3.4 4.4-.5-.4-1.8-1.3-3.9-2.6 1.3-1.2 2.5-2.5 3.5-4.1 1-1.6 1.8-3.1 2.5-4.5.6-1.4 1.2-2.9 1.6-4.5.5-1.6.9-3.3 1.2-5.3l4.3.9-.2.6c-.1.6-.3 1.4-.5 2.3-.2 1-.4 1.7-.6 2.3.3.9.7 1.8 1.3 2.9.6 1 1.4 2 2.5 2.9 1.1.9 2.3 1.6 3.6 2.2V18.9H62.8v-4.1c.6.1 1.7.1 3.2.1h26.1V9.6H62.7V16h-4.4c.1-.5.1-.9.1-1.3V7.1c0-.3 0-.8-.1-1.3h17.3c-.1-.3-.4-.8-.8-1.6s-.9-1.5-1.4-2.4L77.3.2c.2.3.6 1 1.1 1.8.5.9 1.2 2.1 2 3.7h16V16h-3.9v3H79.4v6.9h12.2v3.9H79.4V38c1.7.4 3.6.5 5.7.5zm44.1-5.2H125v-2h-7.1v4h-4.3c.1-.9.1-1.7.1-2.4V6.1l-.1-2.4h15.5v27.4l.1 2.2zm-4.1-25.9H118v8h7.1v-8zm-7.2 20.2h7.1V19h-7.1v8.6zm34.4-22.4v30.3l.1 3.4c0 .5-.1 1-.3 1.5-.2.5-.6 1-1.2 1.4s-1.4.7-2.5 1c-1.1.3-2.6.4-4.5.4-.1-.3-.8-1.7-2-4.3.4.1.9.1 1.6.2.7.1 1.3.1 1.9.1 1 0 1.7-.1 2.1-.4.4-.2.6-.6.6-1.1v-9.1h-10.9c-.3 1.6-.8 3.3-1.5 5.2-.7 1.9-1.7 3.7-2.9 5.4-1.2 1.7-2.6 3.1-4.2 4.2-1.8-1.4-2.9-2.4-3.5-2.9 3.1-2.1 5.3-4.8 6.7-8.2 1.4-3.4 2.1-7.5 2.1-12.4V4.1l-.1-1.3h18.6l-.1 2.4zm-14.4 19.6h10.3v-7.3h-10.1V20c0 1.5 0 3.1-.2 4.8zm10.3-18.2h-10.1v7.3h10.1V6.6zm57.1 32c2 0 3.3 0 4.1-.1v4.1c-.8-.1-2.1-.1-4.1-.1h-33.1c-2 0-3.4 0-4.1.1v-4.1c.8.1 2.1.1 4.1.1H187v-4.1h-9.3c-1.4 0-2.5 0-3.2.1V31c.7.1 1.7.1 3.2.1h9.3v-3.7h-10.5c-1.9 2.5-3.8 4.4-5.5 5.9-.5-.6-1.5-1.7-3.2-3.2 1.7-1.2 3.5-2.9 5.2-5 1.7-2.1 2.9-4.1 3.6-5.8l4.1 1.2c-.1.1-.2.3-.3.5-.4.9-.8 1.8-1.4 2.7h8.1v-2.2c0-.5 0-1-.1-1.6.5 0 1.3 0 2.3.1 1 0 1.7.1 2.2.1-.1.5-.1 1-.1 1.4v2.2h12.3c1.6 0 2.7 0 3.3-.1v3.8c-.6-.1-1.7-.1-3.3-.1h-12.3V31h10.5c1.5 0 2.5 0 3.2-.1v3.6c-.6-.1-1.7-.1-3.2-.1h-10.5v4.1h13.9zm-30.7-19.7c.1-.6.1-1.2.1-1.6V4.5c0-.4 0-1-.1-1.6H203v16h-28.4zm24.3-12.6h-20v3h20v-3zm-20 9.2h20v-3.2h-20v3.2zm76.3-6.3-.3.4c-.6 1.3-1.4 2.7-2.2 4.1h10.2V36l.1 3.2c0 .8-.1 1.4-.4 1.9-.3.5-.7.9-1.2 1.2-.5.3-1.1.6-1.8.8-.7.2-1.6.4-2.7.5-1.1.1-2.3.2-3.6.2-.2-.5-.6-1.2-1-2.1-.4-.9-.8-1.7-1.2-2.3.5.1 1.1.2 1.9.2.8.1 1.6.1 2.3.1 1.2 0 2.1-.1 2.6-.4.5-.3.7-.6.7-1.1V17.3H250V21c0 .3.1.5.4.5.7.2 1.8.3 3.1.2 1.4 0 2.6-.1 3.8-.3l-.3 3.5c-2.3.3-4.4.3-6.4.2-2-.1-3.2-.4-3.6-.7-.3-.3-.5-.6-.7-1-.2-.4-.2-1.3-.2-2.7v-3.4h-3.4c-.3 1.3-.6 2.5-1.2 3.5-.5 1-1.2 2-2 2.8s-1.8 1.5-2.9 2.1c-1.1.6-2.4 1.1-3.8 1.6-.1-.3-.3-.6-.6-1.1-.3-.5-.9-1.3-1.6-2.3 2.6-.6 4.6-1.4 5.8-2.4 1.2-1.1 2-2.4 2.5-4.1h-8.4v24.1c0 .6 0 1.4.1 2.3H226c.1-.8.1-1.6.1-2.3V15c0-.4 0-.8-.1-1.3h9.7c-.9-1.9-1.7-3.4-2.4-4.4h-9.2V5.1c.8.1 2.1.1 4.1.1h13.9c-.2-.5-.5-1.1-.9-1.7-.3-.7-.7-1.3-.9-1.7l4-1.2c.3.5.7 1.2 1.2 2.1.5.9.9 1.8 1.2 2.6h14.1c1.9 0 3.2 0 4-.1v4.1h-9.6zm-2.6 27.5V38h-12.4v3.3h-4c.1-.6.1-1.1.1-1.5V28.1c0-.3 0-.8-.1-1.5h16.4v10.1zm-12.7-23.1h8.2c.4-.6.8-1.4 1.3-2.2.5-.8.8-1.6 1.1-2.2h-12.6c.9 1.8 1.5 3.3 2 4.4zm.3 20.9h8.5v-4.4h-8.5v4.4zm58.1-10.7v19.7h-4.2V41h-9.2v2.6h-4.4c.1-.7.1-1.3.1-1.8V25.5c0-.5 0-1.1-.1-1.7h17.8zm-13.4 13.3h9.2v-9.5h-9.2v9.5zm2.7-17.9c.1-.6.1-1.2.1-1.6V4.7c0-.4 0-1-.1-1.6h25.1v16h-25.1zm20.7-12.1H292v8.2h16.3V7.1zm12.2 18.4v18h-4.4V41h-9.4v2.6h-4.4c.1-.7.1-1.3.1-1.8V25.5c0-.5 0-1.1-.1-1.7h18.1l.1 1.7zm-13.7 11.6h9.4v-9.5h-9.4v9.5zm38.1-11.2h-10.7v-4.2h10.7V11h4.4v10.8h10.6V26h-10.6v10.7h-4.4V25.9zm34.8-15.8c-.9.9-1.7 1.7-2.7 2.5-.9.8-1.8 1.5-2.7 2-.3-.9-1-2.2-1.9-3.7 1.8-1.1 3.6-2.5 5.5-4.4 1.8-1.9 3.2-3.8 4-5.7l4 .6-.3.5-.2.4c1.2.9 2.6 2.1 4.3 3.5 1.7 1.4 2.9 2.5 3.8 3.4-.3.3-1 1.4-2.3 3.4l-2.6-2.7V12h-9v-1.9zm25.4 10.1c.1 1.9.4 3.7 1.1 5.7.6 1.9 1.4 3.7 2.4 5.4 1 1.7 2.1 3.2 3.4 4.6 1.3 1.4 2.6 2.4 3.9 3.3-1.3 2.3-2 3.7-2.2 4.2-.9-.6-1.7-1.4-2.7-2.3-.9-.9-1.9-1.9-2.8-3.1-.9-1.2-1.8-2.6-2.6-4.2s-1.5-3.4-2.1-5.5c-.7 3.3-1.9 6.2-3.6 8.9-1.7 2.6-3.8 4.8-6.3 6.3-.4-.6-1.2-1.7-2.4-3.4l-2.1 1c-.1-.3-.3-.8-.6-1.4-.3-.6-.5-1.1-.7-1.5-2.8.9-5.9 2-9.3 3.2l-2.1.8-1.6-3.5c.9-.4 1.3-1.1 1.3-2.1v-21l-.1-1.2h15.5v14.8h-11.8V37c1.7-.5 3.7-1.1 6.2-2-1.2-1.8-2-3.1-2.6-3.8l3-1.1c.9 1 1.9 2.4 3 4 1.1 1.7 2.1 3.3 3 5 6-4 9-11.6 9-22.8 0-.6 0-1.1-.1-1.6l4 .2c-.1.3-.1.7-.1.9v4.4zM388 17.4h-8.1v2.9h8.1v-2.9zm-8.1 8.8h8.1V23h-8.1v3.2zm7.9-17.1c-.5-.5-1.2-1.2-2.1-2-.9-.8-1.6-1.4-2.1-1.9-.3.5-.8 1.2-1.5 2-.6.8-1.1 1.4-1.6 1.9h7.3zm7.7 11.6c-.2-.3-.5-.7-1.1-1.3l-1.9-1.9c.9-1 1.7-2.3 2.6-3.8.8-1.6 1.6-3.4 2.3-5.6.7-2.2 1.3-4.6 1.7-7.3l3.9.7-.3.5c-.1.8-.3 1.8-.7 3-.3 1.3-.6 2.3-.8 3h11.1l.4-.4c1 .6 2.1 1.4 3.1 2.3l-.4.2c-.3 1.1-.6 2.5-1.2 4-.5 1.6-1.2 3.1-1.9 4.7-.8 1.6-1.5 2.9-2.2 3.8-.8-.9-1.7-2-2.9-3 .5-.6 1-1.4 1.6-2.5.6-1 1-2 1.4-3.1.4-1 .7-1.8.9-2.4H400c-.7 1.9-1.4 3.6-2.2 5.1-.8 1.9-1.6 3.1-2.3 4zm52.3 3.1v19.7h-4.2V41h-9.2v2.6H430c.1-.7.1-1.3.1-1.8V25.5c0-.5 0-1.1-.1-1.7h17.8zm-13.4 13.3h9.2v-9.5h-9.2v9.5zm2.7-17.9c.1-.6.1-1.2.1-1.6V4.7c0-.4 0-1-.1-1.6h25.1v16h-25.1zm20.7-12.1h-16.3v8.2h16.3V7.1zM470 25.5v18h-4.4V41h-9.4v2.6h-4.4c.1-.7.1-1.3.1-1.8V25.5c0-.5 0-1.1-.1-1.7H470v1.7zm-13.7 11.6h9.4v-9.5h-9.4v9.5zm48.5 6v-1.4c0-3.6.8-6.7 2.4-9.3 1.6-2.6 4.1-5.2 7.6-7.7L520 21c1.8-1.3 3.1-2.5 3.9-3.7s1.2-2.4 1.2-3.9c0-1.7-.4-3.1-1.2-4-.8-.9-1.9-1.4-3.3-1.4-1.6 0-2.9.6-3.7 1.9-.9 1.3-1.4 3.2-1.6 5.9h-10.6c.3-4.9 1.9-8.6 4.9-11.4 3-2.7 6.9-4.1 11.8-4.1 3 0 5.7.5 7.9 1.6 2.3 1 4 2.5 5.3 4.4 1.3 1.9 1.9 4.1 1.9 6.7 0 2.6-.6 5-1.9 7.1-1.3 2.1-3.3 4.1-6 6.1l-5.9 4.2c-1.4 1-2.4 1.8-3.2 2.5-.7.7-1.2 1.4-1.4 2.1h18.6v8.3h-31.9zM563.2 11v30c0 1.1 0 2.2.1 3.4h-7.4c.1-1.2.1-2.3.1-3.4 0-1.9.1-4.8.2-8.7.1-3.9.3-7.6.4-11-1.2 1.8-2.2 3.1-3.1 4.1-.4-1.7-1.3-4.3-2.7-7.7.8-.9 1.8-2.2 3-3.9 1.2-1.7 2.4-3.9 3.7-6.5 1.3-2.6 2.2-5 2.8-7.1l7 1.6-.4.6c-1 2.6-2.2 5.5-3.7 8.6zm28.5 12c2 0 3.3 0 3.9-.1V30c-.7-.1-2-.1-3.9-.1h-6.8v10.4c0 1.2 0 2.5.1 3.9h-7.4c.1-1.4.1-2.8.1-3.9V29.9h-8.5c-2 0-3.3 0-4 .1v-7.2c.7.1 2 .1 4 .1h8.5v-6.7H572c-.4 1-.9 2-1.3 3-.5 1-1 1.8-1.4 2.5-.4-.4-1.1-1.1-2.1-2-1-.9-2.1-1.7-3.3-2.6.9-1.2 1.7-2.8 2.5-4.8s1.5-4 1.9-5.9c.5-1.9.8-3.6 1-4.9l6.7 1.4c-.1.2-.2.4-.3.8-.1.7-.3 1.7-.6 2.9s-.5 2.2-.7 2.9h3.4v-6c0-1.1 0-2-.1-2.9.9 0 2.2 0 3.9.1 1.7 0 2.8.1 3.5.2-.1.6-.1 1.5-.1 2.7v6h9v6.8h-9V23h6.7zm22.5 6.1v-3.4c-2.3-.2-4-.9-5.3-2-1.3-1.2-2.1-2.7-2.3-4.5h5.6c.1.9.4 1.6.8 2.1s.9.8 1.6.9v-4.9l-1.7-.4c-1.8-.4-3.2-1.2-4.2-2.2-1-1-1.5-2.3-1.5-3.8 0-1.3.3-2.5.9-3.4.6-.9 1.4-1.6 2.5-2.2 1.1-.5 2.3-.8 3.6-.9V1h2.2v3.4c2 .2 3.7.8 4.8 2 1.2 1.2 1.9 2.8 2.2 4.8H618c-.1-.8-.3-1.5-.6-2.1-.3-.5-.7-.9-1.2-1.1v5l1.5.4c1.6.4 2.8.8 3.7 1.4s1.5 1.2 1.9 1.9c.4.7.5 1.6.5 2.5 0 1.9-.6 3.4-1.9 4.6-1.3 1.1-3.1 1.8-5.4 1.9v3.4h-2.3zm-1.7-18.9c0 .6.2 1.1.5 1.4.3.4.9.7 1.6.9V7.8c-.7.1-1.2.3-1.6.8-.3.4-.5 1-.5 1.6zm5.9 9.5c0-.5-.2-.9-.5-1.3-.4-.4-.9-.7-1.7-.9v4.6c.8-.1 1.4-.4 1.7-.8.3-.4.5-.9.5-1.6zm25.1 24.4c-3.4 0-6.4-.5-9.1-1.6-2.6-1-4.7-2.5-6.1-4.4-1.5-1.9-2.2-4.2-2.2-6.8 0-2.5.7-4.7 2.2-6.5 1.5-1.8 3.5-3.2 6.1-4.1-2.2-.9-3.9-2.2-5.1-3.8-1.2-1.6-1.9-3.5-1.9-5.7 0-2.3.7-4.2 2-5.9 1.3-1.6 3.2-2.9 5.6-3.8 2.4-.9 5.2-1.3 8.4-1.3s6 .4 8.4 1.3c2.4.9 4.2 2.2 5.6 3.8 1.3 1.6 2 3.6 2 5.9 0 2.2-.6 4.1-1.9 5.7-1.2 1.6-2.9 2.9-5.1 3.8 2.6.9 4.6 2.2 6.1 4.1 1.5 1.8 2.2 4 2.2 6.5 0 2.6-.7 4.9-2.2 6.8-1.5 1.9-3.5 3.4-6.1 4.4-2.5 1.1-5.5 1.6-8.9 1.6zm0-6.7c1.6 0 3-.6 4.1-1.7s1.6-2.8 1.6-5-.5-3.9-1.6-5-2.4-1.7-4.1-1.7c-1.6 0-3 .6-4.1 1.7-1.1 1.1-1.6 2.8-1.6 5s.5 3.9 1.6 5 2.5 1.7 4.1 1.7zm0-19.9c1.4 0 2.6-.5 3.5-1.4.9-.9 1.3-2.2 1.3-4 0-1.7-.4-3.1-1.3-4-.9-.9-2-1.4-3.5-1.4s-2.6.5-3.5 1.4c-.9.9-1.3 2.2-1.3 4 0 1.7.4 3.1 1.3 4 .9 1 2.1 1.4 3.5 1.4zM680.4.2c3.1 0 5.9.7 8.4 2.2 2.5 1.5 4.5 3.8 6 6.9 1.5 3.1 2.2 7.2 2.2 12.1 0 4.5-.6 8.4-1.9 11.8-1.3 3.4-3.2 6-5.8 8-2.6 1.9-5.9 2.9-10 2.9-3.8 0-7-.9-9.7-2.8-2.7-1.9-4.3-4.6-5-8.3h11.2c.2 1.2.7 2.2 1.4 2.9.7.7 1.6 1 2.7 1 1.9 0 3.3-.9 4.3-2.7 1-1.8 1.6-4.7 1.8-8.7-2.1 2.3-5 3.5-8.5 3.5-2.7 0-5.1-.6-7.2-1.7-2-1.1-3.7-2.7-4.8-4.8-1.2-2-1.8-4.5-1.8-7.2 0-3.1.7-5.7 2.1-8 1.4-2.2 3.3-4 5.8-5.2C674.1.9 677 .2 680.4.2zm.1 7.3c-1.8 0-3.2.6-4.1 1.9s-1.4 3-1.4 5.3.5 4 1.4 5.3 2.3 1.9 4.1 1.9c1.7 0 3-.6 3.9-1.9s1.4-3 1.4-5.3-.5-4-1.4-5.3-2.2-1.9-3.9-1.9z" style="fill:#e3809d"/></svg>