<!-- Generator: Adobe Illustrator 25.0.0, SVG Export Plug-In  -->
<svg version="1.1" xmlns="http://www.w3.org/2000/svg" xmlns:xlink="http://www.w3.org/1999/xlink" x="0px" y="0px" width="40.8px"
	 height="61.3px" viewBox="0 0 40.8 61.3" style="overflow:visible;enable-background:new 0 0 40.8 61.3;" xml:space="preserve">
<style type="text/css">
	.st0{fill:#E2809C;}
</style>
<defs>
</defs>
<path class="st0" d="M21.8,61.3c-0.6,0-1.1,0-1.7,0c-0.6-2.7-1.2-5.5-1.8-8.2c-1.1-5-2.4-9.8-4.9-14.3c-0.6-1.2-1.5-2.2-2.2-3.3
	C9.5,33,7,31.9,4.4,31c-1-0.4-2.1-0.6-3.1-1c-0.5-0.2-0.8-0.7-1.2-1c0.3-0.4,0.6-0.8,1.1-1c0.8-0.4,1.7-0.8,2.6-1
	c5.9-1.7,9.7-5.6,11.9-11.1c1.5-4,2.6-8.2,3.9-12.3c0.3-0.8,0.5-1.6,0.7-2.5c0.2-0.9,0.7-1.4,2-0.9c0.6,2.7,1.2,5.6,2,8.4
	c1.1,3.8,2.3,7.7,3.9,11.3c1.6,3.8,4.7,6.3,8.7,7.3c0.9,0.3,1.9,0.5,2.8,0.9c0.5,0.2,0.9,0.6,1.3,1c-0.5,0.3-0.9,0.6-1.4,0.9
	c-2.2,1-4.4,1.8-6.5,2.9c-2.9,1.6-4.5,4.5-5.5,7.4c-1.5,4.1-2.4,8.3-3.5,12.5C23.2,55.6,22.5,58.4,21.8,61.3z"/>
</svg>
