<svg xmlns="http://www.w3.org/2000/svg" width="40.8" height="61.3" style="overflow:visible;enable-background:new 0 0 40.8 61.3" xml:space="preserve"><path d="M21.8 61.3h-1.7c-.6-2.7-1.2-5.5-1.8-8.2-1.1-5-2.4-9.8-4.9-14.3-.6-1.2-1.5-2.2-2.2-3.3C9.5 33 7 31.9 4.4 31c-1-.4-2.1-.6-3.1-1-.5-.2-.8-.7-1.2-1 .3-.4.6-.8 1.1-1 .8-.4 1.7-.8 2.6-1 5.9-1.7 9.7-5.6 11.9-11.1 1.5-4 2.6-8.2 3.9-12.3.3-.8.5-1.6.7-2.5.2-.9.7-1.4 2-.9.6 2.7 1.2 5.6 2 8.4 1.1 3.8 2.3 7.7 3.9 11.3 1.6 3.8 4.7 6.3 8.7 7.3.9.3 1.9.5 2.8.9.5.2.9.6 1.3 1-.5.3-.9.6-1.4.9-2.2 1-4.4 1.8-6.5 2.9-2.9 1.6-4.5 4.5-5.5 7.4-1.5 4.1-2.4 8.3-3.5 12.5-.9 2.8-1.6 5.6-2.3 8.5z" style="fill:#e2809c"/></svg>