<svg xmlns="http://www.w3.org/2000/svg" width="32.1" height="33.7" style="overflow:visible;enable-background:new 0 0 32.1 33.7" xml:space="preserve"><path d="M16 1.2h-.3c-.1 0-.1 0-.2.1-.2.1-.3.2-.5.3-.1.1-.3.3-.3.4-.1.2-.2.3-.4.5-.2.4-.4.8-.6 1.1-.1.2-.2.4-.3.7-.1.2-.2.3-.2.5V5c-.3.7-.7 1.5-1 2.4-.5 1.3-1 2.8-1.4 4.2-.3 0-.5 0-.8-.1h-.1c-.3 0-.5 0-.8-.1h-.6c-.3 0-.6-.1-.9-.1-.8-.1-1.4-.1-2-.1h-.3c-.7 0-1.3 0-1.9.1-.7.1-1.2.3-1.6.5-.4.3-.7.7-.7 1.2 0 .3 0 .5.2.8.1.3.3.5.5.9.2.3.4.5.7.8.3.3.6.5.9.8.5.4 1.1.8 1.7 1.2.6.4 1.2.7 1.9 1.1.5.3 1 .5 1.4.7l-.1.2c0 .5-.1.9-.3 1.3l-.2.5c-.6 1.5-1 2.8-1.4 4.1-.2.8-.4 1.4-.5 2-.1.5-.2 1.1-.1 1.8 0 .6.1 1 .4 1.3.1.2.3.3.5.5.2.1.4.2.7.2h.2c.1 0 .3 0 .5-.1.3 0 .6-.1.9-.2.7-.3 1.3-.7 1.8-1 .6-.4 1.2-.8 1.9-1.4.6-.4 1.1-.9 1.8-1.5s1.3-1.2 1.9-1.8c1.3 2 2.3 3.5 3.5 4.7.2.2.4.5.7.7l.3.3.9.9c.4.3.7.5 1.1.6.1 0 .2 0 .3.1h.3c.2 0 .4-.1.6-.2.3-.2.5-.5.6-.9.1-.4.2-.9.2-1.2v-1.1c0-.6-.1-1.2-.2-1.9-.2-1.3-.4-2.5-.6-3.8l-.1-.3c-.1-.5-.2-1.1-.3-1.6-.1-.3-.2-.7-.2-1 .5-.3 1-.5 1.5-.8l.4-.2c.6-.3 1.1-.6 1.7-.9l1.2-.6c.3-.2.8-.4 1.2-.7.4-.3.8-.6 1.1-.8.3-.3.8-1 .6-1.7-.1-.4-.4-.7-.9-1.1-.2-.2-.5-.3-.7-.4-.3-.1-.5-.2-.8-.3-.7-.2-1.4-.3-2-.4-.6-.1-1.2-.2-2-.2-.6 0-1.1-.1-1.7-.1h-2.3c-.1-.5-.2-1-.4-1.5-.1-.4-.2-.9-.3-1.3-.1-.3-.1-.5-.2-.8v-.3l-.1-.2c-.3-1.2-.6-2.6-1.1-4-.4-.5-.7-1.2-1.1-1.8-.2-.2-.3-.5-.5-.7-.2-.2-.4-.3-.6-.4-.1-.1-.3-.1-.5-.1" style="fill:#ffce00;stroke:#000;stroke-width:2.3595;stroke-miterlimit:10"/><path d="M16.3 2.8c-.1 0-.1.1-.1.2.1.2.1.4.2.6.1.5.3 1 .4 1.5.1.5.2 1.1.3 1.6.1.5.2 1 .3 1.6.1.6.2 1.1.4 1.7 0 .1.1.1.2.2s.2.1.4.1c.1 0 .2-.1.3-.2.1-.1.1-.3.1-.4-.1-.6-.3-1.1-.5-1.7-.2-.6-.3-1.1-.5-1.7-.2-.6-.4-1.1-.6-1.7-.2-.6-.4-1.1-.6-1.7-.1-.1-.2-.1-.3-.1.1 0 0 0 0 0m2 8.4c-.1.1-.2.2-.2.3 0 .1 0 .2.1.3.1.1.2.2.3.2.1 0 .2 0 .3-.1.1-.1.2-.2.2-.3 0-.1 0-.2-.1-.3-.1-.1-.2-.2-.3-.2-.1 0-.2 0-.3.1m3.9 11.3c-.1 0-.1.1-.1.1.2.9.3 1.8.4 2.7.1.9.1 1.8.1 2.8v.8c0 .1 0 .1.1.2s.1.1.2.1c.2 0 .4-.2.4-.4-.1-.5-.1-1-.2-1.6-.1-.5-.1-1-.2-1.6-.1-1-.4-2.1-.6-3.1 0 .1-.1 0-.1 0m-7.9 2.2c-.2.3-.5.7-.8 1-.6.6-1.3 1.2-2.1 1.6-.4.2-.8.5-1.2.7-.2.1-.4.2-.6.4-.2.1-.4.2-.6.4-.1 0-.2.1-.2.2v.3c.1.2.4.3.6.1.2-.2.4-.3.6-.5.2-.2.5-.3.7-.5.5-.3 1-.7 1.4-1 .9-.7 1.8-1.5 2.4-2.5v-.2c0-.1-.1-.1-.2 0 .1-.1.1-.1 0 0m-2.8 2.6s0-.1 0 0c0-.1 0-.1 0 0 0-.1 0 0 0 0m-4 2c-.1.1-.2.2-.2.3 0 .1 0 .2.1.3.1.1.2.2.3.2.1 0 .2 0 .3-.1.1-.1.2-.2.2-.3 0-.1 0-.2-.1-.3-.1-.1-.2-.2-.3-.2-.1 0-.2 0-.3.1m14.6-15.6c0 .1 0 .2.1.2.5 0 1 0 1.6.1.5.1 1.1.2 1.6.3h-.1c.2.1.4.1.6.2.2.1.4.1.6.2h-.1l1.2.3h.3c.1 0 .2-.1.3-.3.1-.1.1-.3 0-.4 0-.1-.1-.1-.1-.2-.1-.1-.1-.1-.2-.1-.5-.1-.9-.2-1.4-.2-.2 0-.5-.1-.7-.1h-.7c-1-.1-1.9-.1-2.9-.1-.1 0-.1 0-.1.1" style="fill:#ffe656"/></svg>