<!-- Generator: Adobe Illustrator 25.0.0, SVG Export Plug-In  -->
<svg version="1.1" xmlns="http://www.w3.org/2000/svg" xmlns:xlink="http://www.w3.org/1999/xlink" x="0px" y="0px" width="32.1px"
	 height="33.7px" viewBox="0 0 32.1 33.7" style="overflow:visible;enable-background:new 0 0 32.1 33.7;" xml:space="preserve">
<style type="text/css">
	.st0{fill:#FFCE00;stroke:#000000;stroke-width:2.3595;stroke-miterlimit:10;}
	.st1{fill:#FFE656;}
</style>
<defs>
</defs>
<g>
	<g>
		<path class="st0" d="M16,1.2c0,0-0.1,0-0.1,0c-0.1,0-0.1,0-0.2,0c-0.1,0-0.1,0-0.2,0.1c-0.2,0.1-0.3,0.2-0.5,0.3
			c-0.1,0.1-0.3,0.3-0.3,0.4c-0.1,0.2-0.2,0.3-0.4,0.5c-0.2,0.4-0.4,0.8-0.6,1.1c-0.1,0.2-0.2,0.4-0.3,0.7c-0.1,0.2-0.2,0.3-0.2,0.5
			L13.2,5c-0.3,0.7-0.7,1.5-1,2.4c-0.5,1.3-1,2.8-1.4,4.2c-0.3,0-0.5,0-0.8-0.1l-0.1,0c-0.3,0-0.5,0-0.8-0.1l-0.3,0l-0.3,0
			c-0.3,0-0.6-0.1-0.9-0.1c-0.8-0.1-1.4-0.1-2-0.1H5.3c-0.7,0-1.3,0-1.9,0.1c-0.7,0.1-1.2,0.3-1.6,0.5c-0.4,0.3-0.7,0.7-0.7,1.2
			c0,0.3,0,0.5,0.2,0.8c0.1,0.3,0.3,0.5,0.5,0.9c0.2,0.3,0.4,0.5,0.7,0.8c0.3,0.3,0.6,0.5,0.9,0.8c0.5,0.4,1.1,0.8,1.7,1.2
			c0.6,0.4,1.2,0.7,1.9,1.1c0.5,0.3,1,0.5,1.4,0.7l-0.1,0.2C8.3,20,8.2,20.4,8,20.8l-0.2,0.5c-0.6,1.5-1,2.8-1.4,4.1
			c-0.2,0.8-0.4,1.4-0.5,2c-0.1,0.5-0.2,1.1-0.1,1.8c0,0.6,0.1,1,0.4,1.3c0.1,0.2,0.3,0.3,0.5,0.5c0.2,0.1,0.4,0.2,0.7,0.2
			c0.1,0,0.1,0,0.2,0c0.1,0,0.3,0,0.5-0.1C8.4,31.1,8.7,31,9,30.9c0.7-0.3,1.3-0.7,1.8-1c0.6-0.4,1.2-0.8,1.9-1.4
			c0.6-0.4,1.1-0.9,1.8-1.5c0.7-0.6,1.3-1.2,1.9-1.8c1.3,2,2.3,3.5,3.5,4.7c0.2,0.2,0.4,0.5,0.7,0.7l0.3,0.3
			c0.3,0.3,0.6,0.6,0.9,0.9c0.4,0.3,0.7,0.5,1.1,0.6c0.1,0,0.2,0,0.3,0.1c0,0,0.1,0,0.1,0c0.1,0,0.1,0,0.2,0c0.2,0,0.4-0.1,0.6-0.2
			c0.3-0.2,0.5-0.5,0.6-0.9c0.1-0.4,0.2-0.9,0.2-1.2c0-0.4,0-0.7,0-1.1c0-0.6-0.1-1.2-0.2-1.9c-0.2-1.3-0.4-2.5-0.6-3.8l-0.1-0.3
			c-0.1-0.5-0.2-1.1-0.3-1.6c-0.1-0.3-0.2-0.7-0.2-1c0.5-0.3,1-0.5,1.5-0.8l0.4-0.2c0.6-0.3,1.1-0.6,1.7-0.9
			c0.4-0.2,0.8-0.4,1.2-0.6c0.3-0.2,0.8-0.4,1.2-0.7c0.4-0.3,0.8-0.6,1.1-0.8c0.3-0.3,0.8-1,0.6-1.7c-0.1-0.4-0.4-0.7-0.9-1.1
			c-0.2-0.2-0.5-0.3-0.7-0.4c-0.3-0.1-0.5-0.2-0.8-0.3c-0.7-0.2-1.4-0.3-2-0.4c-0.6-0.1-1.2-0.2-2-0.2c-0.6,0-1.1-0.1-1.7-0.1
			l-0.4,0c-0.2,0-0.3,0-0.5,0c-0.4,0-0.7,0-1.2,0h-0.2c-0.1-0.5-0.2-1-0.4-1.5c-0.1-0.4-0.2-0.9-0.3-1.3c-0.1-0.3-0.1-0.5-0.2-0.8
			l0-0.2l0-0.1l-0.1-0.2c-0.3-1.2-0.6-2.6-1.1-4C18.3,3.7,18,3,17.6,2.4c-0.2-0.2-0.3-0.5-0.5-0.7c-0.2-0.2-0.4-0.3-0.6-0.4
			C16.4,1.2,16.2,1.2,16,1.2"/>
		<path class="st1" d="M16.3,2.8c-0.1,0-0.1,0.1-0.1,0.2c0.1,0.2,0.1,0.4,0.2,0.6c0,0,0,0,0,0c0.1,0.5,0.3,1,0.4,1.5
			c0.1,0.5,0.2,1.1,0.3,1.6c0.1,0.5,0.2,1,0.3,1.6c0.1,0.6,0.2,1.1,0.4,1.7c0,0.1,0.1,0.1,0.2,0.2c0.1,0.1,0.2,0.1,0.4,0.1
			c0.1,0,0.2-0.1,0.3-0.2c0.1-0.1,0.1-0.3,0.1-0.4c-0.1-0.6-0.3-1.1-0.5-1.7c-0.2-0.6-0.3-1.1-0.5-1.7c-0.2-0.6-0.4-1.1-0.6-1.7
			c-0.2-0.6-0.4-1.1-0.6-1.7C16.5,2.8,16.4,2.8,16.3,2.8C16.4,2.8,16.3,2.8,16.3,2.8 M16.4,3.6C16.4,3.6,16.4,3.6,16.4,3.6
			C16.4,3.6,16.4,3.6,16.4,3.6"/>
		<path class="st1" d="M18.3,11.2c-0.1,0.1-0.2,0.2-0.2,0.3c0,0.1,0,0.2,0.1,0.3c0.1,0.1,0.2,0.2,0.3,0.2c0.1,0,0.2,0,0.3-0.1
			c0.1-0.1,0.2-0.2,0.2-0.3c0-0.1,0-0.2-0.1-0.3c-0.1-0.1-0.2-0.2-0.3-0.2C18.5,11.1,18.4,11.1,18.3,11.2"/>
		<path class="st1" d="M22.2,22.5c-0.1,0-0.1,0.1-0.1,0.1c0.2,0.9,0.3,1.8,0.4,2.7c0.1,0.9,0.1,1.8,0.1,2.8v0c0,0.2,0,0.5,0,0.7
			c0,0,0,0.1,0,0.1c0,0.1,0,0.1,0.1,0.2c0.1,0.1,0.1,0.1,0.2,0.1c0.2,0,0.4-0.2,0.4-0.4c-0.1-0.5-0.1-1-0.2-1.6
			c-0.1-0.5-0.1-1-0.2-1.6c-0.1-1-0.4-2.1-0.6-3.1C22.3,22.6,22.2,22.5,22.2,22.5C22.2,22.5,22.2,22.5,22.2,22.5"/>
		<path class="st1" d="M14.3,24.7c-0.2,0.3-0.5,0.7-0.8,1l0,0c-0.6,0.6-1.3,1.2-2.1,1.6c0,0,0,0,0,0c0,0,0,0,0,0c0,0,0,0,0,0
			c0,0,0,0,0,0c-0.4,0.2-0.8,0.5-1.2,0.7c-0.2,0.1-0.4,0.2-0.6,0.4c-0.2,0.1-0.4,0.2-0.6,0.4c-0.1,0-0.2,0.1-0.2,0.2
			c0,0.1,0,0.2,0,0.3c0.1,0.2,0.4,0.3,0.6,0.1c0.2-0.2,0.4-0.3,0.6-0.5c0.2-0.2,0.5-0.3,0.7-0.5c0.5-0.3,1-0.7,1.4-1
			c0.9-0.7,1.8-1.5,2.4-2.5c0-0.1,0-0.1,0-0.2C14.5,24.6,14.4,24.6,14.3,24.7C14.4,24.6,14.4,24.6,14.3,24.7 M11.5,27.3
			C11.5,27.3,11.5,27.2,11.5,27.3C11.5,27.2,11.5,27.2,11.5,27.3C11.5,27.2,11.5,27.3,11.5,27.3"/>
		<path class="st1" d="M7.5,29.3c-0.1,0.1-0.2,0.2-0.2,0.3c0,0.1,0,0.2,0.1,0.3c0.1,0.1,0.2,0.2,0.3,0.2c0.1,0,0.2,0,0.3-0.1
			c0.1-0.1,0.2-0.2,0.2-0.3c0-0.1,0-0.2-0.1-0.3c-0.1-0.1-0.2-0.2-0.3-0.2C7.7,29.2,7.6,29.2,7.5,29.3"/>
		<path class="st1" d="M22.1,13.7c0,0.1,0,0.2,0.1,0.2c0.5,0,1,0,1.6,0.1c0.5,0.1,1.1,0.2,1.6,0.3c0,0-0.1,0-0.1,0
			c0.2,0.1,0.4,0.1,0.6,0.2c0.2,0.1,0.4,0.1,0.6,0.2c0,0-0.1,0-0.1,0c0.4,0.1,0.8,0.2,1.2,0.3l0.1,0c0.1,0,0.2,0,0.2,0
			c0.1,0,0.2-0.1,0.3-0.3c0.1-0.1,0.1-0.3,0-0.4c0-0.1-0.1-0.1-0.1-0.2c-0.1-0.1-0.1-0.1-0.2-0.1c-0.5-0.1-0.9-0.2-1.4-0.2
			c-0.2,0-0.5-0.1-0.7-0.1c-0.2,0-0.5,0-0.7,0c-1-0.1-1.9-0.1-2.9-0.1C22.1,13.6,22.1,13.6,22.1,13.7"/>
	</g>
</g>
</svg>
