<svg xmlns="http://www.w3.org/2000/svg" width="254.4" height="102.5" style="overflow:visible;enable-background:new 0 0 254.4 102.5" xml:space="preserve"><path d="M243.9 101.9H10.5C5 101.9.6 97.5.6 92V48.3c0-5.5 4.4-9.9 9.9-9.9h233.3c5.5 0 9.9 4.4 9.9 9.9v43.6c.1 5.5-4.4 10-9.8 10z" style="fill:none;stroke:#ffbc0d;stroke-width:1.2014;stroke-miterlimit:10"/><path d="M64.3 79.5c1.5 0 2.5 0 3.1-.1v3.5c-.5 0-1.6-.1-3.1-.1h-23c-1.5 0-2.5 0-3.1.1v-3.5c.5 0 1.6.1 3.1.1h9V57c0-.6 0-1.1-.1-1.6h1.9c.9 0 1.5.1 1.8.1 0 .6-.1 1-.1 1.4V65h11.4v3.3H54v11.2h10.3zm15.5-17.6v20.7l.1 1.9h-3.6c0-.7.1-1.4.1-1.9 0-1.3 0-3.3.1-6.1s.2-5.8.3-9.1c-1 1.8-1.9 3.2-2.7 4.1-.3-.9-.8-2-1.6-3.5 1.2-1.3 2.5-3.4 3.8-6.1 1.3-2.7 2.2-5.1 2.6-7.1L82 56l-.2.3c-.7 2.2-1.4 4.1-2 5.6zM83 73l-1.6.1-.5-2.8 2 .1h7.7v-1.6h-7.3c0-.3.1-.7.1-.9v-6.1c0-.3 0-.6-.1-.9h7.3v-1.3h-6.5c-1 0-1.8 0-2.2.1V57c.4 0 1.2.1 2.2.1h6.5v-1c0-.4 0-.7-.1-1.1h1.6c.7 0 1.2.1 1.5.1 0 .4-.1.7-.1 1v1h6.8c1 0 1.8 0 2.2-.1v2.6c-.5 0-1.2-.1-2.2-.1h-6.8v1.3h7.4v7.9h-.8c1.1 1.3 2.1 2.7 2.8 4.1l-2.5 1.4c-.2-.4-.5-1.1-1-1.9-1.3.1-3.6.3-6.7.4-2.8.2-6.2.3-9.7.3zm14.8 1.7h2.5c1.1 0 1.8 0 2.3-.1v2.9c-.4 0-1.2-.1-2.3-.1h-2.5V79l.1 2.4c0 2-1.9 3-5.8 3l-1.4-3.1c.8.1 1.6.2 2.2.2.7 0 1.1-.1 1.4-.2s.4-.4.4-.7v-3.2H86c.7.4 1.4.8 2.2 1.4.8.6 1.5 1.1 2.1 1.6-.1.1-.5.5-1 1.1-.5.6-.9 1-1.1 1.2-.4-.4-.9-.9-1.5-1.4-.6-.5-1.2-1-1.7-1.3-.5-.4-.9-.6-1.2-.8l1.7-1.8h-2.2c-1.1 0-1.9 0-2.3.1v-2.9c.5 0 1.2.1 2.3.1h11.4V74l-.1-.8h1.6c.7 0 1.2.1 1.5.1 0 .3-.1.5-.1.8v.6zm-7.2-12.1h-4.3V64h4.3v-1.4zM86.4 67h4.3v-1.4h-4.3V67zM98 62.6h-4.3V64H98v-1.4zm0 4.4v-1.4h-4.3V67H98zm-4.3 1.8v1.5c2.1-.1 3.6-.2 4.4-.3l-.4-.6 1.5-.7h-5.5zm16.2 13.8V58h4.3v24.6h-4.3zm32.6-1c-1.3.4-2.7.7-4 .9-1.3.2-2.6.3-3.7.3-1.9 0-3.7-.3-5.4-.9-1.6-.6-3-1.4-4.2-2.6-1.2-1.1-2.1-2.5-2.7-4-.6-1.6-1-3.3-1-5.2 0-2.3.5-4.4 1.6-6.3 1.1-1.9 2.7-3.4 4.8-4.4 2.1-1.1 4.6-1.6 7.4-1.6 2.7 0 5 .4 6.8 1.1l-.3 3.9c-.8-.5-1.8-.8-3-1.1-1.2-.3-2.3-.4-3.4-.4-.5 0-1 0-1.6.1-.6.1-1.2.2-1.7.4-.6.2-1.2.4-1.8.8s-1.3.9-1.9 1.5c-.6.7-1.2 1.5-1.6 2.6-.4 1-.6 2.2-.6 3.6 0 1.3.2 2.5.6 3.7.4 1.1 1 2.1 1.8 2.9s1.7 1.4 2.9 1.8c1.1.4 2.4.6 3.7.6 1.2 0 2.3-.1 3.3-.4v-6.6h-5.2v-3.4h9.4v12.7zm18.7-24.2c-.5 1.4-1.3 2.9-2.3 4.5s-2.3 3.1-3.6 4.5c-1.4 1.5-2.7 2.6-4.1 3.5-.3-.4-.6-.8-1.2-1.4-.5-.6-1-1-1.4-1.4.7-.4 1.3-.8 2-1.4s1.4-1.2 2.2-2c.8-.8 1.5-1.6 2.2-2.5s1.3-1.7 1.7-2.6c.5-.8.8-1.6 1.1-2.4l3.4.8v.4zm12 9.7c0 .4-.1.7-.1 1 0 2.1 0 4-.1 5.6-.1 1.6-.2 3.1-.3 4.3s-.4 2.2-.8 3c-.4.8-.9 1.4-1.6 1.8s-1.6.8-2.6 1c-1 .2-2.3.3-3.7.3-.1-.5-.3-1.2-.6-2s-.5-1.4-.7-1.9c.3.1.8.1 1.4.2.6.1 1 .1 1.5.1 1 0 1.7-.1 2.2-.4.5-.2.9-.6 1.2-1.2.3-.6.5-1.6.6-3 .1-1.4.2-3.3.2-5.8h-5.9c-.2 3.3-1.4 6.1-3.4 8.6-2 2.4-4.8 4.3-8.3 5.5-.2-.2-.5-.6-1-1.2s-1-1.2-1.6-1.7c.8-.2 1.7-.5 2.7-.9 1-.4 2-.9 2.9-1.5s1.7-1.3 2.3-2c.7-.7 1.2-1.5 1.6-2.3.4-.8.7-1.6.9-2.4s.3-1.5.3-2h-5.2v-3.3h18.1zm-3.6-11.7c.7 2 1.9 4.1 3.7 6.2s3.7 3.7 6 5c-.6 1-1.2 2.1-1.7 3.2-1.7-1-3.3-2.2-4.8-3.7s-2.7-2.9-3.6-4.3c-.9-1.4-1.6-2.7-2.1-3.7h-4.9v-2.7h7.4zm41.2 20.1c1.4 0 2.4 0 2.9-.1v3c-.5 0-1.5-.1-2.9-.1h-9.2c0 .2.1.5.1.9s.1.7.1.9c0 .5 0 1-.1 1.5-.1.4-.2.8-.5 1.2-.2.3-.5.6-.9.9-.4.3-.9.5-1.6.6s-1.4.2-2.1.2c-1.1 0-2.1 0-3-.1-.1-.4-.5-1.5-1.1-3.2 1.3.2 2.3.2 3.1.2.6 0 1.2 0 1.6-.1s.8-.2 1-.5c.2-.2.3-.5.3-.9 0-.6 0-1.2-.1-1.6h-11c-1.4 0-2.4 0-2.9.1v-3c.5 0 1.5.1 2.9.1h9.6l-.7-.8 2.2-.3c1.9-.6 3.8-1.2 5.6-1.9h-14.5c-1 0-1.8 0-2.2.1v-2.7c.5 0 1.2.1 2.2.1h18.7l.2-.2c1 .6 1.8 1.2 2.7 1.9-.6.2-.9.3-1 .4-1.1.6-2.4 1.3-3.7 1.9s-2.7 1.2-4.1 1.7h8.4zm-.1-15.2h-23.2c-1.5 0-2.5 0-3 .1v-3.1c.5 0 1.5.1 3 .1h9.9c-.3-.8-.7-1.4-1-1.9l3.2-.8c.4.7.8 1.6 1.3 2.7h9.7c1.4 0 2.4 0 2.9-.1v3.1c-.4 0-1.4-.1-2.8-.1zm-2 1.6v6.4h-18.9c0-.3.1-.6.1-.8v-4.8c0-.2 0-.5-.1-.8h18.9zM193.1 66h12.3v-1.7h-12.3V66z" style="fill:#ffbc0d"/><path d="M108.9 20.1c0 .3-.1.6-.1.8 0 1.4-.1 2.4-.2 3-.1.6-.3 1.2-.5 1.6-.2.3-.4.6-.8.8-.3.3-.8.5-1.2.6-.5.2-1.1.3-1.7.4-.7.1-1.4.1-2.3.1 0-.1-.1-.2-.1-.3s-.3-1-.9-2.6c.6.2 1.2.2 2 .2.7 0 1.3-.1 1.8-.2.4-.1.7-.3.9-.6.2-.4.4-.9.4-1.7h-7V28c0 .4 0 .8.1.9h-2.8c0-.2.1-.5.1-.9 0-1.1 0-2.6.1-4.4-1.2 1.1-2.6 2-4.3 2.9S89 28 87.1 28.4c-.1-.2-.2-.5-.5-1s-.6-.8-1-1.4c.6-.1 1.3-.3 2.1-.5s1.5-.5 2.4-.8c.8-.3 1.7-.7 2.5-1.1.8-.4 1.6-.9 2.3-1.5h-7.2c.1-.5.3-1.2.5-2.1.2-1 .4-1.8.5-2.5s.2-1.2.3-1.5v-.3c.8 0 1.7 0 2.8.1h4.7v-2h-6.1c-.9 0-1.5 0-1.9.1v-2.3c.4 0 1 .1 1.9.1h17.2v6.5h-8.4v2h9.7zM90.5 8.8c-.4.5-.9 1-1.3 1.5s-.9.9-1.4 1.2c-.1-.1-.4-.4-.8-.6-.4-.3-.8-.6-1.3-.9.8-.5 1.7-1.2 2.6-2.2.9-1 1.5-2 1.9-3l2.5.4-.2.3-.3.6c-.1.3-.2.5-.3.6H98v2.1h-3.7c.5.7 1 1.4 1.3 2l-2.5.7c-.2-.4-.4-.8-.7-1.3s-.6-1-.8-1.4h-1.1zm.8 9.3-.4 2h5.5v-2h-5.1zm17.4-11.4h1.3v2.1h-4.4c.6.8 1.1 1.4 1.5 2l-2.5.7c-.2-.4-.4-.8-.8-1.3-.3-.5-.6-1-.9-1.4h-1.8c-.7 1-1.3 1.8-2 2.4-.3-.2-1-.7-2.1-1.3.7-.5 1.3-1.3 2-2.2.7-1 1.1-1.9 1.4-2.9l2.5.4-.2.3c-.2.5-.3 1-.5 1.3h6.5zm-9.5 7.2v2h5.7v-2h-5.7zm34.7 6.3c0 .9-.2 1.7-.5 2.6s-.9 1.7-1.7 2.5-1.8 1.3-2.8 1.7c-1.1.4-2.1.7-3 .8s-1.8.2-2.5.2c-1.1 0-2.3-.1-3.6-.3-1.2-.2-2.4-.5-3.5-.8l.3-4c2.4 1 4.6 1.5 6.5 1.5.8 0 1.6-.1 2.3-.3s1.4-.5 2-.8c.6-.4 1-.9 1.3-1.5.3-.6.5-1.3.5-2 0-1.5-.7-2.6-2-3.4-1.3-.8-3.3-1.1-5.8-1.1h-1.3v-3.6h1.2c1.2 0 2.3-.1 3.2-.3s1.8-.4 2.4-.8c.7-.3 1.2-.8 1.5-1.3.3-.5.5-1.2.5-1.9 0-.5-.1-1-.3-1.4-.2-.5-.5-.9-.9-1.3s-1-.7-1.7-.9c-.7-.2-1.6-.4-2.5-.4s-2 .1-3.1.4c-1.1.2-2.1.6-3.1 1l-.3-3.7c1-.4 2.1-.7 3.3-.9 1.2-.2 2.4-.3 3.7-.3 1.4 0 2.8.2 3.9.5 1.2.3 2.2.8 3 1.4s1.4 1.4 1.9 2.3c.4.9.6 1.9.6 3s-.2 2.1-.7 2.9c-.5.9-1.2 1.6-2.2 2.2-1 .6-2.2 1-3.7 1.2v.1c.5 0 1 .1 1.6.3.6.1 1.2.4 1.8.7.6.3 1.2.7 1.7 1.2s1 1.2 1.3 2c.5.7.7 1.6.7 2.5zm29.3-7.4c1.2 0 2 0 2.4-.1v2.6c-.4 0-1.2-.1-2.4-.1h-18.9c-1.2 0-2 0-2.4.1v-2.6c.4 0 1.3.1 2.4.1h2V7l-.1-.8h1.4c.6 0 1.1 0 1.3.1l.1.7v5.8h3.6V5.4c0-.2 0-.5-.1-.9h1.5c.7 0 1.1 0 1.4.1 0 .3-.1.5-.1.7v2.1h7.7V10h-7.7v2.8h7.9zm-12.8 5.3c-.4.6-.8 1.3-1.4 2-.5.7-1.2 1.3-2.1 2s-1.8 1.3-2.9 1.8c-.3-.4-1-1.2-2-2.3.9-.3 1.7-.8 2.5-1.3s1.5-1.2 2.1-1.8c.6-.7 1.1-1.3 1.4-2l2.5 1.4-.1.2zm5 5c1.3-.8 2.3-1.7 3.2-2.8s1.5-2.3 1.9-3.7l2.7 1.2-.2.2c-.3.9-.7 1.7-1.2 2.4-.4.8-.9 1.4-1.4 2s-1 1.1-1.5 1.6c-.6.5-1.3 1-2.1 1.5s-1.8 1-3 1.4c-1.2.4-2.6.8-4.2 1.2-1.7.3-3.8.6-6.2.8-.2-.6-.6-1.5-1.1-2.7 2.8-.1 5.3-.5 7.5-.9 2.1-.5 4-1.2 5.5-2h-2.6c0-.3.1-.6.1-1.1v-5.6c0-.2 0-.5-.1-.8h1.5c.7 0 1.1 0 1.4.1 0 .2-.1.5-.1.7v5.6l-.1.9z" style="fill:#fff"/></svg>