<!-- Generator: Adobe Illustrator 25.0.0, SVG Export Plug-In  -->
<svg version="1.1" xmlns="http://www.w3.org/2000/svg" xmlns:xlink="http://www.w3.org/1999/xlink" x="0px" y="0px" width="254.4px"
	 height="102.5px" viewBox="0 0 254.4 102.5" style="overflow:visible;enable-background:new 0 0 254.4 102.5;"
	 xml:space="preserve">
<style type="text/css">
	.st0{fill:none;stroke:#FFBC0D;stroke-width:1.2014;stroke-miterlimit:10;}
	.st1{fill:#FFBC0D;}
	.st2{fill:#FFFFFF;}
</style>
<defs>
</defs>
<g>
	<path class="st0" d="M243.9,101.9H10.5c-5.5,0-9.9-4.4-9.9-9.9V48.3c0-5.5,4.4-9.9,9.9-9.9h233.3c5.5,0,9.9,4.4,9.9,9.9v43.6
		C253.8,97.4,249.3,101.9,243.9,101.9z"/>
	<g>
		<path class="st1" d="M64.3,79.5c1.5,0,2.5,0,3.1-0.1v3.5c-0.5,0-1.6-0.1-3.1-0.1h-23c-1.5,0-2.5,0-3.1,0.1v-3.5
			c0.5,0,1.6,0.1,3.1,0.1h9V57c0-0.6,0-1.1-0.1-1.6c0.4,0,1.1,0,1.9,0c0.9,0,1.5,0.1,1.8,0.1c0,0.6-0.1,1-0.1,1.4v8.1h9.6
			c0.8,0,1.4,0,1.8,0v3.3c-0.3,0-0.9,0-1.8,0H54v11.2H64.3z"/>
		<path class="st1" d="M79.8,61.9v20.7l0.1,1.9h-3.6c0-0.7,0.1-1.4,0.1-1.9c0-1.3,0-3.3,0.1-6.1c0.1-2.8,0.2-5.8,0.3-9.1
			c-1,1.8-1.9,3.2-2.7,4.1c-0.3-0.9-0.8-2-1.6-3.5c1.2-1.3,2.5-3.4,3.8-6.1c1.3-2.7,2.2-5.1,2.6-7.1l3.1,1.2l-0.2,0.3
			C81.1,58.5,80.4,60.4,79.8,61.9z M83,73l-1.6,0.1l-0.5-2.8l2,0.1c2.2,0,4.7,0,7.7,0v-1.6h-7.3c0-0.3,0.1-0.7,0.1-0.9v-6.1
			c0-0.3,0-0.6-0.1-0.9h7.3v-1.3h-6.5c-1,0-1.8,0-2.2,0.1V57c0.4,0,1.2,0.1,2.2,0.1h6.5v-1c0-0.4,0-0.7-0.1-1.1c0.4,0,0.9,0,1.6,0
			c0.7,0,1.2,0.1,1.5,0.1c0,0.4-0.1,0.7-0.1,1v1h6.8c1,0,1.8,0,2.2-0.1v2.6c-0.5,0-1.2-0.1-2.2-0.1h-6.8v1.3h7.4c0,0.2,0,0.5,0,0.9
			v6.1l0,0.9h-0.8c1.1,1.3,2.1,2.7,2.8,4.1l-2.5,1.4c-0.2-0.4-0.5-1.1-1-1.9c-1.3,0.1-3.6,0.3-6.7,0.4C89.9,72.9,86.5,73,83,73z
			 M97.8,74.7h2.5c1.1,0,1.8,0,2.3-0.1v2.9c-0.4,0-1.2-0.1-2.3-0.1h-2.5V79l0.1,2.4c0,2-1.9,3-5.8,3l-1.4-3.1
			c0.8,0.1,1.6,0.2,2.2,0.2c0.7,0,1.1-0.1,1.4-0.2s0.4-0.4,0.4-0.7V79v-1.6H86c0.7,0.4,1.4,0.8,2.2,1.4c0.8,0.6,1.5,1.1,2.1,1.6
			c-0.1,0.1-0.5,0.5-1,1.1c-0.5,0.6-0.9,1-1.1,1.2c-0.4-0.4-0.9-0.9-1.5-1.4c-0.6-0.5-1.2-1-1.7-1.3c-0.5-0.4-0.9-0.6-1.2-0.8
			l1.7-1.8h-2.2c-1.1,0-1.9,0-2.3,0.1v-2.9c0.5,0,1.2,0.1,2.3,0.1h11.4V74l-0.1-0.8c0.4,0,0.9,0,1.6,0c0.7,0,1.2,0.1,1.5,0.1
			c0,0.3-0.1,0.5-0.1,0.8V74.7z M90.6,62.6h-4.3V64h4.3V62.6z M86.4,67h4.3v-1.4h-4.3V67z M98,62.6h-4.3V64H98V62.6z M98,67v-1.4
			h-4.3V67H98z M93.7,68.8v1.5c2.1-0.1,3.6-0.2,4.4-0.3l-0.4-0.6l1.5-0.7H93.7z"/>
		<path class="st1" d="M109.9,82.6V58h4.3v24.6H109.9z"/>
		<path class="st1" d="M142.5,81.6c-1.3,0.4-2.7,0.7-4,0.9c-1.3,0.2-2.6,0.3-3.7,0.3c-1.9,0-3.7-0.3-5.4-0.9c-1.6-0.6-3-1.4-4.2-2.6
			c-1.2-1.1-2.1-2.5-2.7-4c-0.6-1.6-1-3.3-1-5.2c0-2.3,0.5-4.4,1.6-6.3c1.1-1.9,2.7-3.4,4.8-4.4c2.1-1.1,4.6-1.6,7.4-1.6
			c2.7,0,5,0.4,6.8,1.1l-0.3,3.9c-0.8-0.5-1.8-0.8-3-1.1c-1.2-0.3-2.3-0.4-3.4-0.4c-0.5,0-1,0-1.6,0.1c-0.6,0.1-1.2,0.2-1.7,0.4
			c-0.6,0.2-1.2,0.4-1.8,0.8s-1.3,0.9-1.9,1.5c-0.6,0.7-1.2,1.5-1.6,2.6c-0.4,1-0.6,2.2-0.6,3.6c0,1.3,0.2,2.5,0.6,3.7
			c0.4,1.1,1,2.1,1.8,2.9s1.7,1.4,2.9,1.8c1.1,0.4,2.4,0.6,3.7,0.6c1.2,0,2.3-0.1,3.3-0.4v-6.6h-5.2v-3.4h9.4V81.6z"/>
		<path class="st1" d="M161.2,57.4c-0.5,1.4-1.3,2.9-2.3,4.5s-2.3,3.1-3.6,4.5c-1.4,1.5-2.7,2.6-4.1,3.5c-0.3-0.4-0.6-0.8-1.2-1.4
			c-0.5-0.6-1-1-1.4-1.4c0.7-0.4,1.3-0.8,2-1.4s1.4-1.2,2.2-2c0.8-0.8,1.5-1.6,2.2-2.5s1.3-1.7,1.7-2.6c0.5-0.8,0.8-1.6,1.1-2.4
			l3.4,0.8L161.2,57.4z M173.2,67.1c0,0.4-0.1,0.7-0.1,1c0,2.1,0,4-0.1,5.6c-0.1,1.6-0.2,3.1-0.3,4.3s-0.4,2.2-0.8,3
			c-0.4,0.8-0.9,1.4-1.6,1.8s-1.6,0.8-2.6,1c-1,0.2-2.3,0.3-3.7,0.3c-0.1-0.5-0.3-1.2-0.6-2c-0.3-0.8-0.5-1.4-0.7-1.9
			c0.3,0.1,0.8,0.1,1.4,0.2c0.6,0.1,1,0.1,1.5,0.1c1,0,1.7-0.1,2.2-0.4c0.5-0.2,0.9-0.6,1.2-1.2c0.3-0.6,0.5-1.6,0.6-3
			c0.1-1.4,0.2-3.3,0.2-5.8h-5.9c-0.2,3.3-1.4,6.1-3.4,8.6c-2,2.4-4.8,4.3-8.3,5.5c-0.2-0.2-0.5-0.6-1-1.2c-0.5-0.6-1-1.2-1.6-1.7
			c0.8-0.2,1.7-0.5,2.7-0.9c1-0.4,2-0.9,2.9-1.5s1.7-1.3,2.3-2c0.7-0.7,1.2-1.5,1.6-2.3c0.4-0.8,0.7-1.6,0.9-2.4s0.3-1.5,0.3-2h-3.2
			c-0.9,0-1.6,0-2,0v-3.3c0.4,0,1.1,0,2,0H173.2z M169.6,55.4c0.7,2,1.9,4.1,3.7,6.2s3.7,3.7,6,5c-0.6,1-1.2,2.1-1.7,3.2
			c-1.7-1-3.3-2.2-4.8-3.7c-1.5-1.5-2.7-2.9-3.6-4.3c-0.9-1.4-1.6-2.7-2.1-3.7h-3.5l-1.4,0v-2.7l1.4,0H169.6z"/>
		<path class="st1" d="M210.8,75.5c1.4,0,2.4,0,2.9-0.1v3c-0.5,0-1.5-0.1-2.9-0.1h-9.2c0,0.2,0.1,0.5,0.1,0.9c0,0.4,0.1,0.7,0.1,0.9
			c0,0.5,0,1-0.1,1.5c-0.1,0.4-0.2,0.8-0.5,1.2c-0.2,0.3-0.5,0.6-0.9,0.9c-0.4,0.3-0.9,0.5-1.6,0.6s-1.4,0.2-2.1,0.2
			c-1.1,0-2.1,0-3-0.1c-0.1-0.4-0.5-1.5-1.1-3.2c1.3,0.2,2.3,0.2,3.1,0.2c0.6,0,1.2,0,1.6-0.1s0.8-0.2,1-0.5
			c0.2-0.2,0.3-0.5,0.3-0.9c0-0.6,0-1.2-0.1-1.6h-11c-1.4,0-2.4,0-2.9,0.1v-3c0.5,0,1.5,0.1,2.9,0.1h9.6l-0.7-0.8l2.2-0.3
			c1.9-0.6,3.8-1.2,5.6-1.9h-14.5c-1,0-1.8,0-2.2,0.1v-2.7c0.5,0,1.2,0.1,2.2,0.1h18.7l0.2-0.2c1,0.6,1.8,1.2,2.7,1.9
			c-0.6,0.2-0.9,0.3-1,0.4c-1.1,0.6-2.4,1.3-3.7,1.9s-2.7,1.2-4.1,1.7H210.8z M210.7,60.3h-23.2c-1.5,0-2.5,0-3,0.1v-3.1
			c0.5,0,1.5,0.1,3,0.1h9.9c-0.3-0.8-0.7-1.4-1-1.9l3.2-0.8c0.4,0.7,0.8,1.6,1.3,2.7h9.7c1.4,0,2.4,0,2.9-0.1v3.1
			C213.1,60.4,212.1,60.3,210.7,60.3z M208.7,61.9l0,0.8v4.8l0,0.8h-18.9c0-0.3,0.1-0.6,0.1-0.8v-4.8c0-0.2,0-0.5-0.1-0.8H208.7z
			 M193.1,66h12.3v-1.7h-12.3V66z"/>
	</g>
	<g>
		<g>
			<path class="st2" d="M108.9,20.1c0,0.3-0.1,0.6-0.1,0.8c0,1.4-0.1,2.4-0.2,3c-0.1,0.6-0.3,1.2-0.5,1.6c-0.2,0.3-0.4,0.6-0.8,0.8
				c-0.3,0.3-0.8,0.5-1.2,0.6c-0.5,0.2-1.1,0.3-1.7,0.4c-0.7,0.1-1.4,0.1-2.3,0.1c0-0.1-0.1-0.2-0.1-0.3s-0.3-1-0.9-2.6
				c0.6,0.2,1.2,0.2,2,0.2c0.7,0,1.3-0.1,1.8-0.2c0.4-0.1,0.7-0.3,0.9-0.6c0.2-0.4,0.4-0.9,0.4-1.7h-7v5.8c0,0.4,0,0.8,0.1,0.9h-2.8
				c0-0.2,0.1-0.5,0.1-0.9c0-1.1,0-2.6,0.1-4.4c-1.2,1.1-2.6,2-4.3,2.9s-3.4,1.5-5.3,1.9c-0.1-0.2-0.2-0.5-0.5-1S86,26.6,85.6,26
				c0.6-0.1,1.3-0.3,2.1-0.5s1.5-0.5,2.4-0.8c0.8-0.3,1.7-0.7,2.5-1.1c0.8-0.4,1.6-0.9,2.3-1.5h-4.4h-0.4h-2.4
				c0.1-0.5,0.3-1.2,0.5-2.1c0.2-1,0.4-1.8,0.5-2.5s0.2-1.2,0.3-1.5l0-0.3c0.8,0,1.7,0,2.8,0.1h4.7v-2h-6.1c-0.9,0-1.5,0-1.9,0.1
				v-2.3c0.4,0,1,0.1,1.9,0.1h17.2c0,0.2,0,0.4,0,0.8v4.9l0,0.8h-8.4v2H108.9z M90.5,8.8c-0.4,0.5-0.9,1-1.3,1.5s-0.9,0.9-1.4,1.2
				c-0.1-0.1-0.4-0.4-0.8-0.6c-0.4-0.3-0.8-0.6-1.3-0.9c0.8-0.5,1.7-1.2,2.6-2.2c0.9-1,1.5-2,1.9-3l2.5,0.4l-0.2,0.3
				c-0.1,0.2-0.2,0.4-0.3,0.6c-0.1,0.3-0.2,0.5-0.3,0.6h4.9l1.2,0v2.1l-1.2,0h-2.5c0.5,0.7,1,1.4,1.3,2l-2.5,0.7
				c-0.2-0.4-0.4-0.8-0.7-1.3s-0.6-1-0.8-1.4H90.5z M91.3,18.1l-0.4,2h5.5v-2H91.3z M108.7,6.7l1.3,0v2.1l-1.3,0h-3.1
				c0.6,0.8,1.1,1.4,1.5,2l-2.5,0.7c-0.2-0.4-0.4-0.8-0.8-1.3c-0.3-0.5-0.6-1-0.9-1.4h-1.8c-0.7,1-1.3,1.8-2,2.4
				c-0.3-0.2-1-0.7-2.1-1.3c0.7-0.5,1.3-1.3,2-2.2c0.7-1,1.1-1.9,1.4-2.9l2.5,0.4l-0.2,0.3c-0.2,0.5-0.3,1-0.5,1.3H108.7z
				 M99.2,13.9v2h5.7v-2H99.2z"/>
			<path class="st2" d="M133.9,20.2c0,0.9-0.2,1.7-0.5,2.6s-0.9,1.7-1.7,2.5s-1.8,1.3-2.8,1.7c-1.1,0.4-2.1,0.7-3,0.8
				s-1.8,0.2-2.5,0.2c-1.1,0-2.3-0.1-3.6-0.3c-1.2-0.2-2.4-0.5-3.5-0.8l0.3-4c2.4,1,4.6,1.5,6.5,1.5c0.8,0,1.6-0.1,2.3-0.3
				s1.4-0.5,2-0.8c0.6-0.4,1-0.9,1.3-1.5c0.3-0.6,0.5-1.3,0.5-2c0-1.5-0.7-2.6-2-3.4c-1.3-0.8-3.3-1.1-5.8-1.1l-1.3,0v-3.6l1.2,0
				c1.2,0,2.3-0.1,3.2-0.3s1.8-0.4,2.4-0.8c0.7-0.3,1.2-0.8,1.5-1.3c0.3-0.5,0.5-1.2,0.5-1.9c0-0.5-0.1-1-0.3-1.4
				c-0.2-0.5-0.5-0.9-0.9-1.3s-1-0.7-1.7-0.9c-0.7-0.2-1.6-0.4-2.5-0.4s-2,0.1-3.1,0.4c-1.1,0.2-2.1,0.6-3.1,1l-0.3-3.7
				c1-0.4,2.1-0.7,3.3-0.9c1.2-0.2,2.4-0.3,3.7-0.3c1.4,0,2.8,0.2,3.9,0.5c1.2,0.3,2.2,0.8,3,1.4s1.4,1.4,1.9,2.3
				c0.4,0.9,0.6,1.9,0.6,3s-0.2,2.1-0.7,2.9c-0.5,0.9-1.2,1.6-2.2,2.2c-1,0.6-2.2,1-3.7,1.2v0.1c0.5,0,1,0.1,1.6,0.3
				c0.6,0.1,1.2,0.4,1.8,0.7c0.6,0.3,1.2,0.7,1.7,1.2s1,1.2,1.3,2C133.7,18.4,133.9,19.3,133.9,20.2z"/>
			<path class="st2" d="M163.2,12.8c1.2,0,2,0,2.4-0.1v2.6c-0.4,0-1.2-0.1-2.4-0.1h-18.9c-1.2,0-2,0-2.4,0.1v-2.6
				c0.4,0,1.3,0.1,2.4,0.1h2V7l-0.1-0.8c0.3,0,0.8,0,1.4,0c0.6,0,1.1,0,1.3,0.1L149,7v5.8h3.6V5.4c0-0.2,0-0.5-0.1-0.9
				c0.3,0,0.8,0,1.5,0c0.7,0,1.1,0,1.4,0.1c0,0.3-0.1,0.5-0.1,0.7v2.1h6.4c0.6,0,1,0,1.3,0V10c-0.3,0-0.7,0-1.3,0h-6.4v2.8H163.2z
				 M150.4,18.1c-0.4,0.6-0.8,1.3-1.4,2c-0.5,0.7-1.2,1.3-2.1,2s-1.8,1.3-2.9,1.8c-0.3-0.4-1-1.2-2-2.3c0.9-0.3,1.7-0.8,2.5-1.3
				s1.5-1.2,2.1-1.8c0.6-0.7,1.1-1.3,1.4-2l2.5,1.4L150.4,18.1z M155.4,23.1c1.3-0.8,2.3-1.7,3.2-2.8s1.5-2.3,1.9-3.7l2.7,1.2
				l-0.2,0.2c-0.3,0.9-0.7,1.7-1.2,2.4c-0.4,0.8-0.9,1.4-1.4,2s-1,1.1-1.5,1.6c-0.6,0.5-1.3,1-2.1,1.5c-0.8,0.5-1.8,1-3,1.4
				c-1.2,0.4-2.6,0.8-4.2,1.2c-1.7,0.3-3.8,0.6-6.2,0.8c-0.2-0.6-0.6-1.5-1.1-2.7c2.8-0.1,5.3-0.5,7.5-0.9c2.1-0.5,4-1.2,5.5-2h-2.6
				c0-0.3,0.1-0.6,0.1-1.1v-5.6c0-0.2,0-0.5-0.1-0.8c0.3,0,0.8,0,1.5,0s1.1,0,1.4,0.1c0,0.2-0.1,0.5-0.1,0.7v5.6L155.4,23.1z"/>
		</g>
	</g>
</g>
</svg>
