<svg xmlns="http://www.w3.org/2000/svg" width="254.4" height="102" style="overflow:visible;enable-background:new 0 0 254.4 102" xml:space="preserve"><path d="M243.9 101.4H10.5C5 101.4.6 97 .6 91.5V47.8c0-5.5 4.4-9.9 9.9-9.9h233.3c5.5 0 9.9 4.4 9.9 9.9v43.6c.1 5.5-4.4 10-9.8 10z" style="fill:none;stroke:#ffbc0d;stroke-width:1.2014;stroke-miterlimit:10"/><path d="M108.9 19.6c0 .3-.1.6-.1.8 0 1.4-.1 2.4-.2 3-.1.6-.3 1.2-.5 1.6-.2.3-.4.6-.8.8-.3.3-.8.5-1.2.6-.5.2-1.1.3-1.7.4-.7.1-1.4.1-2.3.1 0-.1-.1-.2-.1-.3s-.3-1-.9-2.6c.6.2 1.2.2 2 .2.7 0 1.3-.1 1.8-.2.4-.1.7-.3.9-.6.2-.4.4-.9.4-1.7h-7v5.8c0 .4 0 .8.1.9h-2.8c0-.2.1-.5.1-.9 0-1.1 0-2.6.1-4.4-1.2 1.1-2.6 2-4.3 2.9s-3.4 1.5-5.3 1.9c-.1-.2-.2-.5-.5-1s-.5-.9-.9-1.4c.6-.1 1.3-.3 2.1-.5s1.5-.5 2.4-.8c.8-.3 1.7-.7 2.5-1.1.8-.4 1.6-.9 2.3-1.5h-7.2c.1-.5.3-1.2.5-2.1.2-1 .4-1.8.5-2.5s.2-1.2.3-1.5v-.3c.8 0 1.7 0 2.8.1h4.7v-2h-6.1c-.9 0-1.5 0-1.9.1v-2.3c.4 0 1 .1 1.9.1h17.2v6.5h-8.4v2h9.6zM90.5 8.3c-.4.5-.9 1-1.3 1.5s-.9.9-1.4 1.2c-.1-.1-.4-.4-.8-.6-.4-.3-.8-.6-1.3-.9.8-.5 1.7-1.2 2.6-2.2.9-1 1.5-2 1.9-3l2.5.4-.2.3-.3.6c-.1.3-.2.5-.3.6H98v2.1h-3.7c.5.7 1 1.4 1.3 2l-2.4.7c-.2-.4-.4-.8-.7-1.3s-.6-1-.8-1.4h-1.2zm.8 9.3-.4 2h5.5v-2h-5.1zm17.4-11.4h1.3v2.1h-4.4c.6.8 1.1 1.4 1.5 2l-2.5.7c-.2-.4-.4-.8-.8-1.3-.3-.5-.6-1-.9-1.4h-1.8c-.7 1-1.3 1.8-2 2.4-.3-.2-1-.7-2.1-1.3.7-.5 1.3-1.3 2-2.2.7-1 1.1-1.9 1.4-2.9l2.5.4-.2.3c-.2.5-.3 1-.5 1.3h6.5zm-9.5 7.2v2h5.7v-2h-5.7zm25.5 13.7V12.3c0-1 0-2.2.1-3.8s.1-2.8.1-3.6h-.1c-.7.7-1.7 1.6-3.1 2.7l-1.4 1.2-2.4-3.1 7.3-5.7h4.2v27.1h-4.7zm38.5-14.8c1.2 0 2 0 2.4-.1v2.6c-.4 0-1.2-.1-2.4-.1h-18.9c-1.2 0-2 0-2.4.1v-2.6c.4 0 1.3.1 2.4.1h2V6.5l-.1-.8h1.4c.6 0 1.1 0 1.3.1l.1.7v5.8h3.6V5c0-.2 0-.5-.1-.9h1.5c.7 0 1.1 0 1.4.1 0 .3-.1.5-.1.7V7h7.7v2.5h-7.7v2.8h7.9zm-12.8 5.4c-.4.6-.8 1.3-1.4 2-.5.7-1.2 1.3-2.1 2s-1.8 1.3-2.9 1.8c-.3-.4-1-1.2-2-2.3.9-.3 1.7-.8 2.5-1.3s1.5-1.2 2.1-1.8c.6-.7 1.1-1.3 1.4-2l2.5 1.4-.1.2zm5 5c1.3-.8 2.3-1.7 3.2-2.8s1.5-2.3 1.9-3.7l2.7 1.2-.2.2c-.3.9-.7 1.7-1.2 2.4-.4.8-.9 1.4-1.4 2s-1 1.1-1.5 1.6c-.6.5-1.3 1-2.1 1.5s-1.8 1-3 1.4c-1.2.4-2.6.8-4.2 1.2-1.7.3-3.8.6-6.2.8-.2-.6-.6-1.5-1.1-2.7 2.8-.1 5.3-.5 7.5-.9 2.1-.5 4-1.2 5.5-2h-2.6c0-.3.1-.6.1-1.1v-5.6c0-.2 0-.5-.1-.8h1.5c.7 0 1.1 0 1.4.1 0 .2-.1.5-.1.7v5.6l-.1.9z" style="fill:#fff"/><path d="M35.2 71.8h-3.8v8.1c.5-.1 1.6-.4 3.2-.8s3.2-.8 4.6-1.3v3.1c-2.9.8-5.8 1.5-8.5 2.2-.1 0-.4.1-.8.3-.4.1-1 .3-1.6.5l-1.1-3.1c.2-.1.4-.3.6-.6.2-.3.2-.7.2-1.2v-7.2h-1.3c-1.4 0-2.4 0-2.9.1V69c.5 0 1.5.1 2.9.1h2.2V57c0-.4 0-.8-.1-1.4h18.4c1 0 1.7 0 2.1-.1v2.9c-.4 0-1.1-.1-2.1-.1h-15v1.9h13.9c.9 0 1.6 0 2-.1v2.7c-.4 0-1-.1-2-.1H32.2v1.7h13.9c.9 0 1.6 0 2-.1V67c-.4 0-1-.1-2-.1H32.2V69h18c1.4 0 2.4 0 2.9-.1v2.9c-.5 0-1.5-.1-2.9-.1H38.7c.5.8 1.1 1.5 1.8 2.3s1.5 1.5 2.4 2.1c1.1-.6 2.1-1.3 3.2-2.1s1.8-1.5 2.2-2l2.5 2.3-.5.3c-1.3 1-2.9 2.1-4.8 3.3 2.5 1.4 5.2 2.4 8 3-.3.5-.6 1-1 1.5-.3.6-.6 1-.7 1.3-3.8-.9-7.1-2.4-9.9-4.5-2.7-1.9-4.9-4.4-6.7-7.4zm51-2.2h-1.8c-.5 2.8-1.4 5.2-2.8 7.2 2.4 1.5 4.6 3 6.7 4.5L86.5 84c-1.9-1.5-4.2-3.1-6.9-4.9-.9.8-1.9 1.6-3.1 2.3-1.2.7-2.5 1.2-3.7 1.7-1.3.4-2.5.7-3.6 1-.1-.2-.2-.6-.4-1.2s-.5-1.2-.9-2c4-.6 7-1.8 9-3.5-1-.6-2-1.2-3-1.7-1-.6-1.9-1-2.6-1.3.7-1 1.5-2.6 2.4-4.7h-4.9V71l-2.9.9v6l.1 2.8c0 .3-.1.7-.2 1.1-.1.4-.4.7-.8 1-.4.3-.9.6-1.6.8-.7.2-1.6.3-2.7.3-.3-.8-.8-2.1-1.5-3.7.4.1 1.1.2 2 .2.4 0 .7 0 1-.1s.4-.3.4-.7V73c-1 .3-1.7.5-2.1.6l-1.5.5-.6-3.4 1.7-.4 2.4-.7v-6.2h-4v-3h4v-4.7c0-.5 0-.9-.1-1.4h1.7c.8 0 1.3.1 1.6.1 0 .5-.1.9-.1 1.3v4.7h2.9v3h-2.9v5.2c1-.3 1.8-.6 2.6-.8v-1.2c.4 0 1.2.1 2.2.1h4.1c.3-.8.6-1.7.8-2.6.2-.9.4-1.7.5-2.3l3.4.6v.6c-.3 1.2-.7 2.5-1.2 3.8h8.2c1 0 1.8 0 2.2-.1v3c-.4-.1-1.2-.1-2.2-.1zm-16.8-4.8c0-.3.1-.7.1-.9v-5.2c0-.3 0-.6-.1-.9h7.9c-.3-.8-.8-1.7-1.3-2.6l3.1-.6c.6 1 1.1 2.1 1.6 3.2h7.1v7h-3.2v-4.1h-12v4.1h-3.2zm9.5 10.4c.2-.3.5-.8.9-1.5s.7-1.4.9-2.2c.2-.8.4-1.4.5-1.9h-4.3c-.7 1.6-1.3 2.8-1.7 3.6 1.4.7 2.6 1.3 3.7 2zm20.7-14.1V82c0 .5 0 1.1.1 1.9h-3.4c0-.7.1-1.4.1-1.9 0-2 0-4.4.1-7.3.1-2.9.2-5.5.3-8-.4.8-.8 1.6-1.2 2.3-.4.7-.8 1.3-1.2 1.8-.3-.8-.8-2-1.5-3.6.6-.7 1.2-1.7 1.9-3.1.7-1.4 1.5-3.1 2.2-5 .7-2 1.2-3.6 1.5-5l3.1 1.1-.2.3c-.2.7-.4 1.5-.8 2.6s-.7 2.1-1 3zm9.6 1.9h-8.6v-2.8h10V63h-1.4zm.8 10.7v10.1h-2.8v-1.4h-3.1v1.4h-2.8c0-.4.1-.7.1-1v-8.1l-.1-1h8.7zm13.6-17.1-.1.2c-.4 1.2-.9 2.5-1.5 3.8-.6 1.3-1.2 2.4-1.8 3.3h3.1v2.7h-5.2c-.6.7-1.3 1.4-2.3 2.3h5.7v14.8h-2.8V82h-3.9v1.7h-2.9c0-.5.1-.9.1-1.2V71.8l-1.4.8c-.1-.2-.3-.5-.5-.9s-.4-.7-.6-1v1.2h-7.6v-2.7h7.6v.6c.3-.2.9-.5 1.9-1.1.9-.6 1.9-1.3 2.9-2.1h-3.6v-2.7h3.4v-3.4h-2.6v-2.7h2.6v-2.4c0-.3 0-.6-.1-1h1.6c.7 0 1.2.1 1.5.1 0 .3-.1.6-.1.9v2.4h2.3v2.4c.7-1.5 1.3-3.1 1.8-4.8l2.5 1.2zm-20.5 8.3h6.4v2.7h-7.6v-2.7h1.2zm4.5-6.5-2.6 1.1c-.2-.5-.5-1.2-.9-2s-.7-1.5-1.1-2.1l2.5-1.1 1.2 2.1c.4.8.7 1.5.9 2zm-3.5 21.5h3.1v-3.8h-3.1v3.8zm14.6-5.7v-2.6h-3.9v2.6h3.9zm-3.9 5.3h3.9v-2.7h-3.9v2.7zm3.3-19H117v3.3c.8-1.1 1.5-2.2 2.2-3.3h-1.1zm18.9 7.6v14.4c0 .7 0 1.2.1 1.4h-3.5c0-.3.1-.7.1-1.4v-3.7c0-1.9.1-4.3.2-7.1-1.2 1.2-2.3 2.2-3.6 3.1-.5-.9-1-1.8-1.7-2.8 1.5-1 3.1-2.4 4.7-4.2 1.6-1.9 2.9-3.9 4.1-6.2h-5.1c-1.5 0-2.4 0-3 .1v-3.3c.5 0 1.5.1 3 .1h6.6c.5-1.3 1-2.7 1.3-4.2l3.2.8-.2.3c-.3 1.2-.7 2.2-1 3.1h12.5c1.5 0 2.4 0 3-.1v3.3c-.5 0-1.5-.1-3-.1h-13.9c-1 2.2-2.3 4.4-3.8 6.5zm18.6 4.1c1 0 1.7 0 2.1-.1v3.1c-.4 0-1.1-.1-2.1-.1h-4.9c.2 1 .4 2.1.4 3.2 0 .7 0 1.3-.1 1.9-.1.6-.2 1.1-.4 1.5-.2.4-.5.8-.8 1.1-.3.3-.8.6-1.3.8s-1.3.3-2.1.3-1.5 0-2.2-.1c-.1-.4-.3-.9-.5-1.5-.2-.7-.5-1.2-.7-1.7.3.1.7.1 1.2.2s1 .1 1.4.1c.5 0 1-.1 1.3-.2.3-.1.6-.4.7-.8.2-.4.3-1 .3-2s-.1-1.9-.3-2.8h-6.3c-1 0-1.7 0-2.1.1v-3.1c.4 0 1.1.1 2.1.1h4.9l-1.2-1.5 2.6-.6c1.3-.9 2.4-1.7 3.3-2.5h-10.1v-3.1h12.7l.3-.3c.4.3.8.6 1.3 1s.9.7 1.3 1.1l-.6.3c-.8.8-1.8 1.8-3 2.8-1.2 1-2.3 1.9-3.2 2.6l.1.1h5.9zm36.1-14.5V82l.1 2.1h-3.5v-1.7h-19.7V84h-3.4c0-.8.1-1.5.1-2.1V57.7c0-.6 0-1.3-.1-2.1h26.5v2.1zm-23 22.1h19.7V58.1h-19.7v21.7zM185 65.3h1.8v2.2h-16.9v-2.2h7.1v-1.2h-5c0-.3.1-.6.1-.8v-3c0-.2 0-.4-.1-.7h13.1v4.5h-5.2v1.2h5.1zm.8 3.2v9.9h-14.5c0-.3.1-.7.1-1v-7.9c0-.3 0-.6-.1-1h14.5zm-12 8.1h9.4v-6.3h-9.4v6.3zm1-15.4v1.3h7.6v-1.3h-7.6zm7.1 10.8v3.5H175v-4.3h6.9v.8zm-4.8 2h2.8v-1.2h-2.8V74zm48.4-12.2c1.3 0 2.1 0 2.6-.1v3.5c-.5 0-1.3-.1-2.6-.1h-18.6v1.6c0 1 0 2-.1 3H220l-.1 1.1v12c0 .7 0 1.1.1 1.4h-3.7c0-.3.1-.7.1-1.4V73h-10c-.4 2.5-1 4.7-1.9 6.6-.9 1.9-1.9 3.4-3 4.5-.3-.4-.8-.8-1.4-1.3s-1.1-1-1.6-1.3c.9-.8 1.8-1.9 2.5-3.2s1.3-2.7 1.7-4.3c.4-1.6.6-3 .7-4.2s.1-2.3.1-3.1V55.9c0-.3 0-.6-.1-.9h1.8c.8 0 1.4.1 1.7.1 0 .3-.1.6-.1.8v5.9h7.8v-6.3c0-.3 0-.6-.1-.9h1.8c.8 0 1.4.1 1.7.1 0 .3-.1.6-.1.8v6.3h7.6z" style="fill:#ffbc0d"/></svg>