<!-- Generator: Adobe Illustrator 25.0.0, SVG Export Plug-In  -->
<svg version="1.1" xmlns="http://www.w3.org/2000/svg" xmlns:xlink="http://www.w3.org/1999/xlink" x="0px" y="0px" width="388.6px"
	 height="91.5px" viewBox="0 0 388.6 91.5" style="overflow:visible;enable-background:new 0 0 388.6 91.5;" xml:space="preserve">
<style type="text/css">
	.st0{fill:#E98C01;}
</style>
<defs>
</defs>
<g>
	<g>
		<path class="st0" d="M55.2,64.4h9.1c3.5,0,5.9,0,7.2-0.2v8.5c-1.3-0.1-3.7-0.1-7.2-0.1H12.2c-3.6,0-6,0-7.2,0.1v-8.5
			c1.2,0.1,3.6,0.2,7.2,0.2h8.2c-2-4.1-3.8-7.3-5.5-9.7c1-0.5,3.4-1.4,7.2-2.9c0.8,1.3,1.8,2.9,2.9,5.1c1.2,2.1,2.1,4,2.9,5.7
			l-4,1.7h9.6V50.4H15.1c-3.1,0-5.2,0.1-6.3,0.2v-8.2c1.2,0.1,3.3,0.2,6.3,0.2h18.4v-8h-8.9c-2.2,0-3.7,0-4.5,0.1V30
			c-3.9,2.6-7.9,4.8-11.8,6.4c-0.5-1-1.2-2.3-2.3-3.8c-1.1-1.5-2.1-2.8-2.9-3.8c2.9-1.1,5.9-2.5,9-4.2c3.1-1.7,6.1-3.7,9-5.9
			c2.9-2.2,5.5-4.5,7.8-6.9c2.3-2.4,4.2-4.9,5.6-7.3c3.1,0.6,6.1,1.2,9.1,1.7L42.9,7c2.7,4.2,7,8.4,12.8,12.6
			c5.9,4.2,11.7,7.2,17.5,9.2c-0.9,1.2-1.9,2.5-2.9,4.1c-1,1.6-1.7,2.8-2.1,3.7c-3.7-1.5-7.5-3.4-11.3-5.7v3.9
			c-0.9,0-2.4-0.1-4.5-0.1H42.1v8h18.8c3.1,0,5.2,0,6.4-0.2v8.2c-1.2-0.1-3.4-0.2-6.4-0.2H42.1v14.1h4.4c0.6-0.9,1.4-2.1,2.3-3.7
			c1-1.6,1.9-3.3,2.8-5.2c0.9-1.9,1.4-3.4,1.7-4.4l7.9,2.7L60.4,55C58.8,58.2,57.1,61.3,55.2,64.4z M24.4,26.9h0.2h26.9
			c-1.9-1.4-4-3.1-6.3-5.3c-2.3-2.2-4.7-4.8-7.1-7.7c-1.9,2.3-4,4.6-6.4,6.8C29.4,22.9,26.9,25,24.4,26.9z"/>
		<path class="st0" d="M107.7,40.7c-0.1,0.8-0.2,1.6-0.2,2.3v28.3c0,1.5,0,2.5,0.2,3.1h-7.6c0-0.6,0.1-1.6,0.1-3.1V47.8h-6.1
			c-0.2,2.9-0.5,6-1,9.3c-0.5,3.3-1.1,6.5-2.1,9.6c-0.9,3.1-2,5.6-3.2,7.5c-0.6-0.8-1.5-1.9-2.8-3.1s-2.4-2.4-3.4-3.2
			c1.3-2.2,2.4-4.7,3.1-7.6c0.8-2.8,1.3-6,1.7-9.5c0.3-3.5,0.5-7.5,0.5-12v-27c0-0.8-0.1-1.5-0.2-2.3c0.9,0,2.2,0,4,0.1
			c1.8,0.1,3,0.1,3.8,0.2c-0.1,0.7-0.2,1.4-0.2,2.1v13.4h5.2V9.1c0-0.7-0.1-1.4-0.2-2.2c0.9,0,2.1,0,3.9,0.1
			c1.7,0.1,2.9,0.1,3.6,0.2c-0.1,0.7-0.2,1.4-0.2,2v15.9h0.5l3.2-0.1v7.4l-3.2-0.1H94.4v6.6v1.8H107.7z M147.3,52.5
			c2.4,0,4.1,0,5.1-0.1v7.9c-1-0.1-2.7-0.2-5.1-0.2h-5.8v11.2c0,0.9,0,1.9,0.2,3h-8.2c0.1-1.1,0.2-2.1,0.2-3V60.1h-19.1
			c-2.4,0-4.1,0.1-5.1,0.2v-7.9c1,0.1,2.7,0.1,5.1,0.1h0.6c-1.1-1.5-2.6-3.3-4.8-5.5c3.5-0.9,6.3-1.9,8.4-3c2.1-1.1,3.7-2.6,4.9-4.4
			H112c0.1-1,0.2-1.9,0.2-2.7V15.6c0-0.8-0.1-1.6-0.2-2.6h12.2c0.8-1.3,1.5-2.6,2.2-4c0.7-1.4,1.1-2.6,1.3-3.5l9.3,1.3L136.2,8
			c-1.4,2.5-2.3,4.1-2.9,5h16.2l-0.1,2.6v21.2l0.1,2.7h-17.5c-1.2,3-2.8,5.6-5,7.6c-2.2,2-5,3.8-8.5,5.3h15v-7.9l-0.1-2.6
			c0.9,0,2.3,0,4.2,0.1c1.9,0.1,3.2,0.1,3.9,0.2l-0.1,2.3v7.9H147.3z M127.2,19H120v4.5h7.2L127.2,19z M120,33.6h6
			c0.3-1.1,0.5-2.6,0.8-4.7H120V33.6z M133.7,33.6h8v-4.7h-7.4c-0.1,0.6-0.1,1.4-0.3,2.3C133.9,32.2,133.8,33,133.7,33.6z
			 M141.7,23.4V19h-6.9c0,1.1-0.1,2.5-0.2,4.5H141.7z"/>
		<path class="st0" d="M309.5,66.2c-2.4,3.6-4,6.1-4.6,7.5c-2.6-0.6-5.5-1.5-8.8-2.7c-3.3-1.2-6.6-2.8-10-4.8
			c-3.4-2-6.2-4.1-8.6-6.3c0.2,4.5,0.2,8.7,0.2,12.5c0,1.2,0,2,0.2,2.5h-8.3c0.1-0.5,0.2-1.3,0.2-2.5c0-3.5,0.1-7.6,0.2-12.2
			c-2.4,2.1-5.3,4.1-8.7,6.1c-3.4,1.9-6.7,3.5-9.9,4.7c-3.2,1.2-6.1,2.1-8.6,2.8c-0.3-0.6-0.9-1.6-1.7-2.9c-0.8-1.4-1.7-2.8-2.8-4.4
			c4.7-0.9,9.3-2.1,13.8-3.7c4.5-1.6,8.3-3.5,11.2-5.6h-16.5c-3.3,0-5.6,0.1-6.9,0.2v-7c1.3,0.1,3.6,0.2,6.9,0.2h23v-4h-16.3
			c-2.6,0-4.5,0.1-5.5,0.2V40c1.1,0.1,2.9,0.2,5.5,0.2h16.3v-3.5h-19c-2.9,0-4.9,0.1-6,0.2v-6.8c1.1,0.1,3.1,0.2,6,0.2h8.7
			c-1.3-2.3-2.4-4.2-3.3-5.5l4.8-1.5h-13.2c-3.2,0-5.4,0.1-6.6,0.2v-7c1.2,0.1,3.4,0.2,6.6,0.2h4c-1.7-2.5-3.5-4.9-5.2-7.1l7.6-2.3
			c0.6,0.8,1.4,2,2.5,3.6c1.1,1.7,2.4,3.6,3.7,5.7h3V7.9l-0.2-2c0.9,0,2.3,0,4,0.1c1.8,0.1,3.1,0.1,3.8,0.2
			c-0.1,0.6-0.2,1.2-0.2,1.7v8.5h6.2V7.9l-0.2-2c0.9,0,2.3,0,4,0.1c1.8,0.1,3.1,0.1,3.8,0.2c-0.1,0.6-0.2,1.2-0.2,1.7v8.5h3.4
			c1.1-1.4,2.3-3,3.5-4.9c1.2-1.9,2-3.4,2.5-4.7l7.4,2.9l-0.7,0.9c-1,1.8-2.3,3.7-4,5.7h3.5c3.2,0,5.4,0,6.6-0.2v7
			c-1.3-0.1-3.5-0.2-6.6-0.2h-13.3l4.8,1.6l-0.6,1c-0.8,1.6-1.6,3-2.4,4.5h8.8c2.9,0,4.9,0,6-0.2v6.8c-1.2-0.1-3.2-0.2-6-0.2h-19.9
			v3.5h17.1c2.6,0,4.5,0,5.5-0.2v6.4c-1.1-0.1-2.9-0.2-5.5-0.2h-17.1v4h23.5c3.3,0,5.6,0,6.9-0.2v7c-1.3-0.1-3.6-0.2-6.9-0.2h-17.3
			c1.4,1,3.4,2,5.9,3.2c2.5,1.2,5.6,2.4,9.2,3.4C302.4,64.8,306,65.6,309.5,66.2z M264.4,23.2c0.8,1.3,1.9,3.7,3.6,7h12.2
			c1.6-2.8,2.7-5.2,3.4-7H264.4z"/>
		<path class="st0" d="M352.4,44c-0.3-0.7-0.8-1.9-1.7-3.6c-0.4,1-1.1,2.5-2,4.5c-1,2-1.9,3.8-2.7,5.2c-0.9,1.4-1.5,2.4-2,3.1
			c-0.2-0.3-0.6-0.8-1.3-1.4c-0.7-0.6-1.4-1.2-2.1-1.7v11.3l0.2,6.1c0,2.4-1.1,4.3-3.4,5.7c-2.3,1.4-5.8,2-10.6,2
			c-0.4-1-1.6-3.8-3.8-8.4c2,0.3,3.9,0.5,5.6,0.5c1.5,0,2.5-0.2,3.1-0.5c0.6-0.4,0.9-0.9,0.9-1.7v-3.7v-7.8c0-1.3,0.2-3.7,0.5-7
			c-1.4,3.5-2.9,6.8-4.6,9.9c-1.7,3.1-3.4,5.6-5,7.5c-0.3-0.6-1-1.4-2-2.5c-1-1.1-2.2-2.4-3.7-3.7c2-2,4-4.7,6.2-8.2
			c2.1-3.5,3.9-7,5.3-10.6h-6l-3.9,0.1v-7.4l3.9,0.1h15c-1.1-0.8-2.9-2-5.5-3.5c-2.5-1.5-5.7-3.2-9.5-4.9l4.2-5.5c2.6,1,5,2,7.4,3.2
			c0.6-0.7,1.4-1.5,2.3-2.7c0.9-1.1,1.6-2,2.2-2.7h-14.9c-1.6,0-2.8,0-3.6,0.1V8.4c0.8,0.1,1.9,0.1,3.6,0.1h19.8l0.7-0.7
			c2.5,1.8,4.6,3.5,6.2,5.1l-1.2,0.5c-1.1,1.8-2.5,3.7-4.1,5.9c-1.6,2.1-3.1,4-4.5,5.5c1.6,0.9,3,1.8,4.2,2.7l-3.1,4.3h4.6l0.7-0.8
			c0.7,0.5,1.6,1.2,2.6,2.1s2,1.7,2.8,2.5l-0.8,0.4l-0.2,0.5c2.1-0.5,4.2-1,6.2-1.7c2-0.7,3.7-1.4,5.3-2.3c-1.1-1.2-2.2-2.4-3.1-3.7
			c-1-1.3-1.8-2.7-2.5-4.2c-1.5,1.8-2.8,3.1-4,4c-0.5-0.7-1.3-1.5-2.5-2.7c-1.1-1.1-2.2-2.1-3.1-2.9c1.1-0.8,2.2-1.7,3.3-3
			c1.2-1.2,2.3-2.6,3.3-4.2c1-1.5,2-3.2,2.8-4.9c0.8-1.7,1.5-3.4,1.9-5.1l7.6,1.5l-0.4,0.8c-0.7,2-1.3,3.5-1.7,4.5h18.4l3.7-0.1v7.1
			l-3.7-0.1h-1.4c-0.7,2.5-1.7,4.8-2.9,7c-1.2,2.1-2.6,4-4,5.7c1.8,0.9,3.7,1.7,5.9,2.2c2.2,0.6,4.7,1.1,7.6,1.5c-2,5-3,7.7-3.1,7.9
			c-6.6-1.6-11.9-3.8-16-6.5c-2.2,1.5-4.8,2.8-7.7,3.9S355.6,43.3,352.4,44z M340.4,46.4c0.7-1.1,1.4-2.3,2.2-3.6
			c0.8-1.3,1.4-2.6,1.9-3.8h-4.1V46.4z M385.9,47.7c-0.1,0.9-0.2,1.7-0.2,2.3c-0.1,5.8-0.2,10.1-0.5,12.7c-0.3,2.6-0.7,4.6-1.3,6.1
			c-0.6,1.2-1.4,2.3-2.5,3.1c-1.1,0.9-2.7,1.6-4.6,2.2c-2,0.6-4.5,0.8-7.6,0.8c-0.1-0.4-0.3-0.9-0.5-1.7c-0.3-0.8-0.7-2-1.2-3.7
			c-0.6-1.7-0.9-2.7-1.1-3.2c1.4,0.5,2.9,0.7,4.6,0.7c1.6,0,2.8-0.2,3.8-0.6c1-0.4,1.7-1.1,2.1-1.9c0.6-1.5,1-4.6,1.1-9.4h-8.7
			c-1.5,4.7-4,8.8-7.4,12.2c-3.4,3.4-7.6,6-12.7,7.9l-5.3-6.5c4.4-1.5,8-3.3,10.8-5.6c2.8-2.3,4.9-4.9,6.3-8h-7.1l-4.2,0.1v-7.3
			l4.2,0.1h9.1c0.2-1.3,0.3-2.7,0.3-4.5l-0.1-2.3l8,0.4L371,43c0,1.7-0.1,3.2-0.2,4.8H385.9z M369,28.1c0.9-0.9,1.7-2,2.6-3.3
			c0.9-1.4,1.7-3.1,2.4-5.3h-10.7c0.7,1.7,1.5,3.3,2.4,4.7C366.6,25.6,367.7,26.9,369,28.1z"/>
	</g>
	<g>
		<g>
			
				<rect x="161.5" y="50.7" transform="matrix(0.6352 -0.7723 0.7723 0.6352 21.1031 146.8145)" class="st0" width="9" height="0.7"/>
		</g>
		<g>
			<g>
				<path class="st0" d="M200.5,64.9v-5.2l21.4,0.1v-7L200.5,53v-4.7l24.6,0.1v-7.2c-1,0.1-24.6,0.1-24.6,0.1v-2.6H192v2.6h-7.3
					l-1.6,2l-4,4.9h13V53l-16.8-0.1l-5.7,6.9l22.4-0.1v5.2l-29.2-0.1v7.8h66.3v-7.8L200.5,64.9L200.5,64.9z"/>
			</g>
			<g>
				<path class="st0" d="M205.7,14.8h7.7v13.6h-18l-5.3,6.4h10.3h17.2h4.1V8.3h-7.2l-8.7,6.3C205.8,14.7,205.7,14.7,205.7,14.8z"/>
			</g>
			<g>
				<path class="st0" d="M168.6,43.2l5.1,4.2l-5.5,6.7l0.5,0.4l16.6-20.2l8.8-10.7l0,0l1.1-1.3l-11.7,8.5c-0.8,0.5-1.8-0.2-1.5-1.1
					l2.2-6.6l-4.3,5.2h-1.2V14.8h7.7c0-0.1-0.1-0.1-0.2-0.1l-8.7-6.3h-7.2v26.5h4.3l-5.1,6.2l0,0l-4.7,5.8l0.5,0.4L168.6,43.2z"/>
			</g>
			<g>
				<polygon class="st0" points="189,21.8 196,16.6 198.5,18.4 203.1,21.8 201,15.3 200.4,13.5 207.5,8.3 198.7,8.3 198.7,8.3 
					196,0 193.4,8.3 193.4,8.3 184.6,8.3 191.7,13.5 				"/>
			</g>
		</g>
	</g>
</g>
<g>
	<path class="st0" d="M0.4,85.4c1.9,0,3.7,0,5.6,0.1c13.4,0.1,26.8,0.4,40.3,0.3c16.5-0.1,32.9-0.8,49.4-0.7
		c44.3,0.3,88.6,1,132.9,1.5c3,0,6.1-0.1,9.1,0.1c1.4,0.1,2.7,0.9,4.1,1.4c-0.1,0.4-0.1,0.7-0.2,1.1c-2.2,0.4-4.4,1-6.7,1
		c-22.1,0.5-44.3,1.2-66.4,1.2c-36.2-0.1-72.4-0.7-108.7-1.1c-15.1-0.2-30.3-0.2-45.4-0.6c-4-0.1-8-1.1-11.9-1.8
		C1.6,87.8,0.8,87,0,86.6C0.1,86.2,0.3,85.8,0.4,85.4z"/>
	<path class="st0" d="M328,88.8c-4.1,0.3-7.5,0.7-11,0.8c-15.2,0.1-30.4,0.1-45.6,0c-3.6,0-7.2-0.6-10.8-1.1
		c-1.5-0.2-3.2-0.5-3.4-3.2c2-0.2,4-0.5,6-0.4c19.3,0.3,38.6,0.6,58,1C323.5,85.9,326,85.9,328,88.8z"/>
	<path class="st0" d="M361,87.9c-1.9,0.4-3.2,0.8-4.4,0.8c-4.8,0.1-9.5,0.2-14.3,0c-1,0-2-1.1-3-1.7c1-0.6,2-1.7,2.9-1.7
		c5.6,0.2,11.3,0.7,16.9,1.2C359.6,86.5,359.9,87.1,361,87.9z"/>
	<path class="st0" d="M387.7,88.5c-5.3-0.1-10.6-0.1-15.9-0.2c-0.6,0-1.2-0.1-1.7-0.4c-0.8-0.5-1.4-1.2-2.1-1.7
		c0.8-0.5,1.5-1.2,2.3-1.3c1.4-0.2,2.9-0.1,4.4,0c3.2,0.3,6.5,0.8,9.7,1.3c1.1,0.2,2.2,0.8,3.3,1.2
		C387.8,87.8,387.7,88.2,387.7,88.5z"/>
</g>
</svg>
