<svg xmlns="http://www.w3.org/2000/svg" width="217.5" height="203.3" style="overflow:visible;enable-background:new 0 0 217.5 203.3" xml:space="preserve"><style>.st2{fill:none;stroke:#fff;stroke-width:.9111;stroke-linecap:round;stroke-linejoin:round;stroke-miterlimit:10}</style><path d="M180.5 40c-1.9.4-3.6.7-5 .8-9.7 1.1-19.3 2.5-28.9 4.1-9.2 1.6-16.1 1.3-23.7-4.9-14.7-12.1-25.5-27-41.7-37.7-13.4-8.8-14.9 9.3-16.7 17.9-3 13.8-5.8 22.2-8.8 36-.6 2.7-1.2 5.5-2.9 7.6-1.6 2-3.9 3.2-6.2 4.4-17.4 9-24.8 12.8-41.3 23.4-1.6 1-3.2 2.1-4.2 3.8-1.6 2.6-1.3 6 .3 8.6 4.9 8 17.7 11.8 25.7 14.7 11.1 4.1 31.2 15.9 32.7 18.1 1.3 1.9 1.5 4.3 1.6 6.6.8 14.3.1 29.5 3.8 43.4 5.1 19.2 18.1 21.6 31.9 6.9 10.5-11.3 20.9-22.7 30.7-34.6 4-4.8 8.1-6.1 13.9-5.2 22.2 3.5 43.8 6.8 66.4 4.4 2.7-.3 5.5-.7 7.4-2.6 2-2 2.4-5.3 1.6-8.1-.8-2.8-2.5-5.2-4.2-7.5-9.5-13.1-20-25.8-28.7-39.4-5.2-5.2-5.2-10-1.4-15.6 5.1-7.4 8.3-10.9 12.8-18.6 3.5-6 16.5-22.8 6.7-27.8-4.4-2.2-14.6 0-21.8 1.3z" style="fill:#ffbc0d"/><path d="M53.4 123.9c1.4-4.3 3-8.3 5-12s4.4-7.3 7.2-10.9c2.8-3.5 6.2-7.2 10-10.9h-20l.9-4.2h25.2l-.9 4.4c-5.7 5.5-10.2 11-13.7 16.4-3.5 5.4-6.2 11.2-8.1 17.2h-5.6zm31.2 0c1.4-4.3 3-8.3 5-12s4.4-7.3 7.2-10.9c2.8-3.5 6.2-7.2 10-10.9h-20l.9-4.2h25.2l-.9 4.4c-5.7 5.5-10.2 11-13.7 16.4-3.5 5.4-6.2 11.2-8.1 17.2h-5.6zm31.1 0c1.4-4.3 3-8.3 5-12s4.4-7.3 7.2-10.9c2.8-3.5 6.2-7.2 10-10.9h-20l.9-4.2H144l-.9 4.4c-5.7 5.5-10.2 11-13.7 16.4-3.5 5.4-6.2 11.2-8.1 17.2h-5.6zm31.7-7.7c-1.4 0-2.4-.4-3.1-1.3-.7-.9-1.1-2.1-1.1-3.8 0-1.1.2-2.1.5-3.2s.7-2 1.3-2.9c.6-.9 1.3-1.6 2.1-2.1s1.8-.8 2.8-.8c1.4 0 2.4.4 3.1 1.3.7.9 1.1 2.1 1.1 3.8 0 1.1-.2 2.1-.5 3.2s-.7 2-1.3 2.9c-.6.9-1.3 1.6-2.1 2.1s-1.7.8-2.8.8zm.2-1.8c.6 0 1.1-.2 1.6-.7.5-.5.9-1.1 1.3-1.9.4-.8.6-1.6.8-2.5.2-.9.3-1.7.3-2.4 0-2-.6-3-1.9-3-.6 0-1.1.2-1.6.7-.5.5-.9 1.1-1.3 1.9s-.6 1.6-.8 2.5c-.2.9-.3 1.7-.3 2.4.1 2 .7 3 1.9 3zm-.4 10.6 15.8-22.5h2.9L150.2 125h-3zm16.1.3c-1.4 0-2.4-.4-3.1-1.3-.7-.9-1.1-2.1-1.1-3.8 0-1.1.2-2.1.5-3.2s.7-2 1.3-2.9c.6-.9 1.3-1.6 2.1-2.1s1.8-.8 2.8-.8c1.4 0 2.4.4 3.1 1.3.7.9 1.1 2.1 1.1 3.8 0 1.1-.2 2.1-.5 3.2s-.7 2-1.3 2.9c-.6.9-1.3 1.6-2.1 2.1-.8.6-1.8.8-2.8.8zm.2-1.7c.6 0 1.1-.2 1.6-.7.5-.5.9-1.1 1.3-1.9.4-.8.6-1.6.8-2.5.2-.9.3-1.7.3-2.4 0-2-.6-3-1.9-3-.6 0-1.1.2-1.6.7-.5.5-.9 1.1-1.3 1.9s-.6 1.6-.8 2.5c-.2.9-.3 1.7-.3 2.4 0 2 .6 3 1.9 3zM80.4 63.9c.1 1.1.4 2.1.8 3 .4 1 1 1.8 1.8 2.6.8.7 1.6 1.3 2.5 1.7-.1.1-.3.4-.5.6s-.4.5-.6.7c-.2.2-.3.4-.3.5-1.3-.6-2.4-1.5-3.3-2.8-.9-1.3-1.5-2.7-1.9-4.4-.3.6-.7 1.3-1.1 1.9-.4.6-.9 1.3-1.6 1.9-.6.6-1.4 1.3-2.2 1.8-.9.6-1.8 1.1-2.8 1.5-.4-.9-.6-1.4-.7-1.5-.1-.1-.1-.2-.2-.4.7-.3 1.4-.6 2-.9s1.2-.7 1.7-1.2c.5-.4 1-.9 1.4-1.3.4-.5.8-1 1.2-1.6.4-.6.7-1.3 1-2.1H72l.3-2h5.9c.1-.6.3-1.2.4-1.8.2-.9.3-1.6.3-2l2.1.1s-.1.2-.1.6c-.1.3-.1.6-.2.8-.2.9-.3 1.7-.5 2.3h6.3l-.3 2h-5.8zm9.2 5.3-.3 1.8h-1.6c.1-.3.1-.6.2-.8l1.7-9.4c.1-.4.1-.7.1-.8H94l-.2.7-1.4 7.8-.1.7h-2.7zm.3-1.6H91l1.1-6.2H91l-1.1 6.2zm9-6.1-.1.5c-.5 2.9-.9 5-1.2 6.4-.3 1.4-.6 2.4-.8 2.9-.2.5-.6 1-1 1.2-.4.3-1 .4-1.7.4 0-.3-.1-.9-.2-1.9.1 0 .2.1.3.1h.3c.2 0 .5-.1.6-.2.2-.1.3-.4.4-.7.2-.4.4-1.1.6-2.2.2-1.1.5-2.7.9-5h-.9c-.4 1.8-.8 3.3-1.1 4.5-.4 1.2-.8 2.2-1.3 3.1-.5.9-1 1.7-1.7 2.4l-.6-.6c-.2-.2-.5-.4-.6-.6.4-.4.8-.9 1.1-1.3.3-.4.6-1 .9-1.5.3-.6.5-1.3.8-2.3.3-1 .6-2.2.9-3.8h-1l.3-1.7h1l.4-2.1c.1-.3.1-.6.1-1l1.6.1.1.6c-.1.7-.3 1.5-.5 2.6h2.4zm5-1-2 11.6-.1 1h-1.6l.2-1h-1.2l-.2 1h-1.6c.1-.4.2-.7.2-1l2-11.6c.1-.5.1-.8.1-1h4.3c.1.3 0 .6-.1 1zm-4.4 9.9h1.2l1.6-9.1h-1.2l-1.6 9.1zm10.7-9.1h1.6l-.3 1.7H110l-.4 2.4c.9-.3 1.5-.4 1.6-.5-.1.8-.2 1.4-.3 1.8l-1.7.5-.5 2.8-.2 1.5c0 .2-.1.5-.3.7l-.6.6c-.2.2-.6.3-1 .4-.4.1-.8.1-1.2.1 0-.2-.2-.9-.5-2 .4.1.7.1 1 .1.3 0 .5 0 .6-.1.1-.1.2-.2.2-.3l.1-.8.4-2.3c-.3.1-.7.2-1.1.3l-.8.3v-1.9l.9-.2 1.3-.3.5-3h-2.1l.3-1.7h2.1l.4-2.3c0-.2.1-.5.1-.7h1c.4 0 .7 0 .9.1-.1.2-.1.5-.1.7l-.4 2.1zm9.6 4.4-.1.7-1.1 6.1-.1.7h-1.8l.1-.8h-4.2l-.1.8h-1.8c.1-.2.1-.5.2-.7l1.1-6.1c0-.2.1-.4.1-.7h7.7zm-6.9-1.3c-.2-.1-.3-.4-.3-.6 0-.3 0-.7.1-1.2l.7-3.9v-.4l1.8.1c0 .1-.1.2-.1.3l-.3 1.6c.9-.2 1.9-.4 3-.7 1.1-.3 1.8-.5 2.1-.7l.9 1.5-.3.1c-.7.2-1.6.5-2.9.8-1.2.3-2.3.5-3.1.7l-.1.7c0 .2.1.4.3.5.1 0 .2 0 .4.1h1.5c.5 0 .9 0 1.2-.1.3-.1.6-.1.8-.3.2-.2.4-.4.5-.7l.3-.9c.2.1.5.3.8.5.3.2.6.3.8.4-.2.8-.5 1.3-.9 1.7-.4.4-.9.6-1.5.7-.6.1-1.5.2-2.5.2s-1.8 0-2.3-.1c-.4 0-.8-.1-.9-.3zm0 6.5h4.2l.2-1.2h-4.2l-.2 1.2zm4.8-3.6h-4.2l-.2 1.1h4.2l.2-1.1zm17 1.9c.4.9 1.1 1.6 2.1 2.3-.1.1-.2.4-.5.9-.2.4-.4.7-.5.9-.5-.3-.9-.7-1.3-1.1-.4-.4-.7-.9-1-1.5-.8 1-1.9 1.8-3.2 2.6 0-.3-.2-.7-.4-1.4-.2.3-.6.7-1 1.3-.4-.2-.8-.5-1.3-.7-.5-.2-.9-.5-1.3-.6-1.2.7-2.8 1.1-4.7 1.3 0-.2-.1-.4-.1-.7-.1-.3-.1-.6-.2-.8 1.3-.1 2.4-.3 3.3-.6-.8-.3-1.4-.6-1.9-.7.3-.3.7-.7 1.1-1.2H122l.2-1.4h2.9l.4-.7h-2.6c0-.1.1-.3.1-.4l.3-1.7v-.4h2.9l.1-.8h-2.8c.1-.2.1-.4.1-.5l.2-1.2h-.6l.3-1.5h.6l.2-1.1c0-.1 0-.3.1-.5h2.8l.1-.5v-.4h1.9l-.1.3-.1.6h2.8l-.1.5-.2 1.1h.7l-.3 1.5h-.7l-.2 1.2-.1.5h-2.8l-.1.8h3c0 .1-.1.2-.1.4l-.3 1.7-.1.4h-3.3l-.4.7h4.4l-.2 1.4h-2c-.3.7-.7 1.2-1.2 1.7l2.1.9-.1-.2c.6-.3 1.1-.6 1.6-1s.9-.8 1.4-1.3c-.4-1.2-.5-2.7-.4-4.5-.3.3-.5.7-.8 1 0-.1-.1-.4-.2-.7-.1-.3-.2-.7-.4-1 .5-.5 1.1-1.3 1.7-2.4.6-1.1 1.1-2.2 1.4-3.2l1.5.3-.1.2c-.3.8-.6 1.5-.9 2.2h3.8l-.3 1.7h-.8c-.3 1.4-.7 2.5-1.1 3.6-.5.8-1 1.8-1.5 2.7zm-10-3.7-.1.6h1.5l.1-.6h-1.5zm.5 4.3c.2.1.6.2 1.3.4l.4-.4c.2-.2.4-.4.6-.8h-1.8c-.1.3-.3.5-.5.8zm.2-7.8-.1.6h1.4l.1-.6h-1.4zm1.7-1.8h-1.4l-.1.6h1.4l.1-.6zm2.1 5.9.1-.6h-1.5l-.1.6h1.5zm-1-3.5h1.4l.1-.6h-1.4l-.1.6zm1.8-1.8.1-.6h-1.4l-.1.6h1.4zm4 6.6c.4-.6.7-1.3 1-2s.5-1.6.8-2.6H134c-.3 1.8-.2 3.4 0 4.6z" style="fill:#fff"/><path class="st2" d="m151.9 62.3 4.8 4.4-4.8 4.4"/><path class="st2" d="m147.4 62.3 4.8 4.4-4.8 4.4"/><path class="st2" d="m143 62.3 4.8 4.4-4.8 4.4"/></svg>